<svg width="20" height="18" viewBox="0 0 20 18" fill="none" xmlns="http://www.w3.org/2000/svg">
<path d="M8.13411 10.7751C7.65495 10.3446 7.36328 9.7596 7.36328 9.10335C7.36328 7.7886 8.53995 6.72885 9.99995 6.72885C10.7224 6.72885 11.3874 6.9921 11.8583 7.4226" stroke="#ADA4A5" stroke-width="1.2" stroke-linecap="round" stroke-linejoin="round"/>
<path d="M12.5873 9.52417C12.394 10.4917 11.5473 11.2552 10.4731 11.4307" stroke="#ADA4A5" stroke-width="1.2" stroke-linecap="round" stroke-linejoin="round"/>
<path d="M5.54567 13.1042C4.22317 12.1697 3.10317 10.8047 2.2915 9.10298C3.1115 7.39373 4.239 6.02123 5.56984 5.07923C6.89234 4.13723 8.41817 3.62573 9.99984 3.62573C11.5907 3.62573 13.1157 4.14473 14.4465 5.09348" stroke="#ADA4A5" stroke-width="1.2" stroke-linecap="round" stroke-linejoin="round"/>
<path d="M16.2063 6.7431C16.7796 7.4286 17.2838 8.21985 17.708 9.1026C16.0688 12.5204 13.1721 14.5791 9.99965 14.5791C9.28048 14.5791 8.57132 14.4741 7.88965 14.2694" stroke="#ADA4A5" stroke-width="1.2" stroke-linecap="round" stroke-linejoin="round"/>
<path d="M16.5727 3.18719L3.42773 15.0177" stroke="#ADA4A5" stroke-width="1.2" stroke-linecap="round" stroke-linejoin="round"/>
</svg>
