<svg width="375" height="228" viewBox="0 0 375 228" fill="none" xmlns="http://www.w3.org/2000/svg">
<g opacity="0.7">
<g opacity="0.3">
<path d="M484.25 -125.32C489.25 -77.3197 490.25 56.6803 438.25 80.6803C411.25 92.6802 401.25 55.6802 386.25 39.6802C357.25 10.6802 334.25 49.6802 306.25 59.6802C264.25 74.6802 264.25 36.6802 232.25 22.6802C194.25 6.68023 192.25 52.6802 177.25 73.6802C169.25 84.6802 157.25 95.6802 142.25 94.6802C123.25 92.6802 118.25 74.6802 110.25 60.6802C102.25 45.6802 92.2498 29.6802 73.2498 38.6802C60.2498 45.6802 57.2498 60.6802 49.2498 71.6802C40.2498 82.6802 22.2498 95.6802 7.24982 87.6802C-7.75018 79.6802 -4.75018 56.6802 -16.7502 46.6802C-39.7502 26.6802 -61.7502 86.6802 -81.7502 46.6802C-92.7502 23.6802 -90.7502 -20.3198 -91.7502 -46.3198C-91.7502 -62.3198 -89.7502 -78.3198 -90.7502 -93.3198C-91.7502 -111.32 -92.7502 -112.32 -73.7502 -117.32C-20.7502 -131.32 35.2498 -123.32 90.2498 -123.32C151.25 -123.32 213.25 -124.32 275.25 -124.32C345.25 -124.32 414.25 -126.32 484.25 -125.32Z" fill="#42CF4C"/>
</g>
<g opacity="0.3">
<path d="M483.25 -214.32C488.25 -166.32 489.25 -32.3197 437.25 -8.31975C410.25 3.68025 400.25 -33.3198 385.25 -49.3198C356.25 -78.3198 333.25 -39.3198 305.25 -29.3198C263.25 -14.3198 263.25 -52.3198 231.25 -66.3198C193.25 -82.3198 191.25 -36.3198 176.25 -15.3198C168.25 -4.31977 156.25 6.68023 141.25 5.68023C122.25 3.68022 117.25 -14.3198 109.25 -28.3198C101.25 -43.3198 91.2498 -59.3198 72.2498 -50.3198C59.2498 -43.3198 56.2498 -28.3198 48.2498 -17.3198C39.2498 -6.31978 21.2498 6.68022 6.24982 -1.31979C-8.75018 -9.31979 -5.75018 -32.3198 -17.7502 -42.3198C-40.7502 -62.3198 -62.7502 -2.31979 -82.7502 -42.3198C-93.7502 -65.3198 -91.7502 -109.32 -92.7502 -135.32C-92.7502 -151.32 -90.7502 -167.32 -91.7502 -182.32C-92.7502 -200.32 -93.7502 -201.32 -74.7502 -206.32C-21.7502 -220.32 34.2498 -212.32 89.2498 -212.32C150.25 -212.32 212.25 -213.32 274.25 -213.32C344.25 -213.32 413.25 -215.32 483.25 -214.32Z" fill="#42CF4C"/>
</g>
<path d="M203.25 43.6802C181.159 43.6802 163.25 61.5888 163.25 83.6802C163.25 105.772 181.159 123.68 203.25 123.68C225.341 123.68 243.25 105.772 243.25 83.6802C243.25 61.5888 225.341 43.6802 203.25 43.6802Z" fill="#42CF4C"/>
<path d="M-18.5 80.1802C-31.4787 80.1802 -42 90.7015 -42 103.68C-42 116.659 -31.4787 127.18 -18.5 127.18C-5.52131 127.18 5 116.659 5 103.68C5 90.7015 -5.5213 80.1802 -18.5 80.1802Z" fill="#42CF4C"/>
<path d="M29.25 -55.3198C8.26319 -55.3198 -8.74999 -38.3067 -8.75 -17.3198C-8.75 3.66699 8.26318 20.6802 29.25 20.6802C50.2368 20.6802 67.25 3.667 67.25 -17.3198C67.25 -38.3066 50.2368 -55.3198 29.25 -55.3198Z" fill="#42CF4C"/>
<path d="M137.5 146.18C132.806 146.18 129 149.986 129 154.68C129 159.375 132.806 163.18 137.5 163.18C142.194 163.18 146 159.375 146 154.68C146 149.986 142.194 146.18 137.5 146.18Z" fill="#42CF4C"/>
<path d="M314 146.93C310.824 146.93 308.25 149.505 308.25 152.68C308.25 155.856 310.824 158.43 314 158.43C317.176 158.43 319.75 155.856 319.75 152.68C319.75 149.505 317.176 146.93 314 146.93Z" fill="#42CF4C"/>
</g>
<path d="M96.0597 44.9401C105.58 46.1301 114.47 44.5701 122.06 38.4901C130.51 31.7301 136.24 20.3501 138.57 10.0101C141.68 -3.80986 138.25 -18.3099 138.12 -32.2499C137.98 -47.1099 144.41 -59.9499 150.3 -73.2499C154.65 -83.0499 159.17 -94.1599 157.3 -105.07C155.9 -113.37 149.44 -119.42 142.37 -123.29C126.63 -131.93 105.56 -132.88 89.0297 -126.22C74.9297 -120.55 67.1097 -108.22 70.2697 -93.0699C71.9997 -84.7799 76.8997 -77.4099 80.9997 -70.1999C86.2897 -60.8899 89.8497 -51.6399 88.3497 -40.7799C87.0797 -31.6199 81.7297 -22.6999 78.6197 -14.0799C75.3768 -5.17388 73.6857 4.22236 73.6197 13.7001C73.5397 28.7901 80.1097 42.0101 95.8997 44.9201C96.6897 45.0601 97.0197 43.8601 96.2297 43.7101C69.9697 38.8801 72.8597 7.18011 79.2297 -12.1299C82.7697 -22.7499 89.1497 -32.9799 89.9197 -44.3199C90.6497 -54.9699 85.9197 -64.1799 80.7197 -73.1399C74.7997 -83.4499 68.4997 -94.5699 71.4997 -106.87C74.2097 -117.78 84.9997 -124 94.9997 -126.93C105 -129.86 115.31 -129.69 125.43 -127.73C135.55 -125.77 146.02 -121.79 152.35 -113.43C161.81 -100.91 153.45 -83.2199 147.92 -70.9099C144.84 -64.0599 141.68 -57.2799 139.43 -50.1099C137.05 -42.5299 136.69 -34.7899 137.02 -26.9099C137.38 -18.0999 138.61 -9.37986 138.48 -0.54986C138.34 9.15014 135.48 17.8301 130.61 26.1401C122.94 39.2201 111.19 45.5801 96.0497 43.6901C95.2497 43.5901 95.2597 44.8401 96.0497 44.9401L96.0597 44.9401Z" fill="#18593F"/>
<path d="M109.33 44.18C109.94 48.6 111.84 52.76 112.84 57.11C113.71 60.86 103.01 60.11 101.23 60.25C99.1264 60.4549 97.0133 60.5451 94.9 60.52C94.0866 60.44 93.2766 60.39 92.47 60.37C91.11 60.31 91.83 56.49 91.91 55.66C92.25 51.72 92.49 47.66 92.65 43.72C92.65 42.91 91.43 42.92 91.4 43.72C91.19 48.97 89.64 54.97 90.53 60.15C91.13 63.67 100.77 61.54 102.81 61.34C104.85 61.14 112.39 62.34 113.61 60.15C116.06 55.63 111.18 48.5 110.54 43.85C110.43 43.06 109.22 43.4 109.33 44.18Z" fill="#18593F"/>
<path d="M106.32 44.62C106.591 47.4526 107.212 50.2406 108.17 52.9201C108.91 55.4001 109.17 58.0301 110.08 60.4501C110.37 61.1901 111.57 60.87 111.28 60.12C110.608 57.9633 110.06 55.7696 109.64 53.55C108.87 50.55 107.72 47.7401 107.57 44.6201C107.57 43.8101 106.29 43.8101 106.32 44.62Z" fill="#18593F"/>
<path d="M102 45.08C102.445 47.7503 103.036 50.3943 103.77 53C104.47 55.56 104.68 58.22 105.43 60.75C105.485 60.8965 105.593 61.017 105.733 61.0881C105.873 61.1592 106.034 61.1758 106.185 61.1345C106.336 61.0933 106.466 60.9973 106.55 60.8652C106.634 60.7331 106.666 60.5744 106.64 60.42C105.99 58.25 105.89 55.98 105.29 53.79C104.425 50.8316 103.727 47.8268 103.2 44.79C103.08 43.99 101.88 44.33 102 45.12L102 45.08Z" fill="#18593F"/>
<path d="M99.46 44.9101C99.38 47.9101 99.92 50.8601 100.1 53.9101C100.118 56.1651 100.312 58.4153 100.68 60.6401C100.85 61.4301 102.05 61.0901 101.88 60.3101C101.528 58.1949 101.351 56.0543 101.35 53.9101C101.21 50.9101 100.63 47.9801 100.71 44.9101C100.691 44.7579 100.617 44.618 100.502 44.5166C100.386 44.4152 100.238 44.3593 100.085 44.3593C99.9317 44.3593 99.7836 44.4152 99.6685 44.5166C99.5534 44.618 99.4793 44.7579 99.46 44.9101Z" fill="#18593F"/>
<path d="M96 44.91C96 50.29 95.6 55.66 95.85 61.03C95.85 61.83 97.14 61.84 97.1 61.03C96.85 55.66 97.22 50.29 97.25 44.91C97.2307 44.7579 97.1566 44.618 97.0415 44.5166C96.9265 44.4152 96.7784 44.3593 96.625 44.3593C96.4716 44.3593 96.3235 44.4152 96.2085 44.5166C96.0934 44.618 96.0193 44.7579 96 44.91Z" fill="#18593F"/>
<path d="M93.4897 44.0002C93.4897 49.7202 93.3498 55.4402 93.3398 61.1602C93.359 61.3123 93.4332 61.4522 93.5482 61.5536C93.6633 61.655 93.8114 61.7109 93.9648 61.7109C94.1181 61.7109 94.2662 61.655 94.3813 61.5536C94.4963 61.4522 94.5705 61.3123 94.5898 61.1602C94.5898 55.4402 94.7297 49.7202 94.7397 44.0002C94.7205 43.848 94.6463 43.7081 94.5313 43.6067C94.4162 43.5053 94.2681 43.4494 94.1147 43.4494C93.9614 43.4494 93.8133 43.5053 93.6982 43.6067C93.5832 43.7081 93.509 43.848 93.4897 44.0002Z" fill="#18593F"/>
<path d="M129.48 -127.13C134.68 -112.13 135.92 -96.7 132.3 -81.23C129 -67 119.48 -55.45 118.87 -40.5C118.26 -25.55 123.7 -11.21 122.7 3.76995C122.12 12.49 117.61 19.9 113.84 27.56C111.22 32.86 107.76 38.04 107.07 44.02C106.98 44.82 108.23 44.81 108.32 44.02C109.19 36.51 114.63 28.67 118.05 22.02C121.05 16.15 123.28 10.39 123.95 3.78997C125.46 -11.09 119.95 -25.64 120.12 -40.48C120.22 -49.36 123.67 -56.35 127.47 -64.13C130.547 -70.5262 132.824 -77.277 134.25 -84.23C137.3 -98.69 135.5 -113.6 130.68 -127.44C130.42 -128.19 129.21 -127.87 129.48 -127.11L129.48 -127.13Z" fill="#18593F"/>
<path d="M88.8899 -125.34C89.6699 -123.28 91.2799 -122.09 92.5999 -120.34C94.8053 -117.279 96.7425 -114.034 98.3899 -110.64C102.24 -102.84 103.85 -94.0201 104.75 -85.4501C106.45 -69.1201 105.95 -52.4501 101.57 -36.5801C97.5199 -21.8901 90.3099 -8.36007 88.5699 6.97993C87.1699 19.6099 91.4099 33.3599 97.5699 44.2899C97.6631 44.412 97.7977 44.4958 97.9483 44.5256C98.099 44.5554 98.2554 44.5292 98.388 44.4518C98.5207 44.3744 98.6205 44.2512 98.6688 44.1054C98.717 43.9596 98.7102 43.8011 98.6499 43.6599C91.1799 30.3799 87.9599 15.0299 90.9099 0.0199113C93.9699 -15.5001 101.76 -29.6101 104.86 -45.1501C107.7 -59.4001 107.51 -74.8201 105.55 -89.1501C104.656 -96.2304 102.826 -103.161 100.11 -109.76C98.803 -112.719 97.2544 -115.565 95.4799 -118.27C93.9999 -120.59 91.0199 -123.14 90.0599 -125.68C89.7799 -126.42 88.5699 -126.1 88.8599 -125.35L88.8899 -125.34Z" fill="#18593F"/>
<path d="M106.74 22.25C112.91 10.61 114.52 -2.36999 114.59 -15.38C114.571 -15.5321 114.496 -15.672 114.381 -15.7734C114.266 -15.8748 114.118 -15.9308 113.965 -15.9308C113.811 -15.9308 113.663 -15.8748 113.548 -15.7734C113.433 -15.672 113.359 -15.5321 113.34 -15.38C113.27 -2.57999 111.73 10.17 105.66 21.62C105.29 22.33 106.36 22.96 106.74 22.25Z" fill="#18593F"/>
<path d="M102 2.23004C101.906 -4.12966 103.012 -10.45 105.26 -16.4C105.56 -17.15 104.35 -17.48 104.06 -16.73C101.765 -10.6629 100.642 -4.21562 100.75 2.27002C100.769 2.42217 100.843 2.56208 100.958 2.66348C101.073 2.76488 101.221 2.8208 101.375 2.8208C101.528 2.8208 101.676 2.76488 101.791 2.66348C101.906 2.56208 101.98 2.42217 102 2.27002L102 2.23004Z" fill="#18593F"/>
<path d="M83.5498 25.5104C82.2798 13.5804 84.3599 2.41033 88.8999 -8.63967C89.1999 -9.38967 87.9899 -9.70966 87.6899 -8.96966C83.0999 2.21034 81.0098 13.4504 82.2998 25.5104C82.3798 26.3104 83.6298 26.3104 83.5498 25.5104Z" fill="#18593F"/>
<path d="M123.52 24.1899C127.973 12.5036 130.303 0.115675 130.4 -12.3901C130.381 -12.5422 130.307 -12.6821 130.191 -12.7835C130.076 -12.8849 129.928 -12.9409 129.775 -12.9409C129.622 -12.9409 129.473 -12.8849 129.358 -12.7835C129.243 -12.6821 129.169 -12.5422 129.15 -12.3901C129.049 0.00108707 126.732 12.2743 122.31 23.8499C122.03 24.6099 123.24 24.9299 123.52 24.1899Z" fill="#18593F"/>
<path d="M99.6398 26.5404C98.4298 22.4504 97.6898 18.2504 98.7498 14.0404C98.7764 13.886 98.7444 13.7273 98.6603 13.5952C98.5761 13.4631 98.4458 13.367 98.2947 13.3258C98.1436 13.2846 97.9825 13.3012 97.843 13.3723C97.7034 13.4434 97.5953 13.5639 97.5398 13.7104C96.4298 18.1304 97.1598 22.5704 98.4398 26.8704C98.4836 27.0295 98.5888 27.1647 98.7322 27.2463C98.8757 27.3279 99.0457 27.3491 99.2048 27.3054C99.3639 27.2616 99.4992 27.1564 99.5808 27.013C99.6623 26.8695 99.6836 26.6995 99.6398 26.5404Z" fill="#18593F"/>
<path d="M89.9998 39.2201C89.0638 37.4516 88.2841 35.6045 87.6698 33.7002C87.6247 33.541 87.5183 33.4063 87.3739 33.3257C87.2295 33.245 87.0589 33.225 86.8998 33.2701C86.7407 33.3152 86.606 33.4217 86.5253 33.5661C86.4447 33.7105 86.4247 33.881 86.4698 34.0402C87.113 36.0487 87.9328 37.9963 88.9198 39.8601C89.2798 40.5801 90.3598 39.9401 89.9998 39.2201Z" fill="#18593F"/>
<path d="M102 38.5103C102.271 36.4874 102.668 34.4835 103.19 32.5103C103.233 32.3512 103.212 32.1812 103.131 32.0377C103.049 31.8943 102.914 31.7891 102.755 31.7453C102.596 31.7016 102.426 31.7228 102.282 31.8044C102.139 31.886 102.033 32.0212 101.99 32.1803C101.461 34.1519 101.064 36.1563 100.8 38.1803C100.68 38.9703 101.89 39.3103 102 38.5103Z" fill="#18593F"/>
<path d="M116.49 35.2102C117.6 33.8202 118.67 32.4102 119.78 31.0302C120.27 30.4102 119.4 29.5202 118.89 30.1402C117.79 31.5302 116.71 32.9402 115.61 34.3202C115.11 34.9502 115.99 35.8402 116.49 35.2102Z" fill="#18593F"/>
<path d="M132.17 14.6402C132.526 12.7123 132.733 10.7599 132.79 8.80019C132.771 8.64804 132.697 8.50816 132.582 8.40676C132.467 8.30536 132.318 8.24941 132.165 8.24941C132.012 8.24941 131.864 8.30536 131.749 8.40676C131.633 8.50816 131.559 8.64804 131.54 8.80019C131.49 10.6454 131.3 12.4841 130.97 14.3002C130.84 15.0902 132.04 15.4302 132.17 14.6402Z" fill="#18593F"/>
<path d="M25.3201 -111.38C21.1401 -99.1498 18.6201 -86.1298 20.1801 -73.1698C21.7401 -60.2098 28.3001 -48.5398 32.4701 -36.4698C37.3373 -21.9901 39.4504 -6.72714 38.7001 8.53023C37.8201 24.4602 30.3301 38.8102 23.3401 52.8002L24.4901 53.2802C29.1501 39.2802 34.3801 25.4902 36.6401 10.8602C38.7001 -2.49978 36.5001 -16.4098 33.2301 -29.3898C29.8001 -43.0398 22.2301 -55.2198 17.6901 -68.4598C15.049 -75.6713 14.4639 -83.475 16.0001 -90.9998C17.4801 -97.9998 19.3801 -105 21.3301 -111.91C21.3566 -112.064 21.3247 -112.223 21.2405 -112.355C21.1564 -112.487 21.0261 -112.583 20.875 -112.624C20.7239 -112.665 20.5628 -112.649 20.4232 -112.578C20.2837 -112.507 20.1756 -112.386 20.1201 -112.24C16.6601 -99.8998 12.2401 -87.4298 14.7701 -74.5498C17.4401 -60.9998 25.3001 -48.7398 30.0001 -35.8198C35.1388 -21.5214 37.0678 -6.26727 35.6501 8.86022C34.1301 24.0102 28.0801 38.5702 23.3001 52.8602C23.27 53.0034 23.2907 53.1525 23.3586 53.2821C23.4265 53.4116 23.5374 53.5135 23.6722 53.5703C23.807 53.627 23.9573 53.6351 24.0974 53.5931C24.2375 53.5512 24.3587 53.4617 24.4401 53.3402C30.7601 40.7002 36.8601 28.3402 39.3101 14.2802C41.7601 0.22023 38.8601 -14.9898 35.9701 -28.8598C33.2101 -42.0498 26.2001 -53.9698 22.7101 -66.9598C18.8101 -81.4798 21.7901 -97.1598 26.5401 -111.09C26.8101 -111.85 25.6001 -112.18 25.3401 -111.42L25.3201 -111.38Z" fill="#18593F"/>
<path d="M37.5398 -15.6297C43.3798 -14.2596 62.4498 -4.28963 55.7298 3.54037C50.4798 9.68036 39.8298 -10.3296 39.2898 -14.3596C39.1898 -15.1396 37.9398 -15.1496 38.0398 -14.3596C38.6898 -9.50963 49.2698 11.2504 56.2298 4.79037C65.4598 -3.76963 44.2298 -15.3396 37.8698 -16.8296C37.0798 -17.0096 36.7498 -15.8297 37.5398 -15.6297Z" fill="#18593F"/>
<path d="M34.9999 -14.5498C35.1571 -9.73634 34.4213 -4.93539 32.8299 -0.389866C32.0333 1.7499 31.0038 3.79554 29.7599 5.71014C27.9099 8.63014 21.4599 12.5201 22.4499 5.71014C23.5499 -1.87986 31.3199 -8.54985 36.0599 -14.0898C36.5899 -14.6998 35.7099 -15.5899 35.1799 -14.9799C31.0599 -10.1599 26.6999 -5.53986 23.4499 -0.0698597C22.0999 2.19014 19.1499 8.52016 22.2099 10.7002C25.2699 12.8802 29.2099 8.65013 30.8399 6.36013C35.0699 0.510134 36.4499 -7.47985 36.2499 -14.5299C36.2499 -15.3398 34.9699 -15.3398 34.9999 -14.5299L34.9999 -14.5498Z" fill="#18593F"/>
<path d="M34.8799 -13.3498C33.3558 -8.92736 31.3256 -4.69593 28.8298 -0.739751C28.3898 -0.0597514 29.4799 0.570254 29.9099 -0.109746C32.4586 -4.15306 34.5291 -8.47872 36.0798 -12.9998C36.3498 -13.7598 35.1499 -14.0797 34.8799 -13.3297L34.8799 -13.3498Z" fill="#18593F"/>
<path d="M39.88 2.48005C43.8897 5.226 47.6779 8.28201 51.21 11.62C53.35 13.75 55.35 16.22 56.12 19.18C56.89 22.14 53.92 26.04 50.74 25.18C46.6 24.09 44.56 16.41 43.44 13.02C42.22 9.34003 41.35 5.57002 40.44 1.80002C40.26 1.02002 39.05 1.35004 39.24 2.13004C40.5 7.56004 44.07 29.24 53.16 26.3C58.83 24.47 57.72 18.1601 55.16 14.3901C51.52 8.98005 45.67 5.14005 40.46 1.39005C39.81 0.91005 39.19 2.00004 39.83 2.47004L39.88 2.48005Z" fill="#18593F"/>
<path d="M39.9997 3.70006C43.7697 7.70006 47.4197 12.1001 48.7897 17.5401C48.8452 17.6865 48.9533 17.807 49.0928 17.8781C49.2324 17.9492 49.3934 17.9658 49.5445 17.9246C49.6957 17.8834 49.826 17.7873 49.9101 17.6552C49.9943 17.5231 50.0262 17.3644 49.9997 17.21C48.5697 11.57 44.7997 6.97005 40.8897 2.81005C40.3297 2.22005 39.4497 3.11006 39.9997 3.70006Z" fill="#18593F"/>
<path d="M36 2.65996C34.42 8.17996 33.48 13.05 30.3 17.88C28.66 20.37 22.47 29.7799 18.56 26.7399C11.03 20.8799 32.1 6.98995 36.13 4.83995C36.84 4.45995 36.21 3.37997 35.5 3.75997C30.35 6.49997 8.72002 20.65 18.14 27.98C21.71 30.76 26.7 24.5899 28.54 22.37C30.3689 20.1183 32.0047 17.7165 33.43 15.19C35.58 11.43 36.03 7.09996 37.2 2.99996C37.2451 2.84083 37.2251 2.6703 37.1445 2.5259C37.0638 2.38149 36.9291 2.27505 36.77 2.22997C36.6109 2.18488 36.4403 2.20484 36.2959 2.28548C36.1515 2.36612 36.0451 2.50083 36 2.65996Z" fill="#18593F"/>
<path d="M35.3597 4.32019C32.8352 8.99205 29.818 13.3804 26.3597 17.4102C25.8597 18.0302 26.7397 18.9202 27.2497 18.3002C30.7699 14.187 33.8437 9.71194 36.4197 4.95019C36.7797 4.23019 35.6997 3.60019 35.3397 4.32019L35.3597 4.32019Z" fill="#18593F"/>
<path d="M37.4899 20.2801C41.8899 24.7001 48.9699 35.2101 47.3299 41.6901C46.3999 45.3601 40.7899 43.3301 39.3299 41.4501C37.6599 39.2401 37.66 35.8701 37.63 33.2401C37.57 29.0001 38.54 24.7701 38.29 20.5401L37.06 20.7101C38.9368 25.6502 40.513 30.6995 41.78 35.8301C41.96 36.6101 43.1699 36.2801 42.9899 35.5001C41.7184 30.3708 40.1423 25.3218 38.2699 20.3801C38.0399 19.7501 37 19.8001 37.04 20.5401C37.41 26.7301 35.6199 32.7901 36.9599 38.9801C37.8199 42.9801 42.2999 46.7701 46.4899 44.3701C54.0799 40.0101 42.0999 23.1801 38.3299 19.3701C38.2083 19.2748 38.0559 19.2276 37.9017 19.2374C37.7475 19.2472 37.6022 19.3133 37.4936 19.4232C37.385 19.5331 37.3205 19.679 37.3125 19.8333C37.3044 19.9876 37.3534 20.1395 37.45 20.2601L37.4899 20.2801Z" fill="#18593F"/>
<path d="M32.82 21.0004C31.8021 26.3118 29.6273 31.334 26.45 35.7104C24.9 37.8204 17.91 46.4704 15.24 42.3804C12.43 38.0504 19.99 32.3804 22.77 30.2604C26.0102 27.8302 29.4528 25.6823 33.06 23.8404C33.77 23.4704 33.14 22.3904 32.43 22.7604C27.52 25.3204 7.37998 36.3204 15 44.0704C18 47.0704 23.46 41.0204 25.14 39.2104C29.6807 34.1976 32.747 28.0269 34 21.3804C34.14 20.5904 32.93 20.2504 32.79 21.0404L32.82 21.0004Z" fill="#18593F"/>
<path d="M32.71 21.94C30.33 27.44 26.15 31.66 21.81 35.67C21.22 36.22 22.1 37.1 22.69 36.55C27.11 32.47 31.37 28.17 33.79 22.55C34.1 21.81 33.03 21.18 32.71 21.92L32.71 21.94Z" fill="#18593F"/>
<path d="M30.2798 40.4103C33.0198 42.2403 34.8198 45.6303 36.3798 48.4103C37.9398 51.1903 40.8998 56.5103 39.2598 59.7703C38.0098 62.2603 34.2598 59.5203 33.3398 58.2903C32.2029 56.4703 31.4824 54.4214 31.2298 52.2903C30.5147 48.235 30.5147 44.0857 31.2298 40.0303C31.3698 39.2403 30.1598 38.9003 30.0298 39.6903C29.0369 45.1161 29.3315 50.6992 30.8898 55.9903C31.8198 58.9903 35.4498 63.7203 39.1798 61.5003C45.6698 57.6603 34.8598 41.9503 30.9398 39.3203C30.2698 38.8703 29.6498 39.9503 30.3098 40.4003L30.2798 40.4103Z" fill="#18593F"/>
<path d="M29.9299 41.5501C32.3033 45.2945 33.9676 49.4436 34.8399 53.7901C34.9799 54.5801 36.1799 54.2401 36.0399 53.4501C35.1579 49.0015 33.4628 44.7538 31.0399 40.9201C30.9467 40.798 30.8121 40.7142 30.6615 40.6844C30.5108 40.6546 30.3544 40.6809 30.2218 40.7583C30.0891 40.8356 29.9893 40.9588 29.9411 41.1047C29.8928 41.2505 29.8995 41.4089 29.9599 41.5501L29.9299 41.5501Z" fill="#18593F"/>
<path d="M26.3598 41.82C25.4191 43.9547 24.3402 46.0258 23.1298 48.02C21.7198 50.23 18.6798 53.51 15.7298 52.95C13.9298 52.62 15.1298 49.76 15.5398 48.9C16.3906 47.4684 17.6096 46.2909 19.0698 45.49C21.5344 44.0373 24.2197 42.9969 27.0198 42.41L26.2498 41.97C25.3397 42.8391 24.3851 43.6602 23.3898 44.43C21.9198 45.77 20.4998 47.16 19.0998 48.57C18.5398 49.15 19.4198 50.03 19.9898 49.46C21.7698 47.64 23.6198 45.89 25.5198 44.18C26.3698 43.41 27.6498 42.89 27.4498 41.64C27.4301 41.5605 27.3946 41.4857 27.3453 41.4201C27.2961 41.3546 27.2342 41.2996 27.1633 41.2586C27.0923 41.2175 27.0138 41.1911 26.9325 41.1811C26.8511 41.171 26.7686 41.1775 26.6898 41.2C22.8998 42.15 19.1598 43.5 16.1798 46.11C14.3998 47.67 12.5198 51.11 14.1798 53.34C15.8398 55.57 19.4898 53.34 21.0598 52.25C24.2198 49.97 25.8998 45.86 27.4698 42.45C27.8098 41.72 26.7298 41.09 26.3898 41.82L26.3598 41.82Z" fill="#18593F"/>
<path d="M25.9997 47.9501C23.9997 51.6001 24.6897 56.3201 24.9997 60.2901C25.4197 65.2901 27.3797 74.4301 22.2097 77.6801C13.8397 82.9501 16.9498 68.4201 18.0098 65.3001C19.4998 60.9401 21.7797 55.0401 25.4397 51.9801C26.0597 51.4601 25.1697 50.5801 24.5497 51.1001C20.5497 54.4401 9.03973 76.1001 17.4597 79.2501C22.2497 81.0301 25.9697 76.8301 26.5297 72.4301C27.0497 68.4301 26.5997 64.3201 26.2497 60.2901C25.9197 56.5901 25.1597 51.9701 27.0497 48.5801C27.4397 47.8801 26.3597 47.2501 25.9697 47.9501L25.9997 47.9501Z" fill="#18593F"/>
<path d="M23.7097 51.6399C23.1097 56.9299 21.9697 62.1399 21.1597 67.3999C21.0397 68.1799 22.2397 68.5199 22.3597 67.7299C23.1897 62.3599 24.3597 57.0399 24.9597 51.6399C25.0497 50.8399 23.7997 50.8499 23.7097 51.6399Z" fill="#18593F"/>
<path d="M-34.5901 77.8401C-31.3516 77.6912 -28.1065 77.889 -24.9101 78.4301C-21.4801 79.1201 -20.9801 80.1101 -21.3301 83.2301C-21.81 87.7506 -21.5601 92.3189 -20.5901 96.7601C-18.8001 105.18 -12.7701 111.96 -5.0701 115.56C-1.74167 116.995 1.84644 117.731 5.47116 117.72C9.09587 117.71 12.6797 116.954 15.9999 115.5C19.2246 114.074 22.0204 111.83 24.1099 108.99C26.6199 105.56 26.6699 101.2 27.8299 97.2601C29.0699 93.0301 33.7599 92.4201 37.4699 93.1701C41.9599 94.0901 44.4699 98.68 44.8199 102.86C45.3199 109.18 40.5899 116.15 36.8199 120.8C27.5299 132.35 14.1599 135.31 0.1199 132.2C-11.6101 129.59 -23.6601 123.45 -30.2701 113.14C-37.0301 102.63 -36.9001 89.0901 -34.0201 77.3801C-33.9879 77.224 -34.0161 77.0614 -34.099 76.9253C-34.1818 76.7891 -34.3132 76.6894 -34.4667 76.6463C-34.6201 76.6032 -34.7842 76.6199 -34.9259 76.6929C-35.0676 76.766 -35.1763 76.89 -35.2301 77.0401C-37.7801 87.4301 -38.2301 98.98 -33.8301 108.96C-29.2901 119.16 -21.0701 125.57 -10.9201 129.81C-0.570106 134.14 12.5799 137.3 23.3899 132.59C28.4974 130.288 33.0677 126.945 36.808 122.774C40.5483 118.603 43.376 113.697 45.1099 108.37C47.7999 100.04 43.1099 91.0801 33.6399 91.6801C30.8099 91.8701 28.0099 93.2601 26.9399 96.0201C24.8799 101.33 25.1899 106.42 20.9399 110.81C11.9399 120 -3.6701 116.98 -12.2201 109.22C-16.6301 105.22 -18.8901 99.6301 -19.8801 93.8801C-20.335 90.7449 -20.4457 87.5693 -20.2101 84.4101C-20.1401 82.9101 -19.3801 81.1601 -19.8801 79.6601C-21.2001 75.6601 -31.7801 76.5501 -34.5901 76.5901C-34.7422 76.6093 -34.8821 76.6835 -34.9835 76.7985C-35.0849 76.9136 -35.1409 77.0617 -35.1409 77.2151C-35.1409 77.3684 -35.0849 77.5165 -34.9835 77.6316C-34.8821 77.7467 -34.7422 77.8208 -34.5901 77.8401Z" fill="#18593F"/>
<path d="M3.50994 118.86C5.07994 123.14 3.78994 126.5 1.50994 130.22C1.44956 130.361 1.44283 130.52 1.49105 130.665C1.53927 130.811 1.63908 130.934 1.77175 131.012C1.90441 131.089 2.06081 131.115 2.21148 131.086C2.36214 131.056 2.49672 130.972 2.58993 130.85C5.01993 126.85 6.36992 123.13 4.67992 118.53C4.39992 117.78 3.18993 118.11 3.46993 118.86L3.50994 118.86Z" fill="#18593F"/>
<path d="M9.65971 121C10.2852 122.215 10.6165 123.561 10.6269 124.928C10.6373 126.295 10.3266 127.645 9.71971 128.87C9.40971 129.61 10.6197 129.93 10.9297 129.2C11.5882 127.815 11.914 126.295 11.881 124.762C11.848 123.229 11.4572 121.725 10.7397 120.37C10.3897 119.65 9.30971 120.28 9.65971 121Z" fill="#18593F"/>
<path d="M13.8497 116.3C16.9197 119.13 19.7397 123.98 17.5797 128.12C17.2097 128.83 18.2897 129.47 18.6697 128.75C21.0897 124.09 18.2597 118.67 14.7397 115.41C14.1397 114.87 13.2597 115.75 13.8497 116.3Z" fill="#18593F"/>
<path d="M20.0996 116.37C21.7496 118.73 24.2296 120.77 23.9096 123.92C23.8296 124.72 25.0796 124.71 25.1596 123.92C25.5096 120.49 22.9796 118.32 21.1596 115.74C20.6996 115.08 19.6196 115.74 20.0796 116.37L20.0996 116.37Z" fill="#18593F"/>
<path d="M22.71 110.77C27.27 112.85 31.96 115.69 32 121.29C32.0193 121.442 32.0934 121.582 32.2085 121.683C32.3235 121.785 32.4716 121.841 32.625 121.841C32.7784 121.841 32.9265 121.785 33.0415 121.683C33.1566 121.582 33.2307 121.442 33.25 121.29C33.2 115.22 28.36 111.98 23.34 109.69C22.61 109.36 21.98 110.44 22.71 110.77Z" fill="#18593F"/>
<path d="M28.8299 108.62C31.7699 109.68 34.1399 110.87 35.5799 113.78C35.9399 114.5 37.0199 113.87 36.6699 113.15C35.0699 109.95 32.3999 108.58 29.1699 107.41C28.4099 107.13 28.0799 108.34 28.8299 108.62Z" fill="#18593F"/>
<path d="M26.9001 101.86C31.3401 101.96 36.2101 101.59 39.6601 104.92C40.2401 105.48 41.1201 104.6 40.5401 104.04C36.8201 100.45 31.7201 100.71 26.9001 100.61C26.7479 100.63 26.608 100.704 26.5066 100.819C26.4052 100.934 26.3493 101.082 26.3493 101.235C26.3493 101.389 26.4052 101.537 26.5066 101.652C26.608 101.767 26.7479 101.841 26.9001 101.86Z" fill="#18593F"/>
<path d="M30.8299 98.1102C32.9111 98.3049 34.9419 98.8634 36.8299 99.7602C37.5599 100.11 38.19 99.0302 37.47 98.6802C35.3741 97.6966 33.1246 97.0809 30.82 96.8602C30.02 96.7702 30.03 98.0302 30.82 98.1102L30.8299 98.1102Z" fill="#18593F"/>
<path d="M444.73 58.3203C437.73 66.5603 432.95 76.7903 427.45 86.0703C420.82 97.2503 414.53 108.52 408.52 120.07C398 140.2 386.95 163.3 363.88 171C363.12 171.25 363.44 172.46 364.21 172.21C373.254 169.176 381.341 163.817 387.66 156.67C395.12 148.05 400.79 137.09 406.2 127.12C412.34 115.78 418.07 104.29 424.66 93.2003C428.15 87.3303 431.66 81.4903 435.09 75.5803C438.36 69.9203 441.35 64.2003 445.61 59.1903C446.13 58.5803 445.25 57.7003 444.73 58.3103L444.73 58.3203Z" fill="#18593F"/>
<path d="M416.81 104.56C416.96 114.77 414.26 124.56 410.58 134.01C406.58 144.3 401.49 154.33 394.71 163.07C384.57 176.17 364.94 184.27 360.71 201.56C360.52 202.34 361.71 202.68 361.92 201.89C364.23 192.36 372.49 185.38 379.45 179.01C386.73 172.34 394.02 166.62 399.64 158.36C409.95 143.25 418.34 123 418.06 104.56C418.04 104.408 417.966 104.268 417.851 104.167C417.736 104.065 417.588 104.009 417.435 104.009C417.281 104.009 417.133 104.065 417.018 104.167C416.903 104.268 416.829 104.408 416.81 104.56Z" fill="#18593F"/>
<path d="M361 200.54C360.08 203.46 358.42 208.39 360.67 211.06C363.13 213.98 366.31 207.28 366.79 206.11C367.27 204.94 372.27 196.22 372.39 196.41C373.72 198.41 374.07 201.33 374.92 203.59C375.83 206 377.53 208.19 380.04 206.27C384.49 202.86 384.69 195.02 386.04 190.11C386.27 189.27 389.04 181.67 390.65 185.54C391.13 186.71 391.38 188 391.78 189.2C392.18 190.4 393.5 193.91 395.23 194.2C406.17 196 398.91 165 398.39 160.54C398.3 159.75 397.05 159.74 397.14 160.54C398.14 169.54 401.07 178.88 399.49 188.02C399.03 190.65 395.88 194.25 393.84 190.68C392.989 188.93 392.319 187.097 391.84 185.21C391.57 184.37 390.69 182.41 389.43 182.85C383.76 184.85 383.66 195.93 382.14 200.59C381.52 202.48 378.88 208.02 376.71 204.46C375.988 203.064 375.434 201.587 375.06 200.06C374.53 198.35 374.12 196.28 372.84 194.94C372.722 194.825 372.564 194.761 372.4 194.761C372.236 194.761 372.078 194.825 371.96 194.94C369.435 197.888 367.408 201.229 365.96 204.83C365.457 206.094 364.866 207.32 364.19 208.5L361.04 209.33C360.87 208.508 360.83 207.665 360.92 206.83C361.08 204.783 361.507 202.766 362.19 200.83C362.43 200.06 361.19 199.74 360.98 200.5L361 200.54Z" fill="#18593F"/>
<path d="M363.33 171.26C358.49 174.09 352.75 174.71 347.24 174.4C345.966 174.293 344.702 174.089 343.46 173.79L342.46 171.37C344.193 169.914 346.386 169.121 348.65 169.13C351.73 168.79 354.77 169.26 357.86 168.73C357.955 168.695 358.04 168.638 358.109 168.564C358.178 168.489 358.228 168.4 358.256 168.302C358.283 168.204 358.287 168.102 358.267 168.002C358.246 167.903 358.203 167.81 358.14 167.73C356.849 166.619 355.413 165.69 353.87 164.97C352.71 164.3 351.57 163.61 350.45 162.87C349.701 162.38 348.996 161.828 348.34 161.22C346.5 159.62 347.77 156.45 350.23 156.87C355.23 157.74 359.23 162.36 364.3 162.69C364.396 162.691 364.491 162.669 364.577 162.626C364.664 162.584 364.739 162.522 364.797 162.445C364.855 162.369 364.895 162.279 364.913 162.185C364.931 162.09 364.926 161.993 364.9 161.9C364.44 160.66 363.9 159.43 363.45 158.19C363.181 157.448 362.957 156.69 362.78 155.92C363.45 155 364.12 154.08 364.78 153.15C365.623 153.716 366.389 154.388 367.06 155.15C370.16 158.34 372.66 161.99 376.21 164.74C376.83 165.22 377.73 164.35 377.09 163.85C374.09 161.51 371.84 158.53 369.25 155.74C367.89 154.28 366.5 152.22 364.45 151.66C360.28 150.51 361.66 156.75 362.25 158.52C362.49 159.26 363.54 161.35 363.25 161.29C361.851 160.871 360.507 160.283 359.25 159.54C356.96 158.38 354.71 157.16 352.33 156.21C350.33 155.42 345.17 154.85 345.56 158.6C345.95 162.35 350.41 164.4 353.25 166.05C354.25 166.61 355.25 167.17 356.18 167.76C357.83 168.76 357.18 168.76 354.18 167.95C352.97 167.95 351.75 167.95 350.54 167.89C347.87 167.83 344.61 168.14 342.43 169.89C339.15 172.54 341.11 174.61 344.57 175.33C351.196 176.653 358.077 175.594 364 172.34C364.122 172.247 364.206 172.112 364.235 171.962C364.265 171.811 364.239 171.655 364.162 171.522C364.084 171.389 363.961 171.29 363.815 171.241C363.669 171.193 363.511 171.2 363.37 171.26L363.33 171.26Z" fill="#18593F"/>
<path d="M342.22 62.4003C337.9 67.5403 332.46 76.7503 335.82 83.6103C337.95 87.9503 343.71 88.6103 345.6 84.0103C346.6 81.7103 343.52 74.9303 348.67 75.9503C354.27 77.0603 354.77 85.6003 354.54 90.0103C353.77 105.01 339.41 112.43 326.05 111.36C313.73 110.36 302.93 101.1 301.96 88.5103C301.5 82.5803 304.34 75.2703 310.11 72.9503C312.556 71.8837 313.926 73.197 314.22 76.8903C313.84 77.7003 313.39 78.4903 313.01 79.3103C312.508 80.225 312.312 81.2762 312.45 82.3103C312.691 83.2285 313.233 84.0396 313.988 84.6141C314.744 85.1887 315.671 85.4936 316.62 85.4803C318.82 85.4803 320.18 81.4103 320.62 79.8403C322.1 74.3003 320.44 68.7103 321.18 63.2103C322.18 56.2103 338.58 62.2103 342.35 63.2803C342.509 63.3254 342.679 63.3055 342.824 63.2248C342.968 63.1442 343.075 63.0095 343.12 62.8503C343.165 62.6912 343.145 62.5207 343.064 62.3763C342.984 62.2319 342.849 62.1254 342.69 62.0803C338.08 60.7203 319.93 54.0803 319.81 64.0803C319.81 66.7403 321.48 86.7203 314.95 83.7603C311.8 82.3303 315.15 78.3803 315.71 76.6703C315.892 76.0607 315.946 75.4199 315.869 74.7882C315.791 74.1566 315.584 73.5479 315.26 73.0003C314.15 70.5703 310.68 71.4003 308.86 72.1303C305 73.6803 303 77.6503 301.73 81.3503C298.58 90.5103 302.94 101.04 310.51 106.64C327.28 119.02 355.63 111.75 355.87 88.1603C356.035 84.3026 354.986 80.4902 352.87 77.2603C351.73 75.6603 347.95 73.3403 345.97 74.8003C343.99 76.2603 344.38 78.8003 344.54 80.9603C344.88 85.7003 339.54 86.7603 336.97 82.9603C334.4 79.1603 337.51 72.4503 339.22 69.0603C340.32 66.9792 341.663 65.0356 343.22 63.2703C343.73 62.6503 342.86 61.7703 342.33 62.3803L342.22 62.4003Z" fill="#18593F"/>
<path d="M338.72 61.57C332.91 66.09 329.98 76.15 331.23 83.33C331.84 86.79 333.23 89.25 336.5 90.69C337.13 90.95 337.76 91.22 338.38 91.5C340.38 92.39 339.16 93.89 337.06 93.29C334.96 92.69 332.78 91.01 330.82 89.8C330.711 89.7434 330.589 89.7191 330.467 89.7298C330.346 89.7406 330.23 89.786 330.133 89.8607C330.036 89.9354 329.963 90.0362 329.921 90.1513C329.88 90.2663 329.873 90.3908 329.9 90.51C330.188 92.3377 330.161 94.2014 329.82 96.02C328.71 101.56 325.4 94.02 325.34 93.83C325.08 93 324.88 92.17 324.6 91.35C324.45 90.88 323.71 90.67 323.46 91.2C322.827 92.6154 321.999 93.935 321 95.12C319.31 94.6 318.82 93.74 319.51 92.55C319.76 91.75 320.07 90.99 320.27 90.18C320.302 90.06 320.298 89.9332 320.258 89.8156C320.218 89.698 320.144 89.5948 320.046 89.519C319.948 89.4431 319.829 89.398 319.705 89.3893C319.581 89.3805 319.458 89.4086 319.35 89.47C318.202 90.1105 317.02 90.688 315.81 91.2C314.98 90.47 315.03 89.89 315.98 89.45C316.76 88.7492 317.596 88.1137 318.48 87.55C320.66 86.12 322.78 84.25 323.65 81.71C325.07 77.51 325.65 72.81 326.43 68.44C326.87 65.91 327.57 62.26 326.37 59.86C326.01 59.14 324.94 59.77 325.29 60.49C326.74 63.4 325.2 68.4 324.62 71.38C324.04 74.36 323.55 77.31 322.83 80.22C321.67 84.97 316.75 86.62 313.74 89.95C313.2 90.54 312.53 92.18 313.74 92.56C315.83 93.21 318.21 91.49 319.96 90.56L319.04 89.86C318.58 91.77 316.38 95.46 318.83 96.86C321.43 98.39 323.83 93.37 324.52 91.81L323.38 91.66C324.13 93.89 325.03 100.07 328.77 99.04C332.1 98.13 331.44 92.62 331.08 90.16L330.16 90.86C333.01 92.62 336.16 95.22 339.73 94.81C340.057 94.8052 340.378 94.7159 340.66 94.5509C340.943 94.3858 341.178 94.1506 341.343 93.8679C341.508 93.5852 341.597 93.2647 341.602 92.9375C341.607 92.6102 341.527 92.2873 341.37 92C340.84 91 339.01 90.42 338.07 90C334.38 88.37 332.68 86 332.36 81.83C331.87 75.2 334.28 66.59 339.61 62.45C340.24 61.95 339.35 61.07 338.72 61.56L338.72 61.57Z" fill="#18593F"/>
<path d="M354.67 88.8902C353.271 88.9374 351.872 88.8232 350.5 88.5502C349.7 88.4502 349.71 89.7002 350.5 89.8002C351.872 90.0779 353.271 90.192 354.67 90.1402C355.46 90.0602 355.47 88.8102 354.67 88.8902Z" fill="#18593F"/>
<path d="M353.32 97.3003C352.1 96.6203 350.86 95.9903 349.65 95.3003C348.95 94.9103 348.32 95.9903 349.02 96.3803C350.23 97.0703 351.47 97.7003 352.68 98.3803C352.822 98.4489 352.985 98.4616 353.136 98.416C353.287 98.3704 353.415 98.2698 353.495 98.1341C353.576 97.9983 353.602 97.8374 353.57 97.683C353.537 97.5286 353.448 97.392 353.32 97.3003Z" fill="#18593F"/>
<path d="M347.37 105.2C346.54 104.04 345.54 103.01 344.71 101.86C344.24 101.22 343.15 101.86 343.63 102.49C344.47 103.65 345.46 104.68 346.29 105.83C346.76 106.47 347.85 105.83 347.37 105.2Z" fill="#18593F"/>
<path d="M339.6 109.85C339.082 108.502 338.7 107.105 338.46 105.68C338.36 104.89 337.11 104.88 337.21 105.68C337.457 107.216 337.855 108.723 338.4 110.18C338.65 110.94 339.86 110.61 339.6 109.85Z" fill="#18593F"/>
<path d="M331.62 111.68C331.48 110.4 331.46 109.12 331.29 107.84C331.19 107.06 329.94 107.05 330.04 107.84C330.21 109.12 330.23 110.4 330.37 111.68C330.47 112.47 331.72 112.48 331.62 111.68Z" fill="#18593F"/>
<path d="M321 110.34C320.957 109.387 321.062 108.432 321.31 107.51C321.55 106.74 320.31 106.41 320.1 107.18C319.823 108.21 319.705 109.275 319.75 110.34C319.769 110.492 319.843 110.632 319.958 110.734C320.073 110.835 320.221 110.891 320.375 110.891C320.528 110.891 320.676 110.835 320.791 110.734C320.906 110.632 320.98 110.492 321 110.34Z" fill="#18593F"/>
<path d="M310 105.16C310.894 103.874 311.923 102.688 313.07 101.62C313.64 101.05 312.75 100.17 312.18 100.74C310.962 101.884 309.869 103.155 308.92 104.53C308.48 105.21 309.57 105.84 310 105.16Z" fill="#18593F"/>
<path d="M304.15 96.5502C305.295 96.0077 306.47 95.5303 307.67 95.1202C308.4 94.8102 308.08 93.6002 307.33 93.9102C306.034 94.3637 304.762 94.8844 303.52 95.4702C302.81 95.8602 303.44 96.9402 304.15 96.5502Z" fill="#18593F"/>
<path d="M302.17 85.7802C303.052 85.6635 303.941 85.6167 304.83 85.6402C304.982 85.6209 305.122 85.5467 305.224 85.4317C305.325 85.3166 305.381 85.1685 305.381 85.0152C305.381 84.8618 305.325 84.7137 305.224 84.5986C305.122 84.4836 304.982 84.4095 304.83 84.3902C303.827 84.3737 302.823 84.4372 301.83 84.5801C301.04 84.7001 301.38 85.9002 302.17 85.7802Z" fill="#18593F"/>
<path d="M307.65 80.3002C306.41 79.3902 305.46 78.1702 304 77.5802C303.25 77.2702 302.93 78.4802 303.67 78.7802C304.97 79.3202 305.9 80.5602 307.02 81.3802C307.67 81.8602 308.29 80.7802 307.65 80.3002Z" fill="#18593F"/>
<path d="M161.08 134.57C161.2 132.78 161.66 130.96 161.21 129.18C161.175 129.048 161.097 128.931 160.988 128.848C160.88 128.765 160.747 128.72 160.61 128.72C159.02 128.72 157.43 128.64 155.83 128.72C155.735 128.723 155.642 128.748 155.558 128.792C155.473 128.835 155.4 128.897 155.342 128.973C155.285 129.048 155.245 129.136 155.226 129.229C155.206 129.322 155.208 129.418 155.23 129.51C155.622 131.031 155.717 132.613 155.51 134.17C155.472 134.329 155.497 134.496 155.579 134.638C155.661 134.779 155.793 134.884 155.95 134.93C157.368 135.481 158.926 135.554 160.39 135.14C161.15 134.89 160.83 133.68 160.06 133.93C158.813 134.285 157.483 134.215 156.28 133.73C156.42 133.99 156.57 134.24 156.72 134.5C156.968 132.725 156.873 130.919 156.44 129.18C156.24 129.44 156.04 129.71 155.83 129.97C157.43 129.92 159.02 130.05 160.61 129.97L160.01 129.51C160.42 131.16 159.94 132.91 159.83 134.57C159.77 135.38 161.02 135.37 161.08 134.57Z" fill="#18593F"/>
<path d="M161.13 129.93C164.2 126.7 164 121.79 164.76 117.65C165.942 111.398 165.837 104.97 164.45 98.76C161.7 86.96 150.19 79.55 138.8 78.34C133.99 77.83 127.24 78.94 124.13 83.09C121.51 86.61 121.8 90.36 125.67 92.88C128.733 94.6787 131.937 96.227 135.25 97.51C139.22 99.3826 142.561 102.366 144.87 106.1C146.898 109.322 148.734 112.662 150.37 116.1C152.32 119.97 156.14 125.28 155.97 129.67C155.97 130.47 157.19 130.47 157.22 129.67C157.39 125.24 154.14 121.03 152.29 117.2C150.061 112.223 147.366 107.468 144.24 103C141.687 99.7699 138.322 97.275 134.49 95.77C132.16 94.77 129.8 93.77 127.56 92.57C119.96 88.39 125.86 82 131.21 80.18C143.21 76.09 156.55 84.79 161.82 95.18C164.5 100.46 164.53 107.1 164.21 112.89C163.97 117.36 163.4 125.72 160.21 129.04C159.65 129.62 160.54 130.51 161.09 129.92L161.13 129.93Z" fill="#18593F"/>
<path d="M122.16 86.5602C117.33 95.5602 119.33 104.22 125.93 111.56C129.88 115.94 134.93 119.39 139.85 122.56C144.56 125.56 150.05 129.18 155.67 129.98C156.46 130.09 156.8 128.89 156 128.77C151.41 128.12 147.23 125.41 143.25 123.14C138.608 120.504 134.228 117.43 130.17 113.96C122 106.96 117.8 97.3502 123.24 87.2502C123.62 86.5402 122.54 85.9102 122.16 86.6202L122.16 86.5602Z" fill="#18593F"/>
<path d="M123 86.67C123.46 77.75 135.78 74.75 142.92 74.75C152.92 74.75 163.44 77.6 169.61 85.93C174.85 92.98 174.34 105.07 172.36 113.18C171.52 116.64 166.3 130.18 161.43 128.56C160.66 128.31 160.34 129.56 161.1 129.77C166.88 131.65 171.21 119.77 172.7 116.01C176.35 106.91 175.95 93.65 170.7 85.3C164.48 75.41 150.9 73.3 140.23 73.53C132.98 73.69 122.18 78.37 121.76 86.67C121.76 87.47 122.97 87.47 123.01 86.67L123 86.67Z" fill="#18593F"/>
<path d="M124 85.8101C136.52 84.4701 153.58 88.7201 158.38 101.81C158.65 102.57 159.86 102.24 159.58 101.48C154.58 87.8301 137.15 83.1401 124 84.5501C123.2 84.6301 123.2 85.8801 124 85.8001L124 85.8101Z" fill="#18593F"/>
<path d="M158.61 129.62C160.17 118.96 156.38 106.3 149.98 97.7904C147.143 93.8761 143.301 90.8011 138.86 88.8904C136.199 87.9434 133.448 87.2732 130.65 86.8904C128.2 86.4104 125.99 85.4204 123.48 85.2104C122.67 85.1404 122.68 86.4004 123.48 86.4604C127.57 86.8004 131.99 88.3204 136.01 89.2704C140.94 90.4304 144.68 93.5704 148.01 97.2704C151.474 101.273 153.986 106.008 155.36 111.12C156.98 116.69 158.27 123.53 157.43 129.25C157.32 130.04 158.52 130.38 158.64 129.59L158.61 129.62Z" fill="#18593F"/>
<path d="M122.38 87.09C122.45 91.88 122.09 96.18 124.11 100.64C126.02 104.83 129.84 108.31 133.11 111.39C136.773 114.95 140.731 118.195 144.94 121.09C147.567 122.621 150.083 124.336 152.47 126.22C153.728 127.523 155.063 128.749 156.47 129.89C157.14 130.35 157.76 129.26 157.1 128.81C153.92 126.61 151.59 123.71 148.24 121.64C144.121 119.035 140.221 116.099 136.58 112.86C132.933 109.804 129.631 106.361 126.73 102.59C123.24 97.87 123.73 92.59 123.61 87.09C123.59 86.9378 123.516 86.7979 123.401 86.6965C123.286 86.5951 123.138 86.5392 122.985 86.5392C122.831 86.5392 122.683 86.5951 122.568 86.6965C122.453 86.7979 122.379 86.9378 122.36 87.09L122.38 87.09Z" fill="#18593F"/>
<path d="M123.08 91.6301C128.31 101.91 137.08 108.75 145.52 116.36C146.12 116.9 147.01 116.01 146.41 115.47C138 108 129.32 101.13 124.16 91.0001C123.8 90.2801 122.72 90.9201 123.08 91.6301Z" fill="#18593F"/>
<path d="M123.57 84.34C126.48 78.5 136.38 77.34 142.08 77.5C149.92 77.74 159.27 82.38 163.92 88.7C167.56 93.64 169 102.57 169.05 108.57C169.12 115.69 166.28 123.04 162.22 128.79C161.76 129.45 162.84 130.08 163.3 129.42C167.901 122.91 170.349 115.122 170.3 107.15C170.23 99.87 167.8 91.01 162.96 85.51C157.72 79.56 147.96 76.43 140.3 76.2C134.51 76.03 125.3 78.04 122.5 83.71C122.14 84.43 123.22 85.07 123.58 84.34L123.57 84.34Z" fill="#18593F"/>
<path d="M-26.5 21.3002C-14.39 19.8302 -0.920021 13.5502 3.43998 1.35022C3.48294 1.18979 3.46083 1.01886 3.37843 0.874664C3.29603 0.730465 3.16001 0.624636 2.99998 0.5802C-4.00002 -1.4198 -12.65 1.10021 -18.81 4.37021C-21.9722 6.08946 -24.6642 8.5583 -26.65 11.5602C-28.11 13.6402 -31.46 18.2602 -31.46 20.8502C-31.4549 21.0147 -31.3866 21.171 -31.2692 21.2864C-31.1519 21.4019 -30.9946 21.4677 -30.83 21.4702C-29.38 21.4702 -27.96 21.3802 -26.5 21.3002C-25.7 21.3002 -25.7 20.0102 -26.5 20.0502C-26.63 20.0502 -30.09 20.5902 -29.7 19.8002C-29.07 18.5302 -28.44 17.2602 -27.79 16.0002C-26.3224 13.0226 -24.3575 10.3171 -21.98 8.00021C-16.68 3.00021 -7.98002 1.35021 -0.900016 1.25021C2.37998 1.25021 1.91999 2.17021 0.759987 4.43021C-0.0533992 5.89727 -1.03687 7.26336 -2.17004 8.50021C-4.24909 10.7864 -6.66734 12.7392 -9.34002 14.2902C-14.5775 17.4171 -20.4332 19.3656 -26.5 20.0002C-27.29 20.1002 -27.3 21.3502 -26.5 21.2502L-26.5 21.3002Z" fill="#18593F"/>
<path d="M-29.2202 20.4602C-24.4285 16.6369 -19.339 13.2027 -14.0002 10.1903C-8.84018 7.19026 -3.57017 3.19027 2.31983 1.95027C3.10983 1.78027 2.77981 0.580246 1.98981 0.740246C-3.63019 1.93025 -8.20017 5.59026 -13.1502 8.29026C-19.1464 11.5282 -24.8364 15.3037 -30.1502 19.5703C-30.7802 20.0803 -29.8902 20.9602 -29.2602 20.4602L-29.2202 20.4602Z" fill="#18593F"/>
<path d="M-0.610019 3.74036C-5.73002 8.36036 -10.84 13.0204 -17.15 15.9704C-17.88 16.3204 -17.24 17.3904 -16.52 17.0504C-10.12 14.0504 -4.93004 9.31037 0.279965 4.62037C0.869965 4.08037 -0.0100193 3.20036 -0.610019 3.74036Z" fill="#18593F"/>
<path d="M268.88 -122.22C264.82 -106.31 263.78 -89.4298 264.88 -73.1098C265.289 -68.8406 264.971 -64.5328 263.94 -60.3699C262.48 -55.1499 258.07 -52.5998 253.36 -50.7998C246.87 -48.3098 239.83 -47.5999 233.36 -44.9499C233.21 -44.896 233.086 -44.7873 233.013 -44.6457C232.94 -44.504 232.923 -44.3399 232.966 -44.1864C233.009 -44.033 233.109 -43.9016 233.245 -43.8187C233.381 -43.7359 233.544 -43.7077 233.7 -43.7398C241.3 -44.9398 250.06 -48.0199 257.7 -45.8899C264.35 -44.0399 255.84 -34.8899 253.7 -32.8899C250.294 -29.8587 246.451 -27.3573 242.3 -25.4699C233.96 -21.6099 223.98 -24.6399 215.36 -25.6599C204.68 -26.9099 195.11 -23.6599 186.13 -17.9999C186.008 -17.9185 185.919 -17.7973 185.877 -17.6572C185.835 -17.5171 185.843 -17.3668 185.9 -17.2319C185.957 -17.0971 186.059 -16.9863 186.188 -16.9184C186.318 -16.8505 186.467 -16.8298 186.61 -16.8598C202.69 -19.7798 217.9 -19.7299 234.1 -18.3799C233.99 -18.7699 233.89 -19.1598 233.78 -19.5498C221.41 -14.0098 215.15 -4.34984 207.97 6.64016C199.58 19.4902 192.58 33.1801 184.03 45.9001C183.961 46.0202 183.934 46.1596 183.952 46.2968C183.97 46.434 184.033 46.5613 184.131 46.6592C184.229 46.7571 184.356 46.82 184.493 46.8382C184.63 46.8565 184.77 46.829 184.89 46.7602C194.19 40.9802 198.89 28.1502 204.61 19.2902C211.39 8.86015 217.85 -1.48985 227.01 -10.0198C230.65 -13.4098 235.42 -17.7499 240.61 -18.3199C246.16 -18.9299 245.32 -7.85985 245.34 -4.49985C245.34 0.200147 245.03 4.90014 245.34 9.59014C245.42 10.9201 245.07 15.2201 245.96 16.0501C246.038 16.1158 246.13 16.1617 246.23 16.1838C246.329 16.2059 246.432 16.2036 246.531 16.1771C246.629 16.1505 246.719 16.1006 246.794 16.0314C246.869 15.9623 246.926 15.8761 246.96 15.7801C248.78 5.33014 250.21 -6.33984 248.39 -16.8598C247.46 -22.2698 250.39 -24.6198 254.63 -27.2398C255.63 -27.8999 256.76 -28.5298 257.83 -29.1798C259.83 -30.3699 260.83 -27.5999 261.64 -26.0999C264.88 -20.3599 266.12 -13.6299 268.69 -7.59986C268.94 -7.00986 269.88 -7.31986 269.86 -7.90986C269.53 -15.7099 267.52 -22.3799 265.74 -29.8499C264.55 -34.8499 265.56 -39.0799 267.41 -43.7199C269.26 -48.3599 269.56 -52.8099 269.9 -57.7199C271.28 -77.9499 273.42 -97.9598 276.18 -118.05C276.29 -118.84 275.09 -119.18 274.98 -118.38C272.27 -98.6899 270.05 -79.0499 268.75 -59.2098C268.41 -53.9598 268.12 -48.9899 266.21 -44.0299C264.66 -40.0299 263.48 -36.4799 264.08 -32.1599C264.61 -29.1043 265.379 -26.0951 266.38 -23.1599C267.772 -18.1756 268.521 -13.034 268.61 -7.85984L269.77 -8.17984C266.49 -15.8898 265.15 -24.6199 259.63 -31.1798C259.532 -31.2777 259.403 -31.3398 259.265 -31.3561C259.128 -31.3724 258.988 -31.3421 258.87 -31.2698C253.54 -27.7398 245.87 -25.4099 246.99 -17.8099C247.83 -12.2099 247.56 -7.14986 247.41 -1.50986C247.3 3.28014 247.78 8.76016 245.98 13.2902C245.46 14.6102 246.93 16.3601 246.9 14.1801C246.93 13.2858 246.9 12.3905 246.81 11.5001C246.447 8.45447 246.343 5.38341 246.5 2.32015C246.6 -3.83985 247.72 -11.8699 244.73 -17.5599C239.78 -26.9899 220.68 -5.55986 217.84 -2.18986C211.49 5.31014 206.22 14.1801 201.07 22.5301C196.34 30.2101 192.18 40.8101 184.25 45.7401L185.1 46.5901C193.1 34.6401 199.69 21.7601 207.53 9.66015C210.8 4.61015 214.06 -0.469854 217.63 -5.33985C221.948 -11.1228 227.74 -15.6402 234.4 -18.4199C235.02 -18.6999 234.64 -19.5398 234.09 -19.5798C217.79 -20.9298 202.42 -20.9499 186.27 -18.0099L186.75 -16.8699C193.49 -21.1099 200.56 -24.1699 208.58 -24.6299C214.09 -24.9399 219.51 -23.6799 224.94 -22.9599C235.8 -21.5099 244 -23.7098 252.65 -30.3598C256.01 -32.9498 266.16 -42.8098 258.87 -46.7398C255.3 -48.6598 249.82 -47.5699 246.06 -47.0899C241.8 -46.5399 237.63 -45.5599 233.39 -44.8999C233.51 -44.4898 233.62 -44.0899 233.73 -43.6899C245.63 -48.5999 264.41 -47.6899 266.03 -64.2499C266.91 -73.2499 265.34 -82.3899 265.88 -91.4799C266.49 -101.66 267.57 -111.94 270.1 -121.84C270.126 -121.994 270.095 -122.153 270.01 -122.285C269.926 -122.417 269.796 -122.513 269.645 -122.554C269.494 -122.596 269.333 -122.579 269.193 -122.508C269.054 -122.437 268.945 -122.316 268.89 -122.17L268.88 -122.22Z" fill="#18593F"/>
<path d="M271.45 -81.89C274.17 -80.94 277.07 -80.32 279.36 -78.48C282.5 -75.94 280.36 -71.74 279.13 -68.94C277.9 -66.14 280.44 -63.34 282.41 -61.56C283.96 -60.16 285.97 -59.27 287.6 -57.96C292.28 -54.16 287.33 -50.42 284.33 -48.38C282.24 -46.96 280.01 -44.24 281.2 -41.53C283.29 -36.78 289.2 -35.64 289.64 -29.83C289.89 -26.26 284.05 -25.4001 283.06 -22.1701C282.07 -18.94 283.87 -16.44 285.94 -14.02C288.01 -11.6 292.39 -5.67002 287.29 -3.61002C285.65 -2.94003 283.77 -3.07003 282.09 -2.43003C281.134 -2.02709 280.342 -1.31573 279.838 -0.409463C279.334 0.496806 279.148 1.54576 279.31 2.56997C279.617 4.05948 280.135 5.49738 280.85 6.83996C283.71 12.84 274.04 12.4299 270.85 12.0199C267.66 11.6099 264.99 12.73 263.94 15.92C263.36 17.67 264.06 20.22 264.29 21.92C264.71 25.05 264.16 29.4599 258.53 28.5199C257.021 28.1282 255.552 27.5994 254.14 26.94C252.843 26.3747 251.389 26.2813 250.03 26.6758C248.671 27.0703 247.493 27.9279 246.7 29.1C243.31 33.65 249.45 44.6299 238.09 41.7399C234.71 40.8799 230.88 39.6599 227.77 41.9599C224.27 44.5499 226.47 54.72 219.23 53.1C215.72 52.31 213.51 50.97 209.94 52.51C206.55 53.98 196.94 65.4 194.02 58.42C193.544 57.1483 192.737 56.027 191.682 55.1725C190.627 54.3179 189.363 53.7612 188.02 53.56C186.34 53.26 184.44 54.0199 182.88 54.4899C178.88 55.6799 171.36 55.0099 173.96 49.0599C178.16 39.4099 157.64 35.7199 167.73 25.9599C169.9 23.8499 172.56 20.37 171.66 17.1C171.082 15.3494 170.304 13.6715 169.34 12.1C166.83 7.47996 167.51 2.66995 170.62 -1.35005C172.82 -4.18006 176.11 -6.96004 176.36 -10.77C176.44 -12.09 175.71 -13.53 175.36 -14.77C174.677 -16.8429 174.661 -19.0776 175.314 -21.1601C175.967 -23.2426 177.256 -25.0681 179 -26.3801C181.78 -28.3801 185.21 -30.1601 186.22 -33.6401C186.72 -35.3401 186.43 -37.27 186.85 -39.02C188.05 -44.02 191.85 -44.56 196.06 -45.24C199.5 -45.8 203.33 -46.88 204.82 -50.34C205.76 -52.53 205.9 -54.47 207.47 -56.49C210.27 -60.09 215.93 -58.0601 219.7 -58.2001C223.7 -58.3401 225.87 -61.3 227.27 -64.62C228.9 -68.47 231.15 -71.85 235.68 -72.43C238.22 -72.75 240.68 -72.92 243.19 -73.43C245.25 -73.86 246.07 -75.28 247.19 -76.9C249.004 -79.5776 251.68 -81.5531 254.773 -82.4974C257.866 -83.4417 261.19 -83.298 264.19 -82.09C264.93 -81.79 265.26 -83 264.52 -83.29C262.559 -84.0753 260.456 -84.4427 258.345 -84.3687C256.233 -84.2946 254.161 -83.7808 252.26 -82.86C247.87 -80.98 246.31 -75.35 241.79 -74.4C237.44 -73.48 233.65 -74.09 230.06 -71.22C228.537 -69.8564 227.373 -68.1394 226.67 -66.22C224.51 -61.07 221.62 -58.95 215.86 -59.55C212.08 -59.95 207.93 -59.87 205.72 -56.15C204.901 -54.7078 204.304 -53.1503 203.95 -51.53C202.85 -47.13 197.43 -46.61 193.71 -46.12C189.99 -45.63 187.81 -44.12 186.22 -40.81C185.584 -39.2917 185.245 -37.6658 185.22 -36.02C184.97 -32.02 182.56 -30.13 179.35 -28.02C176.72 -26.28 174.29 -24.29 173.98 -20.9101C173.699 -18.7295 173.77 -16.5181 174.19 -14.36C174.37 -13.55 174.69 -12.7601 174.93 -11.97C175.76 -9.34005 173.77 -7.10006 172.3 -5.20006C170.07 -2.32006 166.78 0.599942 166.6 4.51994C166.485 6.90562 166.867 9.28916 167.72 11.5199C169.16 15.3699 171.72 17.23 169.54 21.79C168.22 24.58 164.08 26.3499 163.67 29.5799C163.1 34.0299 166.24 37.7399 169.38 40.4299C172.21 42.8499 174.28 45.3499 172.61 49.1799C172.159 50.064 171.846 51.0115 171.68 51.9899C171.36 54.5399 176.24 56.26 177.96 56.39C183.54 56.78 190.1 52.19 193.1 59.39C193.94 61.39 195.59 61.8699 197.67 61.4599C203.03 60.4599 205.5 57.4099 209.67 54.2399C214.36 50.6899 217.67 56.31 221.81 54.39C225.18 52.82 226.73 48.86 227.53 45.45C229.16 38.45 237.94 44.1499 242.58 43.3299C245.73 42.7699 247.01 39.21 247.18 36.5C247.41 32.92 245.99 26.8 252.76 27.9C255 28.23 257 30 259.41 30C260.934 30.0447 262.419 29.5072 263.561 28.4967C264.704 27.4862 265.418 26.0785 265.56 24.56C265.88 22.56 265.23 20.29 265.02 18.34C264.29 11.56 272.24 13.7 275.7 13.73C278.36 13.73 281.7 12.11 282.64 9.52996C284 5.72996 276.21 0.339957 283.88 -1.66004C286.33 -2.30004 288.64 -2.05003 290.14 -4.40003C291.86 -7.12003 290.14 -10.96 288.35 -13.09C286.17 -15.69 282.65 -18.57 284.57 -22.4C285.35 -23.95 287.25 -24.69 288.57 -25.71C291.21 -27.79 291.2 -30.2 290.16 -33.25C289.43 -35.39 287.16 -36.94 285.49 -38.25C283.2 -40.13 280.6 -42.47 283.49 -46C284.59 -47.34 286.4 -48.06 287.74 -49.13C291.59 -52.21 291.44 -56.37 287.66 -59.43C284.93 -61.65 280.47 -63.15 280.01 -67.23C279.9 -68.23 280.91 -69.57 281.28 -70.5C281.836 -71.912 282.134 -73.4126 282.16 -74.93C282.37 -80.35 275.62 -81.69 271.79 -83.02C271.02 -83.29 270.7 -82.08 271.45 -81.82L271.45 -81.89Z" fill="#18593F"/>
<path d="M290.4 -5.99983C296.74 -1.91983 304.68 8.00017 302.85 16.0002C301.64 21.3402 295.53 20.8502 291.48 21.0002C289.04 21.0602 288.59 24.9002 288.24 26.5402C288.06 27.9459 288.08 29.3701 288.3 30.7702C288.73 35.7102 284.69 38.0902 280.11 37.2102C277.04 36.6102 275.27 35.9702 272.89 38.4302C269.89 41.5002 271.28 46.0802 269.71 49.6802C266.37 57.3202 258.71 51.0602 253.38 51.3002C250.38 51.4402 248.38 54.0202 246.88 56.3502C243.75 61.1402 240.75 66.5102 234.88 68.2102C230.35 69.5302 225.65 66.5502 220.96 67.3302C215.34 68.2601 211.57 73.7402 206.06 75.2402C200.7 76.7002 197.11 71.3102 192.37 69.9302C187.37 68.4602 183.37 74.9302 178.37 70.8402C175.51 68.4502 175.98 63.6602 172.86 61.1202C171.65 60.1202 169.96 59.7301 168.61 59.0201C163.31 56.2601 171.61 49.8002 173.61 48.8702C174.34 48.5302 173.71 47.4502 172.98 47.7902C167.98 50.1402 162.23 57.7902 169.65 60.8902C174.87 63.0502 174.35 67.8902 177.47 71.7202C179.67 74.3902 183.79 73.5002 186.47 72.3202C190.39 70.5902 193.29 71.1701 196.88 73.5801C198.31 74.5801 199.72 75.9802 201.43 76.4202C206.2 77.6502 210.49 75.0601 214.21 72.3601C217.21 70.1701 219.93 68.4102 223.82 68.2702C226.19 68.1802 228.43 69.4401 230.82 69.6102C235.96 70.0002 239.65 67.9702 242.98 64.1502C246.31 60.3302 248.72 52.7702 254.61 52.5002C258.77 52.3002 262.02 56.5002 266.32 54.1902C270.01 52.1902 271.55 49.7802 271.89 45.6602C272.23 41.5402 273.77 36.8102 278.89 38.1802C280.691 38.7071 282.596 38.7725 284.43 38.3702C285.813 38.1369 287.078 37.4465 288.022 36.4096C288.967 35.3726 289.536 34.049 289.64 32.6502C289.87 30.3202 289.19 28.1802 289.64 25.8202C290.55 21.4902 292.81 22.6402 295.9 22.3902C303.58 21.7702 305.44 14.8602 303.3 8.62016C300.959 2.22001 296.654 -3.27554 291 -7.07982C290.32 -7.51982 289.69 -6.43984 290.37 -5.99983L290.4 -5.99983Z" fill="#18593F"/>
<path d="M172.71 43.7904C170.216 44.6837 167.558 45.03 164.918 44.8057C162.279 44.5814 159.718 43.7917 157.41 42.4904C153.84 40.4904 155.97 36.2704 156.41 33.2204C157.51 25.7504 148.58 20.6804 154.08 13.7704C157.55 9.39036 163.73 7.13037 160.23 0.840368C157.32 -4.37963 152.86 -7.15964 156.13 -14.0396C157.63 -17.2196 161.03 -19.6396 162.13 -23.0396C162.298 -23.6576 162.342 -24.3026 162.259 -24.9375C162.177 -25.5725 161.97 -26.1849 161.65 -26.7396C159.21 -32.7396 161.75 -37.0196 166.31 -40.7396C169.6 -43.4196 173.53 -45.0796 176.37 -48.2796C179.51 -51.8396 178.72 -56.8696 181.98 -60.4996C187.58 -66.7396 198.2 -62.8596 205.05 -67.2596C208.13 -69.2596 210.11 -71.7796 213.98 -72.1096C218.55 -72.4996 225.61 -72.5396 229.7 -70.5996C230.42 -70.2596 231.06 -71.3396 230.33 -71.6796C226.64 -73.4296 222.54 -73.0896 218.56 -73.2296C215.09 -73.3396 211.84 -73.7496 208.84 -71.7296C204 -68.4596 200.89 -66.0096 194.84 -65.6096C190.84 -65.3396 187.08 -65.1996 183.45 -63.2296C180.02 -61.3596 178.6 -57.9796 177.76 -54.3896C176.16 -47.5696 170.43 -45.5296 165.47 -41.6196C162.71 -39.4496 159.39 -36.3696 159.33 -32.5196C159.26 -28.8896 162.16 -25.2096 160.16 -21.9696C157.77 -18.0796 154.54 -15.1196 153.75 -10.4496C153.15 -6.95964 155.14 -3.93962 157.16 -1.33963C159.63 1.86038 161.6 4.60038 158 8.38038C156.22 10.2404 154.15 11.7304 152.54 13.7604C151.652 14.9012 151.076 16.2534 150.87 17.6841C150.663 19.1149 150.832 20.5748 151.36 21.9204C152.88 25.6804 155.36 27.5204 155.36 32.0404C155.36 34.6104 153.53 37.6604 154.27 40.2204C156.27 47.2204 167.86 46.6604 173.13 44.9704C173.9 44.7204 173.57 43.5204 172.8 43.7604L172.71 43.7904Z" fill="#18593F"/>
<path d="M272.06 -88.9998C282.25 -85.3898 291.22 -74.7698 296.41 -65.6598C302.99 -54.1198 299.34 -39.7898 297.92 -27.4298C296.61 -15.9598 298.23 -6.27982 305.43 2.92018C309.25 7.80018 313.43 12.6602 314.9 18.8302C315.381 21.0199 315.132 23.3067 314.191 25.3416C313.25 27.3765 311.669 29.0478 309.69 30.1002C307.23 31.4902 304.23 31.9102 301.69 33.1002C298.16 34.7502 296.62 37.9602 296.3 41.6402C295.72 48.4202 295.43 55.9102 287.6 58.0602C280.67 59.9602 270.9 56.9202 266 63.7902C264 66.5802 263 69.8602 261.15 72.7902C256.77 79.7302 249.15 75.6502 242.91 74.7902C239.24 74.2602 236.43 76.7902 234.11 79.2102C227.11 86.5302 218.79 77.6101 217.01 70.5501L216.83 69.5501C216.7 68.7601 215.5 69.1002 215.63 69.8902C216.7 76.2202 223.71 86.3602 231.46 82.7002C233.083 81.8739 234.533 80.7434 235.73 79.3702C238.98 75.9802 242.57 75.6902 246.93 77.0702C251.11 78.3902 255.14 78.8902 259.09 76.6602C261.64 75.2202 263.04 72.2802 264.23 69.7602C266.47 65.0002 268.64 61.9102 274.09 60.7602C281.7 59.1102 290.4 61.7602 295.15 53.9602C297.92 49.4502 296.97 44.4602 297.85 39.5502C299.11 32.4602 308.41 33.9102 312.56 29.8502C320.36 22.2002 314.29 12.4302 308.9 5.41017C305.14 0.500167 301.57 -3.85983 299.81 -9.93984C297.91 -16.4898 298.74 -23.6598 299.56 -30.3098C300.97 -41.5998 303.24 -53.3698 298.51 -64.2098C294.01 -74.4998 283.15 -86.2798 272.42 -90.0798C271.66 -90.3398 271.33 -89.1398 272.09 -88.8698L272.06 -88.9998Z" fill="#18593F"/>
<path d="M241.46 -18.9998C235.46 -12.8898 232.21 -5.21978 230.37 3.00022C228 13.6402 230.91 24.6402 228.66 35.3202C228.49 36.1102 229.66 36.4502 229.86 35.6602C231.75 26.6602 230.34 17.6102 230.86 8.54023C231.446 -1.42649 235.516 -10.8702 242.36 -18.1398C242.92 -18.7198 242.04 -19.6098 241.47 -19.0298L241.46 -18.9998Z" fill="#18593F"/>
<path d="M230.08 4.27029C226.549 11.9382 221.793 18.9802 216 25.1203C212 29.4803 208 33.8503 206.44 39.7003C206.408 39.8564 206.436 40.0189 206.519 40.1551C206.602 40.2912 206.733 40.3909 206.887 40.434C207.04 40.4771 207.204 40.4605 207.346 40.3875C207.487 40.3144 207.596 40.1903 207.65 40.0403C209.54 32.9903 215.11 28.1303 219.75 22.8203C224.407 17.4411 228.241 11.4023 231.13 4.9003C231.46 4.1703 230.38 3.54029 230.05 4.27029L230.08 4.27029Z" fill="#18593F"/>
<path d="M222.6 17.2901C217.34 18.5901 211.06 18.5401 207.29 23.0201C206.78 23.6301 207.66 24.5201 208.18 23.9001C211.77 19.6301 217.91 19.7401 222.93 18.5001C223.076 18.4446 223.197 18.3365 223.268 18.197C223.339 18.0574 223.355 17.8964 223.314 17.7453C223.273 17.5941 223.177 17.4638 223.045 17.3797C222.913 17.2955 222.754 17.2636 222.6 17.2901Z" fill="#18593F"/>
<path d="M231.14 1.38014C234.24 7.38014 238.73 12.6301 240.83 19.1701C241.08 19.9401 242.29 19.6101 242.04 18.8401C239.9 12.1901 235.37 6.89013 232.21 0.750133C231.85 0.0301333 230.77 0.660138 231.14 1.38014Z" fill="#18593F"/>
<path d="M232.53 -18.9996C223.09 -18.1696 214.09 -14.4496 205.61 -10.4296C197.74 -6.69962 189.22 -0.87964 185.34 7.18036C184.99 7.91036 186.07 8.54037 186.42 7.81037C190.03 0.300366 197.74 -5.06962 205 -8.73962C213.48 -13.0396 223 -16.9096 232.53 -17.7396C233.32 -17.8096 233.33 -19.0596 232.53 -18.9896L232.53 -18.9996Z" fill="#18593F"/>
<path d="M206.63 -10.2598C202.19 -1.4198 198.37 7.25021 190.84 13.9702C190.23 14.5102 191.12 15.3902 191.72 14.8602C199.32 8.0802 203.22 -0.689792 207.72 -9.62979C208.08 -10.3398 207 -10.9798 206.64 -10.2598L206.63 -10.2598Z" fill="#18593F"/>
<path d="M178.94 32.0003C184.47 27.5603 190.73 23.2303 198.19 24.2403C198.98 24.3403 199.32 23.1403 198.52 23.0303C190.52 21.9603 184.01 26.3403 178.05 31.1103C177.42 31.6203 178.31 32.5003 178.94 32.0003Z" fill="#18593F"/>
<path d="M257.82 -29.9C257.99 -24 257.13 -17.9 259.05 -12.23C261.05 -6.23004 266.15 -2.09002 267.43 4.22998C267.59 5.01998 268.79 4.68997 268.63 3.89997C267.63 -0.960034 264.69 -4.75002 262.13 -8.87002C258.13 -15.35 259.27 -22.66 259.07 -29.87C259.07 -30.68 257.79 -30.68 257.82 -29.87L257.82 -29.9Z" fill="#18593F"/>
<path d="M259.28 -12.23C255.97 -5.35998 255.88 2.33002 256.01 9.77002C256.029 9.92217 256.103 10.0621 256.218 10.1635C256.333 10.2649 256.482 10.3208 256.635 10.3208C256.788 10.3208 256.936 10.2649 257.051 10.1635C257.167 10.0621 257.241 9.92217 257.26 9.77002C257.13 2.54002 257.15 -4.97998 260.36 -11.63C260.7 -12.36 259.63 -12.99 259.28 -12.27L259.28 -12.23Z" fill="#18593F"/>
<path d="M265.67 14.4301C270.38 19.7301 276.07 24.2501 279.55 30.5401C279.94 31.2401 281.02 30.6101 280.63 29.9101C277.09 23.5201 271.34 18.9101 266.55 13.5501C266.01 12.9501 265.13 13.8301 265.67 14.4301Z" fill="#18593F"/>
<path d="M271.78 21.6202C271.33 26.3102 270.22 30.8802 269.46 35.5202C269.33 36.3102 270.54 36.6502 270.67 35.8502C271.45 31.1002 272.57 26.4202 273.03 21.6202C273.1 20.8202 271.85 20.8302 271.78 21.6202Z" fill="#18593F"/>
<path d="M248 28.5603C251.473 33.5367 253.006 39.6117 252.31 45.6403C252.19 46.4303 253.4 46.7703 253.51 45.9703C254.295 39.6298 252.718 33.2222 249.08 27.9703C248.61 27.3303 247.52 27.9703 248 28.6003L248 28.5603Z" fill="#18593F"/>
<path d="M228.91 41.7004C230.22 47.9104 234.32 52.5004 238.76 56.7904C239.34 57.3504 240.23 56.4704 239.65 55.9104C235.35 51.7604 231.39 47.3804 230.12 41.3704C229.95 40.5804 228.74 40.9104 228.91 41.7004Z" fill="#18593F"/>
<path d="M231.43 48.4503C230.465 52.797 228.977 57.0109 227 61.0003C226.66 61.7203 227.74 62.3603 228.08 61.6303C230.111 57.5356 231.642 53.2111 232.64 48.7503C232.8 47.9603 231.64 47.6303 231.43 48.4203L231.43 48.4503Z" fill="#18593F"/>
<path d="M199.34 61.2301C200.98 64.0601 202.12 67.14 203.9 69.9C204.33 70.57 205.41 69.95 204.98 69.27C203.2 66.51 202.06 63.4301 200.42 60.6001C200.327 60.478 200.192 60.3941 200.041 60.3643C199.891 60.3345 199.734 60.3608 199.602 60.4382C199.469 60.5156 199.369 60.6388 199.321 60.7846C199.273 60.9304 199.279 61.0888 199.34 61.2301Z" fill="#18593F"/>
<path d="M189.33 54.9303C187.44 57.7003 186.48 60.9303 185.33 64.0503C185.05 64.8003 186.25 65.1303 186.53 64.3803C187.65 61.3803 188.58 58.2403 190.41 55.5603C190.87 54.8903 189.79 54.2703 189.33 54.9303Z" fill="#18593F"/>
<path d="M280.67 0.519949C286.09 1.39995 290.1 6.81995 291.74 11.74C291.99 12.5 293.2 12.17 292.94 11.4C291.18 6.10995 286.85 0.259967 281 -0.680033C280.21 -0.810033 279.88 0.389949 280.67 0.519949Z" fill="#18593F"/>
<path d="M287 51.7002C281.21 48.4202 279.33 42.2202 276.52 36.6202C276.16 35.9002 275.08 36.5402 275.44 37.2502C278.37 43.0802 280.36 49.3802 286.37 52.7802C287.07 53.1702 287.7 52.0902 287 51.7002Z" fill="#18593F"/>
<path d="M277.19 53.3201C277.035 50.3192 277.728 47.3353 279.19 44.7101C279.58 44.0001 278.5 43.3701 278.11 44.0801C276.538 46.8964 275.793 50.0991 275.96 53.3201C275.96 54.1201 277.24 54.1301 277.21 53.3201L277.19 53.3201Z" fill="#18593F"/>
<path d="M299.66 29.84C295.889 28.0628 292.795 25.1123 290.84 21.43C290.747 21.3079 290.612 21.2241 290.462 21.1943C290.311 21.1645 290.154 21.1908 290.022 21.2682C289.889 21.3455 289.789 21.4687 289.741 21.6145C289.693 21.7603 289.7 21.9188 289.76 22.06C291.886 26.0175 295.242 29.1763 299.32 31.06C300.07 31.37 300.39 30.16 299.66 29.85L299.66 29.84Z" fill="#18593F"/>
<path d="M254.76 71C252.45 64.68 254.32 58.11 253.11 51.63C252.96 50.84 251.75 51.18 251.9 51.96C253.12 58.46 251.23 64.96 253.55 71.33C253.83 72.08 255.04 71.75 254.76 71Z" fill="#18593F"/>
<path d="M228.37 77.6904C227.7 74.5204 227.48 71.2903 227.04 68.0903C226.93 67.2903 225.72 67.6304 225.83 68.4204C226.28 71.6204 226.5 74.8503 227.16 78.0303C227.32 78.8203 228.53 78.4804 228.37 77.6904Z" fill="#18593F"/>
<path d="M158.87 23.9999C162.08 21.2399 165.92 18.9999 170.31 19.6499C171.1 19.7799 171.44 18.57 170.64 18.45C165.76 17.69 161.59 20.0199 157.99 23.1199C157.37 23.6399 158.26 24.5199 158.87 23.9999Z" fill="#18593F"/>
<path d="M160.94 40.8101C162.975 40.122 164.84 39.0071 166.41 37.5401C166.507 37.4196 166.556 37.2677 166.547 37.1134C166.539 36.9591 166.475 36.8131 166.366 36.7033C166.258 36.5934 166.112 36.5273 165.958 36.5175C165.804 36.5077 165.652 36.5549 165.53 36.6501C164.125 37.9923 162.447 39.0156 160.61 39.6501C159.86 39.9301 160.19 41.1401 160.94 40.8601L160.94 40.8101Z" fill="#18593F"/>
<path d="M384.73 24.8502C383.27 29.7002 380.62 36.2402 375.73 38.4702L376.65 38.8502C375.74 34.6902 377.75 25.4202 381.99 23.4702C382.72 23.1302 382.09 22.0502 381.36 22.3902C378.8 23.5602 377.64 26.7402 376.75 29.2102C375.67 32.2102 374.75 35.9802 375.45 39.2102C375.477 39.3019 375.524 39.3864 375.588 39.4572C375.652 39.5281 375.731 39.5834 375.82 39.6191C375.909 39.6547 376.004 39.6697 376.099 39.663C376.195 39.6562 376.287 39.6279 376.37 39.5802C381.63 37.2002 384.43 30.3902 385.99 25.2102C386.016 25.0558 385.985 24.8971 385.9 24.765C385.816 24.6329 385.686 24.5369 385.535 24.4957C385.384 24.4544 385.223 24.471 385.083 24.5421C384.944 24.6132 384.835 24.7337 384.78 24.8802L384.73 24.8502Z" fill="#18593F"/>
<path d="M378.46 47.3604C376.847 49.6725 374.899 51.7318 372.68 53.4704L373.6 53.8504C372.65 49.4804 373.22 43.3704 376.11 39.7904C376.61 39.1704 375.73 38.2704 375.22 38.9004C372.04 42.9004 371.35 49.3304 372.4 54.1804C372.426 54.2721 372.473 54.3566 372.538 54.4274C372.602 54.4983 372.681 54.5536 372.77 54.5893C372.858 54.6249 372.954 54.6399 373.049 54.6332C373.144 54.6265 373.237 54.5981 373.32 54.5504C375.702 52.6824 377.797 50.4757 379.54 48.0004C380.02 47.3504 378.93 46.7304 378.46 47.3704L378.46 47.3604Z" fill="#18593F"/>
<path d="M379.46 53.7002C377.93 56.1302 376.28 58.4202 373.68 59.8002L374.62 60.3402C374.657 57.7008 374.992 55.0742 375.62 52.5102C375.81 51.7302 374.62 51.4002 374.42 52.1802C373.778 54.8535 373.443 57.5911 373.42 60.3402C373.423 60.4499 373.455 60.5568 373.511 60.6508C373.568 60.7448 373.648 60.8226 373.743 60.8769C373.839 60.9311 373.946 60.9599 374.056 60.9604C374.166 60.961 374.274 60.9334 374.37 60.8802C377.15 59.4102 378.94 56.9402 380.59 54.3302C381.02 53.6402 379.94 53.0202 379.51 53.7002L379.46 53.7002Z" fill="#18593F"/>
<path d="M381.17 22.4102C375 24.6002 370 31.0802 369.71 37.6802C369.708 37.8174 369.752 37.9512 369.836 38.0601C369.919 38.1689 370.037 38.2465 370.17 38.2802C372.205 38.6499 374.263 38.8804 376.33 38.9702C377.14 38.9702 377.14 37.7502 376.33 37.7202C375.528 37.7184 374.727 37.6717 373.93 37.5802C371.68 37.3902 370.8 37.6602 371.21 35.4602C371.583 33.8335 372.229 32.2816 373.12 30.8702C374.986 27.5507 377.949 24.9839 381.5 23.6102C382.25 23.3502 381.93 22.1402 381.17 22.4102Z" fill="#18593F"/>
<path d="M374.68 37.8003C369.68 41.2303 367.27 46.9803 365.4 52.5103C365.373 52.6029 365.369 52.7003 365.387 52.7949C365.405 52.8895 365.444 52.9786 365.502 53.0553C365.561 53.1319 365.636 53.194 365.722 53.2365C365.809 53.2791 365.904 53.3009 366 53.3003C368.328 53.1718 370.628 52.7174 372.83 51.9503C373.6 51.7003 373.27 50.4903 372.5 50.7403C370.403 51.4625 368.215 51.8866 366 52.0003L366.6 52.7903C368.36 47.6003 370.6 42.0603 375.32 38.7903C375.97 38.3403 375.32 37.2603 374.68 37.7103L374.68 37.8003Z" fill="#18593F"/>
<path d="M379.71 55.3402C379.81 58.7368 378.6 62.0418 376.33 64.5702C376.09 64.8502 374.82 66.2602 374.39 65.6702C374.106 65.1155 373.991 64.4896 374.06 63.8702C374.107 62.5223 374.288 61.1823 374.6 59.8702C374.77 59.0902 373.6 58.7502 373.4 59.5402C372.98 61.5402 372.25 64.2902 373.25 66.2302C373.9 67.4902 375.35 67.0802 376.25 66.3902C379.25 64.0402 381.25 59.1602 380.96 55.3902C380.9 54.6002 379.65 54.5902 379.71 55.3902L379.71 55.3402Z" fill="#18593F"/>
<path d="M374 59.14C372.116 60.6395 370.108 61.9775 368 63.14L368.94 63.68C368.743 59.9206 369.258 56.1578 370.46 52.59C370.7 51.83 369.46 51.5 369.25 52.26C368.015 55.9345 367.486 59.8091 367.69 63.68C367.694 63.7882 367.726 63.8937 367.782 63.9863C367.838 64.079 367.916 64.1559 368.01 64.2099C368.104 64.2638 368.21 64.2931 368.319 64.2948C368.427 64.2966 368.534 64.2709 368.63 64.22C370.738 63.0575 372.746 61.7194 374.63 60.22C375.29 59.76 374.63 58.68 374 59.14Z" fill="#18593F"/>
<path d="M373.46 66.7003C372.78 67.8203 371.37 71.0503 370 71.0503L370.62 71.6803C370.34 69.0233 370.23 66.3513 370.29 63.6803C370.27 63.5281 370.196 63.3883 370.081 63.2869C369.966 63.1855 369.818 63.1295 369.665 63.1295C369.511 63.1295 369.363 63.1855 369.248 63.2869C369.133 63.3883 369.059 63.5281 369.04 63.6803C368.98 66.3513 369.09 69.0233 369.37 71.6803C369.377 71.844 369.446 71.9989 369.563 72.1139C369.68 72.2288 369.836 72.2954 370 72.3003C372.16 72.3003 373.56 68.9503 374.54 67.3003C374.6 67.1591 374.607 67.0007 374.558 66.8549C374.51 66.709 374.41 66.5858 374.278 66.5085C374.145 66.4311 373.989 66.4048 373.838 66.4346C373.687 66.4644 373.553 66.5482 373.46 66.6703L373.46 66.7003Z" fill="#18593F"/>
<path d="M443.13 -101.66C428.6 -81.7899 412.56 -62.9999 397.13 -43.8399C390.442 -35.7475 384.324 -27.2002 378.82 -18.26C376.169 -13.9117 373.945 -9.31692 372.18 -4.53996C371.77 -3.39996 369.71 4.03005 368.3 3.25005C366.2 2.07005 364.3 0.600047 362.16 -0.529953C358.65 -2.38995 371.08 -20.78 372.65 -23.78C378.21 -34.39 385.29 -43.88 393 -53C400.41 -61.75 407.73 -70.56 415.33 -79.14C419.33 -83.6733 423.443 -88.1066 427.67 -92.44C429.78 -94.6099 431.94 -96.73 434.11 -98.83C435.84 -100.5 439.81 -105.98 442.24 -101.83C442.325 -101.688 442.462 -101.586 442.623 -101.545C442.783 -101.505 442.953 -101.53 443.095 -101.615C443.237 -101.7 443.339 -101.838 443.379 -101.998C443.42 -102.158 443.395 -102.328 443.31 -102.47C442.06 -104.61 440.9 -105.71 438.52 -104.47C433.65 -101.91 429.31 -95.9299 425.52 -92.0299C415.84 -82.0299 406.88 -71.41 397.93 -60.79C389.73 -51.05 381.53 -41.4599 374.93 -30.5199C371.83 -25.3799 369.06 -20.0399 366.01 -14.8599C363.4 -10.4499 360.82 -5.85997 359.86 -0.729965C359.822 -0.571065 359.845 -0.403579 359.924 -0.26088C360.004 -0.11818 360.134 -0.0107233 360.29 0.0400541C363.36 1.33005 365.94 3.37006 368.83 4.98006C368.973 5.06431 369.144 5.08844 369.305 5.04723C369.466 5.00601 369.605 4.9028 369.69 4.76006C371.93 0.490056 373.16 -4.16995 375.06 -8.58995C377.214 -13.2508 379.732 -17.7347 382.59 -22C388.48 -31.29 395.48 -39.8399 402.4 -48.3599C416.53 -65.7499 431 -82.9999 444.21 -101C444.69 -101.65 443.61 -102.27 443.13 -101.63L443.13 -101.66Z" fill="#18593F"/>
<path d="M368.27 4.07025C367.542 9.35585 365.53 14.3825 362.41 18.7102L363.49 18.7102C360.78 13.8602 363.69 6.56025 364.49 1.47024C364.62 0.680244 363.42 0.350257 363.29 1.14026C362.4 6.57026 359.47 14.1402 362.38 19.3402C362.438 19.4311 362.517 19.5059 362.612 19.5577C362.706 19.6096 362.812 19.6367 362.92 19.6367C363.027 19.6367 363.133 19.6096 363.228 19.5577C363.322 19.5059 363.402 19.4311 363.46 19.3402C366.676 14.8163 368.736 9.57372 369.46 4.07025C369.55 3.27025 368.3 3.28025 368.21 4.07025L368.27 4.07025Z" fill="#18593F"/>
<path d="M363.38 0.999953C361.22 5.58995 357.66 11.7099 352.45 13.1799L353.24 13.78C353.05 11.05 354.24 8.18995 355.37 5.77995C356.5 3.36995 358.1 -5.96895e-05 360.73 -0.700059C360.88 -0.753895 361.004 -0.862597 361.077 -1.00426C361.15 -1.14592 361.167 -1.31001 361.124 -1.46346C361.081 -1.61691 360.981 -1.74829 360.845 -1.83116C360.709 -1.91404 360.546 -1.94224 360.39 -1.91005C357.57 -1.10005 355.87 2.08994 354.61 4.45994C353.18 7.19994 351.77 10.6199 351.99 13.7699C351.991 13.8655 352.015 13.9595 352.058 14.0448C352.101 14.1302 352.163 14.2045 352.239 14.2623C352.315 14.3202 352.403 14.3599 352.497 14.3785C352.591 14.3972 352.688 14.3942 352.78 14.3699C358.34 12.8099 362.16 6.50995 364.46 1.61995C364.8 0.899948 363.72 0.259943 363.38 0.989943L363.38 0.999953Z" fill="#18593F"/>
<path d="M361.2 16C360.35 17.09 359.5 18.18 358.58 19.21C357.66 20.24 356.37 21.78 354.91 21.93C352.59 22.16 355.52 14.08 355.72 12.93C355.86 12.14 354.65 11.8101 354.52 12.6001C354.13 14.7901 353.28 16.8901 352.84 19.0701C352.55 20.5401 352.49 22.0701 353.9 22.9501C356.78 24.7201 360.75 18.5901 362.09 16.8801C362.58 16.2601 361.7 15.36 361.2 16Z" fill="#18593F"/>
<path d="M362 19.14C361.26 23.14 358.54 26.72 355.33 29.14L356.09 29.24C354.77 27.62 354.87 25.73 355.09 23.78C355.2 22.98 353.95 22.99 353.84 23.78C353.53 26.15 353.61 28.22 355.16 30.13C355.258 30.2279 355.387 30.2899 355.524 30.3062C355.662 30.3226 355.802 30.2922 355.92 30.22C359.37 27.57 362.36 23.8 363.16 19.43C363.31 18.64 362.1 18.31 361.96 19.1L362 19.14Z" fill="#18593F"/>
<path d="M353.85 22.34C351.877 24.4238 349.605 26.2031 347.11 27.62L348.05 28.16C347.75 23.63 349.24 17.64 352.68 14.49C353.27 13.94 352.38 13.06 351.79 13.61C348.11 16.99 346.48 23.3 346.79 28.16C346.794 28.2682 346.826 28.3736 346.882 28.4663C346.938 28.559 347.016 28.6359 347.11 28.6899C347.204 28.7438 347.31 28.773 347.419 28.7748C347.527 28.7766 347.634 28.7508 347.73 28.7C350.316 27.226 352.674 25.3834 354.73 23.23C354.839 23.1102 354.898 22.953 354.894 22.791C354.89 22.629 354.824 22.4747 354.71 22.3601C354.595 22.2455 354.441 22.1795 354.279 22.1758C354.117 22.172 353.959 22.2308 353.84 22.34L353.85 22.34Z" fill="#18593F"/>
<path d="M353.91 28.7501C352.04 30.9201 350.07 32.9901 347.31 33.9701L348.08 34.7401C348.503 32.0851 349.231 29.4879 350.25 27.0001C350.55 26.2501 349.35 25.9301 349.05 26.6701C348.031 29.1657 347.3 31.7691 346.87 34.4301C346.8 34.8601 347.15 35.4301 347.64 35.2001C350.64 34.1501 352.76 32.0201 354.79 29.6701C355.31 29.0601 354.43 28.1701 353.91 28.7801L353.91 28.7501Z" fill="#18593F"/>
<path d="M368.72 3.6301C369.53 6.8501 368.62 10.7601 367.93 13.9201C367.582 15.664 367.052 17.3666 366.35 19.0001C365.35 21.3101 364.56 20.1801 363.98 18.2401C363.924 18.0936 363.816 17.9731 363.676 17.902C363.537 17.8309 363.376 17.8144 363.225 17.8556C363.074 17.8968 362.943 17.9928 362.859 18.1249C362.775 18.257 362.743 18.4157 362.77 18.5701C363.12 19.7401 363.7 21.9001 365.29 21.8201C366.68 21.7601 367.4 19.7401 367.82 18.7101C369.59 14.4401 371.09 7.89011 369.93 3.29011C369.874 3.14365 369.766 3.02309 369.626 2.952C369.487 2.88091 369.326 2.86437 369.175 2.90558C369.024 2.9468 368.893 3.04283 368.809 3.17493C368.725 3.30704 368.693 3.46573 368.72 3.62009L368.72 3.6301Z" fill="#18593F"/>
<path d="M360.09 -1.86986C353.75 -0.639859 347.81 5.06014 346.6 11.4401C346.562 11.6003 346.587 11.7689 346.668 11.9118C346.75 12.0547 346.883 12.1613 347.04 12.2101C348.948 12.861 350.9 13.3789 352.88 13.7601C353.66 13.9001 354 12.7001 353.21 12.5601C351.231 12.1709 349.28 11.6497 347.37 11.0001C347.52 11.2501 347.66 11.5101 347.81 11.7701C348.94 5.77012 354.47 0.480122 360.42 -0.669877C361.21 -0.819877 360.88 -2.02987 360.09 -1.87987L360.09 -1.86986Z" fill="#18593F"/>
<path d="M363 19.1203C363.016 23.0933 362.163 27.0218 360.5 30.6303C360.04 31.6303 359.13 33.7803 357.81 33.9503C356.11 34.1803 355.25 30.0603 354.97 29.0303C354.914 28.8838 354.806 28.7633 354.667 28.6922C354.527 28.6211 354.366 28.6045 354.215 28.6457C354.064 28.687 353.934 28.783 353.85 28.9151C353.765 29.0472 353.733 29.2059 353.76 29.3603C354.27 31.2203 354.94 34.1603 356.93 35.0403C358.37 35.6703 359.6 34.4303 360.39 33.3703C363.17 29.6503 364.39 23.6803 364.25 19.1203C364.231 18.9681 364.157 18.8282 364.041 18.7268C363.926 18.6254 363.778 18.5695 363.625 18.5695C363.472 18.5695 363.323 18.6254 363.208 18.7268C363.093 18.8282 363.019 18.9681 363 19.1203Z" fill="#18593F"/>
<path d="M351.41 12.4201C346.06 15.0201 342.79 20.3701 340.16 25.4901C340.109 25.5857 340.083 25.6928 340.085 25.8011C340.087 25.9094 340.116 26.0155 340.17 26.1094C340.224 26.2033 340.301 26.282 340.394 26.3381C340.486 26.3942 340.592 26.4259 340.7 26.4301C343.038 26.6441 345.396 26.5229 347.7 26.0701C348.49 25.9401 348.15 24.7401 347.36 24.8701C345.179 25.2879 342.95 25.3923 340.74 25.1801L341.28 26.1201C343.78 21.1801 346.87 16.0001 352 13.5001C352.72 13.1501 352.09 12.0701 351.37 12.4201L351.41 12.4201Z" fill="#18593F"/>
<path d="M353.85 30.5601C353.421 33.9145 351.73 36.9793 349.12 39.1301C348.8 39.4001 347.33 40.6001 347.02 39.7901C346.4 38.1501 347.62 35.5701 348.18 34.0801C348.46 33.3201 347.25 33.0001 346.97 33.7401C346.31 35.5301 344.97 38.4601 345.97 40.3901C346.55 41.6201 347.92 41.3901 348.91 40.8301C352.3 38.9701 354.91 34.3201 355.14 30.5601C355.2 29.7601 353.95 29.7601 353.89 30.5601L353.85 30.5601Z" fill="#18593F"/>
<path d="M347.59 33.4204C345.551 34.5969 343.416 35.6004 341.21 36.4204L342 37.0004C342.358 33.3087 343.413 29.7185 345.11 26.4204C345.46 25.7004 344.39 25.0604 344.03 25.7804C342.232 29.2777 341.119 33.0858 340.75 37.0004C340.751 37.096 340.774 37.19 340.817 37.2753C340.86 37.3606 340.922 37.435 340.999 37.4928C341.075 37.5506 341.163 37.5903 341.257 37.609C341.35 37.6276 341.447 37.6247 341.54 37.6004C343.851 36.7474 346.085 35.7003 348.22 34.4704C348.94 34.1104 348.31 33.0404 347.59 33.3904L347.59 33.4204Z" fill="#18593F"/>
<path d="M346 40.72C345.27 41.62 344.52 42.5 343.72 43.34C343.16 43.92 342.72 44.69 341.97 44.58L342.42 45.18C342.53 42.5678 342.81 39.9656 343.26 37.39C343.38 36.6 342.17 36.26 342.05 37.06C341.587 39.7456 341.293 42.4576 341.17 45.18C341.171 45.3176 341.216 45.4513 341.299 45.5612C341.382 45.6711 341.498 45.7513 341.63 45.79C341.927 45.886 342.244 45.8985 342.547 45.8262C342.851 45.7539 343.128 45.5996 343.35 45.38C344.661 44.2529 345.847 42.989 346.89 41.61C347.4 40.99 346.52 40.1 346 40.72Z" fill="#18593F"/>
<path d="M-67.6303 68.0004C-67.5403 84.4604 -64.7803 100.63 -55.5503 114.56C-46.3203 128.49 -31.7503 138.3 -18.3203 147.87C-10.8946 152.983 -3.83108 158.603 2.81969 164.69C6.05875 167.665 9.04252 170.907 11.7397 174.38C12.5297 175.43 16.5997 181.59 12.4397 177.56C10.8797 176.05 9.78968 173.94 8.43968 172.23C3.67968 166.16 -2.69031 161.39 -8.90031 156.91C-14.2603 153.04 -20.4503 148.65 -27.1703 147.73C-27.2633 147.71 -27.3596 147.71 -27.4525 147.731C-27.5454 147.751 -27.6327 147.792 -27.7081 147.851C-27.7834 147.909 -27.8451 147.983 -27.8887 148.067C-27.9322 148.152 -27.9567 148.245 -27.9603 148.34C-28.8203 159.03 -27.4703 169.83 -27.7903 180.55C-27.7775 182.543 -28.0024 184.531 -28.4603 186.47C-29.2103 189.28 -30.1303 184.13 -30.1603 183.64C-30.6003 175.06 -29.6503 166.35 -29.6903 157.75C-29.6903 154.47 -28.8603 149.52 -30.7903 146.75C-32.7602 144.124 -35.0027 141.714 -37.4803 139.56C-43.6803 133.74 -50.4803 128.77 -56.0603 122.27C-62.3185 114.704 -66.823 105.845 -69.2503 96.3304C-70.452 91.4001 -71.2777 86.3857 -71.7203 81.3304C-71.9803 79.0204 -72.2003 76.7004 -72.4303 74.3904C-72.8703 70.1804 -72.6503 67.9604 -67.5003 69.2904C-67.4215 69.3121 -67.3392 69.318 -67.2582 69.3079C-67.1771 69.2977 -67.0988 69.2717 -67.0277 69.2313C-66.9567 69.1909 -66.8943 69.1369 -66.8441 69.0724C-66.794 69.0079 -66.757 68.9342 -66.7353 68.8554C-66.7136 68.7766 -66.7077 68.6943 -66.7178 68.6132C-66.728 68.5321 -66.754 68.4538 -66.7944 68.3828C-66.8348 68.3118 -66.8887 68.2494 -66.9533 68.1992C-67.0178 68.149 -67.0915 68.1121 -67.1703 68.0904C-69.3778 67.5793 -71.6841 67.6936 -73.8303 68.4204C-73.9624 68.4557 -74.0792 68.5337 -74.1624 68.6422C-74.2456 68.7507 -74.2905 68.8836 -74.2903 69.0204C-72.8303 81.1804 -72.5103 93.8604 -67.6103 105.28C-62.7103 116.7 -55.6103 125.64 -46.1803 133.64C-41.6313 137.307 -37.3411 141.283 -33.3403 145.54C-30.3403 148.88 -31.0003 153.54 -30.9403 157.77C-30.8903 161.41 -30.9403 165.06 -31.0803 168.7C-31.2203 173.97 -31.6303 179.27 -31.3603 184.54C-31.2703 186.26 -31.0703 187.44 -29.7103 188.42C-26.8603 190.5 -26.6203 182.32 -26.5703 181.42C-26.1203 172.98 -26.8003 164.47 -26.9003 156.02C-26.9003 154.2 -26.9003 152.37 -26.8403 150.54C-26.7603 148.1 -25.2803 149.31 -23.3303 149.98C-17.9503 151.84 -13.0403 155.47 -8.46031 158.77C-3.45862 162.331 1.2014 166.348 5.45967 170.77C8.51967 173.98 10.4597 179.01 14.8297 180.66C15.3197 180.85 15.6797 180.32 15.5997 179.9C14.8297 175.62 11.7597 172.23 8.89968 169.13C4.66916 164.594 0.11017 160.376 -4.74031 156.51C-14.2803 148.78 -24.6903 142.21 -34.3303 134.62C-44.3803 126.72 -53.4503 117.42 -59.1503 105.86C-64.8503 94.3004 -66.3103 80.8604 -66.3803 68.0604C-66.3996 67.9082 -66.4737 67.7684 -66.5888 67.667C-66.7038 67.5656 -66.8519 67.5096 -67.0053 67.5096C-67.1587 67.5096 -67.3068 67.5656 -67.4218 67.667C-67.5369 67.7684 -67.611 67.9082 -67.6303 68.0604L-67.6303 68.0004Z" fill="#18593F"/>
<path d="M-10.68 152.55C-4.86002 148.8 3.44996 150.11 9.73996 151.85C13.2018 152.765 16.5081 154.191 19.55 156.08C24.63 159.31 23.55 163.61 22.73 168.51C21.1 178.51 35.2 181.14 37.54 189.71C39.83 198.12 33.43 206.91 25.82 209.71C18.21 212.51 14.2 208 11 202.06C9.44997 199.21 7.39997 196.06 4.09997 195.06C1.96317 194.449 -0.275488 194.279 -2.48004 194.56C-6.76004 194.98 -9.15003 195.31 -10.4 190.21C-10.59 189.43 -11.79 189.76 -11.6 190.54C-10.01 197.03 -7.16004 196.27 -1.44004 195.71C7.33996 194.84 8.82996 202.33 13.06 207.89C16.52 212.43 22.47 212.24 27.38 210.46C33.9 208.1 38.04 201.46 38.98 194.89C39.82 189.02 37.08 184.35 32.57 180.89C29.86 178.8 26.89 176.96 24.97 174.05C22.44 170.22 25.17 165.73 24.97 161.6C24.62 155.15 14.97 152.17 10.11 150.69C3.55996 148.69 -5.24004 147.63 -11.29 151.52C-11.96 151.96 -11.29 153.04 -10.65 152.6L-10.68 152.55Z" fill="#18593F"/>
<path d="M25.8296 197.08C13.7396 194.41 4.35959 183.34 5.95959 170.68C6.05959 169.88 4.80959 169.89 4.70959 170.68C3.03959 183.86 12.9196 195.51 25.4996 198.28C26.2896 198.45 26.6196 197.28 25.8296 197.08Z" fill="#18593F"/>
<path d="M27.9999 190.14C23.257 187.345 19.0179 183.772 15.4599 179.57C14.9399 178.96 14.0599 179.84 14.5799 180.45C18.2071 184.734 22.5311 188.375 27.3699 191.22C27.5111 191.281 27.6695 191.287 27.8153 191.239C27.9612 191.191 28.0844 191.091 28.1618 190.958C28.2391 190.826 28.2654 190.669 28.2356 190.519C28.2058 190.368 28.122 190.233 27.9999 190.14Z" fill="#18593F"/>
<path d="M19.6499 168.81C17.8338 167.603 15.7827 166.795 13.6316 166.438C11.4806 166.081 9.27833 166.184 7.16989 166.74C7.02343 166.795 6.90288 166.904 6.83179 167.043C6.7607 167.183 6.74416 167.344 6.78537 167.495C6.82658 167.646 6.92259 167.776 7.05469 167.86C7.18679 167.945 7.34552 167.976 7.49988 167.95C9.44464 167.444 11.4742 167.355 13.4558 167.688C15.4375 168.02 17.3267 168.767 18.9999 169.88C19.6499 170.36 20.2799 169.27 19.6299 168.81L19.6499 168.81Z" fill="#18593F"/>
<path d="M16.8297 158.74C10.7597 156.57 3.01966 154.96 -2.98034 158.14C-3.69034 158.52 -3.06033 159.6 -2.35033 159.22C3.33967 156.22 10.7597 157.89 16.4997 159.95C17.2597 160.22 17.5897 159.01 16.8297 158.74Z" fill="#18593F"/>
<path d="M0.939891 179.18C-0.120108 176.53 -2.06011 174.7 -4.22011 172.9C-4.84011 172.39 -5.7301 173.27 -5.1101 173.79C-3.1101 175.42 -1.2401 177.09 -0.2701 179.51C0.0298997 180.25 1.23989 179.93 0.939891 179.18Z" fill="#18593F"/>
<path d="M18.4999 188.08C15.479 187.259 12.4184 186.591 9.32992 186.08C8.53992 185.98 8.54992 187.23 9.32992 187.33C12.3299 187.71 15.2299 188.64 18.1699 189.33C18.9499 189.51 19.2899 188.33 18.4999 188.13L18.4999 188.08Z" fill="#18593F"/>
<path d="M27.33 182.39L18.0001 182.39C17.8479 182.409 17.708 182.484 17.6066 182.599C17.5052 182.714 17.4493 182.862 17.4493 183.015C17.4493 183.169 17.5052 183.317 17.6066 183.432C17.708 183.547 17.8479 183.621 18.0001 183.64L27.33 183.64C27.4822 183.621 27.6221 183.547 27.7235 183.432C27.8249 183.317 27.8809 183.169 27.8809 183.015C27.8809 182.862 27.8249 182.714 27.7235 182.599C27.6221 182.484 27.4822 182.409 27.33 182.39Z" fill="#18593F"/>
<path d="M257.64 144.22C263.81 140.71 269.87 136 272 129C273.87 122.7 269.41 116.93 264.94 113.12C259.37 108.37 252.26 105.22 245.24 103.28C240.69 102.02 234.09 100.84 230.09 104.2C222.09 110.93 225.66 125.41 227.95 134.01C229.33 139.22 231.77 145.01 237.14 147.26C244.14 150.14 250.95 147.18 257.56 144.6C258.3 144.31 257.97 143.1 257.22 143.39C251.76 145.53 246.44 147.95 240.42 146.99C234.05 145.99 230.95 139.99 229.36 134.41C227.07 126.41 224.67 116.05 228.36 108.18C233.67 96.9999 253 106.82 259.89 111C265.42 114.39 270.8 119.32 271.08 126.22C271.39 133.93 262.85 139.81 257.01 143.13C256.888 143.223 256.804 143.358 256.774 143.508C256.744 143.659 256.77 143.815 256.848 143.948C256.925 144.081 257.048 144.181 257.194 144.229C257.34 144.277 257.498 144.27 257.64 144.21L257.64 144.22Z" fill="#18593F"/>
<path d="M257.53 144.57C266.41 141.05 267.31 153.2 271.32 158.1L272.08 157.1C266.82 153.39 259.42 150.92 258.25 143.75C258.12 142.96 256.91 143.3 257.04 144.08C258.28 151.64 265.9 154.27 271.45 158.18C272.07 158.62 272.62 157.71 272.21 157.18C267.82 151.82 266.99 139.45 257.21 143.33C256.47 143.63 256.8 144.84 257.55 144.54L257.53 144.57Z" fill="#18593F"/>
<path d="M256.87 145C258.2 149.59 258.42 154.44 255.55 158.5L256.63 158.5C254.2 154.5 254.29 148.02 257.52 144.5C258.06 143.91 257.18 143.02 256.63 143.62C253.02 147.62 252.81 154.67 255.55 159.17C255.606 159.263 255.685 159.34 255.78 159.394C255.874 159.447 255.981 159.476 256.09 159.476C256.199 159.476 256.305 159.447 256.4 159.394C256.495 159.34 256.574 159.263 256.63 159.17C259.68 154.86 259.49 149.6 258.07 144.71C258.026 144.551 257.921 144.416 257.777 144.334C257.634 144.253 257.464 144.231 257.305 144.275C257.146 144.319 257.01 144.424 256.929 144.568C256.847 144.711 256.826 144.881 256.87 145.04L256.87 145Z" fill="#18593F"/>
<path d="M257.76 144.13C263.57 139.08 271.82 140.13 276.67 145.91L276.94 144.86C273.94 145.86 270.47 147.86 267.2 147.01C267.043 146.978 266.881 147.006 266.745 147.089C266.609 147.172 266.509 147.303 266.466 147.457C266.423 147.61 266.439 147.774 266.512 147.916C266.586 148.058 266.71 148.166 266.86 148.22C270.45 149.22 273.95 147.22 277.28 146.07C277.383 146.037 277.476 145.979 277.55 145.9C277.625 145.821 277.678 145.725 277.705 145.62C277.732 145.515 277.732 145.405 277.705 145.3C277.677 145.195 277.624 145.099 277.55 145.02C276.338 143.504 274.831 142.25 273.12 141.334C271.409 140.419 269.53 139.861 267.597 139.694C265.663 139.528 263.716 139.756 261.874 140.366C260.031 140.975 258.332 141.953 256.88 143.24C256.27 143.77 257.16 144.65 257.76 144.13Z" fill="#18593F"/>
<path d="M267.76 128.58C267.236 127.712 266.526 126.971 265.68 126.41C265.05 125.92 264.16 126.8 264.79 127.29C265.553 127.784 266.199 128.439 266.68 129.21C267.05 129.93 268.13 129.3 267.76 128.58Z" fill="#18593F"/>
<path d="M258 135.74C257.102 134.952 256.33 134.031 255.71 133.01C255.27 132.34 254.18 133.01 254.63 133.64C255.303 134.758 256.139 135.769 257.11 136.64C257.73 137.14 258.62 136.26 258 135.76L258 135.74Z" fill="#18593F"/>
<path d="M244.58 142.23C243.775 141.798 243.157 141.086 242.84 140.23C242.54 139.49 241.33 139.82 241.64 140.56C242.051 141.716 242.873 142.681 243.95 143.27C244.66 143.64 245.29 142.56 244.58 142.19L244.58 142.23Z" fill="#18593F"/>
<path d="M257.89 126.26C257.233 125.409 256.418 124.692 255.49 124.15C254.78 123.78 254.15 124.85 254.86 125.23C255.692 125.723 256.422 126.371 257.01 127.14C257.54 127.75 258.42 126.86 257.89 126.26Z" fill="#18593F"/>
<path d="M248 132.12C247.278 131.511 246.609 130.842 246 130.12C245.47 129.51 244.59 130.4 245.12 131C245.721 131.744 246.391 132.43 247.12 133.05C247.74 133.54 248.63 132.67 248 132.16L248 132.12Z" fill="#18593F"/>
<path d="M257.54 116.81C256.22 115.81 255 114.6 253.68 113.56C253.05 113.07 252.16 113.95 252.79 114.45C254.12 115.45 255.34 116.65 256.66 117.69C257.29 118.18 258.18 117.31 257.54 116.81Z" fill="#18593F"/>
<path d="M247.53 122.58C246.83 122.05 246.03 121.66 245.33 121.13C244.63 120.6 244.06 121.74 244.7 122.21C245.34 122.68 246.19 123.13 246.9 123.66C247.61 124.19 248.16 123.06 247.53 122.58Z" fill="#18593F"/>
<path d="M237.45 132.18C236.73 131.12 235.95 130.11 235.32 129C235.226 128.878 235.092 128.794 234.941 128.765C234.79 128.735 234.634 128.761 234.501 128.838C234.369 128.916 234.269 129.039 234.221 129.185C234.173 129.331 234.179 129.489 234.24 129.63C234.87 130.74 235.65 131.75 236.37 132.81C236.82 133.47 237.9 132.81 237.45 132.18Z" fill="#18593F"/>
<path d="M245.51 114.9C244.61 114.19 243.82 113.35 242.92 112.64C242.29 112.15 241.4 113.03 242.04 113.53C242.94 114.24 243.72 115.07 244.62 115.78C245.25 116.28 246.14 115.4 245.51 114.9Z" fill="#18593F"/>
<path d="M237.61 122.81C236.84 121.94 236.07 121.07 235.26 120.24C234.7 119.66 233.82 120.54 234.38 121.12C235.19 121.96 235.96 122.82 236.72 123.7C237.25 124.31 238.13 123.42 237.61 122.81Z" fill="#18593F"/>
<path d="M235.84 111.25L233.84 108.92C233.32 108.31 232.43 109.2 232.96 109.8L234.96 112.13C235.49 112.74 236.37 111.85 235.85 111.25L235.84 111.25Z" fill="#18593F"/>
<path d="M241.54 107.24C240.71 106.745 239.98 106.097 239.39 105.33C238.86 104.72 237.98 105.61 238.51 106.21C239.167 107.061 239.982 107.778 240.91 108.32C241.62 108.69 242.25 107.61 241.54 107.24Z" fill="#18593F"/>
<path d="M231.4 119.29C230.846 118.828 230.407 118.242 230.12 117.58C229.76 116.86 228.68 117.49 229.04 118.21C229.375 118.981 229.881 119.664 230.52 120.21C231.14 120.7 232.03 119.82 231.4 119.32L231.4 119.29Z" fill="#18593F"/>
<path d="M237.09 141.29C236.398 140.354 235.615 139.49 234.75 138.71C234.13 138.21 233.24 139.09 233.87 139.59C234.73 140.375 235.513 141.238 236.21 142.17C236.74 142.78 237.62 141.89 237.09 141.29Z" fill="#18593F"/>
<path d="M265.72 119.35C265.227 118.628 264.63 117.981 263.95 117.43C263.33 116.93 262.44 117.81 263.07 118.31C263.671 118.789 264.2 119.351 264.64 119.98C265.09 120.64 266.18 119.98 265.72 119.35Z" fill="#18593F"/>
<path d="M258.09 144.55C259.55 145.96 261.04 147.35 262.38 148.89C262.91 149.49 263.79 148.6 263.26 148C261.92 146.47 260.43 145.08 258.97 143.66C258.39 143.1 257.5 143.99 258.09 144.55Z" fill="#18593F"/>
<path d="M79.06 80.1801C75.01 91.6901 71.06 104.18 73.75 116.45C75.16 122.87 78.8 128.72 81.06 134.84C83.32 140.96 82.3501 151.63 77.8901 156.9C77.3701 157.52 78.25 158.4 78.78 157.79C81.37 154.72 82.96 148.52 83.33 144.63C83.95 138.06 81.68 132.63 79.02 126.76C75.63 119.27 73.7 112.51 74.27 104.22C74.84 96.0902 77.58 88.1402 80.27 80.5102C80.54 79.7502 79.33 79.4201 79.06 80.1801Z" fill="#18593F"/>
<path d="M74.7799 106.45C80.0699 100.83 97.8599 104.34 98.4199 113.1C98.5199 114.76 96.1999 118.33 93.9399 116.29C93.098 115.377 92.3633 114.37 91.7499 113.29C91.0281 112.169 90.0857 111.206 88.9799 110.46C86.3299 108.73 82.9099 110.3 81.2399 112.46C79.5699 114.62 80.8899 117.92 82.4999 119.63C85.1099 122.39 90.0399 123.1 93.4999 123.99C95.8999 124.6 98.4499 125.16 100.4 126.78C102.63 128.63 103.71 137.33 100.4 133.86C97.8499 131.2 95.9999 128.67 92.0399 128.97C89.8799 129.14 89.1399 131.12 89.1899 132.97C89.2799 136.97 92.9899 139.14 95.1899 141.97C97.0599 144.42 94.6599 149.53 92.1899 147.1C91.7899 146.7 91.4499 146.22 91.0899 145.79C90.7252 145.289 90.1932 144.934 89.5899 144.79C87.3199 144.58 86.6999 148.04 86.7099 149.66C86.7099 153.37 92.1299 157.14 94.0599 159.82C96.7199 163.52 95.6199 167.76 93.0599 171.04C92.097 172.209 90.9401 173.204 89.6399 173.98C83.4899 177.86 84.5699 170.78 84.7899 169.03C85.0099 167.28 85.1599 163.95 82.5999 163.54C79.3599 163.03 77.9499 165.46 76.3399 167.96C74.4999 170.79 72.9399 172.41 69.3399 172.51C63.5699 172.67 59.8099 166.79 63.7899 162.03C66.3099 159.03 69.9899 158.11 71.7199 154.32C73.2899 150.9 72.6599 148.06 68.6399 147.81C66.0199 147.64 63.3099 148.31 60.7099 148.56C57.9099 148.84 51.4799 147.56 55.1599 143.47C57.0099 141.39 61.5499 141.35 64.0899 140.98C66.8729 140.699 69.5827 139.92 72.0899 138.68C76.7299 136.09 76.0899 128.76 71.5899 126.3C68.9399 124.85 66.4999 124.74 64.0799 126.67C62.6599 127.81 61.7999 129.89 60.6199 131.23C57.0699 135.28 52.4099 131.96 53.3999 127.59C54.4999 122.73 58.6799 121.59 62.8699 120.69C64.3599 120.39 67.0799 119.49 67.0199 117.49C67.039 116.548 66.7378 115.628 66.1655 114.879C65.5933 114.131 64.7839 113.599 63.8699 113.37C62.2099 112.78 58.1699 111.78 61.3399 108.14C62.4199 106.9 64.8699 106.54 66.3899 106.34C68.4401 106.105 70.5143 106.186 72.5399 106.58C73.3299 106.73 73.6599 105.53 72.8699 105.38C69.4499 104.73 57.3799 104.48 59.0699 111.11C59.1353 111.553 59.2938 111.978 59.5351 112.355C59.7764 112.733 60.095 113.055 60.4699 113.3C61.6499 113.97 68.3899 115.94 64.8499 118.67C62.0199 120.85 57.9699 119.86 55.0399 122.44C51.7299 125.35 49.8199 133.17 55.7699 134.06C58.9299 134.54 61.3499 132.54 63.0499 130.16C65.0499 127.39 66.6399 123.92 71.8499 128.09C72.7665 128.902 73.439 129.954 73.7923 131.126C74.1455 132.299 74.1654 133.547 73.8499 134.73C73.2099 137.31 70.2399 138.35 67.9999 138.97C63.6799 140.16 55.3199 139.22 53.2399 144.25C51.0199 149.61 58.3399 150.05 61.4599 149.74C64.2499 149.47 67.2999 148.6 70.0899 149.26C73.2299 150 69.8799 155.26 68.9699 156.26C67.3099 158.18 64.7599 159.34 62.8999 161.09C56.5799 167.09 64.0599 173.86 70.4999 173.68C73.9299 173.58 75.7099 171.18 77.4399 168.54C78.1273 167.426 78.9031 166.37 79.7599 165.38C84.2099 160.49 83.6299 168.3 83.5599 168.98C83.4099 170.4 82.9099 172.35 83.6299 173.71C87.3099 180.71 95.6299 170.65 96.7299 166.71C97.7299 163 95.7299 159.71 93.4699 156.96C91.2099 154.21 86.5299 151.26 88.6899 146.77C89.4899 145.1 91.5899 148.26 92.1799 148.72C93.7199 149.92 95.1799 148.65 96.1799 147.42C98.3799 144.7 96.7899 141.72 94.7899 139.55C93.0099 137.62 91.3699 136.3 90.6199 133.64C89.7099 130.43 93.2099 129.55 95.4999 130.8C96.5303 131.495 97.4534 132.338 98.2399 133.3C99.3699 134.48 101.24 137.61 103.29 136.66C105.34 135.71 104.04 130.29 103.39 128.94C101.6 125.22 98.7699 124.12 94.9699 123.07C90.2399 121.76 81.0799 120.86 82.0299 113.97C82.8599 107.97 89.3399 111.97 90.7399 113.9C91.3199 114.7 91.8599 115.54 92.4499 116.34C92.7643 116.845 93.1767 117.283 93.6627 117.626C94.1487 117.97 94.6986 118.212 95.2799 118.34C97.2799 118.73 98.8699 116.07 99.4999 114.56C100.44 112.29 98.9199 109.9 97.4999 108.3C92.4999 102.76 79.6899 99.5101 73.9899 105.56C73.4399 106.15 74.3199 107.03 74.8799 106.44L74.7799 106.45Z" fill="#18593F"/>
</svg>
