<svg width="452" height="326" viewBox="0 0 452 326" fill="none" xmlns="http://www.w3.org/2000/svg">
<path d="M145.225 170.195C145.225 170.195 131.814 200.74 126.325 197.881C120.836 195.022 143.705 164.924 143.705 164.924C143.705 164.924 126.997 135.546 116.552 129.718C116.552 129.718 114.003 166.852 109.382 162.715C104.76 158.579 105.64 119.813 105.64 119.813C105.64 119.813 83.2987 97.3143 68.7622 109.745C54.2257 122.175 55.6451 134.408 58.7881 137.988C61.9312 141.569 86.4737 158.098 83.677 160.844C80.8804 163.589 60.9743 157.302 53.7582 148.092C53.7582 148.092 46.7069 180.234 60.8465 188.151C74.9861 196.067 84.7415 190.639 93.3904 195.691C102.039 200.744 106.523 207.129 100.894 206.513C95.2655 205.896 82.3956 194.77 71.8733 195.856C61.351 196.941 53.5985 196.723 64.183 207.803C74.7675 218.884 97.9697 232.607 108.916 226.125L110.285 225.314C109.865 225.643 109.405 225.915 108.916 226.125C110.278 229.035 109.338 237.764 108.368 244.289C108.137 245.354 107.885 246.873 107.611 248.986C107.451 249.914 107.313 250.669 107.216 251.196C104.086 265.151 88.8852 282.459 88.8852 282.459L91.031 285C109.866 269.988 110.322 247.253 110.322 247.253C112.16 230.246 119.862 219.645 119.862 219.645C119.862 219.645 152.683 222.693 154 196.892C153.992 196.889 152.749 179.624 145.225 170.195Z" fill="url(#paint0_linear_41_71)" fill-opacity="0.2"/>
<path d="M83.4283 261.296C83.4283 261.296 78.518 247.961 70.3621 242.242C70.3621 242.242 66.5672 269.37 61.5209 268.357C56.4746 267.344 67.9443 238.43 67.9443 238.43C67.9443 238.43 47.9225 219.061 38.255 216.835C38.255 216.835 44.6411 246.691 40.0063 244.478C35.3715 242.265 27.2716 211.504 27.2716 211.504C27.2716 211.504 10.3714 202.181 0 207.802V239.1C7.93154 242.218 20.197 246.782 19.0085 248.835C17.82 250.888 8.16107 251.198 0 249.004V270.793C1.85494 273.141 4.13834 274.891 6.94711 275.541C20.0524 278.58 26.6221 272.079 34.6863 274.101C42.7504 276.124 47.778 280.138 43.1432 280.93C38.5084 281.721 25.6734 275.874 17.5123 279.117C9.35123 282.359 3.09271 283.948 14.0728 290.28C25.0528 296.611 46.717 302.168 54.0008 294.574L54.9104 293.625C54.6487 293.983 54.3406 294.306 53.994 294.584C55.7435 296.569 56.9728 303.669 57.6784 309.034C57.7345 309.921 57.8773 311.174 58.1358 312.889C58.2208 313.684 58.2837 314.331 58.3262 314.771C58.5166 318.238 57.9317 322.175 57.0102 326H60.5076C61.6212 317.391 59.9142 310.946 59.9074 310.919C57.5186 297.094 61.2676 286.99 61.2676 286.99C61.3424 286.969 88.2178 281.912 83.4283 261.296Z" fill="url(#paint1_linear_41_71)" fill-opacity="0.2"/>
<path d="M306.547 237.41C301.94 220.497 273.228 225.782 273.228 225.782C273.228 225.782 253.733 255.381 248.061 256.085C242.388 256.789 259.758 227.539 259.758 227.539C248.769 226.483 220.767 239.869 220.767 239.869C220.767 239.869 222.54 274.4 216.859 273.696C211.178 272.992 216.859 243.041 216.859 243.041C206.225 246.212 196.298 258.544 196.298 258.544C183.894 278.628 210.477 293.428 210.477 293.428C210.477 293.428 210.832 305.408 203.389 319.151C203.389 319.151 201.71 321.684 200.002 326H202.901C203.138 325.226 203.4 324.481 203.688 323.764C203.687 323.761 203.687 323.759 203.687 323.757C203.687 323.755 203.687 323.752 203.688 323.75C203.692 323.74 203.696 323.729 203.702 323.72C203.899 323.274 204.184 322.64 204.541 321.862C205.426 320.139 206.025 318.865 206.41 317.946C209.064 312.541 212.888 305.485 215.438 304.007C215.174 303.596 214.966 303.151 214.818 302.685C215.015 303.107 215.223 303.546 215.438 304.007C220.4 314.578 245.213 316.338 259.038 313.521C272.863 310.703 266.836 306.827 259.391 300.535C251.947 294.243 236.351 295.903 231.744 293.44C227.138 290.977 233.87 288.506 243.087 289.217C252.304 289.928 256.91 299.084 271.804 300.494C286.698 301.904 298.034 274.067 298.034 274.067C287.755 277.238 269.316 271.6 268.613 268.076C267.909 264.553 295.198 264.906 299.451 263.853C303.704 262.801 311.155 254.323 306.547 237.41Z" fill="url(#paint2_linear_41_71)" fill-opacity="0.2"/>
<path d="M262.141 195.425C262.141 195.425 251.165 217.383 240.011 232.539C235.576 238.572 231.111 243.527 227.302 245.593C223.572 247.615 220.415 250.757 217.803 254.238C211.036 263.252 207.914 274.537 207.914 274.537L179.411 231.406C179.411 231.406 180.384 189.243 183.807 182.19C188.797 171.912 191.207 151.146 193.124 147.011C194.546 143.944 198.607 128.102 199.002 126.938C199.17 126.436 200.522 125.67 202.276 125.67C203.685 125.67 206.08 127.031 206.678 129.827C209.727 143.964 206.057 153.288 206.102 153.702C207.177 164.567 203.944 172.631 206.211 174.767C206.297 174.846 206.452 174.809 206.672 174.667C210.603 172.144 234.998 136.578 238.002 135.81C241.164 135 262.141 195.425 262.141 195.425Z" fill="#FFCDAD"/>
<path d="M216.495 266.009C216.495 266.009 216.107 285.177 214.997 310.993H143.079C159.517 275.938 173.81 246.433 173.81 246.433C173.81 246.433 214.758 247.684 216.495 266.009Z" fill="#7BDD82"/>
<path d="M287.064 121.112L278.236 134.055L269.571 146.756C269.044 147.394 268.431 147.616 267.77 147.551C265.695 147.354 263.119 144.356 261.115 142.696L260.911 142.528C259.641 141.471 258.84 139.954 258.685 138.309C258.53 136.664 259.031 135.024 260.081 133.748L273.323 117.741L277.25 112.994C278.307 111.724 279.824 110.923 281.469 110.767C283.114 110.612 284.754 111.113 286.031 112.163L286.235 112.33C287.504 113.388 288.304 114.905 288.46 116.55C288.615 118.195 288.114 119.835 287.064 121.112Z" fill="#FFBC8E"/>
<path d="M278.24 134.057L269.576 146.759C269.048 147.396 268.436 147.619 267.774 147.554L273.328 117.744C273.339 117.911 274.283 131.287 278.24 134.057Z" fill="#FFCDAD"/>
<path d="M240.015 232.541C235.58 238.574 231.115 243.529 227.305 245.595C223.575 247.617 220.418 250.759 217.807 254.24C214.802 252.839 211.376 251.196 208.028 249.568C203.951 247.587 203.795 241.799 207.788 239.656C207.827 239.635 207.866 239.615 207.904 239.593C211.646 237.452 215.48 229.891 215.48 229.891L240.015 232.541Z" fill="#F7BE9D"/>
<path d="M198.793 127.597L196.487 136.924C196.487 136.924 198.507 137.751 199.803 137.109C201.1 136.467 202.155 128.1 198.793 127.597Z" fill="#FFC49C"/>
<path d="M265.226 110H215.552C210.646 110 206.668 113.978 206.668 118.884V228.071C206.668 232.978 210.646 236.956 215.552 236.956H265.226C270.133 236.956 274.11 232.978 274.11 228.071V118.884C274.11 113.978 270.133 110 265.226 110Z" fill="#040F0B"/>
<path d="M270.768 119.719V226.376C270.768 229.994 267.828 232.954 264.238 232.954H216.54C212.95 232.954 210.012 229.994 210.012 226.376V119.719C210.012 116.101 212.95 113.141 216.54 113.141H264.243C267.828 113.141 270.768 116.101 270.768 119.719Z" fill="#D6E7FF"/>
<path d="M270.768 119.719V226.376C270.768 229.994 267.828 232.954 264.238 232.954H216.54C212.95 232.954 210.012 229.994 210.012 226.376V119.719C210.012 116.101 212.95 113.141 216.54 113.141H264.243C267.828 113.141 270.768 116.101 270.768 119.719Z" fill="url(#paint3_linear_41_71)" fill-opacity="0.2"/>
<path d="M264.243 113.141L217.13 232.957H216.54C212.95 232.957 210.012 229.997 210.012 226.379V119.719C210.012 116.101 212.95 113.141 216.54 113.141H264.243Z" fill="#CBE1FD"/>
<path d="M264.243 113.141L217.13 232.957H216.54C212.95 232.957 210.012 229.997 210.012 226.379V119.719C210.012 116.101 212.95 113.141 216.54 113.141H264.243Z" fill="url(#paint4_linear_41_71)" fill-opacity="0.2"/>
<path d="M250.357 110.74H230.423C228.792 110.74 227.47 112.062 227.47 113.692V114.156C227.47 115.787 228.792 117.109 230.423 117.109H250.357C251.988 117.109 253.31 115.787 253.31 114.156V113.692C253.31 112.062 251.988 110.74 250.357 110.74Z" fill="#040F0B"/>
<path d="M282.673 169.995L281.357 170.491L272.503 173.855C272.298 173.933 272.088 174 271.876 174.053C270.439 174.421 268.918 174.249 267.601 173.569C266.283 172.889 265.261 171.749 264.729 170.365L264.599 170.025C264.036 168.53 264.087 166.872 264.742 165.414C265.397 163.956 266.602 162.817 268.094 162.245L276.344 159.109L276.944 158.878L278.26 158.378C279.755 157.815 281.412 157.866 282.87 158.521C284.327 159.176 285.466 160.381 286.038 161.873L286.168 162.218C286.73 163.713 286.678 165.37 286.023 166.827C285.369 168.284 284.164 169.423 282.673 169.995Z" fill="#FFBC8E"/>
<path d="M275.484 170.198C274.006 170.758 271.335 171.752 269.901 171.957C269.496 172.016 268.748 171.796 268.057 171.035C267.638 170.574 267.239 169.928 266.943 169.027C266.798 168.611 266.696 168.182 266.64 167.745C266.584 167.237 266.6 166.724 266.688 166.22C266.734 165.986 266.834 165.765 266.981 165.576C267.128 165.387 267.317 165.235 267.533 165.133C267.533 165.133 267.533 165.133 267.54 165.133C269.062 164.406 271.113 163.52 272.909 163.028C274.153 162.682 275.41 163.233 275.803 164.321L275.989 164.829L276.94 167.432C277.33 168.507 276.691 169.743 275.484 170.198Z" fill="#FFE2CF"/>
<path d="M275.484 170.198C274.006 170.758 271.334 171.752 269.901 171.957C269.496 172.016 268.748 171.796 268.056 171.035C267.981 170.862 267.913 170.679 267.849 170.484C267.704 170.068 267.602 169.638 267.546 169.201C267.49 168.694 267.507 168.181 267.594 167.678C267.64 167.443 267.74 167.222 267.887 167.033C268.034 166.844 268.223 166.692 268.439 166.59C268.439 166.59 268.439 166.59 268.446 166.59C269.967 165.863 272.019 164.976 273.816 164.485C274.181 164.376 274.566 164.351 274.942 164.41C275.318 164.47 275.676 164.614 275.989 164.831L276.94 167.433C277.33 168.507 276.691 169.743 275.484 170.198Z" fill="#FFC49C"/>
<path d="M278.656 182.443L271.829 184.302C270.829 184.572 269.762 184.434 268.863 183.92C267.963 183.405 267.304 182.556 267.03 181.556L266.819 180.784C266.549 179.784 266.686 178.717 267.201 177.818C267.715 176.918 268.565 176.259 269.564 175.985L276.392 174.126C277.392 173.857 278.457 173.996 279.355 174.51C280.253 175.024 280.911 175.873 281.186 176.871L281.397 177.645C281.667 178.644 281.53 179.71 281.016 180.609C280.503 181.508 279.654 182.167 278.656 182.443Z" fill="#FFBC8E"/>
<path d="M274.962 182.11C273.708 182.444 271.44 183.032 270.252 183.1C269.82 183.124 268.954 182.754 268.39 181.622C268.239 181.315 268.123 180.992 268.044 180.66C267.955 180.332 267.904 179.995 267.892 179.656C267.883 179.261 267.934 178.867 268.044 178.487C268.102 178.305 268.202 178.14 268.336 178.004C268.47 177.868 268.635 177.767 268.816 177.707C270.117 177.246 271.865 176.698 273.377 176.439C274.421 176.256 275.411 176.758 275.656 177.619L275.832 178.233L276.357 180.078C276.605 180.928 275.989 181.838 274.962 182.11Z" fill="#FFE2CF"/>
<path d="M274.962 182.107C273.708 182.441 271.441 183.029 270.253 183.097C269.82 183.121 268.955 182.751 268.39 181.619C268.31 181.312 268.264 180.996 268.253 180.678C268.244 180.283 268.295 179.889 268.405 179.509C268.463 179.328 268.563 179.162 268.697 179.027C268.831 178.891 268.995 178.789 269.176 178.729C269.176 178.729 269.176 178.729 269.183 178.729C270.484 178.268 272.232 177.721 273.744 177.461C274.608 177.309 275.436 177.628 275.835 178.23L276.36 180.074C276.606 180.926 275.989 181.835 274.962 182.107Z" fill="#FFC49C"/>
<path d="M166.809 260.977C166.809 260.977 180.861 274.437 190.335 279.634L197.507 274.546V282.051C197.507 282.051 211.614 284.546 216.064 282.051V261.584L176.442 241.722L166.809 260.977Z" fill="#2B744C"/>
<path d="M179.411 229.891C179.411 229.891 170.486 243.243 161.617 257.518C161.617 257.518 180.309 270.376 190.444 274.149L203.731 258.924L201.833 277.25C201.833 277.25 213.597 281.538 219.055 280.419C219.055 280.419 218.709 263.794 218.709 252.901C218.715 252.899 186.377 243.836 179.411 229.891Z" fill="#F3F8FF"/>
<path d="M181.601 263.773C181.605 263.335 181.738 262.908 181.985 262.546C182.231 262.185 182.58 261.904 182.986 261.74C183.392 261.577 183.837 261.537 184.266 261.626C184.694 261.716 185.087 261.93 185.393 262.243C185.7 262.556 185.907 262.952 185.988 263.382C186.069 263.813 186.021 264.257 185.85 264.66C185.678 265.063 185.391 265.406 185.024 265.645C184.658 265.885 184.228 266.01 183.791 266.006C183.204 265.999 182.645 265.761 182.234 265.342C181.824 264.923 181.596 264.359 181.601 263.773Z" fill="#7BDD82"/>
<path d="M282.454 156.906L282.306 156.956L273.355 159.254C269.419 160.266 265.349 158.136 264.311 154.528L263.782 152.67C262.783 149.201 264.934 145.573 268.586 144.396L271.541 143.638L277.535 142.098C281.47 141.087 285.541 143.217 286.579 146.83L287.112 148.681C288.102 152.105 286.027 155.68 282.454 156.906Z" fill="#FFBC8E"/>
<path d="M278.357 154.412L274.008 156.371L273.98 156.378C273.807 156.424 273.632 156.461 273.455 156.487C273.382 156.498 273.307 156.506 273.234 156.514C273.204 156.517 273.173 156.517 273.142 156.514C273.029 156.51 272.919 156.477 272.821 156.42C272.723 156.362 272.641 156.282 272.582 156.185C272.523 156.089 272.488 155.979 272.481 155.866C272.474 155.753 272.495 155.64 272.542 155.537C272.968 154.614 273.056 153.57 272.788 152.589L272.685 152.209C272.685 152.205 272.685 152.202 272.685 152.198L272.348 150.963C272.091 150.015 271.538 149.174 270.771 148.56C270.683 148.488 270.59 148.42 270.497 148.355C269.637 147.759 269.856 146.411 270.862 146.132L270.89 146.124L275.662 145.401C276.842 145.08 277.979 145.989 278.3 147.169L278.684 148.575L279.5 151.572C279.817 152.757 279.537 154.092 278.357 154.412Z" fill="#FFE2CF"/>
<path d="M278.356 154.413L274.007 156.372L273.979 156.379C273.878 156.399 273.559 156.452 273.141 156.516C273.028 156.511 272.918 156.479 272.82 156.422C272.723 156.364 272.64 156.284 272.581 156.187C272.522 156.091 272.487 155.981 272.48 155.868C272.473 155.755 272.494 155.642 272.541 155.539C272.967 154.616 273.055 153.572 272.788 152.59L272.684 152.211C272.684 152.207 272.684 152.204 272.684 152.2L272.347 150.965C272.09 150.017 271.538 149.176 270.771 148.562C270.934 148.323 271.176 148.151 271.455 148.075L271.483 148.066L276.256 147.345C277.249 147.075 278.215 147.677 278.683 148.577L279.499 151.574C279.816 152.758 279.536 154.092 278.356 154.413Z" fill="#FFC49C"/>
<path d="M206.668 203.473C206.668 203.473 204.715 186.427 202.914 183.103C201.112 179.779 199.587 173.122 202.359 168.176C205.131 163.23 206.088 153.711 206.088 153.711C207.163 164.575 203.93 172.64 206.197 174.776C206.283 174.854 206.438 174.817 206.658 174.675L206.668 203.473Z" fill="#F7BE9D"/>
<path d="M306.775 155.805C306.775 155.805 320.186 125.26 325.675 128.119C331.164 130.978 308.295 161.076 308.295 161.076C308.295 161.076 325.003 190.454 335.448 196.282C335.448 196.282 337.997 159.148 342.618 163.285C347.24 167.421 346.36 206.187 346.36 206.187C346.36 206.187 368.701 228.686 383.238 216.255C397.774 203.825 396.355 191.592 393.212 188.012C390.069 184.431 365.526 167.902 368.323 165.156C371.12 162.411 391.026 168.698 398.242 177.908C398.242 177.908 405.293 145.766 391.153 137.849C377.014 129.933 367.258 135.361 358.61 130.309C349.961 125.256 345.477 118.871 351.106 119.487C356.734 120.104 369.604 131.23 380.127 130.144C390.649 129.059 398.402 129.277 387.817 118.197C377.233 107.116 354.03 93.3931 343.084 99.8752L341.715 100.686C342.135 100.357 342.595 100.085 343.084 99.8752C341.722 96.9653 342.662 88.2356 343.632 81.7113C343.863 80.6459 344.115 79.1266 344.389 77.0145C344.549 76.0863 344.687 75.3309 344.784 74.8041C347.914 60.8492 363.115 43.5406 363.115 43.5406L360.969 41C342.134 56.0118 341.678 78.7472 341.678 78.7472C339.84 95.7542 332.138 106.355 332.138 106.355C332.138 106.355 299.317 103.307 298 129.108C298.008 129.111 299.251 146.376 306.775 155.805Z" fill="url(#paint5_linear_41_71)" fill-opacity="0.2"/>
<path d="M368.572 64.704C368.572 64.704 373.482 78.0394 381.638 83.7585C381.638 83.7585 385.433 56.6301 390.479 57.6429C395.525 58.6558 384.056 87.57 384.056 87.57C384.056 87.57 404.077 106.939 413.745 109.165C413.745 109.165 407.359 79.3088 411.994 81.5218C416.629 83.7348 424.728 114.496 424.728 114.496C424.728 114.496 441.629 123.819 452 118.198V86.8999C444.068 83.7821 431.803 79.2177 432.991 77.165C434.18 75.1124 443.839 74.8018 452 76.9962V55.2071C450.145 52.859 447.862 51.1086 445.053 50.4587C431.948 47.4202 425.378 53.9208 417.314 51.8986C409.25 49.8763 404.222 45.8621 408.857 45.0705C413.492 44.2788 426.327 50.1261 434.488 46.8834C442.649 43.6407 448.907 42.0523 437.927 35.7205C426.947 29.3887 405.283 23.8316 397.999 31.4261L397.09 32.3748C397.351 32.0166 397.659 31.6942 398.006 31.416C396.256 29.4309 395.027 22.331 394.322 16.9664C394.265 16.0785 394.123 14.826 393.864 13.1109C393.779 12.3159 393.716 11.6694 393.674 11.2288C393.483 7.76157 394.068 3.82507 394.99 -7.62939e-06H391.492C390.379 8.60896 392.086 15.0539 392.093 15.0809C394.481 28.9059 390.732 39.0104 390.732 39.0104C390.658 39.0307 363.782 44.088 368.572 64.704Z" fill="url(#paint6_linear_41_71)" fill-opacity="0.2"/>
<defs>
<linearGradient id="paint0_linear_41_71" x1="154" y1="285" x2="17.5065" y2="278.981" gradientUnits="userSpaceOnUse">
<stop stop-color="#75DB7E"/>
<stop offset="1" stop-color="#00CDAC"/>
</linearGradient>
<linearGradient id="paint1_linear_41_71" x1="84" y1="326" x2="-28.2955" y2="319.917" gradientUnits="userSpaceOnUse">
<stop stop-color="#75DB7E"/>
<stop offset="1" stop-color="#00CDAC"/>
</linearGradient>
<linearGradient id="paint2_linear_41_71" x1="308" y1="326" x2="154.999" y2="312.52" gradientUnits="userSpaceOnUse">
<stop stop-color="#75DB7E"/>
<stop offset="1" stop-color="#00CDAC"/>
</linearGradient>
<linearGradient id="paint3_linear_41_71" x1="270.768" y1="232.954" x2="189.433" y2="229.762" gradientUnits="userSpaceOnUse">
<stop stop-color="#75DB7E"/>
<stop offset="1" stop-color="#00CDAC"/>
</linearGradient>
<linearGradient id="paint4_linear_41_71" x1="264.243" y1="232.957" x2="191.62" y2="230.413" gradientUnits="userSpaceOnUse">
<stop stop-color="#75DB7E"/>
<stop offset="1" stop-color="#00CDAC"/>
</linearGradient>
<linearGradient id="paint5_linear_41_71" x1="298" y1="41" x2="434.494" y2="47.0186" gradientUnits="userSpaceOnUse">
<stop stop-color="#75DB7E"/>
<stop offset="1" stop-color="#00CDAC"/>
</linearGradient>
<linearGradient id="paint6_linear_41_71" x1="368" y1="3.5075e-06" x2="480.296" y2="6.08268" gradientUnits="userSpaceOnUse">
<stop stop-color="#75DB7E"/>
<stop offset="1" stop-color="#00CDAC"/>
</linearGradient>
</defs>
</svg>
