<svg width="66" height="66" viewBox="0 0 66 66" fill="none" xmlns="http://www.w3.org/2000/svg">
<path d="M66 33C66 14.7746 51.2254 0 33 0C14.7746 0 0 14.7746 0 33C0 51.2254 14.7746 66 33 66C51.2254 66 66 51.2254 66 33Z" fill="white"/>
<path d="M47.0418 24.5511C46.1374 23.7736 45.0471 23.2436 43.877 23.0126C42.707 22.7816 41.4971 22.8575 40.365 23.2328C40.7737 20.6821 40.8857 15.6992 36.1995 13.4715C35.0512 12.9264 33.796 12.6436 32.5249 12.6436C31.2539 12.6436 29.9987 12.9264 28.8504 13.4715C24.1708 15.6992 24.2762 20.6755 24.6849 23.2262C23.5534 22.8419 22.3416 22.7577 21.1679 22.9818C19.9941 23.206 18.8986 23.7308 17.9883 24.5049C16.9774 25.31 16.2477 26.4149 15.9043 27.6608C15.5608 28.9067 15.6213 30.2293 16.0769 31.4387C17.0392 34.0751 19.3329 35.9602 21.0598 37.0939C20.3093 37.3479 19.6244 37.7651 19.0546 38.3156C18.4847 38.8661 18.044 39.5361 17.7643 40.2773C17.3536 41.3491 17.3219 42.529 17.6744 43.6213C18.0269 44.7135 18.7423 45.6523 19.702 46.2818C20.9784 47.1207 22.3738 47.7628 23.8412 48.1866C25.814 48.7808 27.8645 49.0763 29.9248 49.0632H37.03C37.2343 49.0632 42.0985 48.5228 45.3281 46.2554C46.2658 45.6251 46.9599 44.6933 47.2956 43.6145C47.6312 42.5356 47.5882 41.3745 47.1736 40.3235C46.8983 39.593 46.4674 38.9311 45.9109 38.3837C45.3544 37.8363 44.6855 37.4164 43.9506 37.1532C45.6774 36.0261 47.9777 34.1213 48.9598 31.5244C49.4272 30.3097 49.4932 28.9771 49.148 27.7222C48.8028 26.4672 48.0647 25.3559 47.0418 24.5511Z" fill="#8BD28D"/>
<path d="M28.3691 16.8721L28.468 16.7139" stroke="white" stroke-width="2.06" stroke-linecap="round" stroke-linejoin="round"/>
<path d="M26.8533 20.2725C26.9005 19.6926 27.0571 19.1268 27.3146 18.605" stroke="white" stroke-width="2.06" stroke-linecap="round" stroke-linejoin="round"/>
<path d="M43.9505 37.1525C44.6893 37.4129 45.3622 37.8315 45.9224 38.3791C46.4825 38.9267 46.9163 39.5901 47.1933 40.3228C47.6176 41.3777 47.6658 42.5466 47.3297 43.6329C46.9936 44.7192 46.2937 45.6567 45.3478 46.2877C42.1116 48.555 37.254 49.0757 37.0496 49.0889H29.951C27.891 49.0986 25.841 48.8032 23.8675 48.2123C22.4708 47.8117 21.139 47.2124 19.9128 46.4327C32.0404 49.8205 37.8472 48.2321 40.6352 45.9713C41.3411 45.4127 41.8822 44.673 42.2009 43.8311C42.5196 42.9892 42.604 42.0766 42.4451 41.1906C42.2861 40.3045 41.8898 39.4782 41.2983 38.7995C40.7068 38.1209 39.9423 37.6155 39.0863 37.337C38.581 37.1716 38.0629 37.0482 37.5374 36.9679C42.3818 35.5772 44.0757 32.4003 44.6755 30.3439C45.0773 29.0074 45.052 27.5788 44.603 26.2574C44.3236 25.3592 43.7554 24.5783 42.9867 24.036C42.218 23.4937 41.2917 23.2204 40.3518 23.2585C41.4836 22.8818 42.6938 22.8053 43.8641 23.0363C45.0344 23.2674 46.1248 23.7981 47.0285 24.5767C48.0484 25.3779 48.7849 26.4846 49.13 27.7348C49.4752 28.9849 49.4108 30.3127 48.9465 31.5237C47.9776 34.0942 45.6773 35.999 43.9505 37.1525Z" fill="#84C784"/>
<path d="M32.5284 12.6529C33.7984 12.6492 35.053 12.9308 36.1996 13.4768C40.8859 15.7046 40.7738 20.6874 40.3652 23.2382C41.0662 23.0026 41.8007 22.8824 42.5402 22.8822C44.1908 22.8884 45.7858 23.4792 47.042 24.5498C48.0579 25.3525 48.7916 26.4581 49.1365 27.7062C49.4814 28.9542 49.4196 30.2797 48.96 31.4902C47.9779 34.0871 45.6644 35.9919 43.9507 37.119C44.6912 37.3797 45.3657 37.7991 45.927 38.3479C46.4883 38.8966 46.9228 39.5615 47.2001 40.2958C47.6147 41.3469 47.6577 42.508 47.3221 43.5869C46.9864 44.6657 46.2923 45.5975 45.3546 46.2278C44.2048 46.9993 42.9509 47.603 41.6307 48.0206C39.5022 48.7099 37.2768 49.0526 35.0396 49.0356H29.9249C27.8604 49.0486 25.8055 48.7531 23.8282 48.159C22.3633 47.7338 20.9704 47.0918 19.6956 46.2542C18.7359 45.6247 18.0204 44.6859 17.6679 43.5936C17.3154 42.5014 17.3472 41.3215 17.7578 40.2497C18.0376 39.5085 18.4783 38.8385 19.0482 38.288C19.618 37.7375 20.3029 37.3202 21.0534 37.0662C19.3265 35.9326 17.0328 34.0212 16.0705 31.4111C15.6148 30.2017 15.5544 28.879 15.8978 27.6331C16.2413 26.3873 16.971 25.2823 17.9819 24.4773C18.8915 23.702 19.9871 23.1765 21.1611 22.9523C22.3351 22.7281 23.5472 22.813 24.6784 23.1986C24.2698 20.6479 24.1643 15.6716 28.844 13.4438C29.9936 12.8996 31.2499 12.6182 32.5218 12.6199M32.5218 10.9722C31.006 10.9703 29.5088 11.3058 28.1388 11.9542C24.6455 13.6152 22.7802 16.9173 22.8659 21.1817H22.477C20.4501 21.1918 18.4908 21.9125 16.9405 23.2184C15.666 24.2374 14.7472 25.6341 14.3162 27.2079C13.8851 28.7818 13.9639 30.4517 14.5414 31.9779C15.3096 33.902 16.5494 35.6019 18.1467 36.9212C17.3021 37.6739 16.6548 38.6221 16.2617 39.6829C15.7199 41.0937 15.6768 42.6473 16.1395 44.086C16.6023 45.5247 17.5431 46.7618 18.8058 47.5922C20.2244 48.5361 21.7808 49.2543 23.4196 49.7211C25.5572 50.3634 27.7786 50.6833 30.0106 50.6702H35.1253C37.5287 50.686 39.919 50.3143 42.2041 49.5695C43.6751 49.1109 45.0733 48.4451 46.3565 47.5922C47.5969 46.7434 48.5133 45.4995 48.9562 44.0631C49.399 42.6268 49.3423 41.0828 48.7952 39.6829C48.3964 38.6394 47.7573 37.7046 46.9299 36.9542C48.5284 35.6449 49.7745 33.957 50.555 32.0438C51.1215 30.5158 51.1894 28.8476 50.7489 27.2786C50.3084 25.7096 49.3821 24.3205 48.1031 23.3107C46.5446 21.9996 44.5768 21.2746 42.5402 21.2608H42.1975C42.27 16.9832 40.4047 13.6745 36.9247 12.0333C35.5567 11.3856 34.0618 11.0502 32.5482 11.0513L32.5218 10.9722Z" fill="#D2B645"/>
<path d="M34.9668 33.6919C34.8593 33.1235 34.557 32.6104 34.1118 32.241C33.6666 31.8716 33.1065 31.6691 32.5281 31.6685C31.9492 31.6679 31.3885 31.8699 30.943 32.2395C30.4976 32.6091 30.1956 33.1229 30.0894 33.6919L26.4643 52.839C26.3445 53.4662 26.3645 54.1121 26.5229 54.7307C26.6812 55.3493 26.974 55.9254 27.3804 56.4179C27.79 56.9103 28.3028 57.3067 28.8826 57.5789C29.4623 57.8511 30.0948 57.9925 30.7353 57.9932H34.3142C34.9549 57.9934 35.5877 57.8524 36.1675 57.5801C36.7474 57.3078 37.2601 56.911 37.6691 56.4179C38.0751 55.925 38.3681 55.3491 38.5275 54.7308C38.6869 54.1125 38.7089 53.4667 38.5918 52.839L34.9668 33.6919Z" fill="white"/>
<path d="M35.4682 43.8432C35.3025 43.8443 35.1384 43.8109 34.9863 43.7451C34.8342 43.6793 34.6975 43.5825 34.5849 43.4609C34.3668 43.227 34.25 42.9163 34.2599 42.5965C34.2697 42.2768 34.4055 41.9739 34.6377 41.7539L38.8098 37.8519C38.9241 37.7371 39.0603 37.6465 39.2103 37.5855C39.3604 37.5244 39.5212 37.4943 39.6831 37.4967C39.8451 37.4992 40.0049 37.5342 40.153 37.5998C40.3011 37.6654 40.4345 37.7601 40.5453 37.8784C40.656 37.9966 40.7417 38.1359 40.7974 38.288C40.8531 38.4401 40.8776 38.6019 40.8694 38.7637C40.8612 38.9254 40.8206 39.0839 40.7498 39.2296C40.679 39.3753 40.5797 39.5053 40.4576 39.6118L36.292 43.5203C36.069 43.7296 35.774 43.8452 35.4682 43.8432Z" fill="white"/>
<path d="M30.5506 40.1124C30.2444 40.1093 29.9506 39.9917 29.7267 39.7828L25.5612 35.8743C25.3407 35.6528 25.2149 35.3544 25.2101 35.0419C25.2053 34.7294 25.3221 34.4273 25.5357 34.1991C25.7493 33.971 26.0431 33.8347 26.3552 33.8189C26.6673 33.8031 26.9734 33.9091 27.2089 34.1145L31.3811 38.023C31.559 38.1886 31.6829 38.404 31.7363 38.6411C31.7897 38.8782 31.7703 39.1259 31.6805 39.3518C31.5907 39.5777 31.4348 39.7711 31.2332 39.9069C31.0316 40.0426 30.7936 40.1142 30.5506 40.1124Z" fill="white"/>
<path d="M38.6778 53.6304C38.6743 54.7842 38.214 55.8896 37.3975 56.7049C36.581 57.5201 35.4749 57.9788 34.3211 57.9805H32.5349C33.0337 57.7807 33.4808 57.4705 33.8427 57.0733C34.2045 56.6761 34.4718 56.202 34.6243 55.6868C34.8552 54.9796 34.9272 54.2302 34.8352 53.492L32.5349 31.6558C33.1124 31.6562 33.6718 31.8577 34.1169 32.2258C34.5619 32.5938 34.8649 33.1054 34.9736 33.6726L38.5987 52.8197C38.6479 53.0872 38.6743 53.3584 38.6778 53.6304Z" fill="#FFE7ED"/>
<path d="M40.5163 37.9036C40.4083 37.7871 40.2781 37.6932 40.1335 37.6274C39.9889 37.5616 39.8326 37.5252 39.6738 37.5203C39.5149 37.5154 39.3567 37.5421 39.2083 37.5989C39.0599 37.6556 38.9242 37.7413 38.8092 37.8509L36.2123 40.283L34.9666 33.6919C34.8592 33.1235 34.5568 32.6104 34.1117 32.241C33.6665 31.8716 33.1064 31.6691 32.5279 31.6685C31.9491 31.6679 31.3883 31.8699 30.9429 32.2395C30.4975 32.6091 30.1954 33.1229 30.0892 33.6919L29.5883 36.3284L27.2089 34.1006C26.9734 33.8951 26.6673 33.7892 26.3552 33.805C26.0431 33.8207 25.7493 33.9571 25.5357 34.1852C25.3221 34.4133 25.2053 34.7155 25.2101 35.0279C25.2149 35.3404 25.3407 35.6389 25.5612 35.8604L29.0544 39.1559L26.4641 52.8456C26.3436 53.4739 26.3635 54.1211 26.5225 54.7409C26.6815 55.3606 26.9757 55.9374 27.3839 56.4301C27.7922 56.9227 28.3043 57.3189 28.8837 57.5903C29.4631 57.8617 30.0953 58.0015 30.7351 57.9998H34.3141C34.9537 58.0002 35.5855 57.8595 36.1645 57.5878C36.7436 57.316 37.2555 56.92 37.664 56.4278C38.0725 55.9356 38.3674 55.3594 38.5278 54.7402C38.6881 54.1211 38.7099 53.4742 38.5917 52.8456L36.7462 43.0842L40.457 39.6041C40.6896 39.3861 40.8265 39.0848 40.8376 38.7661C40.8487 38.4474 40.7332 38.1374 40.5163 37.9036Z" stroke="#D2B645" stroke-width="2.5" stroke-miterlimit="10"/>
<path d="M34.3279 48.7202L34.8289 53.5053C34.8289 53.5053 35.3495 56.8338 32.5286 57.9939" stroke="#D2B645" stroke-width="2.32" stroke-linecap="round" stroke-linejoin="round"/>
<path d="M34.031 45.9515L33.8596 44.3037" stroke="#D2B645" stroke-width="2.32" stroke-linecap="round" stroke-linejoin="round"/>
</svg>
