<svg width="375" height="208" viewBox="0 0 375 208" fill="none" xmlns="http://www.w3.org/2000/svg">
<g opacity="0.7">
<g opacity="0.3">
<path d="M539.25 -145.32C544.25 -97.32 545.25 36.68 493.25 60.68C466.25 72.68 456.25 35.68 441.25 19.68C412.25 -9.32 389.25 29.68 361.25 39.68C319.25 54.68 319.25 16.68 287.25 2.67999C249.25 -13.32 247.25 32.68 232.25 53.68C224.25 64.68 212.25 75.68 197.25 74.68C178.25 72.68 173.25 54.68 165.25 40.68C157.25 25.68 147.25 9.67997 128.25 18.68C115.25 25.68 112.25 40.68 104.25 51.68C95.2498 62.68 77.2498 75.68 62.2498 67.68C47.2498 59.68 50.2498 36.68 38.2498 26.68C15.2498 6.67996 -6.75018 66.68 -26.7502 26.68C-37.7502 3.67996 -35.7502 -40.32 -36.7502 -66.32C-36.7502 -82.32 -34.7502 -98.32 -35.7502 -113.32C-36.7502 -131.32 -37.7502 -132.32 -18.7502 -137.32C34.2498 -151.32 90.2498 -143.32 145.25 -143.32C206.25 -143.32 268.25 -144.32 330.25 -144.32C400.25 -144.32 469.25 -146.32 539.25 -145.32Z" fill="#18593F"/>
</g>
<path d="M258.25 23.68C236.159 23.68 218.25 41.5886 218.25 63.68C218.25 85.7714 236.159 103.68 258.25 103.68C280.341 103.68 298.25 85.7714 298.25 63.68C298.25 41.5886 280.341 23.68 258.25 23.68Z" fill="#18593F"/>
<path d="M36.5 60.18C23.5213 60.18 13 70.7013 13 83.68C13 96.6587 23.5213 107.18 36.5 107.18C49.4787 107.18 60 96.6587 60 83.68C60 70.7013 49.4787 60.18 36.5 60.18Z" fill="#18593F"/>
<path d="M84.25 -75.32C63.2632 -75.32 46.25 -58.3068 46.25 -37.32C46.25 -16.3332 63.2632 0.679988 84.25 0.679989C105.237 0.679991 122.25 -16.3332 122.25 -37.32C122.25 -58.3068 105.237 -75.32 84.25 -75.32Z" fill="#18593F"/>
<path d="M192.5 126.18C187.806 126.18 184 129.986 184 134.68C184 139.374 187.806 143.18 192.5 143.18C197.194 143.18 201 139.374 201 134.68C201 129.986 197.194 126.18 192.5 126.18Z" fill="#18593F"/>
<path d="M369 126.93C365.824 126.93 363.25 129.504 363.25 132.68C363.25 135.856 365.824 138.43 369 138.43C372.176 138.43 374.75 135.856 374.75 132.68C374.75 129.504 372.176 126.93 369 126.93Z" fill="#18593F"/>
</g>
<path d="M151.06 24.94C160.58 26.13 169.47 24.57 177.06 18.49C185.51 11.73 191.24 0.350016 193.57 -9.98998C196.68 -23.81 193.25 -38.31 193.12 -52.25C192.98 -67.11 199.41 -79.95 205.3 -93.25C209.65 -103.05 214.17 -114.16 212.3 -125.07C210.9 -133.37 204.44 -139.42 197.37 -143.29C181.63 -151.93 160.56 -152.88 144.03 -146.22C129.93 -140.55 122.11 -128.22 125.27 -113.07C127 -104.78 131.9 -97.41 136 -90.2C141.29 -80.89 144.85 -71.64 143.35 -60.78C142.08 -51.62 136.73 -42.7 133.62 -34.08C130.377 -25.174 128.686 -15.7778 128.62 -6.29999C128.54 8.79001 135.11 22.01 150.9 24.92C151.69 25.06 152.02 23.86 151.23 23.71C124.97 18.88 127.86 -12.82 134.23 -32.13C137.77 -42.75 144.15 -52.98 144.92 -64.32C145.65 -74.97 140.92 -84.18 135.72 -93.14C129.8 -103.45 123.5 -114.57 126.5 -126.87C129.21 -137.78 140 -144 150 -146.93C160 -149.86 170.31 -149.69 180.43 -147.73C190.55 -145.77 201.02 -141.79 207.35 -133.43C216.81 -120.91 208.45 -103.22 202.92 -90.91C199.84 -84.06 196.68 -77.28 194.43 -70.11C192.05 -62.53 191.69 -54.79 192.02 -46.91C192.38 -38.1 193.61 -29.38 193.48 -20.55C193.34 -10.85 190.48 -2.16998 185.61 6.14002C177.94 19.22 166.19 25.58 151.05 23.69C150.25 23.59 150.26 24.84 151.05 24.94L151.06 24.94Z" fill="white"/>
<path d="M164.33 24.1799C164.94 28.5999 166.84 32.7599 167.84 37.1099C168.71 40.8599 158.01 40.1099 156.23 40.2499C154.126 40.4549 152.013 40.545 149.9 40.5199C149.087 40.4399 148.277 40.3899 147.47 40.3699C146.11 40.3099 146.83 36.4899 146.91 35.6599C147.25 31.7199 147.49 27.6599 147.65 23.7199C147.65 22.9099 146.43 22.9199 146.4 23.7199C146.19 28.9699 144.64 34.9699 145.53 40.1499C146.13 43.6699 155.77 41.5399 157.81 41.3399C159.85 41.1399 167.39 42.3399 168.61 40.1499C171.06 35.6299 166.18 28.4999 165.54 23.8499C165.43 23.0599 164.22 23.3999 164.33 24.1799Z" fill="white"/>
<path d="M161.32 24.6199C161.591 27.4525 162.212 30.2405 163.17 32.9199C163.91 35.3999 164.17 38.0299 165.08 40.4499C165.37 41.1899 166.57 40.8699 166.28 40.1199C165.608 37.9631 165.06 35.7695 164.64 33.5499C163.87 30.5499 162.72 27.7399 162.57 24.6199C162.57 23.8099 161.29 23.8099 161.32 24.6199Z" fill="white"/>
<path d="M157 25.0799C157.445 27.7503 158.036 30.3942 158.77 33C159.47 35.56 159.68 38.22 160.43 40.75C160.485 40.8964 160.593 41.0169 160.733 41.088C160.873 41.1591 161.034 41.1757 161.185 41.1345C161.336 41.0933 161.466 40.9972 161.55 40.8651C161.634 40.733 161.666 40.5743 161.64 40.42C160.99 38.25 160.89 35.98 160.29 33.79C159.425 30.8315 158.727 27.8268 158.2 24.79C158.08 23.99 156.88 24.33 157 25.12L157 25.0799Z" fill="white"/>
<path d="M154.46 24.9099C154.38 27.9099 154.92 30.8599 155.1 33.9099C155.118 36.165 155.312 38.4152 155.68 40.64C155.85 41.43 157.05 41.0899 156.88 40.3099C156.528 38.1947 156.351 36.0542 156.35 33.9099C156.21 30.9099 155.63 27.9799 155.71 24.9099C155.691 24.7578 155.617 24.6179 155.502 24.5165C155.386 24.4151 155.238 24.3592 155.085 24.3592C154.932 24.3592 154.784 24.4151 154.668 24.5165C154.553 24.6179 154.479 24.7578 154.46 24.9099Z" fill="white"/>
<path d="M151 24.91C151 30.29 150.6 35.66 150.85 41.03C150.85 41.83 152.14 41.84 152.1 41.03C151.85 35.66 152.22 30.29 152.25 24.91C152.231 24.7578 152.157 24.6179 152.042 24.5165C151.926 24.4151 151.778 24.3592 151.625 24.3592C151.472 24.3592 151.324 24.4151 151.208 24.5165C151.093 24.6179 151.019 24.7578 151 24.91Z" fill="white"/>
<path d="M148.49 24C148.49 29.72 148.35 35.44 148.34 41.16C148.359 41.3121 148.433 41.452 148.548 41.5534C148.663 41.6548 148.811 41.7108 148.965 41.7108C149.118 41.7108 149.266 41.6548 149.381 41.5534C149.496 41.452 149.57 41.3121 149.59 41.16C149.59 35.44 149.73 29.72 149.74 24C149.72 23.8478 149.646 23.7079 149.531 23.6065C149.416 23.5051 149.268 23.4492 149.115 23.4492C148.961 23.4492 148.813 23.5051 148.698 23.6065C148.583 23.7079 148.509 23.8478 148.49 24Z" fill="white"/>
<path d="M184.48 -147.13C189.68 -132.13 190.92 -116.7 187.3 -101.23C184 -87 174.48 -75.45 173.87 -60.5C173.26 -45.55 178.7 -31.21 177.7 -16.23C177.12 -7.51005 172.61 -0.100038 168.84 7.55996C166.22 12.86 162.76 18.04 162.07 24.02C161.98 24.82 163.23 24.81 163.32 24.02C164.19 16.51 169.63 8.66995 173.05 2.01995C176.05 -3.85005 178.28 -9.61003 178.95 -16.21C180.46 -31.09 174.95 -45.64 175.12 -60.48C175.22 -69.36 178.67 -76.35 182.47 -84.13C185.547 -90.5262 187.824 -97.277 189.25 -104.23C192.3 -118.69 190.5 -133.6 185.68 -147.44C185.42 -148.19 184.21 -147.87 184.48 -147.11L184.48 -147.13Z" fill="white"/>
<path d="M143.89 -145.34C144.67 -143.28 146.28 -142.09 147.6 -140.34C149.805 -137.279 151.743 -134.034 153.39 -130.64C157.24 -122.84 158.85 -114.02 159.75 -105.45C161.45 -89.1201 160.95 -72.4501 156.57 -56.5801C152.52 -41.8901 145.31 -28.3601 143.57 -13.0201C142.17 -0.390066 146.41 13.3599 152.57 24.2899C152.663 24.412 152.798 24.4958 152.948 24.5256C153.099 24.5554 153.255 24.5292 153.388 24.4518C153.521 24.3744 153.621 24.2512 153.669 24.1054C153.717 23.9596 153.71 23.8011 153.65 23.6599C146.18 10.3799 142.96 -4.97009 145.91 -19.9801C148.97 -35.5001 156.76 -49.6101 159.86 -65.1501C162.7 -79.4001 162.51 -94.8201 160.55 -109.15C159.656 -116.23 157.826 -123.161 155.11 -129.76C153.803 -132.719 152.254 -135.565 150.48 -138.27C149 -140.59 146.02 -143.14 145.06 -145.68C144.78 -146.42 143.57 -146.1 143.86 -145.35L143.89 -145.34Z" fill="white"/>
<path d="M161.74 2.24995C167.91 -9.39005 169.52 -22.3701 169.59 -35.3801C169.571 -35.5322 169.496 -35.6721 169.381 -35.7735C169.266 -35.8749 169.118 -35.9308 168.965 -35.9308C168.811 -35.9308 168.663 -35.8749 168.548 -35.7735C168.433 -35.6721 168.359 -35.5322 168.34 -35.3801C168.27 -22.5801 166.73 -9.83006 160.66 1.61994C160.29 2.32994 161.36 2.95995 161.74 2.24995Z" fill="white"/>
<path d="M138.55 5.50998C137.28 -6.42002 139.36 -17.59 143.9 -28.64C144.2 -29.39 142.99 -29.71 142.69 -28.97C138.1 -17.79 136.01 -6.55002 137.3 5.50998C137.38 6.30998 138.63 6.30998 138.55 5.50998Z" fill="white"/>
<path d="M178.52 4.18993C182.973 -7.49638 185.303 -19.8843 185.4 -32.3901C185.381 -32.5422 185.307 -32.6821 185.191 -32.7835C185.076 -32.8849 184.928 -32.9409 184.775 -32.9409C184.622 -32.9409 184.473 -32.8849 184.358 -32.7835C184.243 -32.6821 184.169 -32.5422 184.15 -32.3901C184.049 -19.9989 181.732 -7.7257 177.31 3.84994C177.03 4.60994 178.24 4.92993 178.52 4.18993Z" fill="white"/>
<path d="M154.64 6.53995C153.43 2.44995 152.69 -1.75005 153.75 -5.96005C153.776 -6.11442 153.744 -6.27314 153.66 -6.40524C153.576 -6.53735 153.446 -6.63338 153.295 -6.67459C153.144 -6.7158 152.983 -6.69924 152.843 -6.62814C152.703 -6.55705 152.595 -6.43653 152.54 -6.29007C151.43 -1.87007 152.16 2.56993 153.44 6.86993C153.484 7.02906 153.589 7.1643 153.732 7.24588C153.876 7.32746 154.046 7.34869 154.205 7.30493C154.364 7.26117 154.499 7.15601 154.581 7.01254C154.662 6.86908 154.684 6.69908 154.64 6.53995Z" fill="white"/>
<path d="M145 19.22C144.064 17.4514 143.284 15.6044 142.67 13.7C142.625 13.5408 142.518 13.4061 142.374 13.3255C142.229 13.2449 142.059 13.2249 141.9 13.27C141.741 13.315 141.606 13.4215 141.525 13.5659C141.445 13.7103 141.425 13.8808 141.47 14.04C142.113 16.0485 142.933 17.9961 143.92 19.8599C144.28 20.5799 145.36 19.94 145 19.22Z" fill="white"/>
<path d="M157 18.51C157.271 16.4871 157.668 14.4832 158.19 12.51C158.233 12.3508 158.212 12.1808 158.131 12.0374C158.049 11.8939 157.914 11.7887 157.755 11.7449C157.596 11.7012 157.426 11.7225 157.282 11.804C157.139 11.8856 157.033 12.0208 156.99 12.1799C156.461 14.1516 156.064 16.1559 155.8 18.1799C155.68 18.9699 156.89 19.31 157 18.51Z" fill="white"/>
<path d="M171.49 15.2099C172.6 13.8199 173.67 12.4099 174.78 11.0299C175.27 10.4099 174.4 9.51994 173.89 10.1399C172.79 11.5299 171.71 12.9399 170.61 14.3199C170.11 14.9499 170.99 15.8399 171.49 15.2099Z" fill="white"/>
<path d="M80.3201 -131.38C76.1401 -119.15 73.6201 -106.13 75.1801 -93.1701C76.7401 -80.2101 83.3001 -68.5401 87.4701 -56.4701C92.3373 -41.9904 94.4504 -26.7274 93.7001 -11.4701C92.8201 4.45993 85.3301 18.8099 78.3401 32.7999L79.4901 33.2799C84.1501 19.2799 89.3801 5.48991 91.6401 -9.14009C93.7001 -22.5001 91.5001 -36.4101 88.2301 -49.3901C84.8001 -63.0401 77.2301 -75.2201 72.6901 -88.4601C70.049 -95.6716 69.4639 -103.475 71.0001 -111C72.4801 -118 74.3801 -125 76.3301 -131.91C76.3566 -132.064 76.3247 -132.223 76.2405 -132.355C76.1564 -132.487 76.0261 -132.583 75.875 -132.625C75.7239 -132.666 75.5628 -132.649 75.4232 -132.578C75.2837 -132.507 75.1756 -132.387 75.1201 -132.24C71.6601 -119.9 67.2401 -107.43 69.7701 -94.5501C72.4401 -81.0001 80.3001 -68.7401 85.0001 -55.8201C90.1388 -41.5217 92.0678 -26.2676 90.6501 -11.1401C89.1301 4.00991 83.0801 18.5699 78.3001 32.8599C78.27 33.0031 78.2907 33.1522 78.3586 33.2818C78.4265 33.4113 78.5374 33.5132 78.6722 33.57C78.807 33.6267 78.9573 33.6348 79.0974 33.5928C79.2375 33.5508 79.3587 33.4614 79.4401 33.3399C85.7601 20.6999 91.8601 8.33993 94.3101 -5.72007C96.7601 -19.7801 93.8601 -34.9901 90.9701 -48.8601C88.2101 -62.0501 81.2001 -73.9701 77.7101 -86.9601C73.8101 -101.48 76.7901 -117.16 81.5401 -131.09C81.8101 -131.85 80.6001 -132.18 80.3401 -131.42L80.3201 -131.38Z" fill="white"/>
<path d="M94.88 -17.52C98.8897 -14.7741 102.678 -11.718 106.21 -8.38003C108.35 -6.25003 110.35 -3.78003 111.12 -0.820032C111.89 2.13997 108.92 6.03997 105.74 5.17997C101.6 4.08997 99.56 -3.59004 98.44 -6.98004C97.22 -10.66 96.35 -14.43 95.44 -18.2C95.26 -18.98 94.05 -18.65 94.24 -17.87C95.5 -12.44 99.07 9.23996 108.16 6.29996C113.83 4.46996 112.72 -1.84001 110.16 -5.61001C106.52 -11.02 100.67 -14.86 95.46 -18.61C94.81 -19.09 94.19 -18 94.83 -17.53L94.88 -17.52Z" fill="white"/>
<path d="M91 -17.34C89.42 -11.82 88.48 -6.95004 85.3 -2.12004C83.66 0.36996 77.47 9.77994 73.56 6.73994C66.03 0.879943 87.1 -13.01 91.13 -15.16C91.84 -15.54 91.21 -16.62 90.5 -16.24C85.35 -13.5 63.72 0.649965 73.14 7.97996C76.71 10.76 81.7 4.58995 83.54 2.36995C85.3689 0.118295 87.0047 -2.28354 88.43 -4.81004C90.58 -8.57004 91.03 -12.9 92.2 -17C92.2451 -17.1592 92.2251 -17.3297 92.1445 -17.4741C92.0638 -17.6185 91.9291 -17.7249 91.77 -17.77C91.6109 -17.8151 91.4403 -17.7952 91.2959 -17.7145C91.1515 -17.6339 91.0451 -17.4992 91 -17.34Z" fill="white"/>
<path d="M92.4899 0.279952C96.8899 4.69995 103.97 15.21 102.33 21.69C101.4 25.36 95.7899 23.33 94.3299 21.45C92.6599 19.24 92.66 15.8699 92.63 13.2399C92.57 8.99995 93.54 4.76996 93.29 0.539962L92.06 0.709945C93.9368 5.65013 95.513 10.6993 96.78 15.8299C96.96 16.6099 98.1699 16.28 97.9899 15.5C96.7184 10.3707 95.1423 5.32171 93.2699 0.379958C93.0399 -0.250041 92 -0.200038 92.04 0.539962C92.41 6.72996 90.6199 12.79 91.9599 18.98C92.8199 22.98 97.2999 26.7699 101.49 24.3699C109.08 20.01 97.0999 3.17995 93.3299 -0.630052C93.2083 -0.725297 93.0559 -0.772504 92.9017 -0.762712C92.7475 -0.752919 92.6022 -0.686791 92.4936 -0.576921C92.385 -0.46705 92.3205 -0.321096 92.3125 -0.166795C92.3044 -0.0124942 92.3534 0.139384 92.45 0.259963L92.4899 0.279952Z" fill="white"/>
<path d="M87.82 0.999935C86.8021 6.31139 84.6273 11.3336 81.45 15.7099C79.9 17.8199 72.91 26.4699 70.24 22.3799C67.43 18.0499 74.99 12.3799 77.77 10.2599C81.0102 7.8298 84.4528 5.68192 88.06 3.83993C88.77 3.46993 88.14 2.38994 87.43 2.75994C82.52 5.31994 62.38 16.3199 70 24.0699C73 27.0699 78.46 21.0199 80.14 19.2099C84.6807 14.1971 87.747 8.02647 89 1.37994C89.14 0.589939 87.93 0.249943 87.79 1.03994L87.82 0.999935Z" fill="white"/>
<path d="M87.71 1.93994C85.33 7.43994 81.15 11.66 76.81 15.67C76.22 16.22 77.1 17.0999 77.69 16.5499C82.11 12.4699 86.37 8.16993 88.79 2.54993C89.1 1.80993 88.03 1.17995 87.71 1.91995L87.71 1.93994Z" fill="white"/>
<path d="M85.2798 20.41C88.0198 22.24 89.8198 25.63 91.3798 28.41C92.9398 31.19 95.8998 36.51 94.2598 39.77C93.0098 42.26 89.2598 39.52 88.3398 38.29C87.2029 36.4699 86.4824 34.421 86.2298 32.29C85.5147 28.2346 85.5147 24.0854 86.2298 20.03C86.3698 19.24 85.1598 18.9 85.0298 19.69C84.0369 25.1157 84.3315 30.6988 85.8898 35.99C86.8198 38.99 90.4498 43.72 94.1798 41.5C100.67 37.66 89.8598 21.95 85.9398 19.32C85.2698 18.87 84.6498 19.95 85.3098 20.4L85.2798 20.41Z" fill="white"/>
<path d="M84.9299 21.55C87.3033 25.2944 88.9676 29.4434 89.8399 33.79C89.9799 34.58 91.1799 34.24 91.0399 33.45C90.1579 29.0014 88.4628 24.7537 86.0399 20.92C85.9467 20.7979 85.8121 20.7141 85.6615 20.6843C85.5108 20.6545 85.3544 20.6807 85.2218 20.7581C85.0891 20.8355 84.9893 20.9587 84.9411 21.1045C84.8928 21.2504 84.8995 21.4087 84.9599 21.55L84.9299 21.55Z" fill="white"/>
<path d="M81.3598 21.82C80.4191 23.9547 79.3402 26.0257 78.1298 28.0199C76.7198 30.2299 73.6798 33.51 70.7298 32.95C68.9298 32.62 70.1298 29.7599 70.5398 28.8999C71.3906 27.4683 72.6096 26.2908 74.0698 25.4899C76.5344 24.0372 79.2197 22.9969 82.0198 22.41L81.2498 21.97C80.3397 22.839 79.3851 23.6601 78.3898 24.4299C76.9198 25.7699 75.4998 27.16 74.0998 28.57C73.5398 29.15 74.4198 30.0299 74.9898 29.4599C76.7698 27.6399 78.6198 25.8899 80.5198 24.1799C81.3698 23.4099 82.6498 22.89 82.4498 21.64C82.4301 21.5604 82.3946 21.4856 82.3453 21.4201C82.2961 21.3545 82.2342 21.2996 82.1633 21.2585C82.0923 21.2174 82.0138 21.1911 81.9325 21.181C81.8511 21.171 81.7686 21.1774 81.6898 21.2C77.8998 22.15 74.1598 23.4999 71.1798 26.1099C69.3998 27.6699 67.5198 31.1099 69.1798 33.3399C70.8398 35.5699 74.4898 33.3399 76.0598 32.2499C79.2198 29.9699 80.8998 25.86 82.4698 22.45C82.8098 21.72 81.7298 21.09 81.3898 21.82L81.3598 21.82Z" fill="white"/>
<path d="M80.9997 27.95C78.9997 31.6 79.6897 36.32 79.9997 40.29C80.4197 45.29 82.3797 54.43 77.2097 57.68C68.8397 62.95 71.9498 48.42 73.0098 45.3C74.4998 40.94 76.7797 35.04 80.4397 31.98C81.0597 31.46 80.1697 30.58 79.5497 31.1C75.5497 34.44 64.0397 56.1 72.4597 59.25C77.2497 61.03 80.9697 56.83 81.5297 52.43C82.0497 48.43 81.5997 44.32 81.2497 40.29C80.9197 36.59 80.1597 31.97 82.0497 28.58C82.4397 27.88 81.3597 27.25 80.9697 27.95L80.9997 27.95Z" fill="white"/>
<path d="M78.7097 31.64C78.1097 36.93 76.9697 42.14 76.1597 47.4C76.0397 48.18 77.2397 48.52 77.3597 47.73C78.1897 42.36 79.3597 37.04 79.9597 31.64C80.0497 30.84 78.7997 30.85 78.7097 31.64Z" fill="white"/>
<path d="M20.4099 57.8399C23.6484 57.6911 26.8935 57.8889 30.0899 58.4299C33.5199 59.1199 34.0199 60.1099 33.6699 63.2299C33.19 67.7505 33.4399 72.3187 34.4099 76.7599C36.1999 85.1799 42.2299 91.9599 49.9299 95.5599C53.2583 96.9953 56.8464 97.7307 60.4712 97.7203C64.0959 97.71 67.6797 96.9542 70.9999 95.4999C74.2246 94.0741 77.0204 91.8299 79.1099 88.9899C81.6199 85.5599 81.6699 81.1999 82.8299 77.26C84.0699 73.03 88.7599 72.42 92.4699 73.17C96.9599 74.09 99.4699 78.6799 99.8199 82.8599C100.32 89.1799 95.5899 96.1499 91.8199 100.8C82.5299 112.35 69.1599 115.31 55.1199 112.2C43.3899 109.59 31.3399 103.45 24.7299 93.14C17.9699 82.63 18.0999 69.0899 20.9799 57.3799C21.0121 57.2238 20.9839 57.0613 20.901 56.9252C20.8182 56.789 20.6868 56.6893 20.5333 56.6462C20.3799 56.6031 20.2158 56.6197 20.0741 56.6928C19.9324 56.7659 19.8237 56.8899 19.7699 57.0399C17.2199 67.4299 16.7699 78.9799 21.1699 88.9599C25.7099 99.1599 33.9299 105.57 44.0799 109.81C54.4299 114.14 67.5799 117.3 78.3899 112.59C83.4974 110.288 88.0677 106.945 91.808 102.774C95.5483 98.6032 98.376 93.6971 100.11 88.3699C102.8 80.0399 98.1099 71.0799 88.6399 71.6799C85.8099 71.8699 83.0099 73.2599 81.9399 76.0199C79.8799 81.3299 80.1899 86.4199 75.9399 90.8099C66.9399 99.9999 51.3299 96.9799 42.7799 89.2199C38.3699 85.2199 36.1099 79.6299 35.1199 73.8799C34.665 70.7447 34.5543 67.5692 34.7899 64.4099C34.8599 62.9099 35.6199 61.1599 35.1199 59.6599C33.7999 55.6599 23.2199 56.5499 20.4099 56.5899C20.2578 56.6092 20.1179 56.6833 20.0165 56.7984C19.9151 56.9135 19.8591 57.0616 19.8591 57.2149C19.8591 57.3683 19.9151 57.5164 20.0165 57.6315C20.1179 57.7465 20.2578 57.8206 20.4099 57.8399Z" fill="white"/>
<path d="M21.8901 56.9199C20.9573 51.2241 21.9906 45.3805 24.8201 40.3499C26.9501 36.3499 30.4401 33.3499 32.5301 29.3499L31.3801 29.1999C32.0001 31.3299 32.9901 33.2999 33.5301 35.4499C34.0087 38.1366 34.243 40.861 34.2301 43.5899C34.4701 48.0399 36.0301 54.8499 33.9501 58.9999C33.5901 59.7199 34.6701 60.3499 35.0301 59.6299C36.7601 56.1799 36.0301 50.8399 35.7401 47.1699C35.4601 43.6999 35.3801 40.1699 35.0301 36.7399C34.7401 33.9399 33.3601 31.5399 32.5901 28.8699C32.5553 28.7535 32.4875 28.6496 32.395 28.5708C32.3025 28.492 32.1891 28.4416 32.0686 28.4257C31.9481 28.4099 31.8256 28.4292 31.7159 28.4814C31.6061 28.5336 31.5138 28.6165 31.4501 28.7199C28.8801 33.6299 24.7601 37.3699 22.3501 42.4299C20.0801 47.1899 19.9601 51.7399 20.6401 56.8799C20.7501 57.6699 22.0001 57.6799 21.8901 56.8799L21.8901 56.9199Z" fill="white"/>
<path d="M33.0698 57.8199C32.9798 53.2199 33.1598 48.82 32.6798 44.2C32.1998 39.58 32.8398 34.7799 32.3698 30.0699C32.2898 29.2699 31.0298 29.2699 31.1198 30.0699C31.5898 34.7899 30.8998 39.44 31.4298 44.2C31.9598 48.96 31.7298 53.1999 31.8198 57.8199C31.8391 57.9721 31.9132 58.112 32.0283 58.2134C32.1434 58.3148 32.2915 58.3707 32.4448 58.3707C32.5982 58.3707 32.7463 58.3148 32.8614 58.2134C32.9764 58.112 33.0505 57.9721 33.0698 57.8199Z" fill="white"/>
<path d="M28.5499 56.7999C27.0399 47.9999 30.55 39.1599 31.98 30.5899C32.12 29.7999 30.9099 29.47 30.7799 30.26C29.2899 39.07 25.7799 48.09 27.3399 57.13C27.4799 57.93 28.6799 57.5899 28.5499 56.7999Z" fill="white"/>
<path d="M24.56 56.63C23.56 51.37 23.72 46.55 26.34 41.75C28.122 38.6428 29.6923 35.4188 31.04 32.1C31.34 31.35 30.13 31.03 29.84 31.77C28.21 35.99 25.18 39.82 23.84 44.07C22.5837 48.2595 22.4253 52.7016 23.38 56.97C23.53 57.76 24.73 57.42 24.58 56.63L24.56 56.63Z" fill="white"/>
<path d="M18.91 69.13C22.7 70.72 26.6799 70.26 30.6099 69.44C31.3999 69.28 31.0599 68.0799 30.2699 68.2399C26.5399 69.0199 22.8499 69.4399 19.2699 67.9299C18.5299 67.6199 18.21 68.83 18.94 69.13L18.91 69.13Z" fill="white"/>
<path d="M21.9997 64.1C24.3297 65.49 26.7397 64.59 29.2597 64.47C30.0697 64.47 30.0697 63.19 29.2597 63.22C27.0297 63.33 24.6997 64.22 22.6297 63.02C22.4885 62.9596 22.33 62.9529 22.1842 63.0011C22.0384 63.0493 21.9152 63.1491 21.8378 63.2818C21.7604 63.4145 21.7342 63.5708 21.764 63.7215C21.7938 63.8722 21.8776 64.0068 21.9997 64.1Z" fill="white"/>
<path d="M20.6297 81.1C24.9997 81.29 29.2197 81.1 32.9197 78.54C33.5797 78.08 32.9197 77 32.2897 77.46C28.7697 79.9 24.7697 80.03 20.6297 79.85C19.8297 79.85 19.8297 81.07 20.6297 81.1Z" fill="white"/>
<path d="M24.4496 85.7199C26.9233 85.3674 29.3025 84.5279 31.4496 83.2499C31.5717 83.1567 31.6555 83.0221 31.6853 82.8715C31.7151 82.7208 31.6888 82.5644 31.6114 82.4318C31.534 82.2991 31.4109 82.1993 31.2651 82.1511C31.1192 82.1028 30.9608 82.1096 30.8196 82.1699C28.769 83.3827 26.4988 84.1779 24.1396 84.5099C23.3496 84.6299 23.6896 85.8299 24.4796 85.7199L24.4496 85.7199Z" fill="white"/>
<path d="M38.5098 85.7099C36.2698 89.4599 31.7798 91.4299 27.5098 91.7099C26.7198 91.7699 26.7098 93.0199 27.5098 92.9599C32.1898 92.6099 37.0898 90.4499 39.5098 86.2999C39.5702 86.1587 39.5769 86.0003 39.5287 85.8545C39.4805 85.7087 39.3807 85.5855 39.248 85.5081C39.1153 85.4307 38.959 85.4044 38.8083 85.4342C38.6576 85.4641 38.523 85.5479 38.4298 85.67L38.5098 85.7099Z" fill="white"/>
<path d="M41.5997 90C40.2142 92.8682 37.7635 95.0821 34.7697 96.17C34.0197 96.46 34.3497 97.67 35.0997 97.38C38.4082 96.2016 41.1273 93.7803 42.6797 90.63C43.0197 89.91 41.9397 89.27 41.5997 90Z" fill="white"/>
<path d="M46.33 95.3299C45.77 98.5799 43.73 101.04 41.4 103.26C40.81 103.81 41.7 104.69 42.28 104.14C44.76 101.79 46.94 99.1399 47.54 95.6599C47.67 94.8699 46.47 94.5299 46.33 95.3299Z" fill="white"/>
<path d="M49.7298 99.5899C49.502 101.628 48.5383 103.512 47.0198 104.89C46.4598 105.47 47.3398 106.36 47.8998 105.78C49.6452 104.16 50.7402 101.959 50.9798 99.5899C51.0398 98.7799 49.7898 98.7899 49.7298 99.5899Z" fill="white"/>
<path d="M58.5099 98.8599C60.0799 103.14 58.7899 106.5 56.5099 110.22C56.4496 110.361 56.4428 110.52 56.491 110.665C56.5393 110.811 56.6391 110.934 56.7717 111.012C56.9044 111.089 57.0608 111.115 57.2115 111.086C57.3621 111.056 57.4967 110.972 57.5899 110.85C60.0199 106.85 61.3699 103.13 59.6799 98.5299C59.3999 97.7799 58.1899 98.1099 58.4699 98.8599L58.5099 98.8599Z" fill="white"/>
<path d="M64.6597 101C65.2852 102.215 65.6165 103.561 65.6269 104.928C65.6373 106.295 65.3266 107.645 64.7197 108.87C64.4097 109.61 65.6197 109.93 65.9297 109.2C66.5882 107.815 66.914 106.296 66.881 104.762C66.848 103.229 66.4572 101.725 65.7397 100.37C65.3897 99.65 64.3097 100.28 64.6597 101Z" fill="white"/>
<path d="M68.8497 96.3C71.9197 99.13 74.7397 103.98 72.5797 108.12C72.2097 108.83 73.2897 109.47 73.6697 108.75C76.0897 104.09 73.2597 98.67 69.7397 95.41C69.1397 94.87 68.2597 95.75 68.8497 96.3Z" fill="white"/>
<path d="M75.0996 96.37C76.7496 98.73 79.2296 100.77 78.9096 103.92C78.8296 104.72 80.0796 104.71 80.1596 103.92C80.5096 100.49 77.9796 98.32 76.1596 95.74C75.6996 95.08 74.6196 95.74 75.0796 96.37L75.0996 96.37Z" fill="white"/>
<path d="M77.71 90.77C82.27 92.85 86.96 95.69 87 101.29C87.0193 101.442 87.0934 101.582 87.2085 101.683C87.3235 101.785 87.4716 101.841 87.625 101.841C87.7784 101.841 87.9265 101.785 88.0415 101.683C88.1566 101.582 88.2307 101.442 88.25 101.29C88.2 95.22 83.36 91.98 78.34 89.69C77.61 89.36 76.98 90.44 77.71 90.77Z" fill="white"/>
<path d="M83.8299 88.62C86.7699 89.68 89.1399 90.87 90.5799 93.78C90.9399 94.5 92.0199 93.87 91.6699 93.15C90.0699 89.95 87.3999 88.58 84.1699 87.41C83.4099 87.13 83.0799 88.34 83.8299 88.62Z" fill="white"/>
<path d="M81.9001 81.8599C86.3401 81.9599 91.2101 81.59 94.6601 84.92C95.2401 85.48 96.1201 84.6 95.5401 84.04C91.8201 80.45 86.7201 80.7099 81.9001 80.6099C81.7479 80.6292 81.608 80.7034 81.5066 80.8184C81.4052 80.9335 81.3493 81.0816 81.3493 81.2349C81.3493 81.3883 81.4052 81.5364 81.5066 81.6515C81.608 81.7665 81.7479 81.8406 81.9001 81.8599Z" fill="white"/>
<path d="M85.8299 78.1099C87.9111 78.3046 89.9419 78.8631 91.8299 79.76C92.5599 80.11 93.19 79.03 92.47 78.68C90.3741 77.6963 88.1246 77.0807 85.82 76.8599C85.02 76.7699 85.03 78.0299 85.82 78.1099L85.8299 78.1099Z" fill="white"/>
<path d="M397.22 42.4C392.9 47.54 387.46 56.75 390.82 63.61C392.95 67.95 398.71 68.61 400.6 64.01C401.6 61.71 398.52 54.93 403.67 55.95C409.27 57.06 409.77 65.6 409.54 70.01C408.77 85.01 394.41 92.43 381.05 91.36C368.73 90.36 357.93 81.1 356.96 68.51C356.5 62.58 359.34 55.27 365.11 52.95C367.556 51.8833 368.926 53.1966 369.22 56.89C368.84 57.7 368.39 58.49 368.01 59.31C367.508 60.2246 367.312 61.2758 367.45 62.31C367.691 63.2282 368.233 64.0392 368.988 64.6138C369.744 65.1883 370.671 65.4932 371.62 65.48C373.82 65.48 375.18 61.41 375.62 59.84C377.1 54.3 375.44 48.71 376.18 43.21C377.18 36.21 393.58 42.21 397.35 43.28C397.509 43.3251 397.679 43.3051 397.824 43.2245C397.968 43.1438 398.075 43.0091 398.12 42.85C398.165 42.6908 398.145 42.5203 398.064 42.3759C397.984 42.2315 397.849 42.125 397.69 42.08C393.08 40.72 374.93 34.08 374.81 44.08C374.81 46.74 376.48 66.72 369.95 63.76C366.8 62.33 370.15 58.38 370.71 56.67C370.892 56.0603 370.946 55.4195 370.869 54.7879C370.791 54.1563 370.584 53.5475 370.26 53C369.15 50.57 365.68 51.4 363.86 52.13C360 53.68 358 57.65 356.73 61.35C353.58 70.51 357.94 81.04 365.51 86.64C382.28 99.02 410.63 91.75 410.87 68.16C411.035 64.3022 409.986 60.4899 407.87 57.26C406.73 55.66 402.95 53.34 400.97 54.8C398.99 56.26 399.38 58.8 399.54 60.96C399.88 65.7 394.54 66.76 391.97 62.96C389.4 59.16 392.51 52.45 394.22 49.06C395.32 46.9788 396.663 45.0353 398.22 43.27C398.73 42.65 397.86 41.77 397.33 42.38L397.22 42.4Z" fill="white"/>
<path d="M393.72 41.57C387.91 46.09 384.98 56.15 386.23 63.33C386.84 66.79 388.23 69.25 391.5 70.69C392.13 70.95 392.76 71.22 393.38 71.5C395.38 72.39 394.16 73.89 392.06 73.29C389.96 72.69 387.78 71.01 385.82 69.8C385.711 69.7434 385.589 69.7191 385.467 69.7298C385.346 69.7406 385.23 69.786 385.133 69.8607C385.036 69.9354 384.963 70.0362 384.921 70.1513C384.88 70.2663 384.873 70.3908 384.9 70.51C385.188 72.3377 385.161 74.2014 384.82 76.02C383.71 81.56 380.4 74.02 380.34 73.83C380.08 73 379.88 72.17 379.6 71.35C379.45 70.88 378.71 70.67 378.46 71.2C377.827 72.6154 376.999 73.935 376 75.12C374.31 74.6 373.82 73.74 374.51 72.55C374.76 71.75 375.07 70.99 375.27 70.18C375.302 70.06 375.298 69.9332 375.258 69.8156C375.218 69.698 375.144 69.5948 375.046 69.519C374.948 69.4431 374.829 69.398 374.705 69.3893C374.581 69.3805 374.458 69.4086 374.35 69.47C373.202 70.1105 372.02 70.688 370.81 71.2C369.98 70.47 370.03 69.89 370.98 69.45C371.76 68.7492 372.596 68.1137 373.48 67.55C375.66 66.12 377.78 64.25 378.65 61.71C380.07 57.51 380.65 52.81 381.43 48.44C381.87 45.91 382.57 42.26 381.37 39.86C381.01 39.14 379.94 39.77 380.29 40.49C381.74 43.4 380.2 48.4 379.62 51.38C379.04 54.36 378.55 57.31 377.83 60.22C376.67 64.97 371.75 66.62 368.74 69.95C368.2 70.54 367.53 72.18 368.74 72.56C370.83 73.21 373.21 71.49 374.96 70.56L374.04 69.86C373.58 71.77 371.38 75.46 373.83 76.86C376.43 78.39 378.83 73.37 379.52 71.81L378.38 71.66C379.13 73.89 380.03 80.07 383.77 79.04C387.1 78.13 386.44 72.62 386.08 70.16L385.16 70.86C388.01 72.62 391.16 75.22 394.73 74.81C395.057 74.8052 395.378 74.7159 395.66 74.5509C395.943 74.3858 396.178 74.1506 396.343 73.8679C396.508 73.5852 396.597 73.2647 396.602 72.9375C396.607 72.6102 396.527 72.2873 396.37 72C395.84 71 394.01 70.42 393.07 70C389.38 68.37 387.68 66 387.36 61.83C386.87 55.2 389.28 46.59 394.61 42.45C395.24 41.95 394.35 41.07 393.72 41.56L393.72 41.57Z" fill="white"/>
<path d="M376 90.34C375.957 89.3863 376.062 88.4319 376.31 87.51C376.55 86.74 375.31 86.41 375.1 87.18C374.823 88.2095 374.705 89.275 374.75 90.34C374.769 90.4921 374.843 90.632 374.958 90.7334C375.073 90.8348 375.221 90.8907 375.375 90.8907C375.528 90.8907 375.676 90.8348 375.791 90.7334C375.906 90.632 375.98 90.4921 376 90.34Z" fill="white"/>
<path d="M365 85.16C365.894 83.874 366.923 82.6873 368.07 81.62C368.64 81.05 367.75 80.17 367.18 80.74C365.962 81.884 364.869 83.1545 363.92 84.53C363.48 85.21 364.57 85.84 365 85.16Z" fill="white"/>
<path d="M359.15 76.55C360.295 76.0074 361.47 75.53 362.67 75.12C363.4 74.81 363.08 73.6 362.33 73.91C361.034 74.3635 359.762 74.8842 358.52 75.47C357.81 75.86 358.44 76.94 359.15 76.55Z" fill="white"/>
<path d="M357.17 65.78C358.052 65.6633 358.941 65.6165 359.83 65.64C359.982 65.6207 360.122 65.5466 360.224 65.4315C360.325 65.3164 360.381 65.1684 360.381 65.015C360.381 64.8616 360.325 64.7135 360.224 64.5985C360.122 64.4834 359.982 64.4093 359.83 64.39C358.827 64.3735 357.823 64.437 356.83 64.58C356.04 64.7 356.38 65.9 357.17 65.78Z" fill="white"/>
<path d="M362.65 60.3C361.41 59.39 360.46 58.17 359 57.58C358.25 57.27 357.93 58.48 358.67 58.78C359.97 59.32 360.9 60.56 362.02 61.38C362.67 61.86 363.29 60.78 362.65 60.3Z" fill="white"/>
<path d="M216.08 114.57C216.2 112.78 216.66 110.96 216.21 109.18C216.175 109.048 216.097 108.931 215.988 108.848C215.88 108.765 215.747 108.72 215.61 108.72C214.02 108.72 212.43 108.64 210.83 108.72C210.735 108.723 210.642 108.748 210.558 108.791C210.473 108.835 210.4 108.897 210.342 108.973C210.285 109.048 210.245 109.136 210.226 109.229C210.206 109.322 210.208 109.418 210.23 109.51C210.622 111.031 210.717 112.613 210.51 114.17C210.472 114.329 210.497 114.496 210.579 114.637C210.661 114.779 210.793 114.883 210.95 114.93C212.368 115.481 213.926 115.554 215.39 115.14C216.15 114.89 215.83 113.68 215.06 113.93C213.813 114.285 212.483 114.214 211.28 113.73C211.42 113.99 211.57 114.24 211.72 114.5C211.968 112.725 211.873 110.919 211.44 109.18C211.24 109.44 211.04 109.71 210.83 109.97C212.43 109.92 214.02 110.05 215.61 109.97L215.01 109.51C215.42 111.16 214.94 112.91 214.83 114.57C214.77 115.38 216.02 115.37 216.08 114.57Z" fill="white"/>
<path d="M216.13 109.93C219.2 106.7 219 101.79 219.76 97.65C220.942 91.3978 220.837 84.97 219.45 78.76C216.7 66.96 205.19 59.55 193.8 58.34C188.99 57.83 182.24 58.94 179.13 63.09C176.51 66.61 176.8 70.36 180.67 72.88C183.733 74.6787 186.937 76.227 190.25 77.51C194.22 79.3826 197.561 82.3664 199.87 86.1C201.898 89.3224 203.734 92.6615 205.37 96.1C207.32 99.97 211.14 105.28 210.97 109.67C210.97 110.47 212.19 110.47 212.22 109.67C212.39 105.24 209.14 101.03 207.29 97.2C205.061 92.2228 202.366 87.4681 199.24 83C196.687 79.7699 193.322 77.275 189.49 75.77C187.16 74.77 184.8 73.77 182.56 72.57C174.96 68.39 180.86 62 186.21 60.18C198.21 56.09 211.55 64.79 216.82 75.18C219.5 80.46 219.53 87.1 219.21 92.89C218.97 97.36 218.4 105.72 215.21 109.04C214.65 109.62 215.54 110.51 216.09 109.92L216.13 109.93Z" fill="white"/>
<path d="M177.16 66.56C172.33 75.56 174.33 84.22 180.93 91.56C184.88 95.94 189.93 99.39 194.85 102.56C199.56 105.56 205.05 109.18 210.67 109.98C211.46 110.09 211.8 108.89 211 108.77C206.41 108.12 202.23 105.41 198.25 103.14C193.608 100.504 189.228 97.4298 185.17 93.96C177 86.96 172.8 77.35 178.24 67.25C178.62 66.54 177.54 65.91 177.16 66.62L177.16 66.56Z" fill="white"/>
<path d="M178 66.67C178.46 57.75 190.78 54.75 197.92 54.75C207.92 54.75 218.44 57.6 224.61 65.93C229.85 72.98 229.34 85.07 227.36 93.18C226.52 96.64 221.3 110.18 216.43 108.56C215.66 108.31 215.34 109.56 216.1 109.77C221.88 111.65 226.21 99.77 227.7 96.01C231.35 86.91 230.95 73.65 225.7 65.3C219.48 55.41 205.9 53.3 195.23 53.53C187.98 53.69 177.18 58.37 176.76 66.67C176.76 67.47 177.97 67.47 178.01 66.67L178 66.67Z" fill="white"/>
<path d="M179 65.81C191.52 64.47 208.58 68.72 213.38 81.81C213.65 82.57 214.86 82.24 214.58 81.48C209.58 67.83 192.15 63.14 179 64.55C178.2 64.63 178.2 65.88 179 65.8L179 65.81Z" fill="white"/>
<path d="M213.61 109.62C215.17 98.96 211.38 86.3 204.98 77.79C202.143 73.8757 198.301 70.8006 193.86 68.89C191.199 67.943 188.448 67.2727 185.65 66.89C183.2 66.41 180.99 65.42 178.48 65.21C177.67 65.14 177.68 66.4 178.48 66.46C182.57 66.8 186.99 68.32 191.01 69.27C195.94 70.43 199.68 73.57 203.01 77.27C206.474 81.2728 208.986 86.0078 210.36 91.12C211.98 96.69 213.27 103.53 212.43 109.25C212.32 110.04 213.52 110.38 213.64 109.59L213.61 109.62Z" fill="white"/>
<path d="M177.38 67.09C177.45 71.88 177.09 76.18 179.11 80.64C181.02 84.83 184.84 88.31 188.11 91.39C191.773 94.9503 195.731 98.1951 199.94 101.09C202.567 102.621 205.083 104.336 207.47 106.22C208.728 107.523 210.063 108.749 211.47 109.89C212.14 110.35 212.76 109.26 212.1 108.81C208.92 106.61 206.59 103.71 203.24 101.64C199.121 99.0353 195.221 96.0989 191.58 92.86C187.933 89.8042 184.631 86.3606 181.73 82.59C178.24 77.87 178.73 72.59 178.61 67.09C178.59 66.9378 178.516 66.7979 178.401 66.6965C178.286 66.5951 178.138 66.5392 177.985 66.5392C177.831 66.5392 177.683 66.5951 177.568 66.6965C177.453 66.7979 177.379 66.9378 177.36 67.09L177.38 67.09Z" fill="white"/>
<path d="M178.08 71.63C183.31 81.91 192.08 88.75 200.52 96.36C201.12 96.9 202.01 96.01 201.41 95.47C193 88 184.32 81.13 179.16 71C178.8 70.28 177.72 70.92 178.08 71.63Z" fill="white"/>
<path d="M178.57 64.34C181.48 58.5 191.38 57.34 197.08 57.5C204.92 57.74 214.27 62.38 218.92 68.7C222.56 73.64 224 82.57 224.05 88.57C224.12 95.69 221.28 103.04 217.22 108.79C216.76 109.45 217.84 110.08 218.3 109.42C222.901 102.91 225.349 95.1221 225.3 87.15C225.23 79.87 222.8 71.01 217.96 65.51C212.72 59.56 202.96 56.43 195.3 56.2C189.51 56.03 180.3 58.04 177.5 63.71C177.14 64.43 178.22 65.07 178.58 64.34L178.57 64.34Z" fill="white"/>
<path d="M28.5 1.29995C40.61 -0.170044 54.08 -6.45002 58.44 -18.65C58.4829 -18.8105 58.4608 -18.9814 58.3784 -19.1256C58.296 -19.2698 58.16 -19.3756 58 -19.42C51 -21.42 42.35 -18.9 36.19 -15.63C33.0278 -13.9108 30.3358 -11.4419 28.35 -8.44004C26.89 -6.36004 23.54 -1.74003 23.54 0.849973C23.5451 1.01451 23.6134 1.17073 23.7308 1.28619C23.8481 1.40165 24.0054 1.46748 24.17 1.46997C25.62 1.46997 27.04 1.37995 28.5 1.29995C29.3 1.29995 29.3 0.00995476 28.5 0.0499547C28.37 0.0499546 24.91 0.589954 25.3 -0.200046C25.93 -1.47005 26.56 -2.74003 27.21 -4.00003C28.6776 -6.97768 30.6425 -9.68315 33.02 -12C38.32 -17 47.02 -18.65 54.1 -18.75C57.38 -18.75 56.92 -17.83 55.76 -15.57C54.9466 -14.103 53.9631 -12.7369 52.83 -11.5C50.7509 -9.21389 48.3327 -7.26106 45.66 -5.71002C40.4225 -2.58315 34.5668 -0.634664 28.5 -3.31369e-05C27.71 0.0999668 27.7 1.34997 28.5 1.24997L28.5 1.29995Z" fill="white"/>
<path d="M25.7798 0.45994C30.5715 -3.36337 35.661 -6.79762 40.9998 -9.81005C46.1598 -12.81 51.4298 -16.81 57.3198 -18.05C58.1098 -18.22 57.7798 -19.4201 56.9898 -19.2601C51.3698 -18.0701 46.7998 -14.41 41.8498 -11.71C35.8536 -8.47207 30.1636 -4.69659 24.8498 -0.430044C24.2198 0.0799556 25.1098 0.95994 25.7398 0.45994L25.7798 0.45994Z" fill="white"/>
<path d="M323.88 -142.22C319.82 -126.31 318.78 -109.43 319.88 -93.11C320.289 -88.8408 319.971 -84.533 318.94 -80.37C317.48 -75.15 313.07 -72.6 308.36 -70.8C301.87 -68.31 294.83 -67.6001 288.36 -64.9501C288.21 -64.8962 288.086 -64.7875 288.013 -64.6459C287.94 -64.5042 287.923 -64.3401 287.966 -64.1866C288.009 -64.0332 288.109 -63.9018 288.245 -63.8189C288.381 -63.736 288.544 -63.7078 288.7 -63.74C296.3 -64.94 305.06 -68.0201 312.7 -65.8901C319.35 -64.0401 310.84 -54.8901 308.7 -52.8901C305.294 -49.8589 301.451 -47.3575 297.3 -45.47C288.96 -41.61 278.98 -44.64 270.36 -45.66C259.68 -46.91 250.11 -43.66 241.13 -38C241.008 -37.9186 240.919 -37.7975 240.877 -37.6574C240.835 -37.5173 240.843 -37.3669 240.9 -37.2321C240.957 -37.0973 241.059 -36.9865 241.188 -36.9186C241.318 -36.8507 241.467 -36.83 241.61 -36.86C257.69 -39.78 272.9 -39.73 289.1 -38.38C288.99 -38.77 288.89 -39.16 288.78 -39.55C276.41 -34.01 270.15 -24.35 262.97 -13.36C254.58 -0.510026 247.58 13.18 239.03 25.9C238.961 26.02 238.934 26.1594 238.952 26.2966C238.97 26.4338 239.033 26.5611 239.131 26.659C239.229 26.7569 239.356 26.8198 239.493 26.8381C239.63 26.8563 239.77 26.8289 239.89 26.76C249.19 20.98 253.89 8.14997 259.61 -0.710032C266.39 -11.14 272.85 -21.49 282.01 -30.02C285.65 -33.41 290.42 -37.75 295.61 -38.32C301.16 -38.93 300.32 -27.86 300.34 -24.5C300.34 -19.8 300.03 -15.1 300.34 -10.41C300.42 -9.08004 300.07 -4.78005 300.96 -3.95005C301.038 -3.88435 301.13 -3.83848 301.23 -3.81638C301.329 -3.79428 301.432 -3.79658 301.531 -3.82313C301.629 -3.84967 301.719 -3.89963 301.794 -3.96876C301.869 -4.03788 301.926 -4.12411 301.96 -4.22004C303.78 -14.67 305.21 -26.34 303.39 -36.86C302.46 -42.27 305.39 -44.62 309.63 -47.24C310.63 -47.9 311.76 -48.53 312.83 -49.18C314.83 -50.37 315.83 -47.6 316.64 -46.1C319.88 -40.36 321.12 -33.63 323.69 -27.6C323.94 -27.01 324.88 -27.32 324.86 -27.91C324.53 -35.71 322.52 -42.38 320.74 -49.85C319.55 -54.85 320.56 -59.08 322.41 -63.72C324.26 -68.36 324.56 -72.81 324.9 -77.72C326.28 -97.95 328.42 -117.96 331.18 -138.05C331.29 -138.84 330.09 -139.18 329.98 -138.38C327.27 -118.69 325.05 -99.05 323.75 -79.21C323.41 -73.96 323.12 -68.99 321.21 -64.03C319.66 -60.03 318.48 -56.48 319.08 -52.16C319.61 -49.1045 320.379 -46.0953 321.38 -43.16C322.772 -38.1758 323.521 -33.0342 323.61 -27.86L324.77 -28.18C321.49 -35.89 320.15 -44.62 314.63 -51.18C314.532 -51.2779 314.403 -51.34 314.265 -51.3563C314.128 -51.3726 313.988 -51.3422 313.87 -51.27C308.54 -47.74 300.87 -45.41 301.99 -37.81C302.83 -32.21 302.56 -27.15 302.41 -21.51C302.3 -16.72 302.78 -11.24 300.98 -6.71003C300.46 -5.39003 301.93 -3.64004 301.9 -5.82004C301.93 -6.71438 301.9 -7.60972 301.81 -8.50004C301.447 -11.5457 301.343 -14.6168 301.5 -17.68C301.6 -23.84 302.72 -31.87 299.73 -37.56C294.78 -46.99 275.68 -25.56 272.84 -22.19C266.49 -14.69 261.22 -5.82004 256.07 2.52996C251.34 10.21 247.18 20.8099 239.25 25.7399L240.1 26.59C248.1 14.64 254.69 1.75996 262.53 -10.34C265.8 -15.39 269.06 -20.47 272.63 -25.34C276.948 -31.123 282.74 -35.6403 289.4 -38.4201C290.02 -38.7001 289.64 -39.54 289.09 -39.58C272.79 -40.93 257.42 -40.9501 241.27 -38.0101L241.75 -36.87C248.49 -41.11 255.56 -44.1701 263.58 -44.63C269.09 -44.94 274.51 -43.68 279.94 -42.96C290.8 -41.51 299 -43.71 307.65 -50.36C311.01 -52.95 321.16 -62.81 313.87 -66.74C310.3 -68.66 304.82 -67.57 301.06 -67.09C296.8 -66.54 292.63 -65.56 288.39 -64.9C288.51 -64.49 288.62 -64.09 288.73 -63.69C300.63 -68.6 319.41 -67.69 321.03 -84.25C321.91 -93.25 320.34 -102.39 320.88 -111.48C321.49 -121.66 322.57 -131.94 325.1 -141.84C325.126 -141.994 325.095 -142.153 325.01 -142.285C324.926 -142.417 324.796 -142.513 324.645 -142.555C324.494 -142.596 324.333 -142.579 324.193 -142.508C324.054 -142.437 323.945 -142.316 323.89 -142.17L323.88 -142.22Z" fill="white"/>
<path d="M326.45 -101.89C329.17 -100.94 332.07 -100.32 334.36 -98.48C337.5 -95.94 335.36 -91.74 334.13 -88.94C332.9 -86.14 335.44 -83.34 337.41 -81.56C338.96 -80.16 340.97 -79.27 342.6 -77.96C347.28 -74.16 342.33 -70.42 339.33 -68.38C337.24 -66.96 335.01 -64.24 336.2 -61.53C338.29 -56.78 344.2 -55.64 344.64 -49.83C344.89 -46.26 339.05 -45.4001 338.06 -42.1701C337.07 -38.94 338.87 -36.44 340.94 -34.02C343.01 -31.6 347.39 -25.67 342.29 -23.61C340.65 -22.94 338.77 -23.07 337.09 -22.43C336.134 -22.0271 335.342 -21.3157 334.838 -20.4095C334.334 -19.5032 334.148 -18.4542 334.31 -17.43C334.617 -15.9405 335.135 -14.5026 335.85 -13.16C338.71 -7.16004 329.04 -7.57005 325.85 -7.98005C322.66 -8.39005 319.99 -7.27003 318.94 -4.08003C318.36 -2.33003 319.06 0.219972 319.29 1.91997C319.71 5.04997 319.16 9.45995 313.53 8.51995C312.021 8.12822 310.552 7.59936 309.14 6.93996C307.843 6.37474 306.389 6.28128 305.03 6.6758C303.671 7.07032 302.493 7.92794 301.7 9.09996C298.31 13.65 304.45 24.6299 293.09 21.7399C289.71 20.8799 285.88 19.6599 282.77 21.9599C279.27 24.5499 281.47 34.72 274.23 33.1C270.72 32.31 268.51 30.97 264.94 32.51C261.55 33.98 251.94 45.4 249.02 38.42C248.544 37.1483 247.737 36.027 246.682 35.1725C245.627 34.3179 244.363 33.7612 243.02 33.56C241.34 33.26 239.44 34.0199 237.88 34.4899C233.88 35.6799 226.36 35.0099 228.96 29.0599C233.16 19.4099 212.64 15.7199 222.73 5.95994C224.9 3.84994 227.56 0.369958 226.66 -2.90004C226.082 -4.65064 225.304 -6.32847 224.34 -7.90004C221.83 -12.52 222.51 -17.3301 225.62 -21.3501C227.82 -24.1801 231.11 -26.96 231.36 -30.77C231.44 -32.09 230.71 -33.53 230.36 -34.77C229.677 -36.8429 229.661 -39.0776 230.314 -41.1601C230.967 -43.2426 232.256 -45.0681 234 -46.3801C236.78 -48.3801 240.21 -50.1601 241.22 -53.6401C241.72 -55.3401 241.43 -57.27 241.85 -59.02C243.05 -64.02 246.85 -64.56 251.06 -65.24C254.5 -65.8 258.33 -66.88 259.82 -70.34C260.76 -72.53 260.9 -74.47 262.47 -76.49C265.27 -80.09 270.93 -78.0601 274.7 -78.2001C278.7 -78.3401 280.87 -81.3 282.27 -84.62C283.9 -88.47 286.15 -91.85 290.68 -92.43C293.22 -92.75 295.68 -92.92 298.19 -93.43C300.25 -93.86 301.07 -95.28 302.19 -96.9C304.004 -99.5776 306.68 -101.553 309.773 -102.497C312.866 -103.442 316.19 -103.298 319.19 -102.09C319.93 -101.79 320.26 -103 319.52 -103.29C317.559 -104.075 315.456 -104.443 313.345 -104.369C311.233 -104.295 309.161 -103.781 307.26 -102.86C302.87 -100.98 301.31 -95.35 296.79 -94.4C292.44 -93.48 288.65 -94.09 285.06 -91.22C283.537 -89.8564 282.373 -88.1394 281.67 -86.22C279.51 -81.07 276.62 -78.95 270.86 -79.55C267.08 -79.95 262.93 -79.87 260.72 -76.15C259.901 -74.7078 259.304 -73.1503 258.95 -71.53C257.85 -67.13 252.43 -66.61 248.71 -66.12C244.99 -65.63 242.81 -64.12 241.22 -60.81C240.584 -59.2917 240.245 -57.6658 240.22 -56.02C239.97 -52.02 237.56 -50.13 234.35 -48.02C231.72 -46.28 229.29 -44.29 228.98 -40.9101C228.699 -38.7295 228.77 -36.5181 229.19 -34.36C229.37 -33.55 229.69 -32.7601 229.93 -31.97C230.76 -29.3401 228.77 -27.1001 227.3 -25.2001C225.07 -22.3201 221.78 -19.4001 221.6 -15.4801C221.485 -13.0944 221.867 -10.7108 222.72 -8.48006C224.16 -4.63006 226.72 -2.77004 224.54 1.78996C223.22 4.57996 219.08 6.34994 218.67 9.57994C218.1 14.0299 221.24 17.7399 224.38 20.4299C227.21 22.8499 229.28 25.3499 227.61 29.1799C227.159 30.064 226.846 31.0115 226.68 31.9899C226.36 34.5399 231.24 36.26 232.96 36.39C238.54 36.78 245.1 32.19 248.1 39.39C248.94 41.39 250.59 41.8699 252.67 41.4599C258.03 40.4599 260.5 37.4099 264.67 34.2399C269.36 30.6899 272.67 36.31 276.81 34.39C280.18 32.82 281.73 28.86 282.53 25.45C284.16 18.45 292.94 24.1499 297.58 23.3299C300.73 22.7699 302.01 19.21 302.18 16.5C302.41 12.92 300.99 6.79995 307.76 7.89995C310 8.22995 312 9.99996 314.41 9.99996C315.934 10.0447 317.419 9.50716 318.561 8.49666C319.704 7.48617 320.418 6.07853 320.56 4.55996C320.88 2.55996 320.23 0.289957 320.02 -1.66004C319.29 -8.44004 327.24 -6.30003 330.7 -6.27003C333.36 -6.27003 336.7 -7.89004 337.64 -10.47C339 -14.27 331.21 -19.66 338.88 -21.66C341.33 -22.3 343.64 -22.05 345.14 -24.4C346.86 -27.12 345.14 -30.96 343.35 -33.09C341.17 -35.69 337.65 -38.57 339.57 -42.4C340.35 -43.95 342.25 -44.69 343.57 -45.71C346.21 -47.79 346.2 -50.2 345.16 -53.25C344.43 -55.39 342.16 -56.94 340.49 -58.25C338.2 -60.13 335.6 -62.47 338.49 -66C339.59 -67.34 341.4 -68.06 342.74 -69.13C346.59 -72.21 346.44 -76.37 342.66 -79.43C339.93 -81.65 335.47 -83.15 335.01 -87.23C334.9 -88.23 335.91 -89.57 336.28 -90.5C336.836 -91.912 337.134 -93.4126 337.16 -94.93C337.37 -100.35 330.62 -101.69 326.79 -103.02C326.02 -103.29 325.7 -102.08 326.45 -101.82L326.45 -101.89Z" fill="white"/>
<path d="M345.4 -26C351.74 -21.92 359.68 -12 357.85 -4.00001C356.64 1.33999 350.53 0.849986 346.48 0.999987C344.04 1.05999 343.59 4.9 343.24 6.54C343.06 7.94575 343.08 9.36989 343.3 10.77C343.73 15.71 339.69 18.09 335.11 17.21C332.04 16.61 330.27 15.97 327.89 18.43C324.89 21.5 326.28 26.08 324.71 29.68C321.37 37.32 313.71 31.06 308.38 31.3C305.38 31.44 303.38 34.02 301.88 36.35C298.75 41.14 295.75 46.51 289.88 48.21C285.35 49.53 280.65 46.55 275.96 47.33C270.34 48.26 266.57 53.74 261.06 55.24C255.7 56.7 252.11 51.31 247.37 49.93C242.37 48.46 238.37 54.93 233.37 50.84C230.51 48.45 230.98 43.66 227.86 41.12C226.65 40.12 224.96 39.73 223.61 39.02C218.31 36.26 226.61 29.8 228.61 28.87C229.34 28.53 228.71 27.45 227.98 27.79C222.98 30.14 217.23 37.79 224.65 40.89C229.87 43.05 229.35 47.89 232.47 51.72C234.67 54.39 238.79 53.5 241.47 52.32C245.39 50.59 248.29 51.17 251.88 53.58C253.31 54.58 254.72 55.98 256.43 56.42C261.2 57.65 265.49 55.06 269.21 52.36C272.21 50.17 274.93 48.41 278.82 48.27C281.19 48.18 283.43 49.44 285.82 49.61C290.96 50 294.65 47.97 297.98 44.15C301.31 40.33 303.72 32.77 309.61 32.5C313.77 32.3 317.02 36.5 321.32 34.19C325.01 32.19 326.55 29.78 326.89 25.66C327.23 21.54 328.77 16.81 333.89 18.18C335.691 18.7069 337.596 18.7723 339.43 18.37C340.813 18.1367 342.078 17.4464 343.022 16.4094C343.967 15.3725 344.536 14.0488 344.64 12.65C344.87 10.32 344.19 8.18 344.64 5.81999C345.55 1.49 347.81 2.64 350.9 2.39C358.58 1.77 360.44 -5.14002 358.3 -11.38C355.959 -17.7802 351.654 -23.2757 346 -27.08C345.32 -27.52 344.69 -26.44 345.37 -26L345.4 -26Z" fill="white"/>
<path d="M227.71 23.79C225.216 24.6834 222.558 25.0296 219.918 24.8053C217.279 24.581 214.718 23.7914 212.41 22.49C208.84 20.49 210.97 16.27 211.41 13.22C212.51 5.75001 203.58 0.679993 209.08 -6.23001C212.55 -10.61 218.73 -12.87 215.23 -19.16C212.32 -24.38 207.86 -27.16 211.13 -34.04C212.63 -37.22 216.03 -39.64 217.13 -43.04C217.298 -43.6579 217.342 -44.3029 217.259 -44.9379C217.177 -45.5729 216.97 -46.1853 216.65 -46.74C214.21 -52.74 216.75 -57.02 221.31 -60.74C224.6 -63.42 228.53 -65.08 231.37 -68.28C234.51 -71.84 233.72 -76.87 236.98 -80.5C242.58 -86.74 253.2 -82.86 260.05 -87.26C263.13 -89.26 265.11 -91.78 268.98 -92.11C273.55 -92.5 280.61 -92.54 284.7 -90.6C285.42 -90.26 286.06 -91.34 285.33 -91.68C281.64 -93.43 277.54 -93.09 273.56 -93.23C270.09 -93.34 266.84 -93.75 263.84 -91.73C259 -88.46 255.89 -86.01 249.84 -85.61C245.84 -85.34 242.08 -85.2 238.45 -83.23C235.02 -81.36 233.6 -77.98 232.76 -74.39C231.16 -67.57 225.43 -65.53 220.47 -61.62C217.71 -59.45 214.39 -56.37 214.33 -52.52C214.26 -48.89 217.16 -45.21 215.16 -41.97C212.77 -38.08 209.54 -35.12 208.75 -30.45C208.15 -26.96 210.14 -23.94 212.16 -21.34C214.63 -18.14 216.6 -15.4 213 -11.62C211.22 -9.75999 209.15 -8.26998 207.54 -6.23999C206.652 -5.09916 206.076 -3.74692 205.87 -2.31622C205.663 -0.885513 205.832 0.574414 206.36 1.92002C207.88 5.68002 210.36 7.52001 210.36 12.04C210.36 14.61 208.53 17.66 209.27 20.22C211.27 27.22 222.86 26.66 228.13 24.97C228.9 24.72 228.57 23.52 227.8 23.76L227.71 23.79Z" fill="white"/>
<path d="M327.06 -109C337.25 -105.39 346.22 -94.77 351.41 -85.66C357.99 -74.12 354.34 -59.79 352.92 -47.43C351.61 -35.96 353.23 -26.28 360.43 -17.08C364.25 -12.2 368.43 -7.34003 369.9 -1.17003C370.381 1.01968 370.132 3.30653 369.191 5.34145C368.25 7.37636 366.669 9.04758 364.69 10.1C362.23 11.49 359.23 11.91 356.69 13.1C353.16 14.75 351.62 17.96 351.3 21.64C350.72 28.42 350.43 35.91 342.6 38.06C335.67 39.96 325.9 36.92 321 43.79C319 46.58 318 49.86 316.15 52.79C311.77 59.73 304.15 55.65 297.91 54.79C294.24 54.26 291.43 56.79 289.11 59.21C282.11 66.53 273.79 57.61 272.01 50.55L271.83 49.55C271.7 48.76 270.5 49.1 270.63 49.89C271.7 56.22 278.71 66.36 286.46 62.7C288.083 61.8737 289.533 60.7432 290.73 59.37C293.98 55.98 297.57 55.69 301.93 57.07C306.11 58.39 310.14 58.89 314.09 56.66C316.64 55.22 318.04 52.28 319.23 49.76C321.47 45 323.64 41.91 329.09 40.76C336.7 39.11 345.4 41.76 350.15 33.96C352.92 29.45 351.97 24.46 352.85 19.55C354.11 12.46 363.41 13.91 367.56 9.84999C375.36 2.19999 369.29 -7.57002 363.9 -14.59C360.14 -19.5 356.57 -23.86 354.81 -29.94C352.91 -36.49 353.74 -43.66 354.56 -50.31C355.97 -61.6 358.24 -73.37 353.51 -84.21C349.01 -94.5 338.15 -106.28 327.42 -110.08C326.66 -110.34 326.33 -109.14 327.09 -108.87L327.06 -109Z" fill="white"/>
<path d="M296.46 -39C290.46 -32.89 287.21 -25.22 285.37 -17C283 -6.36002 285.91 4.63999 283.66 15.32C283.49 16.11 284.66 16.45 284.86 15.66C286.75 6.65998 285.34 -2.39001 285.86 -11.46C286.446 -21.4267 290.516 -30.8704 297.36 -38.14C297.92 -38.72 297.04 -39.61 296.47 -39.03L296.46 -39Z" fill="white"/>
<path d="M285.08 -15.73C281.549 -8.06215 276.793 -1.02009 271 5.11999C267 9.47999 263 13.85 261.44 19.7C261.408 19.8561 261.436 20.0186 261.519 20.1548C261.602 20.2909 261.733 20.3906 261.887 20.4337C262.04 20.4768 262.204 20.4602 262.346 20.3871C262.487 20.3141 262.596 20.19 262.65 20.04C264.54 12.99 270.11 8.13001 274.75 2.82001C279.407 -2.55921 283.241 -8.59798 286.13 -15.1C286.46 -15.83 285.38 -16.46 285.05 -15.73L285.08 -15.73Z" fill="white"/>
<path d="M277.6 -2.71004C272.34 -1.41004 266.06 -1.46006 262.29 3.01994C261.78 3.62994 262.66 4.51995 263.18 3.89995C266.77 -0.370051 272.91 -0.260045 277.93 -1.50004C278.076 -1.55556 278.197 -1.66364 278.268 -1.80321C278.339 -1.94277 278.355 -2.10382 278.314 -2.25493C278.273 -2.40603 278.177 -2.53635 278.045 -2.6205C277.913 -2.70464 277.754 -2.73657 277.6 -2.71004Z" fill="white"/>
<path d="M233.94 12C239.47 7.55998 245.73 3.22997 253.19 4.23998C253.98 4.33998 254.32 3.13998 253.52 3.02998C245.52 1.95998 239.01 6.33997 233.05 11.11C232.42 11.62 233.31 12.5 233.94 12Z" fill="white"/>
<path d="M320.67 -5.57003C325.38 -0.270031 331.07 4.24999 334.55 10.54C334.94 11.24 336.02 10.61 335.63 9.90998C332.09 3.51998 326.34 -1.09004 321.55 -6.45004C321.01 -7.05004 320.13 -6.17003 320.67 -5.57003Z" fill="white"/>
<path d="M326.78 1.61998C326.33 6.30998 325.22 10.88 324.46 15.52C324.33 16.31 325.54 16.65 325.67 15.85C326.45 11.1 327.57 6.41998 328.03 1.61998C328.1 0.819979 326.85 0.829979 326.78 1.61998Z" fill="white"/>
<path d="M303 8.55997C306.473 13.5364 308.006 19.6114 307.31 25.64C307.19 26.43 308.4 26.77 308.51 25.97C309.295 19.6295 307.718 13.2219 304.08 7.96997C303.61 7.32997 302.52 7.96998 303 8.59998L303 8.55997Z" fill="white"/>
<path d="M283.91 21.7C285.22 27.91 289.32 32.5 293.76 36.79C294.34 37.35 295.23 36.47 294.65 35.91C290.35 31.76 286.39 27.38 285.12 21.37C284.95 20.58 283.74 20.91 283.91 21.7Z" fill="white"/>
<path d="M286.43 28.45C285.465 32.7967 283.977 37.0107 282 41C281.66 41.72 282.74 42.36 283.08 41.63C285.111 37.5354 286.642 33.2109 287.64 28.75C287.8 27.96 286.64 27.63 286.43 28.42L286.43 28.45Z" fill="white"/>
<path d="M254.34 41.23C255.98 44.06 257.12 47.14 258.9 49.9C259.33 50.57 260.41 49.95 259.98 49.27C258.2 46.51 257.06 43.43 255.42 40.6C255.327 40.4779 255.192 40.3941 255.041 40.3643C254.891 40.3345 254.734 40.3607 254.602 40.4381C254.469 40.5155 254.369 40.6387 254.321 40.7845C254.273 40.9304 254.279 41.0888 254.34 41.23Z" fill="white"/>
<path d="M244.33 34.93C242.44 37.7 241.48 40.93 240.33 44.05C240.05 44.8 241.25 45.13 241.53 44.38C242.65 41.38 243.58 38.24 245.41 35.56C245.87 34.89 244.79 34.27 244.33 34.93Z" fill="white"/>
<path d="M342 31.7C336.21 28.42 334.33 22.22 331.52 16.62C331.16 15.9 330.08 16.54 330.44 17.25C333.37 23.08 335.36 29.38 341.37 32.78C342.07 33.17 342.7 32.09 342 31.7Z" fill="white"/>
<path d="M332.19 33.32C332.035 30.3191 332.728 27.3353 334.19 24.71C334.58 24 333.5 23.37 333.11 24.08C331.538 26.8964 330.793 30.0991 330.96 33.32C330.96 34.12 332.24 34.13 332.21 33.32L332.19 33.32Z" fill="white"/>
<path d="M354.66 9.83999C350.889 8.06282 347.795 5.11233 345.84 1.42999C345.747 1.30791 345.612 1.22411 345.462 1.1943C345.311 1.16449 345.154 1.19076 345.022 1.26815C344.889 1.34554 344.789 1.4687 344.741 1.61453C344.693 1.76035 344.7 1.91877 344.76 2.05999C346.886 6.01748 350.242 9.17629 354.32 11.06C355.07 11.37 355.39 10.16 354.66 9.85L354.66 9.83999Z" fill="white"/>
<path d="M309.76 51C307.45 44.68 309.32 38.11 308.11 31.63C307.96 30.84 306.75 31.18 306.9 31.96C308.12 38.46 306.23 44.96 308.55 51.33C308.83 52.08 310.04 51.75 309.76 51Z" fill="white"/>
<path d="M283.37 57.69C282.7 54.52 282.48 51.29 282.04 48.09C281.93 47.29 280.72 47.63 280.83 48.42C281.28 51.62 281.5 54.85 282.16 58.03C282.32 58.82 283.53 58.48 283.37 57.69Z" fill="white"/>
<path d="M213.87 4.00001C217.08 1.24001 220.92 -1 225.31 -0.35C226.1 -0.22 226.44 -1.42998 225.64 -1.54998C220.76 -2.30998 216.59 0.0200006 212.99 3.12C212.37 3.64 213.26 4.52001 213.87 4.00001Z" fill="white"/>
<path d="M215.94 20.81C217.975 20.1218 219.84 19.007 221.41 17.54C221.507 17.4194 221.556 17.2676 221.547 17.1133C221.539 16.959 221.475 16.813 221.366 16.7031C221.258 16.5933 221.112 16.5271 220.958 16.5173C220.804 16.5075 220.652 16.5548 220.53 16.65C219.125 17.9922 217.447 19.0155 215.61 19.65C214.86 19.93 215.19 21.14 215.94 20.86L215.94 20.81Z" fill="white"/>
<path d="M-12.6303 48C-12.5403 64.46 -9.7803 80.63 -0.550302 94.56C8.6797 108.49 23.2497 118.3 36.6797 127.87C44.1054 132.983 51.1689 138.603 57.8197 144.69C61.0587 147.665 64.0425 150.906 66.7397 154.38C67.5297 155.43 71.5997 161.59 67.4397 157.56C65.8797 156.05 64.7897 153.94 63.4397 152.23C58.6797 146.16 52.3097 141.39 46.0997 136.91C40.7397 133.04 34.5497 128.65 27.8297 127.73C27.7367 127.709 27.6404 127.709 27.5475 127.73C27.4546 127.751 27.3673 127.792 27.2919 127.85C27.2166 127.908 27.1549 127.982 27.1113 128.067C27.0678 128.152 27.0433 128.245 27.0397 128.34C26.1797 139.03 27.5297 149.83 27.2097 160.55C27.2225 162.543 26.9976 164.53 26.5397 166.47C25.7897 169.28 24.8697 164.13 24.8397 163.64C24.3997 155.06 25.3497 146.35 25.3097 137.75C25.3097 134.47 26.1397 129.52 24.2097 126.75C22.2398 124.124 19.9973 121.714 17.5197 119.56C11.3197 113.74 4.51969 108.77 -1.06031 102.27C-7.31846 94.7033 -11.823 85.8445 -14.2503 76.3299C-15.452 71.3997 -16.2777 66.3852 -16.7203 61.3299C-16.9803 59.02 -17.2003 56.7 -17.4303 54.39C-17.8703 50.18 -17.6503 47.96 -12.5003 49.29C-12.4215 49.3116 -12.3392 49.3176 -12.2582 49.3074C-12.1771 49.2973 -12.0988 49.2713 -12.0277 49.2309C-11.9567 49.1905 -11.8943 49.1365 -11.8441 49.072C-11.794 49.0075 -11.757 48.9338 -11.7353 48.855C-11.7136 48.7762 -11.7077 48.6939 -11.7178 48.6128C-11.728 48.5317 -11.754 48.4534 -11.7944 48.3824C-11.8348 48.3113 -11.8887 48.249 -11.9533 48.1988C-12.0178 48.1486 -12.0915 48.1116 -12.1703 48.09C-14.3778 47.5788 -16.6841 47.6931 -18.8303 48.42C-18.9624 48.4553 -19.0792 48.5332 -19.1624 48.6417C-19.2456 48.7503 -19.2905 48.8832 -19.2903 49.02C-17.8303 61.18 -17.5103 73.86 -12.6103 85.28C-7.7103 96.7 -0.610308 105.64 8.81969 113.64C13.3687 117.306 17.6589 121.282 21.6597 125.54C24.6597 128.88 23.9997 133.54 24.0597 137.77C24.1097 141.41 24.0597 145.06 23.9197 148.7C23.7797 153.97 23.3697 159.27 23.6397 164.54C23.7297 166.26 23.9297 167.44 25.2897 168.42C28.1397 170.5 28.3797 162.32 28.4297 161.42C28.8797 152.98 28.1997 144.47 28.0997 136.02C28.0997 134.2 28.0997 132.37 28.1597 130.54C28.2397 128.1 29.7197 129.31 31.6697 129.98C37.0497 131.84 41.9597 135.47 46.5397 138.77C51.5414 142.33 56.2014 146.347 60.4597 150.77C63.5197 153.98 65.4597 159.01 69.8297 160.66C70.3197 160.85 70.6797 160.32 70.5997 159.9C69.8297 155.62 66.7597 152.23 63.8997 149.13C59.6692 144.594 55.1102 140.376 50.2597 136.51C40.7197 128.78 30.3097 122.21 20.6697 114.62C10.6197 106.72 1.54969 97.4199 -4.15031 85.8599C-9.8503 74.3 -11.3103 60.86 -11.3803 48.06C-11.3996 47.9078 -11.4737 47.7679 -11.5888 47.6665C-11.7038 47.5651 -11.8519 47.5092 -12.0053 47.5092C-12.1587 47.5092 -12.3068 47.5651 -12.4218 47.6665C-12.5369 47.7679 -12.611 47.9078 -12.6303 48.06L-12.6303 48Z" fill="white"/>
<path d="M27.4997 136.28C34.6097 137.72 39.6197 143.19 42.8697 149.39C46.7797 156.84 46.6197 164.72 41.4197 171.39C36.7897 177.32 37.5497 182.39 37.7097 189.69C37.9297 199.69 29.7097 207.92 19.6097 205.56C10.7197 203.48 9.12967 194.94 9.60967 187.17C9.96968 181.39 10.0797 177.24 6.36969 172.49C1.16969 165.81 -0.720318 159.92 1.95968 151.49C3.54422 146.615 6.71186 142.409 10.9597 139.54C14.7397 136.99 19.8697 137.38 24.1497 136.27C24.2285 136.248 24.3021 136.21 24.3664 136.159C24.4306 136.108 24.4842 136.046 24.5242 135.974C24.5641 135.903 24.5896 135.824 24.5991 135.743C24.6086 135.661 24.602 135.579 24.5797 135.5C24.5574 135.421 24.5197 135.348 24.469 135.283C24.4182 135.219 24.3553 135.165 24.2838 135.125C24.2123 135.086 24.1336 135.06 24.0522 135.051C23.9709 135.041 23.8885 135.048 23.8097 135.07C19.2197 136.26 14.6097 136.19 10.3297 138.46C6.92968 140.27 4.42969 143.77 2.55969 147.01C-1.31031 153.71 -2.07032 162.42 2.17968 169.01C4.27968 172.29 7.0797 174.83 8.3197 178.64C9.73969 183.02 8.0197 188.43 8.3197 193C8.8197 200.48 13.4997 205.36 20.6497 207C27.9697 208.71 34.3497 203.85 37.3097 197.52C38.9597 193.98 38.9997 190.14 38.8097 186.32C38.6197 182.5 38.2297 179.06 39.8997 175.57C41.1097 173.04 43.3697 170.93 44.8997 168.57C52.4897 156.49 40.3997 137.57 27.8197 135.03C27.0397 134.87 26.6997 136.03 27.4897 136.23L27.4997 136.28Z" fill="white"/>
<path d="M26.9999 143.89C33.2699 147.29 36.5699 154.27 39.7699 160.33C40.1499 161.04 41.2299 160.41 40.8499 159.7C37.5499 153.44 34.1099 146.33 27.6299 142.81C26.9199 142.42 26.2899 143.5 26.9999 143.89Z" fill="white"/>
<path d="M23.8897 145.24C18.2297 149.92 12.3497 156.11 13.0397 164.01C13.1097 164.81 14.3597 164.82 14.2897 164.01C13.6297 156.43 19.3597 150.6 24.7797 146.12C25.3997 145.61 24.5097 144.73 23.8897 145.24Z" fill="white"/>
<path d="M25.3698 167.68C25.7698 177.95 22.0598 187.93 24.0598 198.18C24.2198 198.97 25.4198 198.63 25.2698 197.85C23.2698 187.73 27.0198 177.85 26.6198 167.68C26.6198 166.88 25.3398 166.87 25.3698 167.68Z" fill="white"/>
<path d="M24.4 168.18C21.32 175.83 13.81 180.82 15.06 189.84C15.17 190.64 16.38 190.3 16.27 189.51C15.09 180.98 22.69 175.75 25.6 168.51C25.9 167.76 24.69 167.44 24.4 168.18Z" fill="white"/>
<path d="M26.6796 168.88C32.0896 171.73 32.3596 178.27 32.3696 183.68C32.3889 183.832 32.463 183.972 32.5781 184.073C32.6932 184.175 32.8413 184.231 32.9946 184.231C33.148 184.231 33.2961 184.175 33.4112 184.073C33.5262 183.972 33.6003 183.832 33.6196 183.68C33.6196 177.81 33.1296 170.87 27.3196 167.81C26.5996 167.43 25.9696 168.51 26.6796 168.88Z" fill="white"/>
<path d="M36.87 167.7C34.87 164.44 31.9499 162.08 29.1099 159.57C28.5099 159.04 27.62 159.92 28.22 160.45C30.98 162.89 33.83 165.17 35.79 168.33C36.22 169.01 37.3 168.33 36.87 167.7Z" fill="white"/>
<path d="M22.9997 158.14C19.4197 160.75 16.9397 164.45 14.4397 168.03C13.9797 168.69 15.0597 169.32 15.5197 168.66C17.8897 165.27 20.2397 161.66 23.6297 159.22C24.2697 158.75 23.6297 157.66 22.9997 158.14Z" fill="white"/>
<path d="M23.6497 145.81C19.2397 143.81 12.2197 143.62 8.55973 147.24C7.97973 147.8 8.86973 148.69 9.43973 148.12C12.6497 144.95 19.1297 145.12 23.0197 146.89C23.7497 147.22 24.3797 146.14 23.6497 145.81Z" fill="white"/>
<path d="M15.17 154.08C11.74 153.37 7.94 153.42 5.21999 155.9C4.62999 156.45 5.51998 157.33 6.10998 156.79C8.46998 154.63 11.88 154.67 14.83 155.28C15.62 155.44 15.96 154.28 15.17 154.08Z" fill="white"/>
<path d="M44.32 132.55C50.14 128.8 58.45 130.11 64.74 131.85C68.2018 132.765 71.5081 134.191 74.55 136.08C79.63 139.31 78.55 143.61 77.73 148.51C76.1 158.51 90.2 161.14 92.54 169.71C94.83 178.12 88.43 186.91 80.82 189.71C73.21 192.51 69.2 188 66 182.06C64.45 179.21 62.4 176.06 59.1 175.06C56.9632 174.449 54.7245 174.279 52.52 174.56C48.24 174.98 45.85 175.31 44.6 170.21C44.41 169.43 43.21 169.76 43.4 170.54C44.99 177.03 47.84 176.27 53.56 175.71C62.34 174.84 63.83 182.33 68.06 187.89C71.52 192.43 77.47 192.24 82.38 190.46C88.9 188.1 93.04 181.46 93.98 174.89C94.82 169.02 92.08 164.35 87.57 160.89C84.86 158.8 81.89 156.96 79.97 154.05C77.44 150.22 80.17 145.73 79.97 141.6C79.62 135.15 69.97 132.17 65.11 130.69C58.56 128.69 49.76 127.63 43.71 131.52C43.04 131.96 43.71 133.04 44.35 132.6L44.32 132.55Z" fill="white"/>
<path d="M80.8296 177.08C68.7396 174.41 59.3596 163.34 60.9596 150.68C61.0596 149.88 59.8096 149.89 59.7096 150.68C58.0396 163.86 67.9196 175.51 80.4996 178.28C81.2896 178.45 81.6196 177.28 80.8296 177.08Z" fill="white"/>
<path d="M82.9999 170.14C78.257 167.344 74.0179 163.771 70.4599 159.57C69.9399 158.96 69.0599 159.84 69.5799 160.45C73.2071 164.734 77.5311 168.375 82.3699 171.22C82.5111 171.28 82.6695 171.287 82.8153 171.239C82.9612 171.191 83.0844 171.091 83.1618 170.958C83.2391 170.825 83.2654 170.669 83.2356 170.518C83.2058 170.368 83.122 170.233 82.9999 170.14Z" fill="white"/>
<path d="M74.6499 148.81C72.8338 147.603 70.7827 146.795 68.6316 146.438C66.4806 146.081 64.2783 146.184 62.1699 146.74C62.0234 146.795 61.9029 146.904 61.8318 147.043C61.7607 147.183 61.7442 147.344 61.7854 147.495C61.8266 147.646 61.9226 147.776 62.0547 147.86C62.1868 147.945 62.3455 147.976 62.4999 147.95C64.4446 147.444 66.4742 147.355 68.4558 147.688C70.4375 148.02 72.3267 148.767 73.9999 149.88C74.6499 150.36 75.2799 149.27 74.6299 148.81L74.6499 148.81Z" fill="white"/>
<path d="M71.8297 138.74C65.7597 136.57 58.0197 134.96 52.0197 138.14C51.3097 138.52 51.9397 139.6 52.6497 139.22C58.3397 136.22 65.7597 137.89 71.4997 139.95C72.2597 140.22 72.5897 139.01 71.8297 138.74Z" fill="white"/>
<path d="M53.2098 167C49.4998 160.26 48.9698 150.93 53.2098 144.3C53.6398 143.62 52.5598 142.99 52.1298 143.67C47.6498 150.67 48.2098 160.51 52.1298 167.67C52.5198 168.38 53.5998 167.75 53.2098 167.04L53.2098 167Z" fill="white"/>
<path d="M55.9399 159.18C54.8799 156.53 52.9399 154.7 50.7799 152.9C50.1599 152.39 49.2699 153.27 49.8899 153.79C51.8899 155.42 53.7599 157.09 54.7299 159.51C55.0299 160.25 56.2399 159.93 55.9399 159.18Z" fill="white"/>
<path d="M73.4999 168.08C70.479 167.259 67.4184 166.591 64.3299 166.08C63.5399 165.98 63.5499 167.23 64.3299 167.33C67.3299 167.71 70.2299 168.64 73.1699 169.33C73.9499 169.51 74.2899 168.33 73.4999 168.13L73.4999 168.08Z" fill="white"/>
<path d="M82.33 162.39L73.0001 162.39C72.8479 162.409 72.708 162.483 72.6066 162.598C72.5052 162.713 72.4493 162.862 72.4493 163.015C72.4493 163.168 72.5052 163.316 72.6066 163.431C72.708 163.547 72.8479 163.621 73.0001 163.64L82.33 163.64C82.4822 163.621 82.6221 163.547 82.7235 163.431C82.8249 163.316 82.8809 163.168 82.8809 163.015C82.8809 162.862 82.8249 162.713 82.7235 162.598C82.6221 162.483 82.4822 162.409 82.33 162.39Z" fill="white"/>
<path d="M312.64 124.22C318.81 120.71 324.87 116 327 109C328.87 102.7 324.41 96.93 319.94 93.12C314.37 88.37 307.26 85.22 300.24 83.28C295.69 82.02 289.09 80.84 285.09 84.2C277.09 90.93 280.66 105.41 282.95 114.01C284.33 119.22 286.77 125.01 292.14 127.26C299.14 130.14 305.95 127.18 312.56 124.6C313.3 124.31 312.97 123.1 312.22 123.39C306.76 125.53 301.44 127.95 295.42 126.99C289.05 125.99 285.95 119.99 284.36 114.41C282.07 106.41 279.67 96.05 283.36 88.18C288.67 77 308 86.82 314.89 91C320.42 94.39 325.8 99.32 326.08 106.22C326.39 113.93 317.85 119.81 312.01 123.13C311.888 123.223 311.804 123.358 311.774 123.508C311.744 123.659 311.77 123.815 311.848 123.948C311.925 124.081 312.048 124.181 312.194 124.229C312.34 124.277 312.498 124.27 312.64 124.21L312.64 124.22Z" fill="white"/>
<path d="M312.53 124.57C321.41 121.05 322.31 133.2 326.32 138.1L327.08 137.1C321.82 133.39 314.42 130.92 313.25 123.75C313.12 122.96 311.91 123.3 312.04 124.08C313.28 131.64 320.9 134.27 326.45 138.18C327.07 138.62 327.62 137.71 327.21 137.18C322.82 131.82 321.99 119.45 312.21 123.33C311.47 123.63 311.8 124.84 312.55 124.54L312.53 124.57Z" fill="white"/>
<path d="M311.87 125C313.2 129.59 313.42 134.44 310.55 138.5L311.63 138.5C309.2 134.5 309.29 128.02 312.52 124.5C313.06 123.91 312.18 123.02 311.63 123.62C308.02 127.62 307.81 134.67 310.55 139.17C310.606 139.263 310.685 139.34 310.78 139.394C310.874 139.447 310.981 139.475 311.09 139.475C311.199 139.475 311.305 139.447 311.4 139.394C311.495 139.34 311.574 139.263 311.63 139.17C314.68 134.86 314.49 129.6 313.07 124.71C313.026 124.551 312.921 124.416 312.777 124.334C312.634 124.252 312.464 124.231 312.305 124.275C312.146 124.319 312.01 124.424 311.929 124.567C311.847 124.711 311.826 124.881 311.87 125.04L311.87 125Z" fill="white"/>
<path d="M312.76 124.13C318.57 119.08 326.82 120.13 331.67 125.91L331.94 124.86C328.94 125.86 325.47 127.86 322.2 127.01C322.043 126.978 321.881 127.006 321.745 127.089C321.609 127.172 321.509 127.303 321.466 127.457C321.423 127.61 321.439 127.774 321.512 127.916C321.586 128.057 321.71 128.166 321.86 128.22C325.45 129.22 328.95 127.22 332.28 126.07C332.383 126.037 332.476 125.978 332.55 125.9C332.625 125.821 332.678 125.725 332.705 125.62C332.732 125.515 332.732 125.405 332.705 125.3C332.677 125.195 332.624 125.099 332.55 125.02C331.338 123.504 329.831 122.25 328.12 121.334C326.409 120.419 324.53 119.861 322.597 119.694C320.663 119.528 318.716 119.756 316.874 120.366C315.031 120.975 313.332 121.953 311.88 123.24C311.27 123.77 312.16 124.65 312.76 124.13Z" fill="white"/>
<path d="M322.76 108.58C322.236 107.711 321.526 106.97 320.68 106.41C320.05 105.92 319.16 106.8 319.79 107.29C320.553 107.783 321.199 108.439 321.68 109.21C322.05 109.93 323.13 109.3 322.76 108.58Z" fill="white"/>
<path d="M313 115.74C312.102 114.952 311.33 114.031 310.71 113.01C310.27 112.34 309.18 113.01 309.63 113.64C310.303 114.757 311.139 115.768 312.11 116.64C312.73 117.14 313.62 116.26 313 115.76L313 115.74Z" fill="white"/>
<path d="M299.58 122.23C298.775 121.797 298.157 121.086 297.84 120.23C297.54 119.49 296.33 119.82 296.64 120.56C297.051 121.716 297.873 122.681 298.95 123.27C299.66 123.64 300.29 122.56 299.58 122.19L299.58 122.23Z" fill="white"/>
<path d="M312.89 106.26C312.233 105.409 311.418 104.692 310.49 104.15C309.78 103.78 309.15 104.85 309.86 105.23C310.692 105.723 311.422 106.371 312.01 107.14C312.54 107.75 313.42 106.86 312.89 106.26Z" fill="white"/>
<path d="M303 112.12C302.278 111.511 301.609 110.842 301 110.12C300.47 109.51 299.59 110.4 300.12 111C300.721 111.744 301.391 112.43 302.12 113.05C302.74 113.54 303.63 112.67 303 112.16L303 112.12Z" fill="white"/>
<path d="M312.54 96.81C311.22 95.81 310 94.6 308.68 93.56C308.05 93.07 307.16 93.95 307.79 94.45C309.12 95.45 310.34 96.65 311.66 97.69C312.29 98.18 313.18 97.31 312.54 96.81Z" fill="white"/>
<path d="M302.53 102.58C301.83 102.05 301.03 101.66 300.33 101.13C299.63 100.6 299.06 101.74 299.7 102.21C300.34 102.68 301.19 103.13 301.9 103.66C302.61 104.19 303.16 103.06 302.53 102.58Z" fill="white"/>
<path d="M292.45 112.18C291.73 111.12 290.95 110.11 290.32 109C290.226 108.878 290.092 108.794 289.941 108.764C289.79 108.734 289.634 108.761 289.501 108.838C289.369 108.915 289.269 109.039 289.221 109.185C289.173 109.33 289.179 109.489 289.24 109.63C289.87 110.74 290.65 111.75 291.37 112.81C291.82 113.47 292.9 112.81 292.45 112.18Z" fill="white"/>
<path d="M300.51 94.9C299.61 94.19 298.82 93.35 297.92 92.64C297.29 92.15 296.4 93.03 297.04 93.53C297.94 94.24 298.72 95.07 299.62 95.78C300.25 96.28 301.14 95.4 300.51 94.9Z" fill="white"/>
<path d="M292.61 102.81C291.84 101.94 291.07 101.07 290.26 100.24C289.7 99.66 288.82 100.54 289.38 101.12C290.19 101.96 290.96 102.82 291.72 103.7C292.25 104.31 293.13 103.42 292.61 102.81Z" fill="white"/>
<path d="M290.84 91.25L288.84 88.92C288.32 88.31 287.43 89.2 287.96 89.8L289.96 92.13C290.49 92.74 291.37 91.85 290.85 91.25L290.84 91.25Z" fill="white"/>
<path d="M296.54 87.2399C295.71 86.7443 294.98 86.0963 294.39 85.3299C293.86 84.7199 292.98 85.6099 293.51 86.2099C294.167 87.0611 294.982 87.7775 295.91 88.32C296.62 88.69 297.25 87.6099 296.54 87.2399Z" fill="white"/>
<path d="M286.4 99.29C285.846 98.8278 285.407 98.2421 285.12 97.58C284.76 96.86 283.68 97.49 284.04 98.21C284.375 98.9802 284.881 99.6642 285.52 100.21C286.14 100.7 287.03 99.82 286.4 99.32L286.4 99.29Z" fill="white"/>
<path d="M292.09 121.29C291.398 120.354 290.615 119.489 289.75 118.71C289.13 118.21 288.24 119.09 288.87 119.59C289.73 120.374 290.513 121.238 291.21 122.17C291.74 122.78 292.62 121.89 292.09 121.29Z" fill="white"/>
<path d="M320.72 99.35C320.227 98.6274 319.63 97.9805 318.95 97.43C318.33 96.93 317.44 97.81 318.07 98.31C318.671 98.7884 319.2 99.3509 319.64 99.98C320.09 100.64 321.18 99.98 320.72 99.35Z" fill="white"/>
<path d="M313.09 124.55C314.55 125.96 316.04 127.35 317.38 128.89C317.91 129.49 318.79 128.6 318.26 128C316.92 126.47 315.43 125.08 313.97 123.66C313.39 123.1 312.5 123.99 313.09 124.55Z" fill="white"/>
<path d="M134.06 60.18C130.01 71.69 126.06 84.18 128.75 96.45C130.16 102.87 133.8 108.72 136.06 114.84C138.32 120.96 137.35 131.63 132.89 136.9C132.37 137.52 133.25 138.4 133.78 137.79C136.37 134.72 137.96 128.52 138.33 124.63C138.95 118.06 136.68 112.63 134.02 106.76C130.63 99.27 128.7 92.51 129.27 84.22C129.84 76.09 132.58 68.14 135.27 60.51C135.54 59.75 134.33 59.42 134.06 60.18Z" fill="white"/>
<path d="M129.78 86.45C135.07 80.83 152.86 84.34 153.42 93.1C153.52 94.76 151.2 98.33 148.94 96.29C148.098 95.3767 147.363 94.3702 146.75 93.29C146.028 92.1686 145.086 91.2057 143.98 90.46C141.33 88.73 137.91 90.3 136.24 92.46C134.57 94.62 135.89 97.92 137.5 99.63C140.11 102.39 145.04 103.1 148.5 103.99C150.9 104.6 153.45 105.16 155.4 106.78C157.63 108.63 158.71 117.33 155.4 113.86C152.85 111.2 151 108.67 147.04 108.97C144.88 109.14 144.14 111.12 144.19 112.97C144.28 116.97 147.99 119.14 150.19 121.97C152.06 124.42 149.66 129.53 147.19 127.1C146.79 126.7 146.45 126.22 146.09 125.79C145.725 125.288 145.193 124.934 144.59 124.79C142.32 124.58 141.7 128.04 141.71 129.66C141.71 133.37 147.13 137.14 149.06 139.82C151.72 143.52 150.62 147.76 148.06 151.04C147.097 152.209 145.94 153.203 144.64 153.98C138.49 157.86 139.57 150.78 139.79 149.03C140.01 147.28 140.16 143.95 137.6 143.54C134.36 143.03 132.95 145.46 131.34 147.96C129.5 150.79 127.94 152.41 124.34 152.51C118.57 152.67 114.81 146.79 118.79 142.03C121.31 139.03 124.99 138.11 126.72 134.32C128.29 130.9 127.66 128.06 123.64 127.81C121.02 127.64 118.31 128.31 115.71 128.56C112.91 128.84 106.48 127.56 110.16 123.47C112.01 121.39 116.55 121.35 119.09 120.98C121.873 120.699 124.583 119.92 127.09 118.68C131.73 116.09 131.09 108.76 126.59 106.3C123.94 104.85 121.5 104.74 119.08 106.67C117.66 107.81 116.8 109.89 115.62 111.23C112.07 115.28 107.41 111.96 108.4 107.59C109.5 102.73 113.68 101.59 117.87 100.69C119.36 100.39 122.08 99.49 122.02 97.49C122.039 96.5481 121.738 95.6275 121.166 94.8791C120.593 94.1306 119.784 93.5986 118.87 93.37C117.21 92.78 113.17 91.78 116.34 88.14C117.42 86.9 119.87 86.54 121.39 86.34C123.44 86.1045 125.514 86.1854 127.54 86.58C128.33 86.73 128.66 85.53 127.87 85.38C124.45 84.73 112.38 84.48 114.07 91.11C114.135 91.5532 114.294 91.9776 114.535 92.3551C114.776 92.7326 115.095 93.0546 115.47 93.3C116.65 93.97 123.39 95.94 119.85 98.67C117.02 100.85 112.97 99.86 110.04 102.44C106.73 105.35 104.82 113.17 110.77 114.06C113.93 114.54 116.35 112.54 118.05 110.16C120.05 107.39 121.64 103.92 126.85 108.09C127.767 108.902 128.439 109.954 128.792 111.126C129.145 112.299 129.165 113.547 128.85 114.73C128.21 117.31 125.24 118.35 123 118.97C118.68 120.16 110.32 119.22 108.24 124.25C106.02 129.61 113.34 130.05 116.46 129.74C119.25 129.47 122.3 128.6 125.09 129.26C128.23 130 124.88 135.26 123.97 136.26C122.31 138.18 119.76 139.34 117.9 141.09C111.58 147.09 119.06 153.86 125.5 153.68C128.93 153.58 130.71 151.18 132.44 148.54C133.127 147.426 133.903 146.369 134.76 145.38C139.21 140.49 138.63 148.3 138.56 148.98C138.41 150.4 137.91 152.35 138.63 153.71C142.31 160.71 150.63 150.65 151.73 146.71C152.73 143 150.73 139.71 148.47 136.96C146.21 134.21 141.53 131.26 143.69 126.77C144.49 125.1 146.59 128.26 147.18 128.72C148.72 129.92 150.18 128.65 151.18 127.42C153.38 124.7 151.79 121.72 149.79 119.55C148.01 117.62 146.37 116.3 145.62 113.64C144.71 110.43 148.21 109.55 150.5 110.8C151.53 111.495 152.453 112.337 153.24 113.3C154.37 114.48 156.24 117.61 158.29 116.66C160.34 115.71 159.04 110.29 158.39 108.94C156.6 105.22 153.77 104.12 149.97 103.07C145.24 101.76 136.08 100.86 137.03 93.97C137.86 87.97 144.34 91.97 145.74 93.9C146.32 94.7 146.86 95.54 147.45 96.34C147.764 96.8453 148.177 97.2826 148.663 97.6261C149.149 97.9696 149.699 98.2123 150.28 98.34C152.28 98.73 153.87 96.07 154.5 94.56C155.44 92.29 153.92 89.9 152.5 88.3C147.5 82.76 134.69 79.51 128.99 85.56C128.44 86.15 129.32 87.03 129.88 86.44L129.78 86.45Z" fill="white"/>
</svg>
