<svg width="20" height="20" viewBox="0 0 20 20" fill="none" xmlns="http://www.w3.org/2000/svg">
<g clip-path="url(#clip0_4_4391)">
<path d="M13.7493 0C12.6831 0.0737496 11.4368 0.756245 10.7106 1.64499C10.0481 2.45124 9.5031 3.64873 9.7156 4.81247C10.8806 4.84872 12.0843 4.14998 12.7818 3.24623C13.4343 2.40499 13.9281 1.21499 13.7493 0Z" fill="#040F0B"/>
<path d="M17.9629 6.70996C16.9392 5.42622 15.5004 4.68122 14.1417 4.68122C12.348 4.68122 11.5892 5.53997 10.343 5.53997C9.05798 5.53997 8.08174 4.68372 6.5305 4.68372C5.00676 4.68372 3.38427 5.61497 2.35552 7.20746C0.909281 9.44995 1.15678 13.6662 3.50052 17.2574C4.33926 18.5424 5.45925 19.9874 6.92425 19.9999C8.22799 20.0124 8.59549 19.1636 10.3617 19.1549C12.128 19.1449 12.463 20.0111 13.7642 19.9974C15.2304 19.9861 16.4117 18.3849 17.2504 17.0999C17.8517 16.1787 18.0754 15.7149 18.5417 14.6749C15.1504 13.3837 14.6067 8.5612 17.9629 6.70996Z" fill="#040F0B"/>
</g>
<defs>
<clipPath id="clip0_4_4391">
<rect width="20" height="20" fill="white"/>
</clipPath>
</defs>
</svg>
