<svg width="19" height="12" viewBox="0 0 19 12" fill="none" xmlns="http://www.w3.org/2000/svg">
<path d="M1.5 5.25C1.08579 5.25 0.75 5.58579 0.75 6C0.75 6.41421 1.08579 6.75 1.5 6.75V5.25ZM17.5 6.75C17.9142 6.75 18.25 6.41421 18.25 6C18.25 5.58579 17.9142 5.25 17.5 5.25V6.75ZM14.028 0.467309C13.7338 0.175726 13.2589 0.177844 12.9673 0.472041C12.6757 0.766238 12.6778 1.24111 12.972 1.53269L14.028 0.467309ZM15.263 2.74731L14.735 3.28H14.735L15.263 2.74731ZM15.263 9.25269L15.7909 9.78538H15.7909L15.263 9.25269ZM12.972 10.4673C12.6778 10.7589 12.6757 11.2338 12.9673 11.528C13.2589 11.8222 13.7338 11.8243 14.028 11.5327L12.972 10.4673ZM17.4801 5.68667L18.2241 5.59184L18.2241 5.59184L17.4801 5.68667ZM17.4801 6.31333L18.2241 6.40816L18.2241 6.40816L17.4801 6.31333ZM1.5 6.75H17.5V5.25H1.5V6.75ZM12.972 1.53269L14.735 3.28L15.7909 2.21462L14.028 0.467309L12.972 1.53269ZM14.735 8.72L12.972 10.4673L14.028 11.5327L15.7909 9.78538L14.735 8.72ZM14.735 3.28C15.4505 3.98914 15.9413 4.47718 16.2734 4.89071C16.596 5.2924 16.7067 5.55042 16.7361 5.7815L18.2241 5.59184C18.1453 4.97372 17.8504 4.45878 17.4429 3.95146C17.045 3.45597 16.4814 2.89892 15.7909 2.21462L14.735 3.28ZM15.7909 9.78538C16.4814 9.10108 17.045 8.54403 17.4429 8.04854C17.8504 7.54122 18.1453 7.02628 18.2241 6.40816L16.7361 6.2185C16.7067 6.44958 16.596 6.7076 16.2734 7.10929C15.9413 7.52282 15.4505 8.01086 14.735 8.72L15.7909 9.78538ZM16.7361 5.7815C16.7546 5.92659 16.7546 6.07341 16.7361 6.2185L18.2241 6.40816C18.2586 6.13714 18.2586 5.86286 18.2241 5.59184L16.7361 5.7815Z" fill="#040F0B"/>
</svg>
