<svg width="18" height="20" viewBox="0 0 18 20" fill="none" xmlns="http://www.w3.org/2000/svg">
<path d="M3.21756 17.5374L3.6584 16.9306L3.21756 17.5374ZM2.29576 16.6156L2.90253 16.1748L2.29576 16.6156ZM15.7042 16.6156L15.0975 16.1748L15.7042 16.6156ZM14.7824 17.5374L15.2233 18.1442L14.7824 17.5374ZM14.7824 4.12893L15.2233 3.52217L14.7824 4.12893ZM15.7042 5.05073L15.0975 5.49157L15.7042 5.05073ZM3.21756 4.12893L3.6584 4.7357V4.7357L3.21756 4.12893ZM2.29576 5.05073L2.90253 5.49157L2.29576 5.05073ZM15.0149 13.3845L14.8975 12.6437L15.0149 13.3845ZM11.5513 16.848L10.8105 16.7307L11.5513 16.848ZM6.5 10.9165C6.08579 10.9165 5.75 11.2523 5.75 11.6665C5.75 12.0807 6.08579 12.4165 6.5 12.4165V10.9165ZM11.5 12.4165C11.9142 12.4165 12.25 12.0807 12.25 11.6665C12.25 11.2523 11.9142 10.9165 11.5 10.9165V12.4165ZM10.75 4.1665C10.75 4.58072 11.0858 4.9165 11.5 4.9165C11.9142 4.9165 12.25 4.58072 12.25 4.1665H10.75ZM12.25 1.6665C12.25 1.25229 11.9142 0.916504 11.5 0.916504C11.0858 0.916504 10.75 1.25229 10.75 1.6665H12.25ZM5.75 4.1665C5.75 4.58072 6.08579 4.9165 6.5 4.9165C6.91421 4.9165 7.25 4.58072 7.25 4.1665H5.75ZM7.25 1.6665C7.25 1.25229 6.91421 0.916504 6.5 0.916504C6.08579 0.916504 5.75 1.25229 5.75 1.6665H7.25ZM16.4759 13.3332L17.2255 13.3589L16.4759 13.3332ZM1.52411 8.33317L0.774547 8.30749L1.52411 8.33317ZM16.4759 8.33317L17.2255 8.30749L16.4759 8.33317ZM9 17.5832C7.42091 17.5832 6.29683 17.5821 5.4285 17.4881C4.57421 17.3955 4.05688 17.2202 3.6584 16.9306L2.77672 18.1442C3.47352 18.6504 4.28502 18.873 5.26693 18.9793C6.23481 19.0842 7.45432 19.0832 9 19.0832V17.5832ZM0.75 10.8332C0.75 12.3789 0.748971 13.5984 0.853834 14.5662C0.960218 15.5482 1.18275 16.3597 1.689 17.0564L2.90253 16.1748C2.61301 15.7763 2.43766 15.259 2.34511 14.4047C2.25103 13.5363 2.25 12.4123 2.25 10.8332H0.75ZM3.6584 16.9306C3.36834 16.7199 3.11326 16.4648 2.90253 16.1748L1.689 17.0564C1.99226 17.4738 2.35932 17.8409 2.77672 18.1442L3.6584 16.9306ZM15.0975 16.1748C14.8867 16.4648 14.6317 16.7199 14.3416 16.9306L15.2233 18.1442C15.6407 17.8409 16.0077 17.4738 16.311 17.0564L15.0975 16.1748ZM14.3416 4.7357C14.6317 4.94644 14.8867 5.20151 15.0975 5.49157L16.311 4.60989C16.0077 4.19249 15.6407 3.82543 15.2233 3.52217L14.3416 4.7357ZM2.77672 3.52217C2.35932 3.82543 1.99226 4.19249 1.689 4.60989L2.90253 5.49157C3.11326 5.20151 3.36834 4.94643 3.6584 4.7357L2.77672 3.52217ZM14.8975 12.6437C12.7937 12.9769 11.1437 14.6269 10.8105 16.7307L12.2921 16.9654C12.5236 15.5034 13.6702 14.3568 15.1322 14.1252L14.8975 12.6437ZM6.5 12.4165H11.5V10.9165H6.5V12.4165ZM16.4759 12.5832C15.7452 12.5832 15.2908 12.5814 14.8975 12.6437L15.1322 14.1252C15.3799 14.086 15.6903 14.0832 16.4759 14.0832L16.4759 12.5832ZM15.75 10.8332C15.75 11.8114 15.7499 12.6194 15.7263 13.3075L17.2255 13.3589C17.2501 12.6397 17.25 11.8031 17.25 10.8332H15.75ZM15.7263 13.3075C15.6734 14.8517 15.5005 15.62 15.0975 16.1748L16.311 17.0564C17.0033 16.1036 17.1719 14.9216 17.2255 13.3589L15.7263 13.3075ZM12.25 18.3091C12.25 17.5234 12.2528 17.2131 12.2921 16.9654L10.8105 16.7307C10.7482 17.124 10.75 17.5784 10.75 18.3091L12.25 18.3091ZM9 19.0832C9.96996 19.0832 10.8065 19.0833 11.5257 19.0586L11.4743 17.5595C10.7863 17.5831 9.97825 17.5832 9 17.5832V19.0832ZM11.5257 19.0586C13.0884 19.0051 14.2704 18.8365 15.2233 18.1442L14.3416 16.9306C13.7868 17.3337 13.0185 17.5066 11.4743 17.5595L11.5257 19.0586ZM2.25 10.8332C2.25 9.85492 2.25009 9.0469 2.27367 8.35885L0.774547 8.30749C0.749906 9.02669 0.75 9.86322 0.75 10.8332H2.25ZM2.27367 8.35885C2.32657 6.81462 2.49945 6.04635 2.90253 5.49157L1.689 4.60989C0.996682 5.56279 0.828089 6.74474 0.774547 8.30749L2.27367 8.35885ZM1.52411 9.08317H16.4759V7.58317H1.52411V9.08317ZM17.25 10.8332C17.25 9.86322 17.2501 9.02669 17.2255 8.30749L15.7263 8.35885C15.7499 9.0469 15.75 9.85492 15.75 10.8332H17.25ZM17.2255 8.30749C17.1719 6.74474 17.0033 5.56279 16.311 4.60989L15.0975 5.49157C15.5005 6.04635 15.6734 6.81462 15.7263 8.35885L17.2255 8.30749ZM12.25 4.1665V3.35728H10.75V4.1665H12.25ZM12.25 3.35728V1.6665H10.75V3.35728H12.25ZM9 4.08317C9.97826 4.08317 10.7863 4.08326 11.4743 4.10684L11.5257 2.60772C10.8065 2.58308 9.96995 2.58317 9 2.58317V4.08317ZM11.4743 4.10684C13.0185 4.15975 13.7868 4.33262 14.3416 4.7357L15.2233 3.52217C14.2704 2.82985 13.0884 2.66126 11.5257 2.60772L11.4743 4.10684ZM7.25 4.1665V3.35728H5.75V4.1665H7.25ZM7.25 3.35728V1.6665H5.75V3.35728H7.25ZM9 2.58317C8.03005 2.58317 7.19352 2.58308 6.47432 2.60772L6.52568 4.10684C7.21372 4.08326 8.02174 4.08317 9 4.08317V2.58317ZM6.47432 2.60772C4.91157 2.66126 3.72962 2.82985 2.77672 3.52217L3.6584 4.7357C4.21318 4.33262 4.98145 4.15975 6.52568 4.10684L6.47432 2.60772Z" fill="#ADA4A5"/>
</svg>
