<svg width="40" height="40" viewBox="0 0 40 40" fill="none" xmlns="http://www.w3.org/2000/svg">
<circle cx="20" cy="20" r="20" fill="black" fill-opacity="0.35"/>
<path d="M29.6334 24.0501C28.9823 26.0987 27.4391 27.8445 25.3087 28.9426C23.1783 30.0408 20.6158 30.4113 18.1274 29.981C15.6391 29.5507 13.4059 28.3509 11.8692 26.6186C10.3326 24.8864 9.60416 22.7478 9.82796 20.6253L10.9316 20.7345C10.7323 22.6239 11.3808 24.5278 12.7488 26.0699C14.1168 27.612 16.1048 28.6801 18.32 29.0631C20.5352 29.4462 22.8164 29.1163 24.7129 28.1388C26.6094 27.1612 27.9832 25.607 28.5629 23.7833L29.6334 24.0501Z" fill="white"/>
<path d="M10.6219 17.616L12.4861 20.8913L8.24419 20.5399L10.6219 17.616Z" fill="white"/>
<path d="M10.0962 15.9489C10.7473 13.9003 12.2905 12.1545 14.4209 11.0564C16.5512 9.95827 19.1138 9.58775 21.6021 10.018C24.0904 10.4483 26.3236 11.6481 27.8603 13.3804C29.3969 15.1126 30.1253 17.2513 29.9015 19.3737L28.7979 19.2646C28.9972 17.3751 28.3487 15.4712 26.9807 13.9291C25.6128 12.3871 23.6248 11.319 21.4096 10.9359C19.1944 10.5528 16.9132 10.8827 15.0167 11.8603C13.1202 12.8378 11.7464 14.392 11.1667 16.2157L10.0962 15.9489Z" fill="white"/>
<path d="M29.1066 22.3816L27.2424 19.1063L31.4843 19.4577L29.1066 22.3816Z" fill="white"/>
</svg>
