<svg width="16" height="20" viewBox="0 0 16 20" fill="none" xmlns="http://www.w3.org/2000/svg">
<path d="M13.4307 10.6494L14.1735 10.7528L13.4307 10.6494ZM13.2121 12.2203L13.9549 12.3236L13.2121 12.2203ZM2.78729 12.2203L3.53013 12.1169L2.78729 12.2203ZM2.56868 10.6494L1.82583 10.7528L2.56868 10.6494ZM5.65271 18.1139L5.36112 18.8049L5.65271 18.1139ZM3.39558 15.4668L4.09956 15.2081L3.39558 15.4668ZM12.6038 15.4668L13.3078 15.7254H13.3078L12.6038 15.4668ZM10.3466 18.1139L10.055 17.4229L10.3466 18.1139ZM2.91298 7.4289C2.8738 7.01654 2.50776 6.71402 2.0954 6.7532C1.68304 6.79238 1.38052 7.15842 1.4197 7.57078L2.91298 7.4289ZM14.5796 7.57078C14.6188 7.15842 14.3163 6.79238 13.9039 6.7532C13.4916 6.71402 13.1256 7.01654 13.0864 7.4289L14.5796 7.57078ZM14.6663 6.58317C15.0806 6.58317 15.4163 6.24738 15.4163 5.83317C15.4163 5.41896 15.0806 5.08317 14.6663 5.08317V6.58317ZM1.33301 5.08317C0.918794 5.08317 0.583008 5.41896 0.583008 5.83317C0.583008 6.24738 0.918794 6.58317 1.33301 6.58317V5.08317ZM5.58301 14.9998C5.58301 15.4141 5.91879 15.7498 6.33301 15.7498C6.74722 15.7498 7.08301 15.4141 7.08301 14.9998H5.58301ZM7.08301 8.33317C7.08301 7.91896 6.74722 7.58317 6.33301 7.58317C5.91879 7.58317 5.58301 7.91896 5.58301 8.33317H7.08301ZM8.91634 14.9998C8.91634 15.4141 9.25213 15.7498 9.66634 15.7498C10.0806 15.7498 10.4163 15.4141 10.4163 14.9998H8.91634ZM10.4163 8.33317C10.4163 7.91896 10.0806 7.58317 9.66634 7.58317C9.25213 7.58317 8.91634 7.91896 8.91634 8.33317H10.4163ZM11.333 5.83317V6.58317H12.083V5.83317H11.333ZM4.66634 5.83317H3.91634V6.58317H4.66634V5.83317ZM12.6878 10.546L12.4692 12.1169L13.9549 12.3236L14.1735 10.7528L12.6878 10.546ZM3.53013 12.1169L3.31152 10.546L1.82583 10.7528L2.04445 12.3237L3.53013 12.1169ZM7.99967 17.5832C6.71414 17.5832 6.29056 17.569 5.9443 17.4229L5.36112 18.8049C6.05427 19.0974 6.84888 19.0832 7.99967 19.0832V17.5832ZM2.04445 12.3237C2.27663 13.992 2.40494 14.9452 2.69159 15.7254L4.09956 15.2081C3.88243 14.6171 3.77314 13.8631 3.53013 12.1169L2.04445 12.3237ZM5.9443 17.4229C5.21623 17.1156 4.52125 16.3558 4.09956 15.2081L2.69159 15.7254C3.21199 17.1418 4.14549 18.2919 5.36112 18.8049L5.9443 17.4229ZM12.4692 12.1169C12.2262 13.8631 12.1169 14.6171 11.8998 15.2081L13.3078 15.7254C13.5944 14.9452 13.7227 13.992 13.9549 12.3236L12.4692 12.1169ZM7.99967 19.0832C9.15047 19.0832 9.94508 19.0974 10.6382 18.8049L10.055 17.4229C9.70879 17.569 9.28521 17.5832 7.99967 17.5832V19.0832ZM11.8998 15.2081C11.4781 16.3558 10.7831 17.1156 10.055 17.4229L10.6382 18.8049C11.8539 18.2919 12.7874 17.1418 13.3078 15.7254L11.8998 15.2081ZM3.31152 10.546C3.12627 9.2149 2.98851 8.22386 2.91298 7.4289L1.4197 7.57078C1.49904 8.40581 1.64236 9.43442 1.82583 10.7528L3.31152 10.546ZM14.1735 10.7528C14.357 9.43442 14.5003 8.4058 14.5796 7.57078L13.0864 7.4289C13.0108 8.22386 12.8731 9.2149 12.6878 10.546L14.1735 10.7528ZM14.6663 5.08317H1.33301V6.58317H14.6663V5.08317ZM7.08301 14.9998V8.33317H5.58301V14.9998H7.08301ZM10.4163 14.9998V8.33317H8.91634V14.9998H10.4163ZM10.583 4.99984V5.83317H12.083V4.99984H10.583ZM11.333 5.08317H4.66634V6.58317H11.333V5.08317ZM5.41634 5.83317V4.99984H3.91634V5.83317H5.41634ZM7.99967 2.4165C9.42641 2.4165 10.583 3.5731 10.583 4.99984H12.083C12.083 2.74467 10.2548 0.916504 7.99967 0.916504V2.4165ZM7.99967 0.916504C5.74451 0.916504 3.91634 2.74467 3.91634 4.99984H5.41634C5.41634 3.5731 6.57294 2.4165 7.99967 2.4165V0.916504Z" fill="#040F0B"/>
</svg>
