<svg width="29" height="28" viewBox="0 0 29 28" fill="none" xmlns="http://www.w3.org/2000/svg">
<path d="M27.1702 9.8956C26.0849 6.77393 23.3434 3.72464 21.299 1.65479C19.2499 3.72464 16.5084 6.77393 15.4231 9.8956C14.9667 11.2652 14.9766 12.7543 15.4511 14.1173C15.7964 15.1177 16.3874 16.0086 17.1664 16.7029C17.9454 17.3972 18.8857 17.8712 19.8955 18.0785C20.8198 18.2915 21.7782 18.2915 22.7025 18.0785C23.7123 17.8712 24.6526 17.3972 25.4316 16.7029C26.2106 16.0086 26.8016 15.1177 27.1469 14.1173C27.6198 12.7538 27.6281 11.2647 27.1702 9.8956Z" fill="#FFEB67"/>
<path d="M21.2992 1.69351C23.3436 3.76337 26.0851 6.81266 27.1704 9.93433C27.6268 11.3039 27.6169 12.793 27.1424 14.1561C26.7971 15.1564 26.2061 16.0473 25.4271 16.7416C24.6481 17.4359 23.7078 17.9099 22.698 18.1172C21.7737 18.3302 20.8153 18.3302 19.891 18.1172C18.8812 17.9099 17.9409 17.4359 17.1619 16.7416C16.3829 16.0473 15.7919 15.1564 15.4467 14.1561C14.9722 12.793 14.9623 11.3039 15.4186 9.93433C16.5039 6.81266 19.2454 3.76337 21.2945 1.69351M21.2945 0.00482218L20.4711 0.829872C18.3987 2.92867 15.5028 6.13719 14.3192 9.51457C13.7703 11.144 13.7785 12.9181 14.3426 14.542C14.7508 15.737 15.4531 16.802 16.3807 17.6326C17.3083 18.4632 18.4293 19.0309 19.6337 19.28C20.726 19.5309 21.8584 19.5309 22.9506 19.28C24.1607 19.035 25.2879 18.4687 26.2207 17.6369C27.1536 16.8051 27.8599 15.7367 28.2698 14.5372C28.8263 12.9105 28.8263 11.1364 28.2698 9.50974C27.0862 6.09376 24.1904 2.90937 22.1179 0.825042L21.2992 0L21.2945 0.00482218Z" fill="#D2B645"/>
<path d="M26.5717 11.1108C26.8618 13.7838 25.1683 16.1721 22.7964 16.4471C20.4245 16.7221 18.2584 14.7777 17.9684 12.1048C17.6783 9.4318 19.3719 7.04351 21.7438 6.76849C24.1156 6.49348 26.2817 8.44753 26.5717 11.1108Z" fill="#FFF79A"/>
<path d="M24.7981 8.21253L24.7139 8.08154" stroke="white" stroke-width="2.3" stroke-linecap="round" stroke-linejoin="round"/>
<path d="M26.1365 10.9286C26.077 10.4559 25.9309 9.99906 25.7061 9.58252" stroke="white" stroke-width="2.3" stroke-linecap="round" stroke-linejoin="round"/>
<path d="M18.0478 15.1273C16.5321 10.7849 12.7052 6.50531 9.8468 3.61523C6.98836 6.51013 3.15685 10.7656 1.64108 15.1273C1.00378 17.0413 1.01532 19.1217 1.67383 21.0281C2.15871 22.4243 2.98572 23.6673 4.07441 24.6362C5.1631 25.6051 6.47641 26.267 7.88659 26.5573C9.17607 26.8532 10.5128 26.8532 11.8023 26.5573C13.2125 26.267 14.5258 25.6051 15.6145 24.6362C16.7032 23.6673 17.5302 22.4243 18.0151 21.0281C18.6758 19.1221 18.6874 17.0409 18.0478 15.1273Z" fill="#FFEB67"/>
<path d="M11.9358 24.2505C15.2558 23.8671 17.6186 20.5293 17.2131 16.7955C16.8076 13.0616 13.7875 10.3456 10.4675 10.729C7.14747 11.1125 4.78474 14.4502 5.1902 18.1841C5.59566 21.918 8.61577 24.634 11.9358 24.2505Z" fill="#FFF79A"/>
<path d="M14.9275 12.7925L14.834 12.647" stroke="white" stroke-width="2.62" stroke-linecap="round" stroke-linejoin="round"/>
<path d="M16.4526 15.8879C16.3862 15.3501 16.2194 14.8307 15.9614 14.3584" stroke="white" stroke-width="2.62" stroke-linecap="round" stroke-linejoin="round"/>
<path d="M9.84675 3.62521C12.7052 6.52011 16.532 10.7756 18.0478 15.1373C18.6873 17.0509 18.6758 19.1321 18.015 21.038C17.5302 22.4342 16.7032 23.6773 15.6145 24.6462C14.5258 25.6151 13.2125 26.2769 11.8023 26.5673C10.5128 26.8632 9.17602 26.8632 7.88655 26.5673C6.47636 26.2769 5.16306 25.6151 4.07437 24.6462C2.98567 23.6773 2.15866 22.4342 1.67378 21.038C1.01528 19.1317 1.00374 17.0513 1.64103 15.1373C3.1568 10.7949 6.98832 6.51529 9.84675 3.62521ZM9.84675 1.93652L9.02805 2.76157C6.16026 5.65647 2.165 10.0567 0.541634 14.732C-0.19162 16.9039 -0.180057 19.2695 0.574386 21.4337C1.11928 23.0272 2.05653 24.4473 3.29417 25.5545C4.53181 26.6617 6.02731 27.4181 7.63392 27.7494C9.09131 28.0839 10.6022 28.0839 12.0596 27.7494C13.6643 27.4168 15.158 26.661 16.3952 25.5559C17.6324 24.4507 18.5709 23.0338 19.1191 21.4433C19.8709 19.277 19.8824 16.9108 19.1519 14.7368C17.5238 10.0615 13.5379 5.66612 10.6655 2.7664L9.84675 1.94135V1.93652Z" fill="#D2B645"/>
</svg>
