<svg width="25" height="24" viewBox="0 0 25 24" fill="none" xmlns="http://www.w3.org/2000/svg">
<path d="M3.5 6.47246C3.5 4.55467 5.05467 3 6.97246 3H18.0842C19.9707 3 21.5 4.52929 21.5 6.41577C21.5 7.42052 21.0576 8.37431 20.2906 9.02332L16.7703 12.0021C15.6475 12.9521 15 14.3482 15 15.819V17.5996C15 18.4795 14.579 19.3062 13.8675 19.8237L11.9262 21.2355C10.9165 21.9698 9.5 21.2485 9.5 20V15.6995C9.5 14.298 8.91177 12.9608 7.87862 12.0137L4.62603 9.0322C3.90852 8.37448 3.5 7.44581 3.5 6.47246Z" stroke="white" stroke-width="1.5"/>
</svg>
