<svg width="20" height="20" viewBox="0 0 20 20" fill="none" xmlns="http://www.w3.org/2000/svg">
<path d="M4.46818 11.6184L5.16392 11.3383L5.16392 11.3383L4.46818 11.6184ZM7.63969 14.3053L7.33995 14.9928L7.33995 14.9928L7.63969 14.3053ZM5.36224 12.9835L5.89705 12.4577L5.36224 12.9835ZM15.5319 11.6184L14.8362 11.3383L15.5319 11.6184ZM12.3604 14.3053L12.6601 14.9928L12.3604 14.3053ZM14.6379 12.9835L15.1727 13.5093L15.1727 13.5093L14.6379 12.9835ZM15.6295 4.5456L14.9162 4.77736L15.6295 4.5456ZM12.9543 1.87044L12.7225 2.58373L12.9543 1.87044ZM4.37065 4.5456L5.08394 4.77736L4.37065 4.5456ZM7.04581 1.87044L7.27757 2.58373L7.04581 1.87044ZM1.94383 9.67253L1.48824 10.2683L1.49889 10.2764L1.50982 10.2842L1.94383 9.67253ZM18.0564 9.67253L18.4904 10.2842L18.5013 10.2764L18.512 10.2683L18.0564 9.67253ZM9.25005 18.3332C9.25005 18.7474 9.58584 19.0832 10 19.0832C10.4143 19.0832 10.75 18.7474 10.75 18.3332H9.25005ZM13.3334 19.0832C13.7476 19.0832 14.0834 18.7474 14.0834 18.3332C14.0834 17.919 13.7476 17.5832 13.3334 17.5832V19.0832ZM6.66672 17.5832C6.2525 17.5832 5.91672 17.919 5.91672 18.3332C5.91672 18.7474 6.2525 19.0832 6.66672 19.0832V17.5832ZM15.7386 4.99984L14.999 5.12443L15.7386 4.99984ZM16.0144 11.1214L15.5804 10.5097L16.0144 11.1214ZM3.99047 11.1247L3.55647 11.7364L3.99047 11.1247ZM15.0834 7.49984V8.5835H16.5834V7.49984H15.0834ZM4.91672 8.5835V7.49984H3.41672V8.5835H4.91672ZM12.0607 13.6178C11.6247 13.8079 11.2072 13.9699 10.8386 14.0832C10.4589 14.1998 10.1782 14.2498 10 14.2498V15.7498C10.4004 15.7498 10.8488 15.6492 11.2792 15.517C11.7205 15.3813 12.194 15.196 12.6601 14.9928L12.0607 13.6178ZM10 14.2498C9.82186 14.2498 9.54121 14.1998 9.16154 14.0832C8.79286 13.9699 8.37541 13.8079 7.93943 13.6178L7.33995 14.9928C7.80609 15.196 8.27957 15.3813 8.7209 15.517C9.15126 15.6492 9.59972 15.7498 10 15.7498V14.2498ZM7.93943 13.6178C6.77117 13.1085 6.34333 12.9116 5.89705 12.4577L4.82744 13.5093C5.51305 14.2066 6.22621 14.5072 7.33995 14.9928L7.93943 13.6178ZM3.77245 11.8985C3.99151 12.4426 4.4162 13.0911 4.82744 13.5093L5.89705 12.4577C5.62444 12.1804 5.30913 11.699 5.16392 11.3383L3.77245 11.8985ZM12.6601 14.9928C13.7739 14.5072 14.4871 14.2066 15.1727 13.5093L14.103 12.4577C13.6568 12.9116 13.2289 13.1085 12.0607 13.6178L12.6601 14.9928ZM14.8362 11.3383C14.691 11.699 14.3757 12.1804 14.103 12.4577L15.1727 13.5093C15.5839 13.0911 16.0086 12.4426 16.2276 11.8985L14.8362 11.3383ZM10 2.4165C11.6095 2.4165 12.2363 2.42576 12.7225 2.58373L13.186 1.15714C12.417 0.907251 11.4927 0.916504 10 0.916504V2.4165ZM16.3427 4.31384C15.8564 2.81702 14.6829 1.64349 13.186 1.15714L12.7225 2.58373C13.7627 2.9217 14.5782 3.7372 14.9162 4.77736L16.3427 4.31384ZM10 0.916504C8.50736 0.916504 7.58314 0.907251 6.81405 1.15714L7.27757 2.58373C7.76376 2.42576 8.39061 2.4165 10 2.4165V0.916504ZM5.08394 4.77736C5.42191 3.7372 6.23741 2.9217 7.27757 2.58373L6.81405 1.15714C5.31723 1.64349 4.1437 2.81702 3.65735 4.31384L5.08394 4.77736ZM4.42448 10.513L2.37783 9.06086L1.50982 10.2842L3.55647 11.7364L4.42448 10.513ZM2.39942 9.07676C0.990974 7.99972 1.75264 5.74984 3.52569 5.74984V4.24984C0.318202 4.24984 -1.05965 8.31991 1.48824 10.2683L2.39942 9.07676ZM3.52569 5.74984H4.16683V4.24984H3.52569V5.74984ZM16.4484 11.7331L18.4904 10.2842L17.6224 9.06086L15.5804 10.5097L16.4484 11.7331ZM18.512 10.2683C21.0599 8.31991 19.682 4.24984 16.4745 4.24984V5.74984C18.2476 5.74984 19.0092 7.99972 17.6008 9.07676L18.512 10.2683ZM16.4745 4.24984H15.8334V5.74984H16.4745V4.24984ZM9.25005 14.9998V18.3332H10.75V14.9998H9.25005ZM13.3334 17.5832H6.66672V19.0832H13.3334V17.5832ZM4.91672 7.49984C4.91672 6.26826 4.91933 5.60954 5.00106 5.12443L3.5219 4.87524C3.4141 5.51514 3.41672 6.32864 3.41672 7.49984H4.91672ZM5.00106 5.12443C5.02338 4.99193 5.05084 4.87924 5.08394 4.77736L3.65735 4.31384C3.5985 4.49496 3.55474 4.6803 3.5219 4.87524L5.00106 5.12443ZM4.16683 5.74984H4.26148V4.24984H4.16683V5.74984ZM3.41672 8.5835C3.41672 9.87053 3.40941 10.7497 3.64905 11.5468L5.08554 11.115C4.92402 10.5777 4.91672 9.95744 4.91672 8.5835H3.41672ZM3.64905 11.5468C3.68478 11.6657 3.72572 11.7824 3.77245 11.8985L5.16392 11.3383C5.13408 11.2641 5.10817 11.1902 5.08554 11.115L3.64905 11.5468ZM15.0834 8.5835C15.0834 9.96335 15.076 10.5832 14.9126 11.1215L16.3479 11.5571C16.5908 10.7568 16.5834 9.87583 16.5834 8.5835H15.0834ZM14.9126 11.1215C14.8904 11.1945 14.8652 11.2663 14.8362 11.3383L16.2276 11.8985C16.273 11.7858 16.3129 11.6724 16.3479 11.5571L14.9126 11.1215ZM16.5834 7.49984C16.5834 6.32864 16.586 5.51514 16.4782 4.87524L14.999 5.12443C15.0808 5.60953 15.0834 6.26826 15.0834 7.49984H16.5834ZM16.4782 4.87524C16.4454 4.6803 16.4016 4.49496 16.3427 4.31384L14.9162 4.77736C14.9493 4.87924 14.9767 4.99193 14.999 5.12443L16.4782 4.87524ZM15.8334 4.24984H15.7386V5.74984H15.8334V4.24984ZM15.5804 10.5097C15.5013 10.5659 15.4167 10.6139 15.3279 10.653L15.9326 12.0257C16.114 11.9458 16.2868 11.8477 16.4484 11.7331L15.5804 10.5097ZM3.55647 11.7364C3.72116 11.8532 3.89891 11.9505 4.08613 12.0262L4.64847 10.6356C4.5693 10.6036 4.49413 10.5625 4.42448 10.513L3.55647 11.7364Z" fill="#51A966"/>
</svg>
