<svg width="20" height="20" viewBox="0 0 20 20" fill="none" xmlns="http://www.w3.org/2000/svg">
<path d="M17.9999 6.99983C18.0008 5.74842 17.5323 4.54221 16.687 3.61941C15.8418 2.6966 14.6812 2.12429 13.4346 2.01552C12.1879 1.90674 10.9458 2.2694 9.95348 3.03187C8.96118 3.79434 8.29088 4.90119 8.07495 6.13383C7.64795 7.62683 7.24195 8.41583 7.02995 8.76383L5.14595 10.6468C5.07619 10.7168 5.02872 10.8059 5.00955 10.9028C4.99038 10.9998 5.00037 11.1002 5.03824 11.1915C5.07612 11.2827 5.14019 11.3607 5.22237 11.4156C5.30454 11.4705 5.40113 11.4998 5.49995 11.4998H5.88895L3.88595 13.5028C3.48305 13.5258 3.09653 13.6701 2.77717 13.9169C2.45782 14.1636 2.22057 14.5011 2.09659 14.8852C1.97262 15.2692 1.96772 15.6818 2.08254 16.0686C2.19737 16.4555 2.42654 16.7986 2.73995 17.0528C2.81595 17.1148 2.88495 17.1838 2.94695 17.2598C3.20182 17.5737 3.54586 17.803 3.93369 17.9175C4.32152 18.0319 4.73493 18.0261 5.11938 17.9008C5.50384 17.7755 5.84128 17.5366 6.08721 17.2156C6.33314 16.8946 6.476 16.5066 6.49695 16.1028L8.49995 14.1018V14.5018C8.49997 14.6008 8.52934 14.6975 8.58435 14.7797C8.63935 14.8619 8.71751 14.926 8.80895 14.9638C8.90038 15.0016 9.00097 15.0114 9.09798 14.992C9.195 14.9726 9.28408 14.9249 9.35395 14.8548L11.2249 12.9828C11.5699 12.7708 12.3789 12.3518 13.9339 11.9128C14.1706 11.8688 14.4006 11.8082 14.6239 11.7308C14.7559 11.6975 14.8793 11.6495 14.9939 11.5868C15.8874 11.1983 16.6479 10.5571 17.182 9.74223C17.716 8.92732 18.0003 7.97413 17.9999 6.99983ZM8.49995 12.6868L5.71595 15.4718C5.57721 15.6125 5.49959 15.8022 5.49995 15.9998C5.50005 16.2066 5.43608 16.4082 5.31684 16.5771C5.1976 16.746 5.02895 16.8738 4.8341 16.9428C4.63925 17.0119 4.42778 17.0189 4.2288 16.9629C4.02981 16.9068 3.85309 16.7905 3.72295 16.6298C3.61787 16.5002 3.49957 16.3819 3.36995 16.2768C3.20932 16.1467 3.09297 15.97 3.03691 15.771C2.98086 15.572 2.98785 15.3605 3.05693 15.1657C3.12601 14.9708 3.25378 14.8022 3.42266 14.6829C3.59153 14.5637 3.79322 14.4997 3.99995 14.4998C4.09509 14.5005 4.18942 14.4822 4.27747 14.4462C4.36552 14.4101 4.44556 14.357 4.51295 14.2898L7.30295 11.4998H8.49995V12.6868ZM12.9999 2.99983C13.9216 2.99945 14.8152 3.31738 15.5295 3.89986C16.2438 4.48233 16.735 5.29362 16.9201 6.19653C17.1052 7.09943 16.9728 8.03856 16.5453 8.85511C16.1178 9.67166 15.4214 10.3155 14.5739 10.6778L14.5189 10.7058C14.472 10.7314 14.4219 10.7505 14.3699 10.7628L14.3599 10.7648L14.3169 10.7778C14.1112 10.8503 13.8998 10.9058 13.6849 10.9438C11.9679 11.4258 11.0589 11.9018 10.6439 12.1658C10.6128 12.1856 10.584 12.2087 10.5579 12.2348L9.49995 13.2928V11.0588C9.50007 10.9931 9.48723 10.928 9.46218 10.8673C9.43713 10.8066 9.40035 10.7513 9.35395 10.7048L9.29395 10.6458C9.20024 10.5524 9.0733 10.4999 8.94095 10.4998H6.70695L7.77695 9.42983C7.80346 9.40353 7.82694 9.37435 7.84695 9.34283C8.10995 8.92583 8.57395 8.03583 9.04395 6.38283L9.05595 6.32883C9.10372 6.04733 9.1815 5.77176 9.28795 5.50683C9.5859 4.76626 10.0986 4.13178 10.7601 3.68501C11.4216 3.23824 12.2017 2.99961 12.9999 2.99983Z" fill="#040F0B"/>
</svg>
