<svg width="20" height="20" viewBox="0 0 20 20" fill="none" xmlns="http://www.w3.org/2000/svg">
<g clip-path="url(#clip0_367_10663)">
<path d="M10.0003 2.3227L8.90334 4.15064C8.04144 5.58777 7.61145 6.30634 7.61145 7.10039C7.61145 7.89349 8.04144 8.61301 8.90429 10.0501L9.59228 11.1949C9.77383 11.5006 9.86652 11.6535 10.0013 11.6535C10.136 11.6535 10.2277 11.5006 10.4112 11.1949L11.0982 10.0501C11.9592 8.61301 12.3891 7.89444 12.3891 7.10039C12.3891 6.30729 11.9592 5.58777 11.0963 4.15064L10.0003 2.3227ZM10.0003 2.3227V0.411621M17.7975 10.5384L15.6666 10.5031C13.9906 10.4744 13.1536 10.4601 12.4656 10.8566C11.7776 11.2541 11.3705 11.987 10.5574 13.4528L9.90952 14.6195C9.73657 14.931 9.65057 15.0868 9.71841 15.2034C9.7853 15.3209 9.96303 15.3238 10.3185 15.3295L11.6543 15.3524C13.3294 15.3811 14.1674 15.3945 14.8554 14.997C15.5434 14.6004 15.9495 13.8675 16.7636 12.4027L17.7975 10.5384ZM17.7975 10.5384L19.4525 9.58288" stroke="#040F0B" stroke-width="0.833333"/>
<path d="M2.20297 10.5405L4.33382 10.5051C6.00983 10.4765 6.84688 10.4621 7.53487 10.8587C8.22286 11.2562 8.62992 11.9891 9.44308 13.4549L10.0909 14.6216C10.2639 14.9331 10.3499 15.0889 10.282 15.2054C10.2152 15.323 10.0374 15.3258 9.68197 15.3316L8.34612 15.3545C6.67106 15.3832 5.83306 15.3965 5.14507 14.999C4.45708 14.6025 4.05098 13.8696 3.23781 12.4048L2.20297 10.5405ZM2.20297 10.5405L0.547974 9.58496M10.0002 12.8357V20.0022" stroke="#040F0B" stroke-width="0.833333"/>
</g>
<defs>
<clipPath id="clip0_367_10663">
<rect width="20" height="20" fill="white"/>
</clipPath>
</defs>
</svg>
