<svg width="28" height="38" viewBox="0 0 28 38" fill="none" xmlns="http://www.w3.org/2000/svg">
<path d="M13.9771 36.0127C20.9214 36.0127 26.5508 30.3833 26.5508 23.439C26.5508 16.4947 20.9214 10.8652 13.9771 10.8652C7.03278 10.8652 1.40332 16.4947 1.40332 23.439C1.40332 30.3833 7.03278 36.0127 13.9771 36.0127Z" fill="white"/>
<path d="M18.1133 5.09766H9.83545V17.021H18.1133V5.09766Z" fill="white"/>
<path d="M23.2537 23.4391C23.2537 25.8993 22.2764 28.2588 20.5368 29.9984C18.7971 31.7381 16.4377 32.7154 13.9774 32.7154C11.5172 32.7154 9.15776 31.7381 7.41812 29.9984C5.67849 28.2588 4.70117 25.8993 4.70117 23.4391C4.70117 23.3763 4.70117 23.3136 4.70117 23.2508C4.76119 20.8312 5.76455 18.5308 7.49711 16.8407C9.22968 15.1506 11.5542 14.2046 13.9746 14.2046C16.395 14.2046 18.7195 15.1506 20.4521 16.8407C22.1846 18.5308 23.188 20.8312 23.248 23.2508L23.2537 23.4391Z" fill="#C9F0FF"/>
<path d="M15.7738 5.09766H12.1797V16.2109H15.7738V5.09766Z" fill="#C9F0FF"/>
<path d="M18.119 5.10887V11.5783C20.9174 12.5566 23.2793 14.4939 24.786 17.0469C26.2928 19.6 26.8472 22.604 26.3511 25.5267C25.8549 28.4494 24.3403 31.1021 22.0754 33.0149C19.8105 34.9277 16.9417 35.977 13.9772 35.977C11.0127 35.977 8.14384 34.9277 5.87898 33.0149C3.61411 31.1021 2.09943 28.4494 1.60328 25.5267C1.10714 22.604 1.66157 19.6 3.16833 17.0469C4.6751 14.4939 7.03693 12.5566 9.83538 11.5783V5.10887H18.119ZM18.119 3.68263H9.8582C9.67069 3.68187 9.48489 3.71825 9.31151 3.78966C9.13813 3.86107 8.9806 3.96609 8.84801 4.09868C8.71542 4.23127 8.6104 4.3888 8.53899 4.56218C8.46758 4.73556 8.4312 4.92136 8.43196 5.10887V10.6027C5.47818 11.8831 3.05593 14.1424 1.57322 17C0.0905175 19.8576 -0.36204 23.1389 0.291783 26.2911C0.945605 29.4434 2.66586 32.274 5.16276 34.3061C7.65967 36.3383 10.7807 37.4478 14 37.4478C17.2193 37.4478 20.3403 36.3383 22.8372 34.3061C25.3342 32.274 27.0544 29.4434 27.7082 26.2911C28.362 23.1389 27.9095 19.8576 26.4268 17C24.9441 14.1424 22.5218 11.8831 19.5681 10.6027V5.10887C19.5688 4.92136 19.5324 4.73556 19.461 4.56218C19.3896 4.3888 19.2846 4.23127 19.152 4.09868C19.0194 3.96609 18.8619 3.86107 18.6885 3.78966C18.5151 3.71825 18.3293 3.68187 18.1418 3.68263H18.119Z" fill="#D2B645"/>
<path d="M15.7745 5.10887V14.3452C17.851 14.7559 19.7248 15.864 21.0852 17.4858C22.4455 19.1077 23.2106 21.1457 23.2537 23.2621V23.4503C23.2537 25.9105 22.2764 28.27 20.5367 30.0096C18.7971 31.7493 16.4376 32.7266 13.9774 32.7266C11.5172 32.7266 9.15773 31.7493 7.4181 30.0096C5.67846 28.27 4.70114 25.9105 4.70114 23.4503C4.70114 23.3876 4.70114 23.3248 4.70114 23.2621C4.74287 21.1462 5.50681 19.1083 6.86618 17.4863C8.22556 15.8644 10.0987 14.7561 12.1746 14.3452V5.10887H15.7688M15.7688 3.68263H12.1746C11.9871 3.68187 11.8013 3.71825 11.628 3.78966C11.4546 3.86107 11.297 3.96609 11.1645 4.09868C11.0319 4.23127 10.9268 4.3888 10.8554 4.56218C10.784 4.73556 10.7476 4.92136 10.7484 5.10887V13.2442C8.62372 13.9229 6.76285 15.2459 5.42375 17.0297C4.08465 18.8134 3.33367 20.9696 3.2749 23.1993C3.2749 23.2849 3.2749 23.3648 3.2749 23.4503C3.2749 24.8558 3.55172 26.2475 4.08958 27.546C4.62743 28.8445 5.41577 30.0243 6.40959 31.0182C7.40341 32.012 8.58325 32.8003 9.88174 33.3382C11.1802 33.876 12.5719 34.1528 13.9774 34.1528C15.3829 34.1528 16.7746 33.876 18.0731 33.3382C19.3716 32.8003 20.5514 32.012 21.5452 31.0182C22.539 30.0243 23.3274 28.8445 23.8652 27.546C24.4031 26.2475 24.6799 24.8558 24.6799 23.4503C24.6799 23.3648 24.6799 23.2849 24.6799 23.1993C24.622 20.9694 23.8713 18.8128 22.5321 17.0289C21.1929 15.245 19.3315 13.9222 17.2064 13.2442V5.10887C17.2072 4.92136 17.1708 4.73556 17.0994 4.56218C17.028 4.3888 16.923 4.23127 16.7904 4.09868C16.6578 3.96609 16.5002 3.86107 16.3269 3.78966C16.1535 3.71825 15.9677 3.68187 15.7802 3.68263H15.7688Z" fill="#D2B645"/>
<path d="M18.3758 5.10939H9.5787C9.09097 5.10788 8.62374 4.91307 8.2794 4.56766C7.93506 4.22225 7.7417 3.75441 7.7417 3.26668C7.7417 2.77948 7.93525 2.31224 8.27975 1.96773C8.62426 1.62323 9.0915 1.42969 9.5787 1.42969H18.3758C18.8635 1.42969 19.3313 1.62304 19.6767 1.96738C20.0221 2.31172 20.2169 2.77896 20.2185 3.26668C20.2185 3.7554 20.0243 4.2241 19.6787 4.56967C19.3332 4.91525 18.8645 5.10939 18.3758 5.10939Z" fill="white"/>
<path d="M18.3753 1.41768C18.863 1.41768 19.3308 1.61104 19.6762 1.95538C20.0217 2.29972 20.2165 2.76695 20.218 3.25468C20.2195 3.49763 20.1729 3.73847 20.081 3.96336C19.9891 4.18824 19.8536 4.39273 19.6823 4.56505C19.511 4.73737 19.3074 4.87413 19.0831 4.96744C18.8588 5.06076 18.6182 5.1088 18.3753 5.10879H9.57821C9.09049 5.10728 8.62326 4.91248 8.27892 4.56707C7.93458 4.22166 7.74121 3.75382 7.74121 3.26609C7.74121 2.77889 7.93476 2.31164 8.27927 1.96714C8.62377 1.62263 9.09101 1.42909 9.57821 1.42909H18.3753M18.3753 0.00285272H9.57821C8.73561 0.0380761 7.93922 0.397578 7.35547 1.00624C6.77173 1.61489 6.4458 2.4256 6.4458 3.26894C6.4458 4.11228 6.77173 4.92299 7.35547 5.53165C7.93922 6.1403 8.73561 6.49981 9.57821 6.53503H18.3753C18.8157 6.55344 19.2552 6.4826 19.6675 6.32676C20.0799 6.17092 20.4564 5.93331 20.7745 5.62821C21.0926 5.32311 21.3458 4.95683 21.5187 4.55139C21.6916 4.14595 21.7807 3.70972 21.7807 3.26894C21.7807 2.82817 21.6916 2.39194 21.5187 1.9865C21.3458 1.58106 21.0926 1.21477 20.7745 0.909674C20.4564 0.604575 20.0799 0.36696 19.6675 0.211122C19.2552 0.055284 18.8157 -0.015557 18.3753 0.00285272Z" fill="#D2B645"/>
<path d="M23.2537 23.4392C23.2537 25.8995 22.2764 28.2589 20.5368 29.9986C18.7971 31.7382 16.4377 32.7155 13.9774 32.7155C11.5172 32.7155 9.15776 31.7382 7.41812 29.9986C5.67849 28.2589 4.70117 25.8995 4.70117 23.4392C4.70117 23.3765 4.70117 23.3137 4.70117 23.251H23.248L23.2537 23.4392Z" fill="#89E9FF"/>
<path d="M23.2534 23.2512C23.2534 24.5177 19.1001 25.5332 13.9771 25.5332C8.85403 25.5332 4.72363 24.5063 4.72363 23.2512C4.72363 21.9961 8.87684 20.9692 13.9999 20.9692C19.123 20.9692 23.2534 21.9904 23.2534 23.2512Z" fill="#A2EEFF"/>
<path d="M6.61762 26.4114C6.61762 26.3657 6.56628 26.3144 6.54346 26.2573" stroke="white" stroke-width="2.3" stroke-linecap="round" stroke-linejoin="round"/>
<path d="M8.54031 29.1957C8.11368 28.8868 7.7497 28.4996 7.46777 28.0547" stroke="white" stroke-width="2.3" stroke-linecap="round" stroke-linejoin="round"/>
</svg>
