<svg width="24" height="24" viewBox="0 0 24 24" fill="none" xmlns="http://www.w3.org/2000/svg">
<path d="M9.91144 6.35702C9.84766 6.28779 9.81226 6.19709 9.81226 6.10296C9.81226 6.00883 9.84766 5.91814 9.91144 5.8489L14.448 0.987961C14.5592 0.868766 14.7061 0.789032 14.8667 0.760827C15.0272 0.732622 15.1926 0.757482 15.3377 0.831643C15.4829 0.905804 15.5999 1.02523 15.6711 1.17184C15.7423 1.31846 15.7638 1.48428 15.7324 1.64421L14.3608 8.52171L19.7449 10.5401C19.9089 10.5988 20.0483 10.7111 20.1405 10.8589C20.2257 10.999 20.2626 11.1631 20.2457 11.3261C20.2288 11.4891 20.1589 11.6421 20.0468 11.7617L17.6777 14.2995C17.6426 14.3376 17.6 14.368 17.5525 14.3887C17.5051 14.4095 17.4539 14.4202 17.4021 14.4202C17.3503 14.4202 17.299 14.4095 17.2516 14.3887C17.2042 14.368 17.1616 14.3376 17.1264 14.2995L9.91144 6.35702ZM12.5139 11.4495L5.05519 3.24546C4.98932 3.17122 4.90938 3.11078 4.81999 3.06766C4.7306 3.02454 4.63354 2.9996 4.53443 2.99426C4.43533 2.98893 4.33615 3.00332 4.24265 3.0366C4.14915 3.06988 4.06318 3.12139 3.98973 3.18814C3.91628 3.25489 3.85681 3.33555 3.81477 3.42546C3.77272 3.51536 3.74894 3.61271 3.74479 3.71187C3.74065 3.81103 3.75623 3.91003 3.79063 4.00313C3.82503 4.09622 3.87756 4.18157 3.94519 4.25421L7.62581 8.30234L3.96956 12.2239C3.84569 12.3479 3.76824 12.5108 3.75019 12.6851C3.73607 12.8483 3.77571 13.0115 3.86306 13.15C3.9504 13.2884 4.08066 13.3945 4.23394 13.452L9.63675 15.478L8.26519 22.3526C8.23407 22.5124 8.25574 22.6779 8.32694 22.8242C8.39815 22.9706 8.51501 23.0898 8.6599 23.1638C8.80479 23.2379 8.96985 23.2629 9.13016 23.2349C9.29048 23.207 9.43736 23.1276 9.54863 23.0089L15.348 16.7951L18.9452 20.7514C19.0111 20.8256 19.091 20.8861 19.1804 20.9292C19.2698 20.9723 19.3668 20.9973 19.4659 21.0026C19.5651 21.0079 19.6642 20.9935 19.7577 20.9603C19.8512 20.927 19.9372 20.8755 20.0106 20.8087C20.0841 20.742 20.1436 20.6613 20.1856 20.5714C20.2277 20.4815 20.2514 20.3841 20.2556 20.285C20.2597 20.1858 20.2441 20.0868 20.2097 19.9937C20.1753 19.9006 20.1228 19.8153 20.0552 19.7426L12.5139 11.4495Z" fill="white"/>
</svg>
