<svg width="20" height="20" viewBox="0 0 20 20" fill="none" xmlns="http://www.w3.org/2000/svg">
<path d="M3.23754 16.7764C4.99004 18.5081 8.21921 18.1248 10.45 15.9214C12.9992 13.4039 14.3184 12.6489 15.2442 12.1323C15.4309 12.0281 15.4775 11.7689 15.3259 11.6189C12.3184 8.64811 7.29837 10.8714 6.75587 14.7914M3.23754 16.7764L2.08337 17.9164M3.23754 16.7764C1.48504 15.0456 1.87254 11.8564 4.10337 9.65311C4.80921 9.12977 6.16337 7.64727 6.38171 5.64477C6.40337 5.44227 6.66087 5.33977 6.80671 5.48394C7.32324 5.99112 7.7334 6.59626 8.01314 7.26393C8.29289 7.9316 8.4366 8.64837 8.43587 9.37227" stroke="#040F0B" stroke-linecap="round" stroke-linejoin="round"/>
<path d="M14.66 10.8333C16.6184 7.81325 18.7767 3.93659 17.5659 2.53825C16.1242 0.871587 11.6742 4.11492 8.33337 6.94659" stroke="#040F0B" stroke-linecap="round" stroke-linejoin="round"/>
</svg>
