<svg width="225" height="181" viewBox="0 0 225 181" fill="none" xmlns="http://www.w3.org/2000/svg">
<path fill-rule="evenodd" clip-rule="evenodd" d="M129.168 180.22C156.035 180.22 179.612 160.235 166.371 133.09C153.13 105.945 202.329 106.822 216.781 88.0615C234.406 65.1819 229.302 -31.9381 116.157 27.271C98.0327 36.7556 51.4851 17.5136 36.045 27.0611C17.8706 38.2995 -7.69987 61.3121 17.8706 84.8853C30.4661 96.497 -14.6918 126.636 5.08648 153.632C24.3851 179.974 37.913 154.862 67.2949 160.235C96.6767 165.608 109.214 180.22 129.168 180.22Z" fill="#D3E9D9"/>
<path d="M97.9839 132.993C97.9839 132.993 104.17 130.083 106.48 128.059C108.789 126.034 111.66 121.005 111.66 121.005C111.66 121.005 143.199 143.782 163.763 140.533C168.501 139.784 177.734 136.634 178.322 131.085C179.93 115.933 157.687 112.061 162.546 104.377C165.511 99.6863 174.725 106.667 174.725 106.667L212.938 125.463C212.938 125.463 199.736 158.006 167.699 159.31C128.288 160.914 97.9839 132.993 97.9839 132.993Z" fill="white"/>
<path fill-rule="evenodd" clip-rule="evenodd" d="M67.6868 5.55053C67.3281 5.40973 65.402 3.05123 62.9566 2.62197C61.8454 2.42691 62.854 3.84184 61.631 3.85458C57.9888 3.8925 52.0697 3.20821 50.9732 3.85458C50.1582 4.33344 51.953 6.00633 50.9732 6.08313C41.7287 6.80774 27.6256 16.038 24.5658 20.516C23.592 21.9412 31.4677 19.5233 30.2129 20.2278C28.8045 21.0186 27.2425 26.1964 26.3086 30.1954C25.662 32.9492 25.255 36.4932 25.1113 40.3486C24.9916 43.6771 25.0394 44.2278 25.5184 46.0477C26.0691 48.0832 26.5002 48.6818 27.2425 48.3945C27.5059 48.2987 27.6256 47.9395 27.6256 47.269C27.6256 46.7422 27.913 45.1617 28.2722 43.7489L28.8948 41.2106L29.1582 42.2642C29.4934 43.4855 31.457 47.269 33.229 50.0228C33.3246 50.169 33.7358 49.9831 34.1066 49.0868C34.4445 48.2701 34.3073 46.9654 34.8813 45.5671C36.1888 42.3819 38.7561 38.2406 41.7287 34.9256C46.1221 30.0263 47.5797 24.3564 51.6979 19.805C59.3835 11.3111 69.0294 6.07763 67.6868 5.55053Z" fill="white"/>
<path fill-rule="evenodd" clip-rule="evenodd" d="M30.3222 21.3882C29.0893 22.3796 27.2592 30.4209 27.2279 30.5553C26.5813 33.3092 25.9581 42.8721 26.5951 44.6827C27.2322 46.4932 29.016 39.9666 29.016 39.9666C29.016 39.9666 31.7123 46.9679 34.0947 48.8875C34.1965 48.9695 31.2629 40.2254 30.3222 35.1208C29.0804 28.3824 31.0238 20.824 30.3222 21.3882Z" fill="#E7EAEE"/>
<path fill-rule="evenodd" clip-rule="evenodd" d="M76.2747 162.216C78.5735 161.714 82.4523 159.962 83.9375 159.364C85.4226 158.765 89.948 152.375 91.5763 145.167C92.7497 139.851 93.3483 132.284 92.6778 131.015C92.5788 130.834 92.2166 127.393 93.1808 128.517C95.3241 131.015 97.8682 134.935 105.896 127.91C108.082 125.996 110.98 123.526 110.217 121.343C108.082 115.234 98.8277 102.934 97.4168 102.002C95.7299 100.888 87.2036 101.835 74.5148 98.0898C60.1247 93.8425 54.1327 81.3355 48.5014 82.9636C43.9474 84.2802 33.0362 92.3714 30.2978 97.4952C17.37 121.685 33.0362 138.635 36.604 143.503L40.0681 144.999L40.1878 148.088L40.3554 150.028C40.6667 153.739 40.7864 154.075 42.4627 155.32C46.6533 158.505 54.9147 161.474 62.3859 162.528C65.8581 163.007 73.4011 162.839 76.2747 162.216Z" fill="white"/>
<path fill-rule="evenodd" clip-rule="evenodd" d="M41.4307 146.956L41.5983 148.896C41.9096 152.608 42.0293 152.943 43.7056 154.188C46.1777 156.067 50.0666 157.871 54.3742 159.251C57.3685 160.21 60.5651 160.964 63.6288 161.396C67.101 161.875 74.644 161.707 77.5176 161.085C78.938 160.777 67.2547 151.598 60.372 154.188C55.0865 156.177 42.6286 141.006 47.6938 137.042C53.3759 132.596 42.9638 115.059 42.6286 111.252C42.2933 107.445 40.9731 106.535 40.9345 106.669C40.896 106.802 40.896 107.258 40.9997 108.355C41.4464 113.086 41.4307 146.956 41.4307 146.956Z" fill="#E7EAEE"/>
<path fill-rule="evenodd" clip-rule="evenodd" d="M40.1822 110.16C40.685 110.062 41.1718 110.39 41.2697 110.893C43.077 120.178 50.7216 126.464 64.3913 129.751C78.1423 133.057 87.5088 132.879 92.444 129.35C92.8606 129.052 92.55 131.603 92.2449 131.799C89.026 133.863 78.0821 136.943 65.022 134.159C48.3235 130.6 40.483 116.559 39.4491 111.247C39.3513 110.745 39.6795 110.258 40.1822 110.16Z" fill="#51A966"/>
<path fill-rule="evenodd" clip-rule="evenodd" d="M33.2194 93.4117C33.6639 93.1574 50.2494 112.166 73.0102 116.468C95.7711 120.771 101.282 118.034 102.168 112.166C102.244 111.659 102.717 111.311 103.223 111.387C103.73 111.464 104.078 111.936 104.002 112.442C102.879 119.88 92.3471 121.649 72.6982 118.297C53.2962 114.986 39.9942 107.119 32.875 94.6772C32.6207 94.2326 32.7749 93.6661 33.2194 93.4117Z" fill="#51A966"/>
<path fill-rule="evenodd" clip-rule="evenodd" d="M128.75 92.3464C128.128 92.1309 127.457 91.652 127.026 91.1012L126.308 90.2152L128.846 87.7008C132.749 83.8695 135.743 79.9423 138.329 75.2728C139.191 73.7163 141.37 68.52 141.37 68.0171C141.37 67.8495 141.633 67.179 141.945 66.4845C142.424 65.4788 142.783 65.0956 143.812 64.5209C145.034 63.8026 146.423 63.5631 147.021 63.9702C148.171 64.7365 148.171 67.155 147.021 71.3217C145.752 75.8954 144.052 79.176 140.532 83.8934C139.981 84.6118 138.951 86.0246 138.209 87.0064C136.221 89.6405 134.928 90.9096 133.18 91.8914C131.456 92.8493 130.45 92.969 128.75 92.3464ZM145.944 90.2037L147.668 90.97C148.025 91.135 151.969 93.03 156.706 95.3064C164.344 98.9764 174.045 103.638 174.104 103.638C174.2 103.638 174.649 102.598 174.751 101.387C174.99 98.7765 175.876 95.2324 176.906 92.766C177.385 91.6645 177.768 90.2878 177.768 90.168C177.768 90.1134 177.379 89.9564 176.741 89.6993C175.983 89.3933 174.873 88.9455 173.649 88.3599C167.615 85.4624 155.809 79.5477 154.349 78.6617C152.912 77.8236 152.624 77.7517 152.624 78.3025C152.624 79.0209 151.164 82.3494 150.038 84.1453C149.44 85.1271 148.266 86.8992 147.428 88.0725L145.944 90.2037ZM173.697 99.3325C174.384 99.7305 173.194 100.314 172.907 100.41C171.215 100.554 169.223 100.236 167.591 99.2846C166.737 98.6794 160.018 94.9464 155.561 92.4701C153.523 91.3381 151.958 90.4686 151.643 90.2808C150.637 89.6822 149.679 89.0356 149.511 88.8441C149.009 88.1975 149.488 87.9102 150.9 88.0299C151.75 88.1019 172.214 98.4729 173.697 99.3325ZM82.8954 159.611L82.8955 159.611C83.3419 159.423 83.7261 159.261 84.0178 159.143C85.5029 158.544 90.0283 152.154 91.6566 144.946C92.83 139.63 93.4287 132.063 92.7582 130.794C92.3539 130.059 94.7552 132.525 96.5437 134.361L96.5442 134.361C97.0864 134.918 97.5723 135.417 97.9066 135.751C108.347 146.12 123.888 154.453 140.028 158.356C148.074 160.32 153.797 161.014 161.484 161.014C174.391 161.014 184.568 158.476 193.811 152.896C194.25 152.631 194.662 152.388 195.054 152.156C198.276 150.248 200.195 149.112 205.449 143.198C211.342 136.565 216.584 121.168 218.332 115.852C219.098 113.457 220.966 103.933 220.966 101.556C220.966 98.7419 219.984 97.4132 218.643 96.0483C216.273 93.7255 213.064 92.8874 210.406 93.8931L209.161 94.372L208.777 93.1029C208.227 91.1872 207.077 89.6546 205.305 88.5052C202.671 86.7571 202.288 86.6374 199.917 86.6374C198.073 86.6374 197.571 86.7332 196.397 87.284L195.032 87.9066L194.745 87.0445C194.194 85.2725 192.347 82.8022 190.914 82.0876C189.642 81.4539 187.442 81.3958 185.909 81.6805C182.556 82.3032 180.162 83.8596 179.18 86.0388C178.893 86.7092 178.533 87.2361 178.39 87.2361C178.27 87.2361 173.553 85.9186 167.925 83.4282C166.976 83.0067 166.084 82.6115 165.247 82.2404L165.247 82.2403C155.142 77.7613 152.951 76.7905 153.15 75.5743C153.318 74.5446 153.27 73.9699 152.983 73.0839C152.48 71.5992 151.905 71.1921 150.277 71.1921C148.984 71.1921 148.984 71.1921 149.127 70.5456C149.894 66.8818 149.87 64.7745 149.056 63.4336C148.505 62.5476 147.858 62.1884 146.374 61.9728C145.512 61.8531 145.105 61.9249 144.147 62.4518C143.5 62.787 142.949 63.0265 142.901 62.9786C142.854 62.9307 143.021 61.6136 143.285 60.0571C145.248 48.539 143.731 38.615 138.727 28.0787C138.679 27.9779 138.623 27.8587 138.559 27.7222C137.038 24.4557 130.92 11.3211 113.424 4.69357C112.632 4.39369 111.883 4.10372 111.163 3.82504L111.162 3.82475C105.202 1.51783 101.24 -0.0157923 91.6806 0.0001227C80.9658 0.0179608 77.3368 1.53268 70.2727 4.76541C69.2909 5.22039 68.4288 5.4838 68.357 5.38801C68.2852 5.26828 67.8302 4.98093 67.3752 4.74147C66.9202 4.50201 65.9384 3.90335 65.2201 3.42443C63.1607 2.03555 61.8915 1.46084 61.245 1.60452C60.5027 1.79609 60.5027 2.41869 61.245 2.70604C61.5563 2.82577 61.9155 3.23286 62.0592 3.63994C62.3705 4.50201 62.7296 4.59779 62.9452 3.8794C63.0409 3.616 63.1846 3.42443 63.2565 3.47232C63.2837 3.48593 63.3748 3.52857 63.5138 3.59363L63.5141 3.59378C63.8641 3.75763 64.5175 4.06354 65.2201 4.40622C66.2018 4.88514 67.2794 5.38801 67.5668 5.50774C68.0936 5.69931 67.926 5.84299 65.6511 7.18398C56.767 12.4042 49.5353 20.522 45.4884 29.7652C44.8658 31.1541 44.315 32.0162 43.7403 32.4951C42.2796 33.7163 39.4061 37.1885 38.7356 38.5535C38.3764 39.2958 37.6101 40.4452 37.0114 41.1157C36.4367 41.7862 35.8141 42.6483 35.5986 43.0075C35.4071 43.3906 35.2155 43.654 35.1436 43.6061C35.0958 43.5343 35.1676 42.3609 35.3352 40.996C35.6944 37.8111 35.6944 36.973 35.4071 36.9012C34.976 36.7815 34.3534 38.4577 34.09 40.541C33.8984 41.8102 33.8506 43.7259 33.9703 45.6894L34.114 48.8024L32.4138 46.0486C31.8283 45.1265 31.2517 44.2043 30.8427 43.5501L30.8424 43.5497C30.5825 43.1339 30.3903 42.8264 30.3065 42.6962C29.6839 41.7862 29.3247 40.4213 29.5881 39.9663C29.7318 39.7029 29.7079 39.5832 29.4684 39.5832C28.9655 39.5832 27.9837 41.1876 27.3372 43.0314C27.0259 43.8935 26.7146 44.6119 26.6188 44.6119C26.2596 44.6119 26.4272 36.0391 26.8104 33.2853C27.6006 27.8495 29.6839 21.1446 30.6178 21.1446C30.8094 21.1446 30.977 21.0488 30.977 20.9051C30.977 20.4741 30.3544 20.6417 29.8515 21.1925C28.7261 22.4137 27.2414 26.1733 26.3075 30.1723C25.661 32.9261 25.2539 36.4702 25.1102 40.3255C24.9905 43.654 25.0384 44.2048 25.5173 46.0247C26.068 48.0601 26.4991 48.6588 27.2414 48.3714C27.5048 48.2756 27.6245 47.9164 27.6245 47.2459C27.6245 46.7191 27.9119 45.1387 28.2711 43.7259L28.8937 41.1876L29.1571 42.2412C29.4923 43.4624 31.4559 47.2459 33.228 49.9998C34.4492 51.8676 34.4732 51.9873 34.8802 54.9087C35.0958 56.561 35.7662 60.5799 37.3228 66.7621C38.698 72.2244 46.4294 77.6431 48.3598 78.996C48.6142 79.1743 48.7679 79.282 48.793 79.3099C49.0324 79.5733 49.3677 79.717 49.5592 79.6451C49.7748 79.5733 49.8945 79.6691 49.8945 79.9325C49.8945 80.1719 50.0621 80.4832 50.2537 80.6269C50.4931 80.7945 50.6608 81.4411 50.7087 82.5666C50.8284 84.8175 52.5046 89.1278 53.7977 90.5406C54.6358 91.4506 56.3839 91.8337 58.3236 91.4985C59.5927 91.3069 59.9519 91.1632 59.8322 90.8759C59.7603 90.6843 60.2153 90.9238 60.8379 91.4027C68.1175 96.9582 75.493 100.287 83.7783 101.724C86.9871 102.274 92.3032 102.586 95.2007 102.37L95.2009 102.37H95.201C97.0586 102.249 97.5693 102.215 97.664 102.398C97.7 102.467 97.6761 102.567 97.6432 102.705C97.4756 103.376 97.6911 103.783 101.211 109.745C104.013 114.463 104.252 114.774 107.365 117.959C113.974 124.784 121.182 130.076 129.348 134.171C137.035 138.002 149.307 141.187 160.526 142.193C171.745 143.198 179.803 132.901 179.779 130.267C179.731 126.651 179.228 124.281 178.007 121.982C176.809 119.755 176.019 118.989 172.427 116.594C168.428 113.936 165.962 111.757 164.333 109.434C163.304 107.973 162.92 106.321 162.92 105.435C162.92 104.86 163.663 103.567 164.764 103.304C165.77 103.041 165.962 103.064 167.087 103.615C167.758 103.927 169.506 104.741 170.942 105.435C172.403 106.106 173.816 106.776 174.103 106.92C174.951 107.155 175.309 108.813 175.503 109.712C175.546 109.913 175.581 110.076 175.612 110.177C175.947 111.422 177.534 113.029 178.557 113.577C180.355 114.538 184.784 114.667 186.005 113.35C186.316 113.014 187.348 112.602 187.561 112.727C187.774 112.852 188.543 113.888 188.543 114.726C188.567 116.163 189.309 117.48 190.89 118.797C193.883 121.288 196.206 121.886 198.552 120.785C199.774 120.21 200.775 119.985 200.775 119.985C200.775 119.985 201.773 121.259 201.833 121.695C202.303 125.097 207.34 126.523 208.681 126.667C208.989 126.698 209.587 126.566 210.195 126.433C211.007 126.254 211.836 126.072 212.01 126.268C212.352 126.654 206.287 136.685 205.449 137.954C197.475 149.927 181.958 157.255 162.968 158.021C150.636 158.524 135.478 155.076 122.332 148.802C113.927 144.755 106.479 139.798 98.5052 132.854C97.1164 131.656 95.512 130.291 94.9373 129.812C94.3626 129.357 92.9976 127.801 91.944 126.364C90.172 123.97 89.1662 123.107 89.1662 123.922C89.1662 124.281 90.3157 126.484 91.6327 128.663C92.1595 129.525 92.4948 130.124 92.375 130.028C92.2553 129.932 91.8722 131.656 91.513 133.859C90.3396 140.923 88.4 147.892 86.4364 152.226C85.3588 154.573 83.2926 156.325 82.67 156.804C80.3712 158.552 76.9297 159.338 72.1644 159.817C66.13 160.416 57.246 159.075 50.4692 156.536C48.6732 155.866 44.0516 153.926 43.7403 153.711C43.7216 153.692 43.6156 153.003 43.4675 152.042L43.4675 152.042C43.4257 151.771 43.3806 151.478 43.3332 151.172C42.4712 145.258 41.2739 122.485 41.2739 111.949C41.2739 107.59 41.226 106.632 40.9386 106.632C40.34 106.632 40.1005 107.207 39.8371 109.267C39.2384 113.96 39.3582 138.457 40.0047 143.605L40.1484 144.779L39.3342 144.324C38.089 143.605 33.3477 138.792 31.6954 136.565C30.2966 134.661 29.4652 132.223 28.8432 130.399C28.6986 129.974 28.5652 129.583 28.4387 129.24C24.9665 119.614 26.1878 108.812 30.977 99.0894C35.0479 90.804 40.0526 86.2064 47.3801 83.9794C48.5775 83.6202 49.6311 83.2371 49.7508 83.1413C50.2058 82.7102 47.2844 82.9258 45.68 83.4286C40.4597 85.033 35 89.4152 31.2883 95.0186C26.068 102.873 23.7213 114.463 25.3736 124.353C25.7567 126.699 27.3132 131.776 27.7443 132.135C27.7824 132.173 27.9794 132.587 28.2773 133.211C29.1009 134.939 30.696 138.286 31.8391 139.798C33.228 141.69 37.4185 145.808 39.1666 147.078L40.2681 147.868L40.4358 149.807C40.7471 153.519 40.8668 153.854 42.543 155.1C46.7336 158.284 54.995 161.254 62.4662 162.307C65.9384 162.786 73.4815 162.619 76.355 161.996C78.2022 161.592 81.0695 160.382 82.8954 159.611ZM157.293 139.509C143.381 138.287 126.57 131.654 114.406 121.405C109.281 117.07 102.624 108.642 99.9902 103.972C99.4394 103.015 99.0323 102.56 98.5534 102.44C98.0505 102.296 98.4816 102.152 100.541 101.817C109.233 100.333 117.686 96.7167 124.511 91.5683L125.517 90.8259L125.804 91.5204C126.451 93.0769 128.941 94.6573 130.785 94.6573C131.527 94.6573 134.018 93.5319 135.526 92.5022L136.556 91.8077L137.394 92.6458C138.16 93.4121 138.304 93.46 139.741 93.46C141.393 93.46 143.381 92.7177 144.482 91.6641L145.081 91.1133L146.781 92.2388C147.691 92.8853 150.229 94.2981 152.408 95.4236C155.665 97.0998 159.113 99.0395 162.394 101.051L162.921 101.386L162.418 102.057C161.891 102.775 160.91 104.14 160.91 106.223C160.91 108.57 163.35 112.786 168.021 115.682C171.691 117.957 178.007 122.432 177.767 128.972C177.738 129.762 176.857 131.726 175.684 133.498C174.918 134.623 172.787 136.3 170.847 137.282C167.542 138.934 161.723 139.892 157.293 139.509ZM29.6122 32.0127C30.2588 32.1564 30.6898 32.3719 30.594 32.4677C30.2827 32.779 28.6304 32.6353 28.2473 32.2522C27.6486 31.6775 27.7923 31.2704 28.6304 31.1027C29.0615 31.0309 29.708 30.6717 30.0672 30.3125C30.4264 29.9533 30.7377 29.7857 30.7377 29.9054C30.7377 30.2167 29.5404 31.3183 28.9417 31.5577C28.5586 31.7253 28.6783 31.7972 29.6122 32.0127ZM39.1426 32.3991C39.8371 32.016 39.6934 31.7526 38.8792 31.8723C38.065 31.9921 38.0172 31.8963 38.544 31.0821C38.7595 30.7708 38.8792 30.3158 38.8313 30.0764C38.7595 29.7651 38.5919 29.9087 38.2087 30.675C37.9214 31.2258 37.5143 31.6808 37.3227 31.6808C36.7241 31.6808 36.6762 32.1597 37.2509 32.3752C37.9932 32.6865 38.5679 32.6865 39.1426 32.3991ZM30.8574 19.3214C30.2827 19.4172 28.4867 20.1356 26.9063 20.9258C25.3019 21.6921 23.937 22.3386 23.8412 22.3147C21.3987 22.0513 24.799 17.9804 30.9771 13.8138C36.8918 9.8148 40.8909 7.70753 44.6025 6.62995C46.9253 5.95946 49.5354 5.86368 50.2778 6.41444C50.6848 6.72574 50.5412 6.74968 48.7691 6.77363C44.9378 6.77363 40.5077 8.73722 33.2999 13.5504C29.5643 16.0408 25.23 19.6088 25.23 20.1835C25.23 20.3032 25.9245 20.0638 26.7865 19.6806C28.6304 18.8425 30.5222 18.4115 31.3603 18.603C32.2463 18.8425 32.0547 19.1538 30.8574 19.3214ZM40.1246 21.3867C42.3755 20.9317 42.4713 20.9078 42.4713 20.6683C42.4713 20.5486 41.6092 20.4289 40.5317 20.381L38.592 20.3091L40.388 18.2737C41.3698 17.1482 42.5192 16.0228 42.9263 15.7594C43.8123 15.1846 43.8602 14.7776 43.1418 14.5381L42.591 14.3705L43.1897 14.155C43.5249 14.0352 44.1475 13.9873 44.5786 14.0592C45.2251 14.155 45.3688 14.1071 45.2969 13.7718C45.2251 13.4366 44.9617 13.3647 43.7883 13.3887C40.364 13.4366 38.9033 14.3465 41.5853 14.7776C42.3276 14.8973 42.9502 15.0889 42.9502 15.2086C42.9502 15.3044 42.8305 15.4002 42.6868 15.4002C42.2318 15.4002 38.3765 19.3034 37.8976 20.2612C37.1552 21.6741 37.5623 21.8896 40.1246 21.3867ZM55.9291 12.0924C55.2347 12.1403 55.067 12.26 55.1149 12.5952L55.1223 12.644L55.1223 12.6441C55.1492 12.8212 55.1646 12.9229 55.125 12.9538C55.0714 12.9955 54.9173 12.9081 54.5551 12.7027L54.4923 12.6671C54.0374 12.4276 53.9895 12.3079 54.2529 12.1163C54.4205 11.9726 54.8755 11.7571 55.2347 11.6853L55.9052 11.5177L55.4023 10.9908C55.1389 10.6795 54.9952 10.3922 55.067 10.2964C55.2586 10.1048 57.6053 10.3682 57.9406 10.6316C58.0843 10.7514 58.2998 10.7274 58.4435 10.5838C58.7787 10.2485 59.2337 10.5119 59.2337 11.0387C59.2337 11.3261 59.1618 11.35 58.9463 11.1345C58.7548 10.9429 58.5871 10.9429 58.3716 11.1106C58.18 11.2782 58.0364 11.2782 57.9166 11.0866C57.8448 10.9669 57.3898 10.8472 56.9109 10.8472C56.4691 10.8472 56.2602 10.8472 56.2175 10.9314C56.1793 11.0069 56.2748 11.1501 56.4559 11.4219C56.8379 12.0187 56.8153 12.0205 55.9373 12.0917L55.9291 12.0924ZM52.2894 5.72138C52.2894 5.41008 52.002 4.85932 51.6428 4.50012L50.9723 3.82963L54.5643 3.97331C56.5518 4.06909 58.8027 4.28461 59.593 4.50012C60.3832 4.69169 61.2931 4.83537 61.6284 4.83537C62.1313 4.83537 62.0355 4.73959 61.1016 4.23672C59.4732 3.3986 57.3899 2.99151 53.3909 2.70416C48.6017 2.36891 46.1831 2.82389 46.6381 4.0212C46.7099 4.26066 47.0931 4.38039 47.6678 4.38039C48.8411 4.38039 50.7568 5.07483 51.4034 5.72138C52.0978 6.41582 52.2894 6.41582 52.2894 5.72138ZM40.6036 69.1374C42.5432 71.6278 45.1055 74.4535 46.3028 75.4113C47.0212 75.986 47.6438 76.465 47.6916 76.465C47.7156 76.465 47.1888 75.3634 46.5183 74.0225C43.8124 68.6346 42.2319 63.2706 41.4896 57.0925C41.322 55.7276 41.0586 54.5782 40.7712 54.0992C40.1965 53.1414 40.1965 51.8962 40.7951 50.7228C41.1064 50.1002 41.2741 49.31 41.2741 48.4479V47.1309L40.1247 48.3282C38.9992 49.5016 37.9216 49.9805 37.9216 49.2621C37.9216 48.7353 39.6936 46.197 40.6275 45.4068C41.3699 44.7842 41.4656 44.5687 41.7051 42.7009C41.8727 41.5754 42.2559 39.5879 42.5672 38.2708C42.9024 36.9538 43.094 35.8283 43.0461 35.7804C42.8785 35.6128 37.2511 42.0758 36.4848 44.1376C36.3166 44.5903 35.8622 45.3828 35.503 45.8618L34.8804 46.6611C34.8804 46.6611 35.0738 47.7805 35.2875 49.1873C35.5034 50.6086 35.6047 51.5857 35.6949 52.4559C35.8156 53.6201 35.9165 54.593 36.2454 56.1826C36.6285 58.1461 37.0117 59.8463 37.1074 59.966C37.1793 60.1097 37.4906 61.2113 37.8019 62.4325C38.4724 65.1384 39.5978 67.8204 40.6036 69.1374ZM137.778 91.7967L137.275 91.2939C137.275 91.2939 145.621 80.6898 147.117 76.7825C148.258 73.8007 148.93 72.9551 149.836 72.9551C150.343 72.9551 150.757 73.0708 150.948 73.3582C151.283 73.8611 151.606 74.4837 151.175 76.6149C150.457 80.0631 149.356 82.338 146.051 87.247C145.285 88.3724 144.303 89.6176 143.872 90.0487C142.866 90.9826 140.603 91.9404 139.286 92.1559C138.448 92.2757 138.209 92.2278 137.778 91.7967Z" fill="#040F0B"/>
<path d="M204.085 115.226C207.064 107.109 206.613 105.38 206.096 105.21C206.096 105.21 204.959 105.857 204.456 107.222C203.522 109.784 200.325 116.489 199.128 117.686C197.715 119.099 197.715 119.099 196.278 119.099C194.841 119.099 190.698 116.936 190.134 114.803C189.231 111.39 193.117 99.5352 193.213 98.8647L192.567 98.4097C192.136 98.8168 186.529 115.819 179.157 111.389C178.313 110.881 176.523 108.491 176.379 107.222C175.581 103.534 179.242 90.6393 179.865 87.9905C180.422 85.6198 183.323 83.4194 186.891 83.4194C192.375 83.4194 191.638 88.2129 194.095 89.9019C195.183 90.6505 196.972 89.2934 197.523 89.1905C200.613 88.6158 201.796 89.2849 204.061 91.0822C205.809 92.4695 207.102 95.2153 208.526 96.1827C209.317 96.7202 210.156 95.9855 210.43 95.8475C211.557 95.2819 213.974 95.7038 214.645 96.1827C215.628 96.6113 218.037 98.9267 218.417 100.273C220.142 106.377 214.696 119.908 212.64 122.446C209.237 126.648 201.106 123.343 204.085 115.226Z" fill="white"/>
<path fill-rule="evenodd" clip-rule="evenodd" d="M66.4181 92.9904C72.9793 97.1331 79.7448 99.839 87.4555 100.581C93.5378 101.156 101.739 100.366 107.629 98.4502C112.586 96.8458 119.291 92.4012 123.769 88.6417C132.462 81.3621 137.945 69.9912 140.34 57.9224C140.675 56.2222 141.186 51.9485 141.163 47.71C141.163 42.7771 138.992 29.2968 132.414 21.5242C118.847 5.49308 96.5462 -1.72847 77.804 4.44188C71.043 6.66772 63.8445 10.7005 58.4088 15.9687C51.5602 22.6496 46.5075 31.7492 44.496 41.0403C42.3888 50.8582 45.1299 62.5919 49.8952 72.2182C53.7027 79.881 59.9766 88.8956 66.4181 92.9904ZM130.354 64.0487C125.853 77.5782 114.119 87.6835 99.3681 90.7486C97.1172 91.2036 95.5607 91.3712 92.3998 91.4191C90.1728 91.491 87.9458 91.467 87.4908 91.4191C77.17 90.1739 69.3157 86.3665 62.0839 79.1347C58.923 75.9499 57.582 74.2258 55.6184 70.8254C52.5294 65.4375 50.8771 59.9299 50.3742 53.2968C48.6501 30.5719 64.9096 11.6305 87.8021 9.66688C96.7819 8.9006 106.744 11.6544 114.311 17.0184C117.112 19.0059 122.189 24.0346 123.769 26.3813C124.416 27.3152 130.69 36.4866 131.791 41.7548C133.204 48.6034 132.653 57.1761 130.354 64.0487Z" fill="white"/>
<path fill-rule="evenodd" clip-rule="evenodd" d="M141.171 47.7082C141.171 63.7812 133.568 81.3531 123.756 88.8576C119.075 92.438 112.957 96.7734 107.629 98.4484C99.822 100.903 87.4554 100.58 87.4554 100.58C87.4554 100.58 100.072 98.8931 104.747 97.0115C118.154 91.6159 125.473 83.3334 129.992 75.3865C138.913 59.6997 141.171 47.3177 141.171 47.7082Z" fill="#E7EAEE"/>
<path fill-rule="evenodd" clip-rule="evenodd" d="M87.7298 88.5534C81.3362 87.7393 74.9904 85.4644 69.866 82.088C66.8248 80.1004 62.2271 75.4309 60.0001 72.1024C56.8153 67.3132 54.708 62.1887 53.6783 56.6811C52.936 52.6821 52.96 46.5279 53.7023 42.9599C54.4686 39.3201 55.4504 36.5423 57.1984 33.0223C59.2339 28.9514 61.389 25.9581 64.6217 22.7254C70.1294 17.2178 76.523 13.7216 84.1379 12.0454C86.6043 11.5186 95.5363 11.0876 95.8476 11.4946C95.9194 11.6144 96.3983 11.9257 96.9012 12.1891C97.4041 12.4764 98.7451 13.4822 99.8466 14.464C101.499 15.9007 102.241 16.8107 103.678 19.0616C104.66 20.5942 105.45 21.9831 105.45 22.1028C105.45 22.3662 106.216 22.8451 106.647 22.8451C107.246 22.8451 107.653 21.0492 107.773 17.8883C107.845 16.1402 107.988 14.7034 108.084 14.7034C108.419 14.7034 112.107 16.7389 113.831 17.8883C117.208 20.1392 120.584 23.3001 123.074 26.6047C124.2 28.0893 124.367 28.4725 124.367 29.3824C124.367 30.2206 124.607 30.8671 125.349 32.1602C127.217 35.4169 128.678 39.5117 129.564 44.0375C130.138 47.0787 130.138 52.8257 129.54 56.0106C127.912 64.7749 123.074 73.4913 116.777 79.0229C111.437 83.6924 105.761 86.5659 99.0564 87.9787C96.7575 88.4816 89.861 88.8169 87.7298 88.5534ZM70.6083 72.1745C70.8238 71.935 70.9675 71.5758 70.8957 71.4082C70.8741 71.3579 70.5743 71.2169 70.1354 71.0106L70.1354 71.0106L70.1353 71.0106C69.1123 70.5296 67.3336 69.6934 66.5628 68.822C63.4977 65.3259 62.3722 62.7157 61.6777 57.3278C61.0073 52.0836 61.5705 48.5383 62.7793 42.8404C63.3689 40.0608 64.9361 37.7649 65.9112 36.3365C66.5741 35.3652 66.9634 34.795 66.5854 34.7466C65.6515 34.6029 65.5078 34.6747 64.526 35.6086C62.4187 37.6201 61.4609 39.2245 60.4551 42.3136C58.8986 47.1507 58.5979 60.223 61.6777 66.1161C64.7576 72.0092 70.0576 72.7971 70.6083 72.1745ZM104.66 52.0663C104.253 55.7862 102.528 61.1658 100.517 63.5126C99.5829 64.6141 96.1548 66.5058 93.2611 66.1227C90.4661 65.7526 88.2803 64.4465 86.4125 61.6447C84.8081 59.2262 83.9795 56.2905 83.4193 52.5931C82.4518 46.2084 86.6759 38.7761 88.4959 36.9323C90.3397 35.0405 91.6567 34.3701 93.333 34.3461C94.9613 34.3461 96.015 34.7053 97.6672 35.8787C100.684 37.9859 105.45 44.8377 104.66 52.0663ZM72.38 32.2564C72.8589 31.7056 72.9308 31.4422 72.7871 30.4125C72.6913 29.4547 72.4998 29.0715 71.9969 28.6644C71.1109 27.9461 70.0093 27.9461 69.1952 28.7123C68.6205 29.2631 68.5486 29.4547 68.6205 30.7717C68.6923 32.1845 68.7402 32.2803 69.5304 32.7113C70.5841 33.2861 71.6137 33.1184 72.38 32.2564ZM87.3228 17.4839C83.0125 20.573 81.1447 21.8421 79.205 23.0394C77.6725 23.9973 77.1936 24.0212 77.1936 23.1592C77.1936 22.7042 77.5288 22.2013 78.3909 21.4111L79.5882 20.3096L77.2654 19.9983C74.6553 19.663 72.117 18.9446 71.5662 18.3939C70.6562 17.46 71.4465 17.2445 74.0327 17.7234C75.1821 17.915 77.4091 18.1544 78.9895 18.2023L81.8631 18.322L83.9464 16.8134C88.5201 13.5089 93.2614 11.6411 95.5363 12.2158C96.9491 12.551 96.7815 12.9341 95.1771 13.1257C93.3333 13.3412 92.2078 13.9638 87.3228 17.4839Z" fill="white"/>
<path d="M93.477 62.8264C93.477 62.7066 93.6207 62.5869 93.8122 62.5869C94.0038 62.5869 94.2433 62.7066 94.3151 62.8264C94.3869 62.9701 94.2433 63.0658 93.9799 63.0658C93.6925 63.0658 93.477 62.9701 93.477 62.8264Z" fill="white"/>
<path d="M94.9141 62.6166C94.9141 62.3532 95.5128 62.1138 96.1833 62.1138C96.7101 62.1377 96.7101 62.1377 96.2551 62.473C95.7283 62.88 94.9141 62.9519 94.9141 62.6166Z" fill="white"/>
<path d="M91.2021 61.9946C91.1303 61.803 91.0345 61.4678 90.9626 61.2762C90.8908 61.0367 91.0105 60.917 91.3218 60.917C91.5852 60.917 91.8008 61.0607 91.8008 61.2522C91.8008 61.4438 91.8726 61.7551 91.9444 61.9706C92.0402 62.234 91.9684 62.3538 91.705 62.3538C91.4895 62.3538 91.25 62.1861 91.2021 61.9946Z" fill="white"/>
<path d="M92.4713 61.3924C92.3515 60.674 92.6149 60.4346 93.477 60.4346C93.7404 60.4346 93.9559 60.674 94.0517 61.0811C94.2433 61.7756 93.932 62.1108 93.0939 62.1108C92.7107 62.1108 92.5431 61.9432 92.4713 61.3924Z" fill="white"/>
<path d="M90.0292 61.5174C89.5742 61.1582 89.5742 61.1582 90.0771 61.1582C90.3884 61.1582 90.6039 61.3019 90.6039 61.5174C90.6039 61.9484 90.6039 61.9484 90.0292 61.5174Z" fill="white"/>
<path d="M94.8426 61.4914C94.5313 61.1801 94.675 60.2462 95.0581 60.1025C95.7526 59.8391 96.0639 59.9588 96.2075 60.5814C96.3033 60.9406 96.3512 61.2519 96.3033 61.2759C96.1118 61.4914 94.9863 61.6351 94.8426 61.4914Z" fill="white"/>
<path d="M96.9732 60.9851C96.9014 60.9133 96.8295 60.602 96.8295 60.3146C96.8295 59.9075 97.0211 59.7399 97.5958 59.6202C98.0987 59.5244 98.41 59.5723 98.5537 59.7638C98.7931 60.147 98.7931 60.6259 98.5776 60.7456C98.1466 60.9851 97.1408 61.1288 96.9732 60.9851Z" fill="white"/>
<path d="M88.9274 60.2448C88.9274 59.9574 89.1429 59.718 89.4542 59.6461C90.0768 59.4785 90.0528 59.4546 90.1726 60.0772C90.2205 60.4364 90.1007 60.58 89.5979 60.6279C89.071 60.6998 88.9274 60.604 88.9274 60.2448Z" fill="white"/>
<path d="M90.7474 60.268C90.4122 59.9088 90.6277 59.2383 91.0827 59.2383C91.394 59.2383 91.5616 59.4059 91.5616 59.6933C91.5616 60.1482 91.0108 60.5314 90.7474 60.268Z" fill="white"/>
<path d="M92.1842 59.5461C91.9926 59.0911 92.3997 58.7559 93.1899 58.7559C93.5491 58.7559 93.7167 58.8995 93.7167 59.2108C93.7167 59.4742 93.5012 59.7137 93.1899 59.8095C92.3997 60.0011 92.3518 60.0011 92.1842 59.5461Z" fill="white"/>
<path d="M99.1044 59.4777C99.1763 59.358 99.296 59.2383 99.3678 59.2383C99.4397 59.2383 99.4157 59.358 99.3439 59.4777C99.2721 59.6214 99.1523 59.7172 99.0805 59.7172C99.0086 59.7172 99.0326 59.6214 99.1044 59.4777Z" fill="white"/>
<path d="M94.3393 59.0675C94.1477 58.5885 94.3872 58.3491 95.1534 58.2293C95.5845 58.1814 95.776 58.2772 95.8239 58.6125C95.9916 59.4027 94.6266 59.8337 94.3393 59.0675Z" fill="white"/>
<path d="M88.592 58.6624C88.3765 57.8721 88.4244 57.8003 89.047 57.8003C89.3822 57.8003 89.6456 57.8961 89.6456 58.0158C89.6456 58.1355 89.7175 58.3989 89.7893 58.5905C89.8612 58.83 89.7175 58.9737 89.3104 59.0455C88.8554 59.1413 88.6878 59.0455 88.592 58.6624Z" fill="white"/>
<path d="M96.5901 58.3998C96.5901 57.9688 96.7577 57.7772 97.2127 57.6575C97.8832 57.4899 98.2663 57.8251 98.2663 58.5914C98.2663 58.9027 98.0748 58.9985 97.4282 58.9985C96.6859 58.9985 96.5901 58.9266 96.5901 58.3998Z" fill="white"/>
<path d="M87.8741 58.4007C87.8023 58.2091 87.8502 58.0415 87.9699 58.0415C88.1136 58.0415 88.2094 58.2091 88.2094 58.4007C88.2094 58.5923 88.1615 58.7599 88.1136 58.7599C88.0657 58.7599 87.9699 58.5923 87.8741 58.4007Z" fill="white"/>
<path d="M90.2923 58.5931C89.9571 58.2818 90.1486 57.6113 90.5797 57.4916C90.8431 57.4198 91.1065 57.4437 91.1783 57.5156C91.4657 57.779 91.2981 58.4734 90.9389 58.6171C90.4839 58.7847 90.4839 58.7847 90.2923 58.5931Z" fill="white"/>
<path d="M98.8413 58.4201C98.5779 57.7257 98.8652 57.1988 99.5357 57.127C100.039 57.0552 100.182 57.151 100.182 57.5341C100.182 58.3243 99.9189 58.7554 99.4399 58.7554C99.1765 58.7554 98.9131 58.6117 98.8413 58.4201Z" fill="white"/>
<path d="M91.9684 58.1093C91.6811 57.8458 91.7769 57.3669 92.184 57.2232C92.6389 57.0556 93.5968 57.5345 93.3334 57.798C92.9981 58.0853 92.1361 58.3008 91.9684 58.1093Z" fill="white"/>
<path d="M94.0521 57.514C93.8366 57.1787 94.6029 56.604 95.2255 56.604C95.5129 56.604 95.6326 56.7477 95.5847 57.0111C95.4889 57.49 94.2677 57.8732 94.0521 57.514Z" fill="white"/>
<path d="M87.4905 57.3446C87.4905 57.2249 87.4187 56.9614 87.3468 56.7459C87.275 56.5304 87.299 56.3628 87.4426 56.3628C87.7539 56.3628 87.9934 57.2727 87.706 57.4643C87.5863 57.5362 87.4905 57.4883 87.4905 57.3446Z" fill="white"/>
<path d="M88.1374 56.7996C87.9938 56.2728 88.2811 55.8896 88.8319 55.8896C89.1432 55.8896 89.4545 56.8235 89.2629 57.1348C88.9995 57.5419 88.2572 57.3025 88.1374 56.7996Z" fill="white"/>
<path d="M89.8134 56.9183C89.4542 56.5591 89.6697 55.6971 90.1486 55.5773C90.5078 55.4816 90.6994 55.6013 90.8909 56.0323C91.0346 56.3436 91.1065 56.6549 91.0586 56.7028C90.8191 56.9183 89.957 57.0859 89.8134 56.9183Z" fill="white"/>
<path d="M96.2793 56.9189C95.968 56.6076 96.1116 56.416 96.83 56.1526C97.4287 55.961 97.5963 55.985 97.716 56.2723C97.9316 56.847 96.7343 57.3978 96.2793 56.9189Z" fill="white"/>
<path d="M98.3866 56.3668C98.1472 55.9837 98.4824 55.6484 99.105 55.6484C99.8473 55.6484 100.063 56.271 99.3924 56.4626C98.674 56.6542 98.5542 56.6302 98.3866 56.3668Z" fill="white"/>
<path d="M100.422 55.7864C100.422 55.4272 100.853 55.0441 101.044 55.2357C101.212 55.4033 100.876 56.1217 100.637 56.1217C100.517 56.1217 100.422 55.978 100.422 55.7864Z" fill="white"/>
<path d="M87.1794 55.4778C87.0837 55.406 87.0118 55.0947 87.0358 54.8313C87.0358 54.3763 87.0597 54.3763 87.2752 54.9031C87.5147 55.4778 87.4668 55.7652 87.1794 55.4778Z" fill="white"/>
<path d="M87.634 55.1116C87.4185 54.2735 87.4425 54.2017 88.0651 54.2017C88.7595 54.2017 89.1905 55.0877 88.6637 55.4229C88.113 55.7582 87.8017 55.6624 87.634 55.1116Z" fill="white"/>
<path d="M95.8718 55.5925C95.8718 55.5207 95.9916 55.1375 96.1352 54.7065C96.4705 53.7486 97.2128 53.7007 97.3804 54.6346C97.4523 54.9938 97.4762 55.3051 97.4523 55.3291C97.3325 55.4728 95.8718 55.6883 95.8718 55.5925Z" fill="white"/>
<path d="M89.335 54.9987C89.2392 54.9268 89.1674 54.6395 89.1674 54.3761C89.1674 53.9929 89.2392 53.969 89.5266 54.2085C89.7181 54.3761 89.8857 54.6634 89.8857 54.8311C89.8857 55.1903 89.5984 55.286 89.335 54.9987Z" fill="white"/>
<path d="M97.9553 54.5222C97.8116 53.7799 98.1229 53.4446 98.8652 53.5404C99.2244 53.5883 99.3441 53.8038 99.3441 54.3306C99.3441 54.9293 99.2484 55.073 98.7215 55.1209C98.1947 55.1927 98.075 55.073 97.9553 54.5222Z" fill="white"/>
<path d="M100.302 54.6136C99.9904 53.6557 100.086 53.3684 100.733 53.2965C101.307 53.2247 101.379 53.2965 101.379 53.9191C101.379 54.446 101.236 54.6615 100.876 54.7573C100.613 54.8291 100.35 54.7573 100.302 54.6136Z" fill="white"/>
<path d="M86.8201 53.2559C86.8201 52.8009 86.868 52.6094 86.9398 52.8488C86.9877 53.0643 86.9877 53.4475 86.9398 53.6869C86.868 53.9024 86.8201 53.7109 86.8201 53.2559Z" fill="white"/>
<path d="M87.4193 53.5612C87.108 53.2738 87.2516 52.3399 87.6348 52.1962C88.1855 51.9807 88.449 52.2441 88.449 53.0343C88.449 53.5372 88.3292 53.7288 88.0179 53.7288C87.7785 53.7288 87.4911 53.6569 87.4193 53.5612Z" fill="white"/>
<path d="M88.8558 52.9169C88.7601 52.5577 88.7122 52.1746 88.8079 52.1027C89.0474 51.8633 89.1911 52.2464 89.1192 52.9408L89.0474 53.6113L88.8558 52.9169Z" fill="white"/>
<path d="M96.5901 52.7467C96.5901 52.4833 96.7098 52.3397 96.8295 52.4115C96.9732 52.4833 97.069 52.7228 97.069 52.9144C97.069 53.1059 96.9732 53.2496 96.8295 53.2496C96.7098 53.2496 96.5901 53.0341 96.5901 52.7467Z" fill="white"/>
<path d="M97.6679 53.0595C97.3327 52.7003 97.5961 52.0538 98.1468 51.9101C98.8413 51.7425 98.8652 51.7425 99.0807 52.4369C99.2244 52.868 99.1286 52.9638 98.506 53.0595C98.1229 53.1314 97.7398 53.1074 97.6679 53.0595Z" fill="white"/>
<path d="M99.8708 52.6018C99.6074 52.3623 99.6792 51.5721 99.9426 51.5721C100.086 51.5721 100.182 51.4763 100.182 51.3326C100.182 51.2129 100.038 51.0932 99.8468 51.0932C99.4397 51.0932 99.1045 49.9198 99.4397 49.5846C99.8708 49.1535 100.35 49.6085 100.637 50.7819C100.805 51.4045 100.972 52.1229 101.044 52.3623C101.14 52.6736 101.044 52.7694 100.589 52.7694C100.278 52.7694 99.9426 52.6976 99.8708 52.6018Z" fill="white"/>
<path d="M101.164 51.3333C100.997 50.6149 100.566 49.1781 100.254 48.1245C99.7754 46.592 99.7276 46.2088 99.991 46.0412C100.159 45.9215 100.374 45.8257 100.446 45.8257C100.709 45.8257 101.667 50.7347 101.571 51.6925L101.5 52.6503L101.164 51.3333Z" fill="white"/>
<path d="M86.5806 51.2203C86.5806 50.8372 86.6285 50.6935 86.7004 50.933C86.7483 51.1485 86.7483 51.4838 86.7004 51.6514C86.6285 51.7951 86.5806 51.6274 86.5806 51.2203Z" fill="white"/>
<path d="M87.0599 51.1623C87.1557 50.3242 87.8501 50.1326 88.0417 50.8989C88.2093 51.5215 88.2572 51.4497 87.5388 51.6891C87.0359 51.8328 86.988 51.7849 87.0599 51.1623Z" fill="white"/>
<path d="M97.1647 50.9547C96.9731 50.2602 97.3802 49.8531 98.1465 49.9489C98.7212 50.0208 98.9367 51.0505 98.4578 51.3618C97.8591 51.7449 97.3084 51.5773 97.1647 50.9547Z" fill="white"/>
<path d="M88.4485 50.7613C88.4485 50.3542 88.5682 50.1387 88.8316 50.1387C89.0711 50.1387 89.1669 50.3063 89.119 50.6655C88.9992 51.4318 88.4485 51.5036 88.4485 50.7613Z" fill="white"/>
<path d="M86.3175 49.7602C86.3175 49.4968 86.3893 49.425 86.4612 49.6165C86.533 49.7842 86.5091 49.9997 86.4372 50.0715C86.3654 50.1673 86.2936 50.0236 86.3175 49.7602Z" fill="white"/>
<path d="M86.7725 49.6865C86.7725 49.3273 86.9162 49.1836 87.2754 49.1836C87.6106 49.1836 87.7304 49.3033 87.6825 49.5907C87.5627 50.2133 86.7725 50.2851 86.7725 49.6865Z" fill="white"/>
<path d="M88.0895 49.4674C87.9218 49.0363 87.9218 49.0363 88.6402 48.8448C89.0713 48.7011 89.167 48.7729 89.167 49.1321C89.167 49.7068 88.305 49.9942 88.0895 49.4674Z" fill="white"/>
<path d="M96.7579 49.1287C96.5903 48.5301 96.9016 48.2188 97.7397 48.2188C98.1468 48.2188 98.2665 48.3624 98.2665 48.8174C98.2665 49.1766 98.1229 49.4161 97.9313 49.4161C97.7397 49.4161 97.4284 49.4879 97.2368 49.5597C97.0213 49.6316 96.8537 49.4879 96.7579 49.1287Z" fill="white"/>
<path d="M98.8414 48.5744C98.6498 48.0955 98.9372 47.7363 99.4879 47.7363C99.8232 47.7363 99.9429 47.904 99.9429 48.335C99.9429 48.766 99.8232 48.9336 99.464 48.9336C99.2006 48.9336 98.9132 48.766 98.8414 48.5744Z" fill="white"/>
<path d="M86.5331 48.2461C86.5331 47.7432 87.0839 47.1685 87.3234 47.4319C87.4192 47.5037 87.491 47.839 87.491 48.1503C87.491 48.5334 87.3473 48.701 87.0121 48.701C86.7008 48.701 86.5331 48.5334 86.5331 48.2461Z" fill="white"/>
<path d="M87.85 47.9566C87.6585 47.3579 87.874 47.0945 88.6881 46.9748C89.4305 46.879 89.6699 47.6692 89.0234 48.1481C88.4008 48.6031 88.0177 48.5313 87.85 47.9566Z" fill="white"/>
<path d="M96.5189 47.8143C96.3513 47.6707 96.2794 46.7846 96.4231 46.7846C96.4471 46.7846 96.8062 46.6889 97.2373 46.5691C97.9557 46.3536 98.0036 46.3776 97.9796 47.0241C97.9557 47.503 97.812 47.7425 97.4528 47.8383C96.8062 48.0059 96.7105 48.0059 96.5189 47.8143Z" fill="white"/>
<path d="M95.6324 47.2642C95.6324 47.0966 95.7043 47.0247 95.8001 47.0966C95.8719 47.1924 95.8719 47.336 95.8001 47.4318C95.7043 47.5037 95.6324 47.4318 95.6324 47.2642Z" fill="white"/>
<path d="M98.3142 46.8808C98.3861 46.4737 99.1284 45.875 99.296 46.0666C99.3679 46.1384 99.4876 46.4258 99.5594 46.7371C99.727 47.216 99.6552 47.2639 98.9847 47.2639C98.41 47.2639 98.2424 47.1681 98.3142 46.8808Z" fill="white"/>
<path d="M86.7725 46.8618C86.7725 46.7421 86.8923 46.5026 87.012 46.3111C87.2036 46.0237 87.2514 46.0477 87.2514 46.5026C87.2514 46.79 87.1557 47.0294 87.012 47.0294C86.8923 47.0294 86.7725 46.9576 86.7725 46.8618Z" fill="white"/>
<path d="M87.4908 46.3277C87.4908 45.6572 87.9937 45.4417 88.3769 45.9445C88.6163 46.3037 88.6163 46.4234 88.3769 46.5911C87.874 46.9024 87.4908 46.8066 87.4908 46.3277Z" fill="white"/>
<path d="M94.7703 46.0208C94.3393 45.5419 94.3393 45.518 94.7464 45.6616C94.9858 45.7574 95.2971 45.8293 95.4168 45.8293C95.5366 45.8293 95.6324 45.9969 95.6324 46.1884C95.6324 46.6913 95.2971 46.6434 94.7703 46.0208Z" fill="white"/>
<path d="M89.6218 45.9949C88.5922 45.2046 88.4485 43.4326 89.4063 43.4326C90.0529 43.4326 90.6515 44.4384 90.5557 45.3723C90.4839 46.2343 90.1966 46.4259 89.6218 45.9949Z" fill="white"/>
<path d="M96.1831 46.1393C96.2789 46.0675 96.4225 46.0675 96.5183 46.1393C96.5902 46.2351 96.5183 46.307 96.3507 46.307C96.1831 46.307 96.1112 46.2351 96.1831 46.1393Z" fill="white"/>
<path d="M99.7988 45.2041C99.8706 44.9886 99.9425 44.7731 99.9425 44.7252C99.9425 44.6773 100.062 44.6294 100.182 44.6294C100.326 44.6294 100.421 44.8449 100.421 45.1083C100.421 45.3957 100.254 45.5872 100.038 45.5872C99.7749 45.5872 99.703 45.4675 99.7988 45.2041Z" fill="white"/>
<path d="M87.2514 45.1345C87.2514 44.5838 87.7543 43.6738 88.0416 43.6738C88.5445 43.6738 88.1853 45.2064 87.6585 45.3022C87.443 45.3501 87.2514 45.2782 87.2514 45.1345Z" fill="white"/>
<path d="M92.6394 44.8722L91.921 44.7046L92.5676 44.537C93.2381 44.3454 93.717 44.4891 93.717 44.8962C93.717 45.1356 93.693 45.1356 92.6394 44.8722Z" fill="white"/>
<path d="M91.801 43.7168C91.801 42.735 92.3518 42.5913 92.8547 43.4534C93.1899 44.0281 93.2138 44.1478 92.9025 44.1478C92.711 44.1478 92.3997 44.2197 92.1842 44.2915C91.8968 44.4112 91.801 44.2676 91.801 43.7168Z" fill="white"/>
<path d="M95.9679 44.0548C94.8903 43.5759 94.1959 42.3068 94.1959 40.7981C94.1959 39.7206 94.2916 39.4572 94.9382 38.8585C95.3453 38.4754 95.7524 38.1641 95.8721 38.1641C96.3989 38.1641 98.3386 40.0079 98.9851 41.1573L99.7274 42.4744L98.9372 43.3125C98.0273 44.2703 97.0215 44.5337 95.9679 44.0548Z" fill="white"/>
<path d="M90.9629 43.4309C90.8911 43.3111 90.9389 43.1914 91.0587 43.1914C91.2024 43.1914 91.3221 43.3111 91.3221 43.4309C91.3221 43.5745 91.2742 43.6703 91.2263 43.6703C91.1545 43.6703 91.0347 43.5745 90.9629 43.4309Z" fill="white"/>
<path d="M87.8258 43.043C87.8976 42.8275 87.9695 42.6119 87.9695 42.564C87.9695 42.5162 88.185 42.4683 88.4484 42.4683C89.047 42.4683 89.071 42.8514 88.4723 43.1866C87.8258 43.5219 87.6582 43.4979 87.8258 43.043Z" fill="white"/>
<path d="M89.7181 42.7599C89.1674 42.6881 88.9997 42.3768 89.3589 42.1613C89.4547 42.0894 89.8858 41.9697 90.3168 41.8739C90.9633 41.7302 91.0831 41.7781 91.0831 42.1852C91.0831 42.6881 90.5802 42.9036 89.7181 42.7599Z" fill="white"/>
<path d="M91.5616 41.9465C91.5616 41.6591 91.5856 41.4915 91.6335 41.5394C91.6574 41.5873 91.849 41.8267 92.0166 42.0662C92.304 42.4014 92.28 42.4733 91.9448 42.4733C91.7053 42.4733 91.5616 42.2817 91.5616 41.9465Z" fill="white"/>
<path d="M88.2091 41.7805C88.2091 41.6368 88.3288 41.4692 88.4486 41.3974C88.5922 41.3255 88.688 41.4213 88.688 41.6129C88.688 41.8284 88.5922 41.996 88.4486 41.996C88.3288 41.996 88.2091 41.9003 88.2091 41.7805Z" fill="white"/>
<path d="M89.0948 41.4211C88.9033 40.9422 90.6035 40.4154 90.8908 40.8704C91.1063 41.2535 90.8908 41.4211 89.9809 41.6127C89.4301 41.7324 89.1906 41.6845 89.0948 41.4211Z" fill="white"/>
<path d="M91.346 40.6606C91.346 40.3972 91.4178 40.3254 91.4897 40.5169C91.5615 40.6845 91.5376 40.9001 91.4657 40.9719C91.3939 41.0677 91.3221 40.924 91.346 40.6606Z" fill="white"/>
<path d="M89.3105 40.2673C89.5978 39.7405 90.436 38.8784 90.6515 38.8784C90.8909 38.8784 90.9149 40.0039 90.6754 40.1476C90.5557 40.1955 90.1725 40.3152 89.8133 40.411C89.2865 40.5307 89.1668 40.5068 89.3105 40.2673Z" fill="white"/>
<path d="M91.2262 39.7194C90.9628 39.001 91.0826 38.6897 91.6573 38.5939C92.2559 38.4742 92.2559 38.4742 91.8728 39.2165C91.3939 40.1744 91.4178 40.1744 91.2262 39.7194Z" fill="white"/>
<path d="M91.0828 38.2769C91.0828 38.229 91.5617 37.8938 92.1603 37.5586C92.8787 37.1275 93.3816 36.9838 93.7408 37.0796C94.1718 37.2233 94.0521 37.3191 92.9985 37.822C91.8251 38.3488 91.0828 38.5403 91.0828 38.2769Z" fill="white"/>
<path d="M104.373 17.0677C103.726 16.1338 102.361 14.6252 101.379 13.7153C100.398 12.8053 99.7511 12.063 99.9426 12.063C100.469 12.063 104.492 13.1645 105.498 13.5955C106.336 13.9547 106.36 14.0026 106.145 14.745C106.025 15.176 105.929 16.2536 105.929 17.1396C105.929 18.0495 105.857 18.7679 105.762 18.7679C105.642 18.7679 105.043 18.0016 104.373 17.0677Z" fill="white"/>
<path d="M55.6423 89.5979C54.6605 89.095 54.445 88.8077 53.1998 86.3412C51.4038 82.8451 51.3559 82.0309 53.0561 84.0184C53.7266 84.8087 55.2831 86.437 56.5044 87.6343C58.5877 89.6458 58.6835 89.7895 57.989 89.6937C57.4862 89.6218 57.2946 89.6697 57.4143 89.8613C57.7017 90.2923 56.7917 90.1726 55.6423 89.5979Z" fill="white"/>
<path fill-rule="evenodd" clip-rule="evenodd" d="M95.774 133.231C95.5752 132.759 95.7968 132.215 96.2688 132.016L96.7847 131.798C101.801 129.651 104.68 128.362 106.636 126.315C108.592 124.268 108.827 121.261 109.194 119.431C109.295 118.929 110.432 119.811 110.934 119.912C111.436 120.013 111.761 120.501 111.661 121.004C111.219 123.203 110.029 125.301 108.113 127.292C106.204 129.276 102.507 131.403 96.9885 133.726C96.5164 133.925 95.9727 133.703 95.774 133.231Z" fill="#040F0B"/>
<path fill-rule="evenodd" clip-rule="evenodd" d="M118.457 37.6844C118.897 37.4224 119.466 37.5668 119.728 38.0069C122.351 42.4133 123.757 47.4505 123.757 52.6912C123.757 68.5683 110.886 81.4392 95.0086 81.4392C90.7897 81.4392 86.6978 80.5292 82.9507 78.7956C82.4859 78.5805 80.73 76.8681 82.4984 77.5646C84.2669 78.261 91.1093 79.8242 95.0579 79.8242C109.911 79.8242 120.418 67.544 120.418 52.6912C120.418 47.7868 118.457 43.4335 118.135 38.9556C118.097 38.4365 118.017 37.9463 118.457 37.6844Z" fill="#040F0B"/>
<path fill-rule="evenodd" clip-rule="evenodd" d="M26.6136 107.873C26.9414 107.479 27.5262 106.684 27.9197 107.012C29.5341 108.357 31.2568 109.915 33.0997 110.215C35.0173 110.528 37.2922 110.528 39.9216 110.21C40.43 110.148 40.8921 110.511 40.9537 111.019C41.0152 111.528 40.6529 111.99 40.1445 112.051C37.3523 112.389 34.9054 112.389 32.801 112.046C30.6217 111.69 28.595 110.73 26.7327 109.179C26.3391 108.851 26.2858 108.266 26.6136 107.873Z" fill="#040F0B"/>
<path d="M46.3036 75.4344C45.1062 74.4766 42.544 71.6509 40.6044 69.1605C39.5986 67.8435 38.4732 65.1615 37.8027 62.4556C37.4914 61.2343 37.1801 60.1328 37.1082 59.9891C37.0124 59.8694 36.6293 58.1692 36.2462 56.2056C35.6714 53.4279 35.793 52.533 35.2883 49.2104C35.0746 47.8036 34.8812 46.6842 34.8812 46.6842L35.5038 45.8848C35.863 45.4059 36.3174 44.6134 36.4856 44.1607C37.2519 42.0989 42.8792 35.6359 43.0469 35.8035C43.0948 35.8514 42.9032 36.9769 42.5679 38.2939C42.2566 39.6109 41.8735 41.5985 41.7059 42.7239C41.4664 44.5917 41.3706 44.8073 40.6283 45.4299C39.6944 46.2201 37.9224 48.7584 37.9224 49.2852C37.9224 50.0036 39 49.5247 40.1254 48.3513L41.2749 47.154V48.471C41.2749 49.3331 41.1072 50.1233 40.7959 50.7459C40.1973 51.9193 40.1973 53.1645 40.772 54.1223C41.0593 54.6012 41.3227 55.7507 41.4904 57.1156C42.2327 63.2937 43.8132 68.6576 46.5191 74.0455C47.1896 75.3865 47.7164 76.4881 47.6924 76.4881C47.6445 76.4881 47.0219 76.0091 46.3036 75.4344Z" fill="white"/>
</svg>
