<svg width="20" height="20" viewBox="0 0 20 20" fill="none" xmlns="http://www.w3.org/2000/svg">
<path d="M6.81963 14.9998L7.15297 15.5713C8.65297 18.1427 11.653 18.1427 13.153 15.5713L13.4863 14.9998M3.63866 12.9578L3.72478 13.1354C4.27792 14.2757 5.43395 14.9998 6.70136 14.9998H13.552C14.6381 14.9998 15.6489 14.445 16.2321 13.5287C17.0552 12.2353 16.8372 10.5386 15.7138 9.49528L15.6773 9.46131C14.9145 8.75297 14.539 7.72103 14.6681 6.68816L14.722 6.25738C15.0267 3.81966 13.1259 1.6665 10.6692 1.6665H9.25012C6.79643 1.6665 4.89797 3.81704 5.20232 6.25178L5.26845 6.78082C5.39023 7.75509 5.03435 8.72825 4.31278 9.39411C3.32718 10.3036 3.05335 11.7512 3.63866 12.9578Z" stroke="#51A966" stroke-width="1.5" stroke-linecap="round"/>
</svg>
