<svg width="20" height="20" viewBox="0 0 20 20" fill="none" xmlns="http://www.w3.org/2000/svg">
<path d="M12.5832 7.49984C12.5832 8.92657 11.4266 10.0832 9.99984 10.0832V11.5832C12.255 11.5832 14.0832 9.755 14.0832 7.49984H12.5832ZM9.99984 10.0832C8.5731 10.0832 7.4165 8.92657 7.4165 7.49984H5.9165C5.9165 9.755 7.74467 11.5832 9.99984 11.5832V10.0832ZM7.4165 7.49984C7.4165 6.0731 8.5731 4.9165 9.99984 4.9165V3.4165C7.74467 3.4165 5.9165 5.24467 5.9165 7.49984H7.4165ZM9.99984 4.9165C11.4266 4.9165 12.5832 6.0731 12.5832 7.49984H14.0832C14.0832 5.24467 12.255 3.4165 9.99984 3.4165V4.9165ZM7.49984 14.0832H12.4998V12.5832H7.49984V14.0832ZM2.4165 9.99984C2.4165 5.81168 5.81168 2.4165 9.99984 2.4165V0.916504C4.98325 0.916504 0.916504 4.98325 0.916504 9.99984H2.4165ZM9.99984 2.4165C14.188 2.4165 17.5832 5.81168 17.5832 9.99984H19.0832C19.0832 4.98325 15.0164 0.916504 9.99984 0.916504V2.4165ZM17.5832 9.99984C17.5832 12.1505 16.6889 14.091 15.2499 15.472L16.2885 16.5542C18.01 14.9021 19.0832 12.5757 19.0832 9.99984H17.5832ZM15.2499 15.472C13.8866 16.7803 12.0378 17.5832 9.99984 17.5832V19.0832C12.4402 19.0832 14.6571 18.1198 16.2885 16.5542L15.2499 15.472ZM12.4998 14.0832C13.7524 14.0832 14.7983 14.9754 15.0335 16.1593L16.5048 15.8669C16.1327 13.9946 14.4819 12.5832 12.4998 12.5832V14.0832ZM9.99984 17.5832C7.96191 17.5832 6.11308 16.7803 4.74982 15.472L3.71121 16.5542C5.34257 18.1198 7.55949 19.0832 9.99984 19.0832V17.5832ZM4.74982 15.472C3.31079 14.091 2.4165 12.1505 2.4165 9.99984H0.916504C0.916504 12.5757 1.98965 14.9021 3.71121 16.5542L4.74982 15.472ZM7.49984 12.5832C5.51775 12.5832 3.867 13.9946 3.4949 15.8669L4.96613 16.1593C5.20142 14.9754 6.24727 14.0832 7.49984 14.0832V12.5832Z" fill="#51A966"/>
</svg>
