<svg width="50" height="50" viewBox="0 0 50 50" fill="none" xmlns="http://www.w3.org/2000/svg">
<rect x="5" y="5" width="40" height="40" rx="20" fill="#51A966"/>
<rect x="2.5" y="2.5" width="45" height="45" rx="22.5" stroke="#51A966" stroke-opacity="0.25" stroke-width="5"/>
<path d="M28.25 19C28.25 20.7949 26.7949 22.25 25 22.25V23.75C27.6234 23.75 29.75 21.6234 29.75 19H28.25ZM25 22.25C23.2051 22.25 21.75 20.7949 21.75 19H20.25C20.25 21.6234 22.3766 23.75 25 23.75V22.25ZM21.75 19C21.75 17.2051 23.2051 15.75 25 15.75V14.25C22.3766 14.25 20.25 16.3766 20.25 19H21.75ZM25 15.75C26.7949 15.75 28.25 17.2051 28.25 19H29.75C29.75 16.3766 27.6234 14.25 25 14.25V15.75ZM22 26.75H28V25.25H22V26.75ZM28 33.25H22V34.75H28V33.25ZM22 33.25C20.2051 33.25 18.75 31.7949 18.75 30H17.25C17.25 32.6234 19.3766 34.75 22 34.75V33.25ZM31.25 30C31.25 31.7949 29.7949 33.25 28 33.25V34.75C30.6234 34.75 32.75 32.6234 32.75 30H31.25ZM28 26.75C29.7949 26.75 31.25 28.2051 31.25 30H32.75C32.75 27.3766 30.6234 25.25 28 25.25V26.75ZM22 25.25C19.3766 25.25 17.25 27.3766 17.25 30H18.75C18.75 28.2051 20.2051 26.75 22 26.75V25.25Z" fill="white"/>
</svg>
