<svg width="15" height="26" viewBox="0 0 15 26" fill="none" xmlns="http://www.w3.org/2000/svg">
<path d="M6.90689 17.3762H6.12245C6.09694 16.0156 6.16071 14.9981 6.31378 14.3239C6.47959 13.6497 6.89413 12.7242 7.5574 11.5474C8.23342 10.3583 8.67347 9.4083 8.87755 8.69731C9.09439 7.97407 9.20281 7.08534 9.20281 6.03112C9.20281 4.40075 8.87117 3.19943 8.20791 2.42716C7.54464 1.65488 6.7602 1.26874 5.85459 1.26874C5.16582 1.26874 4.58546 1.44649 4.11352 1.80198C3.75638 2.07166 3.57781 2.35361 3.57781 2.64781C3.57781 2.84394 3.69898 3.1504 3.94133 3.56719C4.4898 4.51108 4.76403 5.314 4.76403 5.97595C4.76403 6.57661 4.54719 7.07921 4.11352 7.48373C3.6926 7.88826 3.16327 8.09052 2.52551 8.09052C1.81122 8.09052 1.21173 7.85149 0.727041 7.37341C0.242347 6.88307 0 6.23951 0 5.44272C0 3.99623 0.65051 2.72749 1.95153 1.63649C3.25255 0.545497 5.07015 0 7.40434 0C9.87883 0 11.7602 0.570014 13.0485 1.71004C14.3495 2.83781 15 4.20462 15 5.81047C15 6.97501 14.6684 8.05375 14.0051 9.04668C13.3418 10.0273 12.0599 11.1183 10.1594 12.3197C8.88393 13.1287 8.04209 13.852 7.63393 14.4894C7.23852 15.1146 6.99617 16.0769 6.90689 17.3762ZM6.69643 20.0608C7.55102 20.0608 8.27806 20.3489 8.87755 20.925C9.47704 21.5012 9.77679 22.1999 9.77679 23.0212C9.77679 23.8425 9.47704 24.5474 8.87755 25.1358C8.27806 25.7119 7.55102 26 6.69643 26C5.84184 26 5.1148 25.7119 4.51531 25.1358C3.91582 24.5474 3.61607 23.8425 3.61607 23.0212C3.61607 22.1999 3.91582 21.5012 4.51531 20.925C5.1148 20.3489 5.84184 20.0608 6.69643 20.0608Z" fill="#18593F"/>
</svg>
