<svg width="20" height="22" viewBox="0 0 20 22" fill="none" xmlns="http://www.w3.org/2000/svg">
<path d="M3.31107 20.0451L3.75191 19.4383L3.31107 20.0451ZM2.20491 18.9389L2.81168 18.4981L2.20491 18.9389ZM18.2951 18.9389L17.6883 18.4981L18.2951 18.9389ZM17.1889 20.0451L16.7481 19.4383L17.1889 20.0451ZM17.1889 1.95491L16.7481 2.56168L17.1889 1.95491ZM18.2951 3.06107L17.6883 3.50191L18.2951 3.06107ZM3.31107 1.95491L3.75191 2.56168L3.31107 1.95491ZM2.20491 3.06107L2.81168 3.50191L2.20491 3.06107ZM6.25 14.25C5.83579 14.25 5.5 14.5858 5.5 15C5.5 15.4142 5.83579 15.75 6.25 15.75V14.25ZM14.25 15.75C14.6642 15.75 15 15.4142 15 15C15 14.5858 14.6642 14.25 14.25 14.25V15.75ZM6.25 10.25C5.83579 10.25 5.5 10.5858 5.5 11C5.5 11.4142 5.83579 11.75 6.25 11.75V10.25ZM14.25 11.75C14.6642 11.75 15 11.4142 15 11C15 10.5858 14.6642 10.25 14.25 10.25V11.75ZM6.25 6.25C5.83579 6.25 5.5 6.58579 5.5 7C5.5 7.41421 5.83579 7.75 6.25 7.75V6.25ZM9.25 7.75C9.66421 7.75 10 7.41421 10 7C10 6.58579 9.66421 6.25 9.25 6.25V7.75ZM18.5 10V12H20V10H18.5ZM2 12V10H0.5V12H2ZM10.25 20.25C8.35843 20.25 6.99999 20.249 5.94804 20.135C4.91013 20.0225 4.25992 19.8074 3.75191 19.4383L2.87023 20.6518C3.67656 21.2377 4.62094 21.5 5.78648 21.6263C6.93798 21.751 8.39184 21.75 10.25 21.75V20.25ZM0.5 12C0.5 13.8582 0.498971 15.312 0.623728 16.4635C0.750006 17.6291 1.01232 18.5734 1.59815 19.3798L2.81168 18.4981C2.44259 17.9901 2.22745 17.3399 2.115 16.302C2.00103 15.25 2 13.8916 2 12H0.5ZM3.75191 19.4383C3.39111 19.1762 3.07382 18.8589 2.81168 18.4981L1.59815 19.3798C1.95281 19.8679 2.38209 20.2972 2.87023 20.6518L3.75191 19.4383ZM18.5 12C18.5 13.8916 18.499 15.25 18.385 16.302C18.2725 17.3399 18.0574 17.9901 17.6883 18.4981L18.9018 19.3798C19.4877 18.5734 19.75 17.6291 19.8763 16.4635C20.001 15.312 20 13.8582 20 12H18.5ZM10.25 21.75C12.1082 21.75 13.562 21.751 14.7135 21.6263C15.8791 21.5 16.8234 21.2377 17.6298 20.6518L16.7481 19.4383C16.2401 19.8074 15.5899 20.0225 14.552 20.135C13.5 20.249 12.1416 20.25 10.25 20.25V21.75ZM17.6883 18.4981C17.4262 18.8589 17.1089 19.1762 16.7481 19.4383L17.6298 20.6518C18.1179 20.2972 18.5472 19.8679 18.9018 19.3798L17.6883 18.4981ZM10.25 1.75C12.1416 1.75 13.5 1.75103 14.552 1.865C15.5899 1.97745 16.2401 2.19259 16.7481 2.56168L17.6298 1.34815C16.8234 0.762324 15.8791 0.500006 14.7135 0.373728C13.562 0.248971 12.1082 0.25 10.25 0.25V1.75ZM20 10C20 8.14184 20.001 6.68798 19.8763 5.53648C19.75 4.37094 19.4877 3.42656 18.9018 2.62023L17.6883 3.50191C18.0574 4.00992 18.2725 4.66013 18.385 5.69804C18.499 6.74999 18.5 8.10843 18.5 10H20ZM16.7481 2.56168C17.1089 2.82382 17.4262 3.14111 17.6883 3.50191L18.9018 2.62023C18.5472 2.13209 18.1179 1.70281 17.6298 1.34815L16.7481 2.56168ZM10.25 0.25C8.39184 0.25 6.93798 0.248971 5.78648 0.373728C4.62094 0.500006 3.67656 0.762324 2.87023 1.34815L3.75191 2.56168C4.25992 2.19259 4.91013 1.97745 5.94804 1.865C6.99999 1.75103 8.35843 1.75 10.25 1.75V0.25ZM2 10C2 8.10843 2.00103 6.74999 2.115 5.69804C2.22745 4.66013 2.44259 4.00992 2.81168 3.50191L1.59815 2.62023C1.01232 3.42656 0.750006 4.37094 0.623728 5.53648C0.498971 6.68798 0.5 8.14184 0.5 10H2ZM2.87023 1.34815C2.38209 1.70281 1.95281 2.13209 1.59815 2.62023L2.81168 3.50191C3.07382 3.14111 3.39111 2.82382 3.75191 2.56168L2.87023 1.34815ZM6.25 15.75H14.25V14.25H6.25V15.75ZM6.25 11.75H14.25V10.25H6.25V11.75ZM6.25 7.75H9.25V6.25H6.25V7.75Z" fill="#ADA4A5"/>
</svg>
