<svg width="25" height="24" viewBox="0 0 25 24" fill="none" xmlns="http://www.w3.org/2000/svg">
<path d="M5.31107 21.0451L5.75191 20.4383L5.31107 21.0451ZM4.20491 19.9389L4.81168 19.4981L4.20491 19.9389ZM20.2951 19.9389L19.6883 19.4981L20.2951 19.9389ZM19.1889 21.0451L18.7481 20.4383L19.1889 21.0451ZM19.1889 2.95491L18.7481 3.56168L19.1889 2.95491ZM20.2951 4.06107L19.6883 4.50191L20.2951 4.06107ZM5.31107 2.95491L5.75191 3.56168L5.31107 2.95491ZM4.20491 4.06107L4.81168 4.50191L4.20491 4.06107ZM8.25 15.25C7.83579 15.25 7.5 15.5858 7.5 16C7.5 16.4142 7.83579 16.75 8.25 16.75V15.25ZM16.25 16.75C16.6642 16.75 17 16.4142 17 16C17 15.5858 16.6642 15.25 16.25 15.25V16.75ZM8.25 11.25C7.83579 11.25 7.5 11.5858 7.5 12C7.5 12.4142 7.83579 12.75 8.25 12.75V11.25ZM16.25 12.75C16.6642 12.75 17 12.4142 17 12C17 11.5858 16.6642 11.25 16.25 11.25V12.75ZM8.25 7.25C7.83579 7.25 7.5 7.58579 7.5 8C7.5 8.41421 7.83579 8.75 8.25 8.75V7.25ZM11.25 8.75C11.6642 8.75 12 8.41421 12 8C12 7.58579 11.6642 7.25 11.25 7.25V8.75ZM20.5 11V13H22V11H20.5ZM4 13V11H2.5V13H4ZM12.25 21.25C10.3584 21.25 8.99999 21.249 7.94804 21.135C6.91013 21.0225 6.25992 20.8074 5.75191 20.4383L4.87023 21.6518C5.67656 22.2377 6.62094 22.5 7.78648 22.6263C8.93798 22.751 10.3918 22.75 12.25 22.75V21.25ZM2.5 13C2.5 14.8582 2.49897 16.312 2.62373 17.4635C2.75001 18.6291 3.01232 19.5734 3.59815 20.3798L4.81168 19.4981C4.44259 18.9901 4.22745 18.3399 4.115 17.302C4.00103 16.25 4 14.8916 4 13H2.5ZM5.75191 20.4383C5.39111 20.1762 5.07382 19.8589 4.81168 19.4981L3.59815 20.3798C3.95281 20.8679 4.38209 21.2972 4.87023 21.6518L5.75191 20.4383ZM20.5 13C20.5 14.8916 20.499 16.25 20.385 17.302C20.2725 18.3399 20.0574 18.9901 19.6883 19.4981L20.9018 20.3798C21.4877 19.5734 21.75 18.6291 21.8763 17.4635C22.001 16.312 22 14.8582 22 13H20.5ZM12.25 22.75C14.1082 22.75 15.562 22.751 16.7135 22.6263C17.8791 22.5 18.8234 22.2377 19.6298 21.6518L18.7481 20.4383C18.2401 20.8074 17.5899 21.0225 16.552 21.135C15.5 21.249 14.1416 21.25 12.25 21.25V22.75ZM19.6883 19.4981C19.4262 19.8589 19.1089 20.1762 18.7481 20.4383L19.6298 21.6518C20.1179 21.2972 20.5472 20.8679 20.9018 20.3798L19.6883 19.4981ZM12.25 2.75C14.1416 2.75 15.5 2.75103 16.552 2.865C17.5899 2.97745 18.2401 3.19259 18.7481 3.56168L19.6298 2.34815C18.8234 1.76232 17.8791 1.50001 16.7135 1.37373C15.562 1.24897 14.1082 1.25 12.25 1.25V2.75ZM22 11C22 9.14184 22.001 7.68798 21.8763 6.53648C21.75 5.37094 21.4877 4.42656 20.9018 3.62023L19.6883 4.50191C20.0574 5.00992 20.2725 5.66013 20.385 6.69804C20.499 7.74999 20.5 9.10843 20.5 11H22ZM18.7481 3.56168C19.1089 3.82382 19.4262 4.14111 19.6883 4.50191L20.9018 3.62023C20.5472 3.13209 20.1179 2.70281 19.6298 2.34815L18.7481 3.56168ZM12.25 1.25C10.3918 1.25 8.93798 1.24897 7.78648 1.37373C6.62094 1.50001 5.67656 1.76232 4.87023 2.34815L5.75191 3.56168C6.25992 3.19259 6.91013 2.97745 7.94804 2.865C8.99999 2.75103 10.3584 2.75 12.25 2.75V1.25ZM4 11C4 9.10843 4.00103 7.74999 4.115 6.69804C4.22745 5.66013 4.44259 5.00992 4.81168 4.50191L3.59815 3.62023C3.01232 4.42656 2.75001 5.37094 2.62373 6.53648C2.49897 7.68798 2.5 9.14184 2.5 11H4ZM4.87023 2.34815C4.38209 2.70281 3.95281 3.13209 3.59815 3.62023L4.81168 4.50191C5.07382 4.14111 5.39111 3.82382 5.75191 3.56168L4.87023 2.34815ZM8.25 16.75H16.25V15.25H8.25V16.75ZM8.25 12.75H16.25V11.25H8.25V12.75ZM8.25 8.75H11.25V7.25H8.25V8.75Z" fill="#51A966"/>
</svg>
