<svg width="22" height="23" viewBox="0 0 22 23" fill="none" xmlns="http://www.w3.org/2000/svg">
<path d="M7.38238 2.99364L6.8841 2.43308V2.43308L7.38238 2.99364ZM14.1176 2.99364L14.6159 2.43308L14.1176 2.99364ZM13.9019 2.80185L13.4036 3.36241L13.9019 2.80185ZM7.59813 2.80185L8.0964 3.36241V3.36241L7.59813 2.80185ZM2.81107 21.0453L3.25191 20.4385L2.81107 21.0453ZM1.70491 19.9391L2.31168 19.4983L1.70491 19.9391ZM19.7951 19.9391L19.1883 19.4983L19.7951 19.9391ZM18.6889 21.0453L18.2481 20.4385L18.6889 21.0453ZM20 7.98512V13.0002H21.5V7.98512H20ZM11.75 21.2502H9.75V22.7502H11.75V21.2502ZM1.5 13.0002V7.98513H0V13.0002H1.5ZM13.4036 3.36241L13.6194 3.55419L14.6159 2.43308L14.4001 2.2413L13.4036 3.36241ZM7.88065 3.55419L8.0964 3.36241L7.09986 2.2413L6.8841 2.43308L7.88065 3.55419ZM4.73493 4.75019C5.89458 4.75019 7.01391 4.32462 7.88065 3.55419L6.8841 2.43308C6.29195 2.95944 5.52721 3.25019 4.73493 3.25019V4.75019ZM13.6194 3.55419C14.4861 4.32462 15.6054 4.75019 16.7651 4.75019V3.25019C15.9728 3.25019 15.2081 2.95944 14.6159 2.43308L13.6194 3.55419ZM14.4001 2.2413C12.3185 0.390922 9.18153 0.390922 7.09986 2.2413L8.0964 3.36241C9.60975 2.01722 11.8903 2.01722 13.4036 3.36241L14.4001 2.2413ZM9.75 21.2502C7.85843 21.2502 6.49999 21.2492 5.44804 21.1352C4.41013 21.0227 3.75992 20.8076 3.25191 20.4385L2.37023 21.652C3.17656 22.2379 4.12094 22.5002 5.28648 22.6265C6.43798 22.7512 7.89184 22.7502 9.75 22.7502V21.2502ZM0 13.0002C0 14.8584 -0.00102943 16.3122 0.123728 17.4637C0.250006 18.6293 0.512324 19.5736 1.09815 20.38L2.31168 19.4983C1.94259 18.9903 1.72745 18.3401 1.615 17.3021C1.50103 16.2502 1.5 14.8918 1.5 13.0002H0ZM3.25191 20.4385C2.89111 20.1764 2.57382 19.8591 2.31168 19.4983L1.09815 20.38C1.45281 20.8681 1.88209 21.2974 2.37023 21.652L3.25191 20.4385ZM20 13.0002C20 14.8918 19.999 16.2502 19.885 17.3021C19.7725 18.3401 19.5574 18.9903 19.1883 19.4983L20.4018 20.38C20.9877 19.5736 21.25 18.6293 21.3763 17.4637C21.501 16.3122 21.5 14.8584 21.5 13.0002H20ZM11.75 22.7502C13.6082 22.7502 15.062 22.7512 16.2135 22.6265C17.3791 22.5002 18.3234 22.2379 19.1298 21.652L18.2481 20.4385C17.7401 20.8076 17.0899 21.0227 16.052 21.1352C15 21.2492 13.6416 21.2502 11.75 21.2502V22.7502ZM19.1883 19.4983C18.9262 19.8591 18.6089 20.1764 18.2481 20.4385L19.1298 21.652C19.6179 21.2974 20.0472 20.8681 20.4018 20.38L19.1883 19.4983ZM21.5 7.98512C21.5 5.37009 19.3801 3.25019 16.7651 3.25019V4.75019C18.5517 4.75019 20 6.19852 20 7.98512H21.5ZM1.5 7.98513C1.5 6.19852 2.94833 4.75019 4.73493 4.75019V3.25019C2.1199 3.25019 0 5.37009 0 7.98513H1.5ZM6 13.0002C6 15.6235 8.12665 17.7502 10.75 17.7502V16.2502C8.95507 16.2502 7.5 14.7951 7.5 13.0002H6ZM10.75 17.7502C13.3734 17.7502 15.5 15.6235 15.5 13.0002H14C14 14.7951 12.5449 16.2502 10.75 16.2502V17.7502ZM15.5 13.0002C15.5 10.3768 13.3734 8.25019 10.75 8.25019V9.75019C12.5449 9.75019 14 11.2053 14 13.0002H15.5ZM10.75 8.25019C8.12665 8.25019 6 10.3768 6 13.0002H7.5C7.5 11.2053 8.95507 9.75019 10.75 9.75019V8.25019Z" fill="#ADA4A5"/>
</svg>
