<svg width="20" height="20" viewBox="0 0 20 20" fill="none" xmlns="http://www.w3.org/2000/svg">
<g clip-path="url(#clip0_367_10429)">
<path d="M16.3638 14.4699C16.0709 14.177 15.596 14.177 15.3031 14.4699C15.0102 14.7628 15.0102 15.2377 15.3031 15.5306L16.3638 14.4699ZM18.6364 18.8639C18.9293 19.1568 19.4041 19.1568 19.697 18.8639C19.9899 18.571 19.9899 18.0961 19.697 17.8032L18.6364 18.8639ZM15.3031 15.5306L18.6364 18.8639L19.697 17.8032L16.3638 14.4699L15.3031 15.5306ZM9.16675 15.0835C5.43883 15.0835 2.41675 12.0614 2.41675 8.3335H0.916748C0.916748 12.8898 4.6104 16.5835 9.16675 16.5835V15.0835ZM15.9167 8.3335C15.9167 12.0614 12.8947 15.0835 9.16675 15.0835V16.5835C13.7231 16.5835 17.4167 12.8898 17.4167 8.3335H15.9167ZM9.16675 1.5835C12.8947 1.5835 15.9167 4.60557 15.9167 8.3335H17.4167C17.4167 3.77715 13.7231 0.0834961 9.16675 0.0834961V1.5835ZM9.16675 0.0834961C4.6104 0.0834961 0.916748 3.77715 0.916748 8.3335H2.41675C2.41675 4.60557 5.43883 1.5835 9.16675 1.5835V0.0834961Z" fill="#ADA4A5"/>
</g>
<defs>
<clipPath id="clip0_367_10429">
<rect width="20" height="20" fill="white"/>
</clipPath>
</defs>
</svg>
