<svg width="20" height="20" viewBox="0 0 20 20" fill="none" xmlns="http://www.w3.org/2000/svg">
<path d="M4.94315 4.4886L4.7608 5.2161L4.94315 4.4886ZM7.75528 2.86502L7.03408 2.6592L7.75528 2.86502ZM2.69856 8.37635L3.23741 7.85468L2.69856 8.37635ZM2.69856 11.6235L2.15971 11.1018H2.15971L2.69856 11.6235ZM4.94315 15.5113L5.12551 16.2388L4.94315 15.5113ZM7.75528 17.1348L7.03408 17.3407L7.75528 17.1348ZM12.2445 17.1348L12.9657 17.3407L12.2445 17.1348ZM15.0566 15.5113L15.239 14.7838L15.0566 15.5113ZM17.3012 11.6235L16.7623 12.1452L17.3012 11.6235ZM17.3012 8.37635L16.7623 7.85468L17.3012 8.37635ZM15.0566 4.4886L14.8742 3.76111L15.0566 4.4886ZM12.2445 2.86502L12.9657 2.6592L12.2445 2.86502ZM4.7608 5.2161C6.37532 5.6208 8.01971 4.67141 8.47649 3.07084L7.03408 2.6592C6.79945 3.48133 5.95481 3.96898 5.12551 3.76111L4.7608 5.2161ZM3.23741 7.85468C2.12883 6.70959 3.21483 4.82858 4.7608 5.2161L5.12551 3.76111C2.11575 3.00668 0.00147104 6.66871 2.15971 8.89802L3.23741 7.85468ZM3.23741 12.1452C4.39515 10.9493 4.39515 9.05055 3.23741 7.85468L2.15971 8.89802C2.75439 9.51228 2.75439 10.4876 2.15971 11.1018L3.23741 12.1452ZM4.7608 14.7838C3.21483 15.1713 2.12883 13.2903 3.23741 12.1452L2.15971 11.1018C0.00147033 13.3312 2.11575 16.9932 5.12551 16.2388L4.7608 14.7838ZM8.47649 16.929C8.01971 15.3285 6.37532 14.3791 4.7608 14.7838L5.12551 16.2388C5.95481 16.0309 6.79945 16.5185 7.03408 17.3407L8.47649 16.929ZM11.5233 16.929C11.0859 18.4616 8.91387 18.4616 8.47649 16.929L7.03408 17.3407C7.8856 20.3244 12.1141 20.3244 12.9657 17.3407L11.5233 16.929ZM15.239 14.7838C13.6244 14.3791 11.98 15.3285 11.5233 16.929L12.9657 17.3407C13.2003 16.5185 14.0449 16.0309 14.8742 16.2388L15.239 14.7838ZM16.7623 12.1452C17.8709 13.2903 16.7849 15.1713 15.239 14.7838L14.8742 16.2388C17.884 16.9932 19.9983 13.3312 17.84 11.1018L16.7623 12.1452ZM16.7623 7.85468C15.6046 9.05055 15.6046 10.9493 16.7623 12.1452L17.84 11.1018C17.2454 10.4876 17.2454 9.51228 17.84 8.89802L16.7623 7.85468ZM15.239 5.2161C16.7849 4.82858 17.8709 6.70959 16.7623 7.85468L17.84 8.89802C19.9983 6.66871 17.884 3.00668 14.8742 3.76111L15.239 5.2161ZM11.5233 3.07084C11.98 4.67141 13.6244 5.6208 15.239 5.2161L14.8742 3.76111C14.0449 3.96898 13.2003 3.48133 12.9657 2.6592L11.5233 3.07084ZM12.9657 2.6592C12.1141 -0.32455 7.8856 -0.324549 7.03408 2.6592L8.47649 3.07084C8.91387 1.53824 11.0859 1.53824 11.5233 3.07084L12.9657 2.6592ZM6.74987 9.99993C6.74987 11.7949 8.20495 13.2499 9.99987 13.2499V11.7499C9.03337 11.7499 8.24987 10.9664 8.24987 9.99993H6.74987ZM9.99987 13.2499C11.7948 13.2499 13.2499 11.7949 13.2499 9.99993H11.7499C11.7499 10.9664 10.9664 11.7499 9.99987 11.7499V13.2499ZM13.2499 9.99993C13.2499 8.20501 11.7948 6.74993 9.99987 6.74993V8.24993C10.9664 8.24993 11.7499 9.03343 11.7499 9.99993H13.2499ZM9.99987 6.74993C8.20495 6.74993 6.74987 8.20501 6.74987 9.99993H8.24987C8.24987 9.03343 9.03337 8.24993 9.99987 8.24993V6.74993Z" fill="#51A966"/>
</svg>
