<svg width="20" height="20" viewBox="0 0 20 20" fill="none" xmlns="http://www.w3.org/2000/svg">
<path d="M17.316 11.5623L17.9252 11.9997L17.316 11.5623ZM17.316 8.438L16.7067 8.87538L17.316 8.438ZM2.68373 11.5623L3.29299 11.1249L2.68373 11.5623ZM2.68373 8.438L2.07447 8.00061L2.68373 8.438ZM1.94727 10.0002H1.19727H1.94727ZM2.07448 11.9997C2.80122 13.012 3.88521 14.346 5.21376 15.4338C6.53372 16.5145 8.17445 17.4168 9.99984 17.4168V15.9168C8.66963 15.9168 7.35958 15.2521 6.16403 14.2732C4.97706 13.3013 3.9808 12.083 3.29299 11.1249L2.07448 11.9997ZM9.99984 17.4168C11.8252 17.4168 13.466 16.5145 14.7859 15.4338C16.1145 14.346 17.1985 13.012 17.9252 11.9997L16.7067 11.1249C16.0189 12.083 15.0226 13.3013 13.8357 14.2732C12.6401 15.2521 11.3301 15.9168 9.99984 15.9168V17.4168ZM17.9252 8.00061C17.1985 6.98829 16.1145 5.65433 14.7859 4.56654C13.466 3.48578 11.8252 2.5835 9.99984 2.5835V4.0835C11.3301 4.0835 12.6401 4.74825 13.8357 5.72714C15.0226 6.699 16.0189 7.91729 16.7067 8.87538L17.9252 8.00061ZM9.99984 2.5835C8.17445 2.5835 6.53372 3.48578 5.21376 4.56654C3.88521 5.65433 2.80122 6.98829 2.07447 8.00061L3.29299 8.87538C3.9808 7.91729 4.97706 6.699 6.16403 5.72714C7.35958 4.74825 8.66963 4.0835 9.99984 4.0835V2.5835ZM17.9252 11.9997C18.3814 11.3643 18.8024 10.8215 18.8024 10.0002H17.3024C17.3024 10.2514 17.2325 10.3926 16.7067 11.1249L17.9252 11.9997ZM16.7067 8.87538C17.2325 9.60775 17.3024 9.7489 17.3024 10.0002H18.8024C18.8024 9.17882 18.3814 8.63606 17.9252 8.00061L16.7067 8.87538ZM3.29299 11.1249C2.76722 10.3926 2.69727 10.2514 2.69727 10.0002H1.19727C1.19727 10.8215 1.61829 11.3643 2.07448 11.9997L3.29299 11.1249ZM2.07447 8.00061C1.61829 8.63606 1.19727 9.17882 1.19727 10.0002H2.69727C2.69727 9.7489 2.76722 9.60775 3.29299 8.87538L2.07447 8.00061ZM6.74984 10.0002C6.74984 11.7951 8.20492 13.2502 9.99984 13.2502V11.7502C9.03334 11.7502 8.24984 10.9667 8.24984 10.0002H6.74984ZM9.99984 13.2502C11.7948 13.2502 13.2498 11.7951 13.2498 10.0002H11.7498C11.7498 10.9667 10.9663 11.7502 9.99984 11.7502V13.2502ZM13.2498 10.0002C13.2498 8.20524 11.7948 6.75016 9.99984 6.75016V8.25016C10.9663 8.25016 11.7498 9.03366 11.7498 10.0002H13.2498ZM9.99984 6.75016C8.20492 6.75016 6.74984 8.20524 6.74984 10.0002H8.24984C8.24984 9.03366 9.03334 8.25016 9.99984 8.25016V6.75016Z" fill="#ADA4A5"/>
</svg>
