<svg width="50" height="50" viewBox="0 0 50 50" fill="none" xmlns="http://www.w3.org/2000/svg">
<rect x="5" y="5" width="40" height="40" rx="20" fill="#51A966"/>
<rect x="2.5" y="2.5" width="45" height="45" rx="22.5" stroke="#51A966" stroke-opacity="0.25" stroke-width="5"/>
<path d="M29 24V30M25 20V30M21 26V30M25 34C21.2503 34 19.3754 34 18.0611 33.0451C17.6366 32.7367 17.2633 32.3634 16.9549 31.9389C16 30.6246 16 28.7497 16 25C16 21.2503 16 19.3754 16.9549 18.0611C17.2633 17.6366 17.6366 17.2633 18.0611 16.9549C19.3754 16 21.2503 16 25 16C28.7497 16 30.6246 16 31.9389 16.9549C32.3634 17.2633 32.7367 17.6366 33.0451 18.0611C34 19.3754 34 21.2503 34 25C34 28.7497 34 30.6246 33.0451 31.9389C32.7367 32.3634 32.3634 32.7367 31.9389 33.0451C30.6246 34 28.7497 34 25 34Z" stroke="white" stroke-width="1.5" stroke-linecap="round"/>
</svg>
