<svg width="20" height="20" viewBox="0 0 20 20" fill="none" xmlns="http://www.w3.org/2000/svg">
<g clip-path="url(#clip0_46_239)">
<path d="M8.90841 4.98613L8.19297 4.76109L8.90841 4.98613ZM7.14208 7.95037L7.59228 7.35052L7.14208 7.95037ZM7.55906 9.27602L8.2745 9.50106L7.55906 9.27602ZM9.32538 10.6017L8.87519 10.0018L9.32538 10.6017ZM10.6747 10.6017L11.1249 10.0018L10.6747 10.6017ZM12.4411 9.27602L11.7256 9.50106L12.4411 9.27602ZM12.858 7.95037L12.4078 7.35052L12.858 7.95037ZM11.0917 4.98613L11.8072 4.76109L11.0917 4.98613ZM8.22746 14.8593L7.57794 14.4843H7.57794L8.22746 14.8593ZM6.76366 17.3947L7.41318 17.7697L6.76366 17.3947ZM1.52541 14.3704L0.875891 13.9954L1.52541 14.3704ZM2.98921 11.835L3.63873 12.21L2.98921 11.835ZM5.19416 17.2603L4.48448 17.5029H4.48448L5.19416 17.2603ZM4.99096 16.6658L5.70064 16.4233L5.70064 16.4233L4.99096 16.6658ZM3.04295 15.5412L2.89821 14.8053H2.89821L3.04295 15.5412ZM2.42656 15.6624L2.5713 16.3983H2.5713L2.42656 15.6624ZM4.36843 15.4947L4.74343 14.8452H4.74343L4.36843 15.4947ZM1.06481 15.6712L0.449659 16.1002L1.06481 15.6712ZM8.65013 14.1101L8.05095 13.659L8.01495 13.7068L7.98699 13.7597L8.65013 14.1101ZM11.5407 14.8593L12.1903 14.4843L11.5407 14.8593ZM13.0045 17.3947L13.6541 17.0197L13.0045 17.3947ZM18.2428 14.3704L18.8923 13.9954L18.2428 14.3704ZM16.779 11.835L16.1295 12.21H16.1295L16.779 11.835ZM14.574 17.2603L15.2837 17.5029L14.574 17.2603ZM14.7772 16.6658L14.0676 16.4233V16.4233L14.7772 16.6658ZM16.7252 15.5412L16.87 14.8053H16.87L16.7252 15.5412ZM17.3416 15.6624L17.1969 16.3983L17.3416 15.6624ZM18.7034 15.6712L19.3185 16.1002H19.3185L18.7034 15.6712ZM11.1144 14.1032H10.3644V14.2888L10.4509 14.4529L11.1144 14.1032ZM4.02295 10.4562L3.35093 10.7892L4.02295 10.4562ZM8.70244 14.0406L8.8476 13.3048L8.70244 14.0406ZM11.1144 14.0741L10.99 13.3345L11.1144 14.0741ZM15.9272 10.5551L15.2608 10.2109L15.9272 10.5551ZM3.73461 10.6658L3.17101 10.171L3.73461 10.6658ZM4.0834 7.50016C4.0834 4.23248 6.73238 1.5835 10.0001 1.5835V0.0834961C5.90395 0.0834961 2.5834 3.40405 2.5834 7.50016H4.0834ZM10.0001 1.5835C13.2677 1.5835 15.9167 4.23248 15.9167 7.50016H17.4167C17.4167 3.40405 14.0962 0.0834961 10.0001 0.0834961V1.5835ZM7.81676 6.55542C8.65485 6.55542 9.37597 5.99926 9.62385 5.21116L8.19297 4.76109C8.13353 4.95007 7.97321 5.05542 7.81676 5.05542V6.55542ZM7.59228 7.35052C7.4309 7.2294 7.38043 7.0409 7.44055 6.84976C7.50013 6.66033 7.63789 6.55542 7.81676 6.55542V5.05542C5.93009 5.05542 5.25947 7.47518 6.69188 8.55022L7.59228 7.35052ZM8.2745 9.50106C8.52124 8.71661 8.25516 7.84802 7.59228 7.35052L6.69188 8.55022C6.8336 8.65658 6.9042 8.85837 6.84361 9.05098L8.2745 9.50106ZM8.87519 10.0018C8.72256 10.1164 8.56326 10.1047 8.42623 10.0018C8.28568 9.89634 8.20642 9.7175 8.2745 9.50106L6.84361 9.05098C6.56809 9.92694 6.92221 10.7485 7.52583 11.2015C8.13297 11.6572 9.02864 11.7621 9.77558 11.2015L8.87519 10.0018ZM11.1249 10.0018C10.4559 9.49969 9.54424 9.49969 8.87519 10.0018L9.77558 11.2015C9.91113 11.0998 10.089 11.0998 10.2245 11.2015L11.1249 10.0018ZM11.7256 9.50106C11.7937 9.7175 11.7144 9.89634 11.5739 10.0018C11.4369 10.1047 11.2776 10.1164 11.1249 10.0018L10.2245 11.2015C10.9715 11.7621 11.8672 11.6572 12.4743 11.2015C13.0779 10.7485 13.432 9.92694 13.1565 9.05098L11.7256 9.50106ZM12.4078 7.35052C11.745 7.84802 11.4789 8.71661 11.7256 9.50106L13.1565 9.05098C13.0959 8.85837 13.1665 8.65658 13.3082 8.55022L12.4078 7.35052ZM12.1834 6.55542C12.3622 6.55542 12.5 6.66033 12.5596 6.84976C12.6197 7.0409 12.5692 7.2294 12.4078 7.35052L13.3082 8.55022C14.7407 7.47518 14.07 5.05542 12.1834 5.05542V6.55542ZM10.3763 5.21116C10.6242 5.99926 11.3453 6.55542 12.1834 6.55542V5.05542C12.0269 5.05542 11.8666 4.95007 11.8072 4.76109L10.3763 5.21116ZM11.8072 4.76109C11.2434 2.96874 8.75674 2.96874 8.19297 4.76109L9.62385 5.21116C9.74729 4.81872 10.2528 4.81872 10.3763 5.21116L11.8072 4.76109ZM7.57794 14.4843L6.11414 17.0197L7.41318 17.7697L8.87697 15.2343L7.57794 14.4843ZM2.17493 14.7454L3.63873 12.21L2.33969 11.46L0.875891 13.9954L2.17493 14.7454ZM5.90384 17.0177L5.70064 16.4233L4.28128 16.9084L4.48448 17.5029L5.90384 17.0177ZM2.89821 14.8053L2.28181 14.9265L2.5713 16.3983L3.1877 16.2771L2.89821 14.8053ZM5.70064 16.4233C5.59173 16.1047 5.48863 15.7987 5.37079 15.5578C5.24385 15.2983 5.06071 15.0284 4.74343 14.8452L3.99343 16.1443C3.95298 16.1209 3.96587 16.0994 4.02336 16.217C4.08997 16.3531 4.15971 16.5528 4.28128 16.9084L5.70064 16.4233ZM3.1877 16.2771C3.55645 16.2045 3.76428 16.1651 3.9155 16.1547C4.04604 16.1457 4.03389 16.1676 3.99343 16.1443L4.74343 14.8452C4.42616 14.662 4.10081 14.6384 3.81259 14.6582C3.54506 14.6766 3.22856 14.7403 2.89821 14.8053L3.1877 16.2771ZM0.875891 13.9954C0.681888 14.3314 0.492939 14.655 0.384835 14.9237C0.283779 15.175 0.137887 15.6532 0.449659 16.1002L1.67997 15.2421C1.74778 15.3394 1.76378 15.4427 1.76091 15.5063C1.75893 15.55 1.74923 15.5512 1.77647 15.4835C1.80195 15.4201 1.84528 15.3311 1.91558 15.202C1.9851 15.0743 2.07025 14.9267 2.17493 14.7454L0.875891 13.9954ZM2.28181 14.9265C2.07847 14.9665 1.91337 14.9989 1.77198 15.023C1.6289 15.0473 1.533 15.059 1.46731 15.0623C1.39676 15.0658 1.40516 15.0568 1.45135 15.0709C1.51788 15.0913 1.61167 15.1442 1.67997 15.2421L0.449659 16.1002C0.765582 16.5532 1.27021 16.5739 1.5418 16.5604C1.82989 16.5461 2.19553 16.4722 2.5713 16.3983L2.28181 14.9265ZM6.11414 17.0197C6.00946 17.201 5.92423 17.3485 5.84839 17.4726C5.77171 17.598 5.71627 17.6801 5.67415 17.7338C5.62912 17.7913 5.62531 17.7823 5.6622 17.7587C5.71584 17.7244 5.81331 17.6866 5.93142 17.6967L5.80344 19.1912C6.34645 19.2377 6.6877 18.8723 6.85475 18.6591C7.03344 18.4311 7.21917 18.1057 7.41318 17.7697L6.11414 17.0197ZM4.48448 17.5029C4.60836 17.8653 4.72717 18.2189 4.85881 18.4755C4.98292 18.7175 5.25321 19.1441 5.80344 19.1912L5.93142 17.6967C6.05037 17.7069 6.14309 17.7617 6.19399 17.8091C6.22933 17.842 6.22573 17.8538 6.19349 17.791C6.16348 17.7324 6.12565 17.6435 6.0752 17.5075C6.02535 17.373 5.97088 17.2138 5.90384 17.0177L4.48448 17.5029ZM3.63873 12.21C3.99776 11.5882 4.15395 11.3249 4.29822 11.1606L3.17101 10.171C2.90428 10.4748 2.6624 10.9011 2.33969 11.46L3.63873 12.21ZM8.87697 15.2343C9.05159 14.9319 9.19865 14.6774 9.31327 14.4604L7.98699 13.7597C7.8885 13.9462 7.75778 14.1728 7.57794 14.4843L8.87697 15.2343ZM10.8912 15.2343L12.355 17.7697L13.6541 17.0197L12.1903 14.4843L10.8912 15.2343ZM18.8923 13.9954L17.4285 11.46L16.1295 12.21L17.5933 14.7454L18.8923 13.9954ZM15.2837 17.5029L15.4869 16.9084L14.0676 16.4233L13.8644 17.0177L15.2837 17.5029ZM16.5805 16.2771L17.1969 16.3983L17.4864 14.9265L16.87 14.8053L16.5805 16.2771ZM15.4869 16.9084C15.6085 16.5528 15.6782 16.3531 15.7448 16.217C15.8023 16.0994 15.8152 16.1209 15.7748 16.1443L15.0248 14.8452C14.7075 15.0284 14.5243 15.2983 14.3974 15.5578C14.2796 15.7987 14.1765 16.1047 14.0676 16.4233L15.4869 16.9084ZM16.87 14.8053C16.5396 14.7403 16.2231 14.6766 15.9556 14.6582C15.6674 14.6384 15.342 14.662 15.0248 14.8452L15.7748 16.1443C15.7343 16.1676 15.7221 16.1457 15.8527 16.1547C16.0039 16.1651 16.2117 16.2045 16.5805 16.2771L16.87 14.8053ZM17.5933 14.7454C17.6979 14.9267 17.7831 15.0743 17.8526 15.202C17.9229 15.3311 17.9662 15.4201 17.9917 15.4835C18.019 15.5512 18.0093 15.55 18.0073 15.5063C18.0044 15.4427 18.0204 15.3394 18.0882 15.2421L19.3185 16.1002C19.6303 15.6532 19.4844 15.175 19.3834 14.9237C19.2753 14.655 19.0863 14.3314 18.8923 13.9954L17.5933 14.7454ZM17.1969 16.3983C17.5727 16.4722 17.9383 16.5461 18.2264 16.5604C18.498 16.5739 19.0026 16.5532 19.3185 16.1002L18.0882 15.2421C18.1565 15.1442 18.2503 15.0913 18.3168 15.0709C18.363 15.0568 18.3714 15.0658 18.3009 15.0623C18.2352 15.059 18.1393 15.0473 17.9962 15.023C17.8548 14.9989 17.6897 14.9665 17.4864 14.9265L17.1969 16.3983ZM12.355 17.7697C12.549 18.1057 12.7347 18.4311 12.9134 18.6591C13.0805 18.8723 13.4217 19.2377 13.9647 19.1912L13.8368 17.6967C13.9549 17.6866 14.0524 17.7244 14.106 17.7587C14.1429 17.7823 14.1391 17.7913 14.094 17.7338C14.0519 17.6801 13.9965 17.598 13.9198 17.4726C13.844 17.3485 13.7587 17.201 13.6541 17.0197L12.355 17.7697ZM13.8644 17.0177C13.7973 17.2138 13.7428 17.373 13.693 17.5075C13.6425 17.6435 13.6047 17.7324 13.5747 17.791C13.5425 17.8538 13.5389 17.842 13.5742 17.8091C13.6251 17.7617 13.7178 17.7069 13.8368 17.6967L13.9647 19.1912C14.515 19.1441 14.7853 18.7175 14.9094 18.4755C15.041 18.2189 15.1598 17.8653 15.2837 17.5029L13.8644 17.0177ZM12.1903 14.4843C12.0083 14.1692 11.8767 13.941 11.778 13.7536L10.4509 14.4529C10.5662 14.6717 10.7147 14.9285 10.8912 15.2343L12.1903 14.4843ZM4.69497 10.1232C4.30369 9.33359 4.0834 8.44368 4.0834 7.50016H2.5834C2.5834 8.67982 2.85936 9.79718 3.35093 10.7892L4.69497 10.1232ZM10.0001 13.4168C9.60504 13.4168 9.21977 13.3782 8.8476 13.3048L8.55728 14.7764C9.02456 14.8686 9.50705 14.9168 10.0001 14.9168V13.4168ZM8.8476 13.3048C7.02394 12.945 5.49867 11.7452 4.69497 10.1232L3.35093 10.7892C4.35711 12.8198 6.26645 14.3245 8.55728 14.7764L8.8476 13.3048ZM9.24931 14.5612L9.30162 14.4917L8.10325 13.5895L8.05095 13.659L9.24931 14.5612ZM10.99 13.3345C10.6686 13.3886 10.3379 13.4168 10.0001 13.4168V14.9168C10.4216 14.9168 10.8356 14.8816 11.2389 14.8137L10.99 13.3345ZM11.8644 14.1032V14.0741H10.3644V14.1032H11.8644ZM15.9167 7.50016C15.9167 8.47866 15.6798 9.39963 15.2608 10.2109L16.5935 10.8992C17.1199 9.88015 17.4167 8.72373 17.4167 7.50016H15.9167ZM15.2608 10.2109C14.4215 11.836 12.852 13.0212 10.99 13.3345L11.2389 14.8137C13.5782 14.4201 15.543 12.9333 16.5935 10.8992L15.2608 10.2109ZM17.4285 11.46C17.0566 10.8159 16.7902 10.3385 16.4422 10.0098L15.4122 11.1003C15.5605 11.2404 15.7034 11.472 16.1295 12.21L17.4285 11.46ZM4.29822 11.1606C4.29263 11.167 4.29176 11.1662 4.30103 11.1597C4.3107 11.1528 4.32788 11.1422 4.35624 11.1281L3.68967 9.78435C3.53497 9.86109 3.33892 9.97973 3.17101 10.171L4.29822 11.1606Z" fill="#51A966"/>
</g>
<defs>
<clipPath id="clip0_46_239">
<rect width="20" height="20" fill="white"/>
</clipPath>
</defs>
</svg>
