<svg width="20" height="20" viewBox="0 0 20 20" fill="none" xmlns="http://www.w3.org/2000/svg">
<path d="M18.3332 8.33317C18.3332 5.99962 18.3332 4.83284 17.879 3.94154C17.4796 3.15753 16.8421 2.52012 16.0581 2.12064C15.1668 1.6665 14.0001 1.6665 11.6665 1.6665H8.33317C5.99962 1.6665 4.83284 1.6665 3.94154 2.12064C3.15753 2.52012 2.52012 3.15753 2.12064 3.94154C1.6665 4.83284 1.6665 5.99962 1.6665 8.33317V11.8568C1.6665 13.5926 3.07369 14.9998 4.80955 14.9998H5.31101C5.96026 14.9998 6.40421 15.6556 6.16309 16.2584C5.82269 17.1094 6.80275 17.8787 7.54857 17.346L9.72418 15.792C9.74637 15.7761 9.75747 15.7682 9.76837 15.7605C10.4634 15.2708 11.2916 15.0054 12.1418 14.9999C12.1551 14.9998 12.1687 14.9998 12.196 14.9998H12.6534C14.061 14.9998 14.7648 14.9998 15.3389 14.8315C16.7006 14.4322 17.7655 13.3673 18.1648 12.0055C18.3332 11.4314 18.3332 10.7276 18.3332 9.32002V8.33317Z" stroke="#51A966" stroke-width="1.5"/>
<path d="M7.49967 8.33333C7.49967 8.79357 7.12658 9.16667 6.66634 9.16667C6.2061 9.16667 5.83301 8.79357 5.83301 8.33333C5.83301 7.8731 6.2061 7.5 6.66634 7.5C7.12658 7.5 7.49967 7.8731 7.49967 8.33333Z" fill="#51A966"/>
<path d="M10.833 8.33333C10.833 8.79357 10.4599 9.16667 9.99967 9.16667C9.53944 9.16667 9.16634 8.79357 9.16634 8.33333C9.16634 7.8731 9.53944 7.5 9.99967 7.5C10.4599 7.5 10.833 7.8731 10.833 8.33333Z" fill="#51A966"/>
<path d="M14.1663 8.33333C14.1663 8.79357 13.7932 9.16667 13.333 9.16667C12.8728 9.16667 12.4997 8.79357 12.4997 8.33333C12.4997 7.8731 12.8728 7.5 13.333 7.5C13.7932 7.5 14.1663 7.8731 14.1663 8.33333Z" fill="#51A966"/>
</svg>
