<svg width="15" height="19" viewBox="0 0 15 19" fill="none" xmlns="http://www.w3.org/2000/svg">
<path d="M1.25 7C1.25 5.08034 1.25925 4.29839 1.45801 3.68668C1.87841 2.39282 2.89282 1.37841 4.18668 0.95801C4.79839 0.759253 5.58034 0.75 7.5 0.75C9.41966 0.75 10.2016 0.759253 10.8133 0.95801C12.1072 1.37841 13.1216 2.39282 13.542 3.68668C13.7407 4.29839 13.75 5.08034 13.75 7V14.3874C13.75 15.3588 13.7494 16.0425 13.7096 16.5486C13.6685 17.0701 13.592 17.268 13.5363 17.3506C13.2752 17.7376 12.8201 17.9469 12.3563 17.8933C12.2574 17.8818 12.0573 17.8111 11.6346 17.5029C11.2244 17.2038 10.705 16.7593 9.9674 16.1271C9.93387 16.0984 9.90081 16.07 9.86818 16.042C9.32607 15.5764 8.90332 15.2134 8.41618 15.0413C7.82335 14.8318 7.17665 14.8318 6.58382 15.0413C6.09668 15.2134 5.67393 15.5764 5.13182 16.042C5.09919 16.07 5.06613 16.0984 5.0326 16.1271C4.29499 16.7593 3.77558 17.2038 3.36535 17.5029C2.94269 17.8111 2.74261 17.8818 2.64367 17.8933C2.17986 17.9469 1.72482 17.7376 1.46372 17.3506C1.40802 17.268 1.3315 17.0701 1.29043 16.5486C1.25056 16.0425 1.25 15.3588 1.25 14.3874V7Z" stroke="#ADA4A5" stroke-width="1.5" stroke-linecap="round"/>
</svg>
