<svg width="20" height="20" viewBox="0 0 20 20" fill="none" xmlns="http://www.w3.org/2000/svg">
<path d="M5.3791 18.1292L5.61086 17.4159L5.3791 18.1292ZM2.70393 15.4541L3.41722 15.2223L2.70393 15.4541ZM17.2961 15.4541L16.5828 15.2223L17.2961 15.4541ZM14.6209 18.1292L14.3891 17.4159L14.6209 18.1292ZM14.6209 6.87044L14.3891 7.58373L14.6209 6.87044ZM17.2961 9.5456L16.5828 9.77736L17.2961 9.5456ZM5.3791 6.87044L5.61086 7.58373L5.3791 6.87044ZM2.70393 9.5456L3.41722 9.77736L2.70393 9.5456ZM12.0499 3.09946C12.3811 3.34827 12.8512 3.2815 13.1 2.95034C13.3488 2.61918 13.2821 2.14902 12.9509 1.90022L12.0499 3.09946ZM8.33333 7.4165H11.6667V5.9165H8.33333V7.4165ZM11.6667 17.5832H8.33333V19.0832H11.6667V17.5832ZM8.33333 17.5832C6.72389 17.5832 6.09704 17.5739 5.61086 17.4159L5.14733 18.8425C5.91642 19.0924 6.84064 19.0832 8.33333 19.0832V17.5832ZM1.75 12.4998C1.75 13.9925 1.74075 14.9167 1.99064 15.6858L3.41722 15.2223C3.25925 14.7361 3.25 14.1093 3.25 12.4998H1.75ZM5.61086 17.4159C4.5707 17.078 3.75519 16.2625 3.41722 15.2223L1.99064 15.6858C2.47698 17.1827 3.65051 18.3562 5.14733 18.8425L5.61086 17.4159ZM16.75 12.4998C16.75 14.1093 16.7407 14.7361 16.5828 15.2223L18.0094 15.6858C18.2593 14.9167 18.25 13.9925 18.25 12.4998H16.75ZM11.6667 19.0832C13.1594 19.0832 14.0836 19.0924 14.8527 18.8425L14.3891 17.4159C13.903 17.5739 13.2761 17.5832 11.6667 17.5832V19.0832ZM16.5828 15.2223C16.2448 16.2625 15.4293 17.078 14.3891 17.4159L14.8527 18.8425C16.3495 18.3562 17.523 17.1827 18.0094 15.6858L16.5828 15.2223ZM11.6667 7.4165C13.2761 7.4165 13.903 7.42576 14.3891 7.58373L14.8527 6.15714C14.0836 5.90725 13.1594 5.9165 11.6667 5.9165V7.4165ZM18.25 12.4998C18.25 11.0071 18.2593 10.0829 18.0094 9.31384L16.5828 9.77736C16.7407 10.2635 16.75 10.8904 16.75 12.4998H18.25ZM14.3891 7.58373C15.4293 7.9217 16.2448 8.7372 16.5828 9.77736L18.0094 9.31384C17.523 7.81702 16.3495 6.64349 14.8527 6.15714L14.3891 7.58373ZM3.25 12.4998C3.25 10.8904 3.25925 10.2635 3.41722 9.77736L1.99064 9.31384C1.74075 10.0829 1.75 11.0071 1.75 12.4998H3.25ZM5.14733 6.15714C3.65051 6.64349 2.47699 7.81702 1.99064 9.31384L3.41722 9.77736C3.75519 8.7372 4.5707 7.9217 5.61086 7.58373L5.14733 6.15714ZM6.58333 6.6665V5.83317H5.08333V6.6665H6.58333ZM10 0.916504C7.2846 0.916504 5.08333 3.11777 5.08333 5.83317H6.58333C6.58333 3.9462 8.11303 2.4165 10 2.4165V0.916504ZM10 2.4165C10.7702 2.4165 11.4789 2.67044 12.0499 3.09946L12.9509 1.90022C12.129 1.28272 11.1062 0.916504 10 0.916504V2.4165ZM7.58333 12.4998C7.58333 13.8345 8.66531 14.9165 10 14.9165V13.4165C9.49374 13.4165 9.08333 13.0061 9.08333 12.4998H7.58333ZM10 14.9165C11.3347 14.9165 12.4167 13.8345 12.4167 12.4998H10.9167C10.9167 13.0061 10.5063 13.4165 10 13.4165V14.9165ZM12.4167 12.4998C12.4167 11.1651 11.3347 10.0832 10 10.0832V11.5832C10.5063 11.5832 10.9167 11.9936 10.9167 12.4998H12.4167ZM10 10.0832C8.66531 10.0832 7.58333 11.1651 7.58333 12.4998H9.08333C9.08333 11.9936 9.49374 11.5832 10 11.5832V10.0832ZM8.33333 5.9165C7.16214 5.9165 6.34863 5.91389 5.70874 6.02169L5.95793 7.50085C6.44303 7.41912 7.10176 7.4165 8.33333 7.4165V5.9165ZM5.70874 6.02169C5.51379 6.05453 5.32846 6.09829 5.14733 6.15714L5.61086 7.58373C5.71273 7.55063 5.82543 7.52317 5.95793 7.50085L5.70874 6.02169ZM5.08333 6.6665V6.76127H6.58333V6.6665H5.08333Z" fill="#ADA4A5"/>
</svg>
